<svg xmlns="http://www.w3.org/2000/svg" width="142" height="48" viewBox="0 0 142 48"><path fill="#FFF" fill-rule="evenodd" d="M0 5.76v36.48A5.76 5.76 0 0 0 5.76 48h130.48a5.76 5.76 0 0 0 5.76-5.76V5.76A5.76 5.76 0 0 0 136.24 0H5.76A5.76 5.76 0 0 0 0 5.76zm50.95 10.375H49.76l-.652-2.046H46.84l-.622 2.046h-1.16l2.247-6.968h1.387l2.258 6.968zm-2.04-2.905h-1.874l.58-1.82c.155-.578.258-1.012.331-1.312h.021c.176.693.29 1.126.352 1.313l.59 1.82zm7.658-2.119l-1.905 5.024h-1.087l-1.844-5.024h1.202l.86 2.657c.145.445.268.869.361 1.271h.031c.083-.36.207-.785.362-1.27l.849-2.658h1.171zm4.057 5.024l-.084-.578h-.03c-.342.466-.84.692-1.47.692-.901 0-1.543-.63-1.543-1.478 0-1.24 1.076-1.882 2.94-1.882v-.092c0-.662-.352-.993-1.046-.993-.497 0-.932.125-1.314.373l-.227-.734c.466-.29 1.045-.435 1.73-.435 1.314 0 1.977.693 1.977 2.079v1.85c0 .507.021.9.073 1.2l-1.006-.002zm-.156-2.502c-1.243 0-1.864.3-1.864 1.013 0 .527.321.785.766.785.57 0 1.098-.433 1.098-1.022v-.776zm3.58-3.35a.656.656 0 0 1-.663-.671c0-.383.3-.662.684-.662.383 0 .693.28.682.662 0 .403-.289.672-.704.672zm-.539.828h1.119v5.024H63.51v-5.024zm3.105-2.305h1.118v7.33h-1.118v-7.33zm5.87 7.33l-.084-.579h-.03c-.342.466-.839.692-1.47.692-.9 0-1.543-.63-1.543-1.478 0-1.24 1.076-1.882 2.94-1.882v-.092c0-.662-.352-.993-1.045-.993-.497 0-.933.125-1.315.373l-.228-.735c.466-.29 1.046-.435 1.73-.435 1.314 0 1.978.693 1.978 2.078v1.85c0 .508.022.901.07 1.2h-1.003zm-.156-2.503c-1.243 0-1.864.3-1.864 1.013 0 .527.322.785.766.785.57 0 1.098-.433 1.098-1.022v-.776zm5.618 2.616c-.713 0-1.24-.3-1.583-.89h-.021l-.064.776h-.952c.03-.402.04-.858.04-1.354V8.806h1.12v3.04h.021c.332-.558.87-.837 1.605-.837 1.212 0 2.06 1.035 2.06 2.543 0 1.56-.942 2.697-2.226 2.697zm-.227-4.363c.797 0 1.316.693 1.317 1.707 0 1.085-.5 1.767-1.337 1.767-.683 0-1.212-.569-1.212-1.261v-.88c0-.775.589-1.333 1.232-1.333zm4.109-3.08h1.117v7.33h-1.117v-7.33zm7.202 5.086h-3.356c.022.951.651 1.488 1.583 1.488a3.78 3.78 0 0 0 1.357-.237l.174.775c-.476.207-1.035.31-1.687.31-1.575 0-2.506-.993-2.506-2.532 0-1.54.954-2.699 2.381-2.699 1.283 0 2.092.952 2.092 2.389a2.15 2.15 0 0 1-.038.506zm-1.024-.796c0-.775-.395-1.323-1.11-1.323-.642 0-1.148.558-1.222 1.323h2.332zm7.8 3.153c-1.47 0-2.422-1.096-2.422-2.584 0-1.551.973-2.657 2.507-2.657 1.448 0 2.423 1.044 2.423 2.575 0 1.57-1.005 2.666-2.507 2.666zm.043-4.425c.787 0 1.304.765 1.304 1.788 0 1.003-.528 1.81-1.314 1.81-.787 0-1.315-.755-1.315-1.789 0-1.055.518-1.809 1.325-1.809zm8.476 4.311h-1.116v-2.884c0-.889-.343-1.334-1.016-1.334-.663 0-1.12.569-1.12 1.23v2.988H99.96v-3.587c0-.445-.013-.92-.043-1.438h.984l.052.776h.032c.298-.537.91-.879 1.594-.879 1.054 0 1.748.807 1.748 2.119v3.01zm7.315-4.186h-1.23v2.44c0 .62.217.93.65.93.197 0 .365-.02.498-.052l.03.848c-.217.083-.508.125-.868.125-.882 0-1.407-.486-1.407-1.758V11.95h-.733v-.838h.733v-.92l1.097-.331v1.25h1.23v.839zm5.921 4.186h-1.119v-2.863c0-.9-.342-1.354-1.015-1.354-.579 0-1.117.393-1.117 1.189v3.028h-1.119V8.806h1.12v3.018h.02c.352-.547.86-.817 1.513-.817 1.065 0 1.717.827 1.717 2.14v2.988zm5.713-2.243h-3.355c.021.951.65 1.488 1.583 1.488.5 0 .954-.083 1.355-.237l.175.775c-.475.207-1.035.31-1.688.31-1.573 0-2.505-.993-2.505-2.532 0-1.54.953-2.699 2.38-2.699 1.284 0 2.093.952 2.093 2.389.004.196-.007.372-.038.506zm-1.025-.796c0-.775-.393-1.323-1.107-1.323-.643 0-1.15.558-1.223 1.323h2.33zm-66.053 22.29h-2.423l-1.327-4.164h-4.613l-1.264 4.165h-2.36l4.572-14.177h2.823l4.592 14.177zm-4.15-5.91l-1.2-3.702c-.127-.379-.366-1.27-.716-2.671h-.043c-.14.603-.366 1.493-.674 2.671l-1.18 3.701h3.813zm15.884.674c0 1.738-.473 3.112-1.42 4.121-.847.898-1.9 1.347-3.155 1.347-1.356 0-2.331-.483-2.923-1.451v5.364h-2.275V28.524c0-1.092-.029-2.212-.084-3.36h2l.127 1.621h.043c.758-1.222 1.91-1.832 3.454-1.832 1.208 0 2.216.476 3.023 1.43.805.955 1.21 2.21 1.21 3.767zm-2.318.083c0-.995-.224-1.816-.674-2.461-.492-.672-1.152-1.01-1.98-1.01-.561 0-1.071.187-1.527.558a2.577 2.577 0 0 0-.895 1.463c-.07.28-.106.509-.106.69v1.707c0 .741.229 1.369.685 1.882.457.511 1.05.768 1.78.768.857 0 1.523-.331 2-.988.478-.66.717-1.53.717-2.61zm14.093-.083c0 1.738-.473 3.112-1.42 4.121-.848.898-1.9 1.347-3.156 1.347-1.355 0-2.33-.483-2.923-1.451v5.364h-2.275V28.524c0-1.092-.029-2.212-.084-3.36h2l.127 1.621h.043c.757-1.222 1.908-1.832 3.454-1.832 1.207 0 2.216.476 3.024 1.43.804.955 1.21 2.21 1.21 3.767zm-2.319.083c0 1.08-.239 1.95-.717 2.609-.476.657-1.142.988-2 .988-.732 0-1.325-.258-1.782-.768-.454-.513-.684-1.14-.684-1.882v-1.707c0-.181.038-.41.107-.69a2.58 2.58 0 0 1 .894-1.463c.458-.37.968-.558 1.529-.558.828 0 1.487.338 1.978 1.01.45.645.675 1.466.675 2.46zm15.484 1.178c0 1.206-.422 2.187-1.262 2.944-.924.827-2.214 1.241-3.868 1.241-1.528 0-2.752-.294-3.676-.883l.526-1.893c.997.59 2.093.884 3.286.884.857 0 1.524-.193 2-.578.478-.387.718-.901.718-1.545 0-.576-.198-1.06-.591-1.453-.394-.39-1.044-.757-1.958-1.092-2.486-.925-3.73-2.28-3.73-4.06 0-1.164.44-2.116 1.316-2.861.877-.744 2.04-1.115 3.486-1.115 1.292 0 2.369.224 3.223.673l-.57 1.851c-.805-.434-1.713-.652-2.728-.652-.803 0-1.433.198-1.882.59-.379.35-.572.777-.572 1.284 0 .56.219 1.024.655 1.387.378.337 1.067.702 2.063 1.094 1.223.493 2.12 1.066 2.696 1.724.58.658.868 1.48.868 2.46zm7.54-4.543h-2.508v4.964c0 1.262.442 1.892 1.327 1.892.407 0 .744-.034 1.01-.106l.064 1.725c-.449.167-1.039.251-1.768.251-.9 0-1.6-.275-2.108-.821-.506-.548-.759-1.465-.759-2.756v-5.153h-1.493V25.16h1.493v-1.872l2.234-.673v2.545h2.507v1.708zm11.289 3.323c0 1.571-.45 2.861-1.349 3.87-.94 1.038-2.19 1.557-3.749 1.557-1.504 0-2.7-.498-3.592-1.493-.892-.995-1.338-2.25-1.338-3.763 0-1.585.462-2.882 1.38-3.891.92-1.009 2.16-1.515 3.718-1.515 1.503 0 2.709.5 3.623 1.494.873.966 1.307 2.211 1.307 3.741zm-2.358.052c0 .939-.21 1.747-.627 2.436-.494.822-1.176 1.237-2.044 1.237-.89 0-1.576-.405-2.068-1.218-.409-.67-.61-1.475-.61-2.412 0-.965.201-1.782.61-2.455.475-.811 1.176-1.216 2.086-1.216.883 0 1.567.405 2.044 1.216.406.673.609 1.476.609 2.412zm9.754-3.082a3.966 3.966 0 0 0-.717-.061c-.8 0-1.418.299-1.854.904-.379.533-.567 1.206-.567 2.019v5.364h-2.275v-7.004c0-1.177-.022-2.252-.066-3.218h1.981l.083 1.956h.063c.241-.672.62-1.215 1.138-1.62a2.75 2.75 0 0 1 1.644-.548c.21 0 .4.016.568.042l.002 2.166zm10.173 2.63c0 .408-.027.75-.083 1.03h-6.823c.025 1.01.356 1.784.99 2.317.574.475 1.319.713 2.231.713 1.01 0 1.932-.16 2.761-.483l.356 1.576c-.968.421-2.113.632-3.432.632-1.587 0-2.833-.466-3.74-1.397-.904-.933-1.358-2.186-1.358-3.755 0-1.54.42-2.824 1.265-3.847.883-1.093 2.077-1.64 3.58-1.64 1.475 0 2.592.547 3.35 1.64.601.866.903 1.94.903 3.215zm-2.169-.589l-4.737-.002c.07-.684.295-1.275.673-1.766.461-.618 1.066-.926 1.81-.926.813 0 1.419.316 1.812.948.309.493.458 1.072.442 1.746zm-96.014-6.3c.037 4.114 3.606 5.475 3.649 5.489-.021.096-.56 1.965-1.898 3.86-1.118 1.67-2.29 3.303-4.15 3.33-1.807.043-2.416-1.06-4.488-1.06-2.093 0-2.74 1.033-4.474 1.103-1.772.065-3.126-1.781-4.284-3.437-2.317-3.378-4.12-9.52-1.702-13.698 1.171-2.05 3.307-3.37 5.59-3.405 1.775-.036 3.42 1.196 4.511 1.196 1.07 0 3.105-1.474 5.203-1.254.878.026 3.377.347 4.989 2.694-.13.077-2.977 1.748-2.946 5.181zm-3.414-10.098c-.973 1.147-2.53 2.023-4.045 1.91-.199-1.546.57-3.191 1.43-4.195.971-1.139 2.659-2.011 4.009-2.07.177 1.607-.461 3.19-1.394 4.355z"/></svg>