<svg xmlns="http://www.w3.org/2000/svg" width="142" height="48" viewBox="0 0 142 48"><path fill="#FFF" fill-rule="evenodd" d="M0 5.76A5.76 5.76 0 0 1 5.76 0h130.48A5.76 5.76 0 0 1 142 5.76v36.48a5.76 5.76 0 0 1-5.76 5.76H5.76A5.76 5.76 0 0 1 0 42.24V5.76zm50.245 20.814h-6.642v1.967h4.71c-.232 2.758-2.532 3.934-4.702 3.934-2.777 0-5.2-2.18-5.2-5.236 0-2.977 2.31-5.27 5.206-5.27 2.235 0 3.551 1.421 3.551 1.421l1.38-1.426s-1.77-1.968-5.001-1.968c-4.114 0-7.296 3.465-7.296 7.208 0 3.667 2.993 7.243 7.4 7.243 3.877 0 6.714-2.65 6.714-6.57 0-.826-.12-1.304-.12-1.304v.001zm5.646-1.425c-2.726 0-4.679 2.127-4.679 4.607 0 2.516 1.895 4.683 4.71 4.683 2.55 0 4.638-1.945 4.638-4.629 0-3.076-2.43-4.66-4.67-4.66zm.027 1.825c1.34 0 2.61 1.081 2.61 2.824 0 1.705-1.265 2.817-2.616 2.817-1.486 0-2.657-1.187-2.657-2.83 0-1.61 1.157-2.811 2.663-2.811zm10.258-1.825c-2.725 0-4.678 2.127-4.678 4.607 0 2.516 1.894 4.683 4.71 4.683 2.55 0 4.638-1.945 4.638-4.629 0-3.076-2.43-4.66-4.67-4.66zm.027 1.825c1.34 0 2.61 1.081 2.61 2.824 0 1.705-1.264 2.817-2.616 2.817-1.485 0-2.657-1.187-2.657-2.83 0-1.61 1.157-2.811 2.663-2.811zm10.047-1.82c-2.5 0-4.467 2.187-4.467 4.641 0 2.796 2.28 4.65 4.424 4.65 1.327 0 2.032-.526 2.553-1.129v.916c0 1.602-.975 2.562-2.447 2.562-1.421 0-2.134-1.055-2.382-1.654l-1.789.747c.635 1.339 1.912 2.735 4.186 2.735 2.487 0 4.383-1.563 4.383-4.843v-8.345H78.76v.786c-.6-.645-1.42-1.066-2.51-1.066zm.182 1.821c1.226 0 2.485 1.045 2.485 2.83 0 1.814-1.256 2.814-2.513 2.814-1.333 0-2.574-1.08-2.574-2.797 0-1.783 1.289-2.847 2.602-2.847zm13.365-1.832c-2.36 0-4.341 1.874-4.341 4.639 0 2.925 2.208 4.66 4.567 4.66 1.97 0 3.178-1.075 3.899-2.038l-1.609-1.069c-.417.647-1.115 1.28-2.28 1.28-1.308-.001-1.91-.716-2.282-1.409l6.24-2.584-.324-.757c-.603-1.483-2.01-2.722-3.87-2.722zm9.09-.306v9.33h2.05v-4.969h2.909c2.403 0 4.37-1.962 4.37-4.36 0-2.4-1.967-4.362-4.37-4.362h-4.958v4.361zm-9.009 2.093c.85 0 1.462.45 1.722.992l-4.167 1.738c-.18-1.346 1.098-2.73 2.445-2.73zm-7.602 7.236v-13.69h2.05v13.69h-2.05zm27.481 0v-13.69h2.05v13.69h-2.05zm17.074-.381l-2.13 4.837h2.24l5.934-13.479h-2.239l-2.685 6.1-2.686-6.1h-2.239l3.805 8.642zm-25.894-11.263h2.909a2.33 2.33 0 0 1 2.32 2.315 2.33 2.33 0 0 1-2.32 2.316h-2.909v-4.63zm19.259 7.687c-.263 1.138-1.147 1.957-2.269 2.262-2.37.645-2.96-3.198.563-2.67.604.073 1.132.223 1.706.408zm0 3.957v-1.105c-.473.561-1.05.995-1.781 1.195-1.301.353-2.884.214-3.849-.821-.618-.665-.816-1.756-.7-2.64.214-1.637 1.564-2.637 3.141-2.796 1.01-.102 2.116.094 3.14.365-.224-2.232-3.63-2.711-4.823-.628l-1.65-1.105c2.441-3.66 8.892-2.466 8.571 2.612v4.923h-2.05zM43.034 12.147s.055.217.055.593c0 1.784-1.292 2.99-3.056 2.99a3.335 3.335 0 0 1-3.368-3.297c0-1.703 1.448-3.28 3.32-3.28 1.47 0 2.277.896 2.277.896l-.628.65s-.6-.648-1.616-.648c-1.318 0-2.37 1.044-2.37 2.399a2.355 2.355 0 0 0 2.367 2.383c.988 0 2.034-.536 2.14-1.79h-2.144v-.896h3.023zm12.354 3.455v-6.23h.932v6.23h-.932zm-5.224 0v-5.3h-1.531v-.93h3.995v.93h-1.531v5.3h-.933zm-6.092 0v-6.23h3.577v.93h-2.644v1.72h2.326v.93h-2.326v1.72h2.644v.93h-3.577zm14.539 0v-5.3H57.08v-.93h3.995v.93h-1.531v5.3h-.933zm8.184-6.448c-1.872 0-3.32 1.576-3.32 3.28 0 1.655 1.34 3.27 3.32 3.295a3.334 3.334 0 0 0 3.32-3.296c0-1.703-1.448-3.28-3.32-3.28zm0 5.678a2.354 2.354 0 0 1-2.337-2.382c0-1.344 1.034-2.382 2.337-2.398 1.303.016 2.337 1.054 2.337 2.398a2.354 2.354 0 0 1-2.337 2.382zm4.252.77v-6.23h.933l2.994 4.536V9.372h.933v6.23h-.931l-2.996-4.538v4.538h-.933zm-59.852 1.322l10.54 10.503L11.246 38.02c-.306-.193-.47-.614-.473-1.157l-.095-18.804c-.003-.594.214-.957.517-1.136zm14.015 6.993l-12.816-6.978a1.288 1.288 0 0 0-.447-.14l10.224 10.188 3.04-3.07zm.57 6.666l-3.17-3.159 3.167-3.199 4.361 2.375c1.075.584.525 1.316 0 1.602l-4.358 2.381zm-13.665 7.442a2.2 2.2 0 0 0 .28-.13l12.818-7.002-3.04-3.029-10.058 10.16z"/></svg>