<?xml version="1.0" encoding="UTF-8"?>
<svg width="38px" height="38px" viewBox="0 0 38 38" version="1.1" xmlns="http://www.w3.org/2000/svg" xmlns:xlink="http://www.w3.org/1999/xlink">
    <!-- Generator: Sketch 46.2 (44496) - http://www.bohemiancoding.com/sketch -->
    <title>btn_topbar_fb_on</title>
    <desc>Created with Sketch.</desc>
    <defs>
        <polygon id="path-1" points="3.50109409e-05 0.0252778993 15.9747221 0.0252778993 15.9747221 15.9978993 3.50109409e-05 15.9978993"></polygon>
    </defs>
    <g id="DESIGN" stroke="none" stroke-width="1" fill="none" fill-rule="evenodd">
        <g id="CONOCENOS" transform="translate(-617.000000, -4317.000000)">
            <g id="CambridgeUniversityPress" transform="translate(149.000000, 2769.000000)">
                <g id="btn_topbar_ig_on" transform="translate(471.000000, 1551.000000)">
                    <circle id="Oval-3-Copy-3" fill="#FFFFFF" cx="16" cy="16" r="13"></circle>
                    <g id="Instagram-icon-black" stroke-width="1" transform="translate(8.000000, 8.000000)">
                        <g id="Group-3">
                            <mask id="mask-2" fill="white">
                                <use xlink:href="#path-1"></use>
                            </mask>
                            <g id="Clip-2"></g>
                            <path d="M7.98739606,0.0252078775 C5.81815317,0.0252078775 5.54615317,0.034345733 4.69423195,0.0732778993 C3.84402626,0.112105033 3.26340481,0.247107221 2.75539606,0.444533917 C2.23012691,0.648647702 1.78468271,0.921768053 1.34063895,1.36581182 C0.896595186,1.80985558 0.623474836,2.25533479 0.419396061,2.78056893 C0.221864333,3.2886477 0.0868621444,3.86926915 0.0481050328,4.71943982 C0.00920787746,5.57136105 3.50109409e-05,5.84332604 3.50109409e-05,8.01256893 C3.50109409e-05,10.1818818 0.00920787746,10.4538468 0.0481050328,11.3057681 C0.0868621444,12.1559387 0.221864333,12.7365602 0.419396061,13.2446389 C0.623474836,13.7698731 0.896595186,14.2153523 1.34063895,14.6593961 C1.78468271,15.1034398 2.23012691,15.3765602 2.75539606,15.580674 C3.26340481,15.7781007 3.84402626,15.9131028 4.69423195,15.95193 C5.54615317,15.9907921 5.81815317,16 7.98739606,16 C10.1566389,16 10.428674,15.9907921 11.2805952,15.95193 C12.1307659,15.9131028 12.7113873,15.7781007 13.2194311,15.580674 C13.7447002,15.3765602 14.1901094,15.1034398 14.6341532,14.6593961 C15.0781969,14.2153523 15.3513173,13.7698731 15.5554311,13.2446389 C15.7529278,12.7365602 15.88793,12.1559387 15.9267221,11.3057681 C15.9656193,10.4538468 15.9747571,10.1818818 15.9747571,8.01256893 C15.9747571,5.84332604 15.9656193,5.57136105 15.9267221,4.71943982 C15.88793,3.86926915 15.7529278,3.2886477 15.5554311,2.78056893 C15.3513173,2.25533479 15.0781969,1.80985558 14.6341532,1.36581182 C14.1901094,0.921768053 13.7447002,0.648647702 13.2194311,0.444533917 C12.7113873,0.247107221 12.1307659,0.112105033 11.2805952,0.0732778993 C10.428674,0.034345733 10.1566389,0.0252078775 7.98739606,0.0252078775 M7.98739606,1.46436761 C10.1201225,1.46436761 10.3726915,1.47249015 11.2149847,1.51089716 C11.993733,1.54643326 12.4166652,1.67660394 12.6981182,1.78594311 C13.0709847,1.93085339 13.3370678,2.10394748 13.6165252,2.38343982 C13.8960875,2.66296718 14.0691816,2.92901532 14.2140219,3.30184683 C14.3233611,3.58329978 14.4535317,4.00626696 14.4890678,4.78498031 C14.5274748,5.62727352 14.5356324,5.87984245 14.5356324,8.01256893 C14.5356324,10.1453654 14.5274748,10.3979344 14.4890678,11.2401575 C14.4535317,12.0189409 14.3233611,12.4419081 14.2140219,12.7233611 C14.0691816,13.0961575 13.8960875,13.3622407 13.6165252,13.6417681 C13.3370678,13.9212604 13.0709847,14.0943545 12.6981182,14.2392298 C12.4166652,14.3486039 11.993733,14.4787746 11.2149847,14.5142407 C10.3728315,14.5527177 10.1202976,14.5608053 7.98739606,14.5608053 C5.85449453,14.5608053 5.60196061,14.5527177 4.75980744,14.5142407 C3.98109409,14.4787746 3.55812691,14.3486039 3.27667396,14.2392298 C2.90384245,14.0943545 2.6377593,13.9212604 2.35826696,13.6417681 C2.07880963,13.3622407 1.90571554,13.0961575 1.76080525,12.7233611 C1.65143107,12.4419081 1.5212954,12.0189409 1.48572429,11.2401575 C1.4473523,10.3979344 1.43919475,10.1453654 1.43919475,8.01256893 C1.43919475,5.87984245 1.4473523,5.62727352 1.48572429,4.78498031 C1.5212954,4.00626696 1.65143107,3.58329978 1.76080525,3.30184683 C1.90571554,2.92901532 2.07880963,2.66296718 2.35826696,2.38343982 C2.6377593,2.10394748 2.90384245,1.93085339 3.27667396,1.78594311 C3.55812691,1.67660394 3.98109409,1.54643326 4.75980744,1.51089716 C5.60210066,1.47249015 5.85466958,1.46436761 7.98739606,1.46436761" id="Fill-1" fill="#026597" mask="url(#mask-2)"></path>
                        </g>
                        <path d="M8,10.596496 C6.56599973,10.596496 5.40347583,9.43401122 5.40347583,7.99998293 C5.40347583,6.56598878 6.56599973,5.40350398 8,5.40350398 C9.43403442,5.40350398 10.5965242,6.56598878 10.5965242,7.99998293 C10.5965242,9.43401122 9.43403442,10.596496 8,10.596496 M8,4 C5.79086998,4 4,5.79089648 4,7.99998293 C4,10.2091718 5.79086998,12 8,12 C10.20913,12 12,10.2091718 12,7.99998293 C12,5.79089648 10.20913,4 8,4" id="Fill-4" fill="#026597"></path>
                        <path d="M12,3.5 C12,3.77612595 11.7761442,4 11.5,4 C11.2238741,4 11,3.77612595 11,3.5 C11,3.22385579 11.2238741,3 11.5,3 C11.7761442,3 12,3.22385579 12,3.5" id="Fill-5" fill="#026597"></path>
                    </g>
                </g>
            </g>
        </g>
    </g>
</svg>