<?xml version="1.0" encoding="UTF-8"?>
<svg width="26px" height="26px" viewBox="0 0 26 26" version="1.1" xmlns="http://www.w3.org/2000/svg" xmlns:xlink="http://www.w3.org/1999/xlink">
    <!-- Generator: Sketch 46.2 (44496) - http://www.bohemiancoding.com/sketch -->
    <title>btn_topbar_yt</title>
    <desc>Created with Sketch.</desc>
    <defs></defs>
    <g id="Symbols" stroke="none" stroke-width="1" fill="none" fill-rule="evenodd">
        <g id="TOP-BAR" transform="translate(-974.000000, -11.000000)">
            <g id="RRSS" transform="translate(905.000000, 8.000000)">
                <g id="TOPBAR/RRSS/ICONS" transform="translate(66.000000, 0.000000)">
                    <g id="btn_topbar_yt">
                        <circle id="Oval-3" fill="#4A4A4A" cx="16" cy="16" r="13"></circle>
                        <path d="M23.7233541,11.9308055 C23.5274315,11.0144327 22.8314832,10.3393158 21.9934961,10.2386814 C20.0097027,10.0000913 18.0015479,9.99920266 16.002477,10.0000913 C14.0031997,9.99920266 11.9944256,10.0000913 10.0104257,10.2386814 C9.17347091,10.3393158 8.47731611,11.0144327 8.28221934,11.9308055 C8.00330323,13.2341654 8,14.6574868 8,15.9999452 C8,17.3424036 8,18.7663915 8.27912257,20.0697513 C8.47421933,20.9852356 9.17016769,21.661241 10.0081547,21.7618754 C11.9919482,21.9997991 13.9998965,22.0013542 15.9991738,21.9997991 C17.9992769,22.0013542 20.0072252,21.9997991 21.9903993,21.7618754 C22.8281799,21.661241 23.5241283,20.9852356 23.7202573,20.0697513 C23.9991734,18.7663915 23.9999992,17.3424036 23.9999992,15.9999452 C23.9999992,14.6574868 24.0024767,13.2341654 23.7233541,11.9308055 Z M14,19 L14,13 C15.6663961,14.0031605 17.3224419,14.9990636 19,16.0087791 C17.3273126,17.0091303 15.6710638,18.0003512 14,19 Z" id="Fill-1" fill="#1E1E1E"></path>
                    </g>
                </g>
            </g>
        </g>
    </g>
</svg>