<?xml version="1.0" encoding="UTF-8"?>
<svg width="26px" height="26px" viewBox="0 0 26 26" version="1.1" xmlns="http://www.w3.org/2000/svg" xmlns:xlink="http://www.w3.org/1999/xlink">
    <!-- Generator: Sketch 46.2 (44496) - http://www.bohemiancoding.com/sketch -->
    <title>btn_topbar_tw</title>
    <desc>Created with Sketch.</desc>
    <defs></defs>
    <g id="Symbols" stroke="none" stroke-width="1" fill="none" fill-rule="evenodd">
        <g id="TOP-BAR" transform="translate(-1011.000000, -11.000000)">
            <g id="RRSS" transform="translate(905.000000, 8.000000)">
                <g id="TOPBAR/RRSS/ICONS" transform="translate(66.000000, 0.000000)">
                    <g id="btn_topbar_tw" transform="translate(37.000000, 0.000000)">
                        <circle id="Oval-3-Copy" fill="#4A4A4A" cx="16" cy="16" r="13"></circle>
                        <path d="M24,11.2631579 C23.4482675,11.6617045 22.8551245,11.824458 22.75,11.2631579 C22.867913,11.5226296 23.3557031,10.9291638 23.375,10 C22.9909263,10.5685883 22.3326229,10.8209611 21.5,10.6315789 C21.070215,10.3680687 20.2703246,10 19.625,10 C17.6858291,10 16.3077157,11.3565791 16.5,13.1578947 C16.3077157,13.2667599 16.3351197,13.4978519 16.5,13.7894737 C13.8297911,13.5934659 11.5619633,12.3876511 9.625,10.6315789 C9.77948968,11.0019982 9.62755009,11.5220302 9.625,12.5263158 C9.62755009,13.1285843 10.1710614,14.0556499 11.5,14.4210526 C10.4922964,14.5831751 10.0175994,14.4470976 9.625,14.4210526 C9.60258206,14.2324908 9.60258206,14.2453792 9.625,14.4210526 C9.60258206,15.7257468 10.6634188,16.9501449 12.125,16.9473684 C11.8131661,17.297832 11.5412581,17.3349985 11.5,16.9473684 C11.0619938,17.3349985 10.8692528,17.3161155 10.25,16.9473684 C11.0729554,18.4838645 12.2096096,19.359976 13.375,18.8421053 C12.5028317,20.1968229 11.1758724,20.6811869 9.625,21.3684211 C9.48565861,20.6811869 9.24085013,20.6667999 9,21.3684211 C10.3619755,21.4985513 11.9794166,22 13.375,22 C19.3781743,22 22.4732964,17.3838545 22.75,13.1578947 C22.4732964,13.2496753 22.470556,13.1186932 22.75,13.1578947 C23.0658303,12.5617944 23.587723,12.0279748 24,11.2631579" id="Fill-182" fill="#1E1E1E"></path>
                    </g>
                </g>
            </g>
        </g>
    </g>
</svg>