<?xml version="1.0" encoding="UTF-8"?>
<svg width="26px" height="26px" viewBox="0 0 26 26" version="1.1" xmlns="http://www.w3.org/2000/svg" xmlns:xlink="http://www.w3.org/1999/xlink">
    <!-- Generator: Sketch 46.2 (44496) - http://www.bohemiancoding.com/sketch -->
    <title>btn_topbar_rss</title>
    <desc>Created with Sketch.</desc>
    <defs></defs>
    <g id="Symbols" stroke="none" stroke-width="1" fill="none" fill-rule="evenodd">
        <g id="TOP-BAR" transform="translate(-1122.000000, -11.000000)">
            <g id="RRSS" transform="translate(905.000000, 8.000000)">
                <g id="TOPBAR/RRSS/ICONS" transform="translate(66.000000, 0.000000)">
                    <g id="btn_topbar_rss" transform="translate(148.000000, 0.000000)">
                        <circle id="Oval-3-Copy-4" fill="#4A4A4A" cx="16" cy="16" r="13"></circle>
                        <path d="M14,19.5 C14,20.3282125 13.3282125,21 12.5,21 C11.6715605,21 11,20.3282125 11,19.5 C11,18.6713334 11.6715605,18 12.5,18 C13.3282125,18 14,18.6713334 14,19.5 L14,19.5 Z M11,11.5 C16.3428323,11.2999859 20.689802,15.6511282 20.5,21 L23,21 C23,14.3826277 17.6167228,9 11,9 L11,11.5 Z M11,15.5 C12.513725,15.3232563 13.9367243,15.9121685 15,17 C16.0774592,18.0547082 16.6675429,19.4812007 16.5,21 L19,21 C19,16.5885165 15.4110778,13 11,13 L11,15.5 Z" id="Fill-100" fill="#1E1E1E"></path>
                    </g>
                </g>
            </g>
        </g>
    </g>
</svg>