<?xml version="1.0" encoding="UTF-8"?>
<svg width="26px" height="26px" viewBox="0 0 26 26" version="1.1" xmlns="http://www.w3.org/2000/svg" xmlns:xlink="http://www.w3.org/1999/xlink">
    <!-- Generator: Sketch 46.2 (44496) - http://www.bohemiancoding.com/sketch -->
    <title>btn_topbar_rss</title>
    <desc>Created with Sketch.</desc>
    <defs></defs>
    <g id="Symbols" stroke="none" stroke-width="1" fill="none" fill-rule="evenodd">
        <g id="TOP-BAR" transform="translate(-1085.000000, -11.000000)">
            <g id="RRSS" transform="translate(868.000000, 8.000000)">
                <g id="TOPBAR/RRSS/ICONS" transform="translate(66.000000, 0.000000)">
                    <g id="btn_topbar_in" transform="translate(148.000000, 0.000000)">
                        <circle id="Oval-3-Copy-4" fill="#4A4A4A" cx="16" cy="16" r="13"></circle>
                        <path d="M22.0205288,21 L19.7375583,21 L19.7375583,17.426283 C19.7375583,16.574339 19.7221617,15.4786159 18.550311,15.4786159 C17.3630638,15.4786159 17.1817263,16.4075428 17.1817263,17.3655521 L17.1817263,21 L14.9004666,21 L14.9004666,13.6524106 L17.0884914,13.6524106 L17.0884914,14.6566096 L17.12014,14.6566096 C17.4255054,14.0792379 18.1696734,13.4702177 19.2807932,13.4702177 C21.5937014,13.4702177 22.0205288,14.9910575 22.0205288,16.9703733 L22.0205288,21 Z M12.3258165,12.6490669 C11.5919129,12.6490669 11,12.0554432 11,11.3241058 C11,10.5936236 11.5919129,10 12.3258165,10 C13.0554432,10 13.6490669,10.5936236 13.6490669,11.3241058 C13.6490669,12.0554432 13.0554432,12.6490669 12.3258165,12.6490669 Z M11.1813375,21 L13.4677294,21 L13.4677294,13.6524106 L11.1813375,13.6524106 L11.1813375,21 Z" id="Fill-1" fill="#1E1E1E"></path>
                    </g>
                </g>
            </g>
        </g>
    </g>
</svg>