<svg id="Layer_1" data-name="Layer 1" xmlns="http://www.w3.org/2000/svg" viewBox="0 0 164 48"><defs><style>.cls-1{fill:#2e2e2e;}.cls-2{fill:#fff;}</style></defs><title>cambridge_logo_@1x</title><path class="cls-1" d="M0,0H164V48.19H0V0Z"/><path class="cls-1" d="M0,0H164V48.19H0V0Z"/><path class="cls-2" d="M137.82,28h0.34c1.86,0,2.45-.37,3.14-1.94l0.12-.28L142.14,26l-1,2.95H131V28.38a5.08,5.08,0,0,0,.89.08c1.29,0,1.57-.49,1.57-2.7V21.23c0-2.25-.27-2.7-1.62-2.7a2.69,2.69,0,0,0-.69.07V18H141l0.42,2.36-0.66.12c-0.29-1.41-1-1.79-3.19-1.79a8.46,8.46,0,0,0-1.81.18v3.83h2c1.09,0,1.4-.24,1.4-1.07a2.93,2.93,0,0,0,0-.41h0.66V25h-0.66a5,5,0,0,0,0-.52c0-.72-0.37-1-1.41-1h-2V28h2.06ZM130,23.9H130c-1,0-1.21.28-1.21,1.64,0,0.79,0,1.93.06,2.87-0.66.12-1.36,0.26-1.93,0.38a13.74,13.74,0,0,1-3.3.45c-3.52,0-5.92-2.29-5.92-5.66,0-3.56,2.44-5.79,6.33-5.79a14.42,14.42,0,0,1,2.14.17l1,0.15L128,18.22l0.39,0.06,0.56,2.79-0.83.15c-0.71-2-1.84-2.84-3.66-2.84-2.6,0-4.32,1.9-4.32,4.78,0,3.06,1.92,5.24,4.62,5.24a4.67,4.67,0,0,0,1.79-.32v-3a0.94,0.94,0,0,0-1.07-1.16l-0.4,0h-0.13V23.28h5.54v0.65h-0.18ZM108.82,29l-1.23,0h-4.94V28.38a5.65,5.65,0,0,0,.9.08c1.33,0,1.6-.46,1.6-2.7V21.23c0-2.27-.26-2.7-1.64-2.7a3.2,3.2,0,0,0-.75.07V18h3.87l0.8,0,0.95,0,1.35,0c3.88,0,5.94,1.69,5.94,4.9C115.67,26.58,113,29,108.82,29Zm0.35-10.41a5.35,5.35,0,0,0-1.71.28V28a5.11,5.11,0,0,0,1.75.31c2.43,0,4-2.06,4-5.29C113.18,20.22,111.71,18.59,109.17,18.59Zm-15,9.79a5.18,5.18,0,0,0,.87.08c1.33,0,1.59-.44,1.59-2.7V21.23c0-2.28-.25-2.7-1.6-2.7a2.81,2.81,0,0,0-.71.07V18h7.09V18.6a4,4,0,0,0-.83-0.07c-1.38,0-1.63.42-1.63,2.7v4.53c0,2.25.27,2.7,1.61,2.7a5.84,5.84,0,0,0,.92-0.08V29H94.2V28.38ZM92.1,29l-0.54,0H91.08c-1.09,0-1.56-.35-2.27-1.66l-0.45-.84c-1.18-2.18-1.69-2.63-3-2.64v1.9c0,2.26.26,2.7,1.58,2.7a3.73,3.73,0,0,0,.76-0.08V29h-7V28.38a5.44,5.44,0,0,0,.87.08c1.21,0,1.59-.52,1.59-2.17V20.7c0-1.66-.37-2.16-1.58-2.16a3.09,3.09,0,0,0-.71.07V18h3.66l0.83,0,0.85,0,1.16,0c2.51,0,3.75.87,3.75,2.64s-1,2.57-2.89,2.78a4.75,4.75,0,0,1,2.32,2.48c1.08,2,1.68,2.57,2.56,2.57l0.5,0V29H92.1Zm-3.3-8.21a2.11,2.11,0,0,0-2.2-2.26,4.31,4.31,0,0,0-1.23.2v4.53a6.64,6.64,0,0,0,.73,0C87.85,23.27,88.79,22.39,88.79,20.76ZM79.07,25.7c0,2.14-1.71,3.3-4.84,3.3l-1.06,0-1.08,0H68.23V28.38a5,5,0,0,0,.88.08c1.31,0,1.58-.45,1.58-2.7V21.23c0-2.28-.25-2.7-1.61-2.7a2.61,2.61,0,0,0-.67.07V18h4L74.3,18l1.09,0c2,0,3.24.87,3.24,2.33s-1,2.32-2.84,2.72C78,23.15,79.07,24,79.07,25.7Zm-2.68-5.28a2,2,0,0,0-2.23-1.9,3.55,3.55,0,0,0-1.26.25v4a5.69,5.69,0,0,0,.87.07A2.45,2.45,0,0,0,76.39,20.42Zm-2.57,3a4.41,4.41,0,0,0-.92.1v4.59a5.83,5.83,0,0,0,1.33.16,2.44,2.44,0,0,0,2.46-2.63C76.69,24.23,75.65,23.43,73.82,23.43Zm-13,4.95a1.89,1.89,0,0,0,.51.08c1.06,0,1.33-.55,1.33-2.7V20.18l-0.32.62-0.79,1.67-0.88,1.88-1,2.15-0.84,1.88-0.2.49H57.93l-0.25-.54c-0.91-2-1.06-2.3-1.73-3.65l-0.89-1.81-0.89-1.8-0.42-.79v6c0,1.63.38,2.17,1.54,2.17a1.26,1.26,0,0,0,.47-0.08V29H50.9V28.38a2.47,2.47,0,0,0,.53.08c1.11,0,1.36-.51,1.36-2.71V20.7c0-1.75-.25-2.16-1.32-2.16a1.46,1.46,0,0,0-.5.07V18h4c0.45,1,.62,1.3,1.18,2.41l0.95,1.89,0.78,1.6,0.76,1.52L58.94,26c0.45-.84.6-1.15,1.05-2.14L60.83,22l0.88-1.91,0.73-1.62,0.2-.46H67V18.6a2.63,2.63,0,0,0-.59-0.07c-1.21,0-1.43.41-1.43,2.7v4.53c0,2.19.26,2.7,1.39,2.7a4.13,4.13,0,0,0,.7-0.08V29h-6.3V28.38Zm-16.49,0a2,2,0,0,0,.61.08c0.63,0,.93-0.22.93-0.68a1.75,1.75,0,0,0-.13-0.55l-0.66-1.75H41.28l-0.52,1.33-0.1.26-0.12.31a1.37,1.37,0,0,0-.06.38,0.84,0.84,0,0,0,1,.71,2.45,2.45,0,0,0,.65-0.09V29H37.31V28.38a2,2,0,0,0,.52.07c0.89,0,1.31-.46,2.05-2.21l0.28-.67,0.17-.39,3.3-7.82h0.5l2,5,0.11,0.29c2,5.11,2.51,5.84,3.69,5.84a1.7,1.7,0,0,0,.5-0.09V29H44.32V28.38Zm-1.11-7.6-1.63,3.9h3.18Zm-12.48,9A5.16,5.16,0,0,0,36,25.48l1,0.12-0.4,3.47a13,13,0,0,1-6.34,1.77c-5,0-8.37-3.19-8.37-7.88,0-4.52,3.28-7.52,8.19-7.52a12.92,12.92,0,0,1,5.45,1.15l0.41,0.16,0.72,3.59-1,.19a5.16,5.16,0,0,0-5.23-3.93c-3.18,0-5.55,2.77-5.55,6.49S27.35,29.73,30.74,29.73Z"/><path class="cls-2" d="M137.82,28h0.34c1.86,0,2.45-.37,3.14-1.94l0.12-.28L142.14,26l-1,2.95H131V28.38a5.08,5.08,0,0,0,.89.08c1.29,0,1.57-.49,1.57-2.7V21.23c0-2.25-.27-2.7-1.62-2.7a2.69,2.69,0,0,0-.69.07V18H141l0.42,2.36-0.66.12c-0.29-1.41-1-1.79-3.19-1.79a8.46,8.46,0,0,0-1.81.18v3.83h2c1.09,0,1.4-.24,1.4-1.07a2.93,2.93,0,0,0,0-.41h0.66V25h-0.66a5,5,0,0,0,0-.52c0-.72-0.37-1-1.41-1h-2V28h2.06ZM130,23.9H130c-1,0-1.21.28-1.21,1.64,0,0.79,0,1.93.06,2.87-0.66.12-1.36,0.26-1.93,0.38a13.74,13.74,0,0,1-3.3.45c-3.52,0-5.92-2.29-5.92-5.66,0-3.56,2.44-5.79,6.33-5.79a14.42,14.42,0,0,1,2.14.17l1,0.15L128,18.22l0.39,0.06,0.56,2.79-0.83.15c-0.71-2-1.84-2.84-3.66-2.84-2.6,0-4.32,1.9-4.32,4.78,0,3.06,1.92,5.24,4.62,5.24a4.67,4.67,0,0,0,1.79-.32v-3a0.94,0.94,0,0,0-1.07-1.16l-0.4,0h-0.13V23.28h5.54v0.65h-0.18ZM108.82,29l-1.23,0h-4.94V28.38a5.65,5.65,0,0,0,.9.08c1.33,0,1.6-.46,1.6-2.7V21.23c0-2.27-.26-2.7-1.64-2.7a3.2,3.2,0,0,0-.75.07V18h3.87l0.8,0,0.95,0,1.35,0c3.88,0,5.94,1.69,5.94,4.9C115.67,26.58,113,29,108.82,29Zm0.35-10.41a5.35,5.35,0,0,0-1.71.28V28a5.11,5.11,0,0,0,1.75.31c2.43,0,4-2.06,4-5.29C113.18,20.22,111.71,18.59,109.17,18.59Zm-15,9.79a5.18,5.18,0,0,0,.87.08c1.33,0,1.59-.44,1.59-2.7V21.23c0-2.28-.25-2.7-1.6-2.7a2.81,2.81,0,0,0-.71.07V18h7.09V18.6a4,4,0,0,0-.83-0.07c-1.38,0-1.63.42-1.63,2.7v4.53c0,2.25.27,2.7,1.61,2.7a5.84,5.84,0,0,0,.92-0.08V29H94.2V28.38ZM92.1,29l-0.54,0H91.08c-1.09,0-1.56-.35-2.27-1.66l-0.45-.84c-1.18-2.18-1.69-2.63-3-2.64v1.9c0,2.26.26,2.7,1.58,2.7a3.73,3.73,0,0,0,.76-0.08V29h-7V28.38a5.44,5.44,0,0,0,.87.08c1.21,0,1.59-.52,1.59-2.17V20.7c0-1.66-.37-2.16-1.58-2.16a3.09,3.09,0,0,0-.71.07V18h3.66l0.83,0,0.85,0,1.16,0c2.51,0,3.75.87,3.75,2.64s-1,2.57-2.89,2.78a4.75,4.75,0,0,1,2.32,2.48c1.08,2,1.68,2.57,2.56,2.57l0.5,0V29H92.1Zm-3.3-8.21a2.11,2.11,0,0,0-2.2-2.26,4.31,4.31,0,0,0-1.23.2v4.53a6.64,6.64,0,0,0,.73,0C87.85,23.27,88.79,22.39,88.79,20.76ZM79.07,25.7c0,2.14-1.71,3.3-4.84,3.3l-1.06,0-1.08,0H68.23V28.38a5,5,0,0,0,.88.08c1.31,0,1.58-.45,1.58-2.7V21.23c0-2.28-.25-2.7-1.61-2.7a2.61,2.61,0,0,0-.67.07V18h4L74.3,18l1.09,0c2,0,3.24.87,3.24,2.33s-1,2.32-2.84,2.72C78,23.15,79.07,24,79.07,25.7Zm-2.68-5.28a2,2,0,0,0-2.23-1.9,3.55,3.55,0,0,0-1.26.25v4a5.69,5.69,0,0,0,.87.07A2.45,2.45,0,0,0,76.39,20.42Zm-2.57,3a4.41,4.41,0,0,0-.92.1v4.59a5.83,5.83,0,0,0,1.33.16,2.44,2.44,0,0,0,2.46-2.63C76.69,24.23,75.65,23.43,73.82,23.43Zm-13,4.95a1.89,1.89,0,0,0,.51.08c1.06,0,1.33-.55,1.33-2.7V20.18l-0.32.62-0.79,1.67-0.88,1.88-1,2.15-0.84,1.88-0.2.49H57.93l-0.25-.54c-0.91-2-1.06-2.3-1.73-3.65l-0.89-1.81-0.89-1.8-0.42-.79v6c0,1.63.38,2.17,1.54,2.17a1.26,1.26,0,0,0,.47-0.08V29H50.9V28.38a2.47,2.47,0,0,0,.53.08c1.11,0,1.36-.51,1.36-2.71V20.7c0-1.75-.25-2.16-1.32-2.16a1.46,1.46,0,0,0-.5.07V18h4c0.45,1,.62,1.3,1.18,2.41l0.95,1.89,0.78,1.6,0.76,1.52L58.94,26c0.45-.84.6-1.15,1.05-2.14L60.83,22l0.88-1.91,0.73-1.62,0.2-.46H67V18.6a2.63,2.63,0,0,0-.59-0.07c-1.21,0-1.43.41-1.43,2.7v4.53c0,2.19.26,2.7,1.39,2.7a4.13,4.13,0,0,0,.7-0.08V29h-6.3V28.38Zm-16.49,0a2,2,0,0,0,.61.08c0.63,0,.93-0.22.93-0.68a1.75,1.75,0,0,0-.13-0.55l-0.66-1.75H41.28l-0.52,1.33-0.1.26-0.12.31a1.37,1.37,0,0,0-.06.38,0.84,0.84,0,0,0,1,.71,2.45,2.45,0,0,0,.65-0.09V29H37.31V28.38a2,2,0,0,0,.52.07c0.89,0,1.31-.46,2.05-2.21l0.28-.67,0.17-.39,3.3-7.82h0.5l2,5,0.11,0.29c2,5.11,2.51,5.84,3.69,5.84a1.7,1.7,0,0,0,.5-0.09V29H44.32V28.38Zm-1.11-7.6-1.63,3.9h3.18Zm-12.48,9A5.16,5.16,0,0,0,36,25.48l1,0.12-0.4,3.47a13,13,0,0,1-6.34,1.77c-5,0-8.37-3.19-8.37-7.88,0-4.52,3.28-7.52,8.19-7.52a12.92,12.92,0,0,1,5.45,1.15l0.41,0.16,0.72,3.59-1,.19a5.16,5.16,0,0,0-5.23-3.93c-3.18,0-5.55,2.77-5.55,6.49S27.35,29.73,30.74,29.73Z"/></svg>