<?xml version="1.0" encoding="UTF-8"?>
<svg width="16px" height="16px" viewBox="0 0 16 16" version="1.1" xmlns="http://www.w3.org/2000/svg" xmlns:xlink="http://www.w3.org/1999/xlink">
    <!-- Generator: Sketch 46.2 (44496) - http://www.bohemiancoding.com/sketch -->
    <title>cancel</title>
    <desc>Created with Sketch.</desc>
    <defs></defs>
    <g id="Symbols" stroke="none" stroke-width="1" fill="none" fill-rule="evenodd">
        <g id="btn_quitar_filtros" transform="translate(-14.000000, -8.000000)" fill="#FFFFFF">
            <g id="quitar-filtros">
                <g id="cancel" transform="translate(14.000000, 8.000000)">
                    <path d="M1.13686838e-13,8 C1.13686838e-13,12.418278 3.581722,16 8,16 C12.418278,16 16,12.418278 16,8 C16,5.87826808 15.1571453,3.84343678 13.6568542,2.34314575 C12.1565632,0.842854723 10.1217319,-2.27373675e-14 8,0 C3.581722,0 1.13686838e-13,3.581722 1.13686838e-13,8 Z M12.1831111,12.1831111 C12.0245774,12.3416644 11.8095477,12.4307404 11.5853333,12.4307404 C11.3611189,12.4307404 11.1460893,12.3416644 10.9875556,12.1831111 L7.98666667,9.18222222 L4.98577778,12.1831111 C4.77490865,12.406689 4.45913157,12.4978927 4.16152959,12.4211729 C3.8639276,12.3444532 3.63159945,12.1119518 3.55510159,11.8142927 C3.47860373,11.5166336 3.57004278,11.2009246 3.79377778,10.9902222 L6.79466667,7.98933333 L3.79377778,4.98844444 C3.57004278,4.77774204 3.47860373,4.46203303 3.55510159,4.16437394 C3.63159945,3.86671485 3.8639276,3.63421345 4.16152959,3.55749372 C4.45913157,3.480774 4.77490865,3.57197768 4.98577778,3.79555556 L7.98666667,6.79644444 L10.9875556,3.79555556 C11.1998101,3.57836424 11.5124257,3.49202608 11.8060611,3.56950076 C12.0996964,3.64697543 12.3290246,3.87630358 12.4064992,4.16993894 C12.4839739,4.4635743 12.3976358,4.77618992 12.1804444,4.98844444 L9.17955556,7.98933333 L12.1804444,10.9902222 C12.5100689,11.3191092 12.5112619,11.8527537 12.1831111,12.1831111 L12.1831111,12.1831111 Z"></path>
                </g>
            </g>
        </g>
    </g>
</svg>