<?xml version="1.0" encoding="UTF-8"?>
<svg width="230px" height="20px" viewBox="0 0 230 20" version="1.1" xmlns="http://www.w3.org/2000/svg" xmlns:xlink="http://www.w3.org/1999/xlink">
    <!-- Generator: Sketch 46.2 (44496) - http://www.bohemiancoding.com/sketch -->
    <title>CEQ_logo_Ranged_White</title>
    <desc>Created with Sketch.</desc>
    <defs>
        <polygon id="path-1" points="13.7649327 0.328333333 13.7649327 7.99433333 0.0859491779 7.99433333 0.0859491779 0.328333333 13.7649327 0.328333333"></polygon>
        <polygon id="path-3" points="0.0206278027 0.181 0.0206278027 19.9796667 86.791136 19.9796667 86.791136 0.181"></polygon>
    </defs>
    <g id="DESIGN" stroke="none" stroke-width="1" fill="none" fill-rule="evenodd">
        <g id="RECURSOS-PROFESORES" transform="translate(-200.000000, -821.000000)">
            <g id="FILTER-PROFES" transform="translate(150.000000, 368.000000)">
                <g id="FILTER-OPEN" transform="translate(0.000000, 80.000000)">
                    <g id="TITULACIONES" transform="translate(50.000000, 100.000000)">
                        <g id="CEQ_logo_Ranged_White" transform="translate(0.000000, 273.000000)">
                            <polyline id="Fill-1" fill="#FFFFFE" points="92.5679522 3.974 98.3818984 3.974 97.8541704 5.55366667 94.484275 5.55366667 94.484275 8.21666667 97.8541704 8.21666667 97.8541704 9.796 94.484275 9.796 94.484275 12.599 98.3966816 12.599 98.3966816 14.1786667 92.5679522 14.1786667 92.5679522 3.974"></polyline>
                            <path d="M99.5353363,6.85366667 L101.163901,6.85366667 L101.356084,7.675 C102.154036,7.071 103.000807,6.668 103.94281,6.668 C105.140598,6.668 106.37139,7.24066667 106.37139,9.33166667 L106.37139,14.1786667 L104.45438,14.1786667 L104.45438,9.90433333 C104.45438,9.006 104.262541,8.279 103.287877,8.279 C102.665605,8.279 101.995546,8.60333333 101.435501,9.05266667 L101.435501,14.1786667 L99.5353363,14.1786667 L99.5353363,6.85366667" id="Fill-2" fill="#FFFFFE"></path>
                            <path d="M114.537937,6.356 L111.571659,6.356 L111.571659,6.35866667 L110.415127,6.35866667 C108.352691,6.35866667 107.329208,7.70766667 107.329208,9.05666667 C107.329208,10.0346667 107.793677,10.8866667 108.592317,11.3356667 C107.969013,11.7546667 107.67988,12.2813333 107.67988,12.7153333 C107.67988,13.1043333 107.855561,13.444 108.176323,13.631 C107.394185,13.9556667 106.817638,14.5923333 106.817638,15.398 C106.817638,16.6693333 108.110658,17.5526667 110.334679,17.5526667 C112.957504,17.5526667 114.332003,16.467 114.332003,15.134 C114.332003,12.391 109.359671,13.6146667 109.359671,12.297 C109.359671,12.142 109.407803,11.9873333 109.550822,11.7546667 C109.808326,11.831 110.126682,11.8793333 110.478386,11.8793333 C112.317698,11.8793333 113.612436,10.8096667 113.612436,9.16433333 C113.612436,8.59166667 113.42713,8.05 113.079208,7.60966667 L113.297519,7.59933333 C113.920135,7.54866667 114.114723,7.21133333 114.211674,7.043 L114.537937,6.406 L114.552377,6.38 L114.537937,6.356 Z M110.463259,10.4826667 C109.614425,10.4826667 109.136203,9.848 109.136203,9.11833333 C109.136203,8.23566667 109.695217,7.75366667 110.446413,7.75366667 C111.293871,7.75366667 111.805097,8.40733333 111.805097,9.135 C111.805097,10.0176667 111.229581,10.4826667 110.463259,10.4826667 L110.463259,10.4826667 Z M110.590463,16.2503333 C109.327354,16.2503333 108.528027,15.801 108.528027,15.072 C108.528027,14.5923333 108.896577,14.282 109.136203,14.1113333 C110.158999,14.4986667 112.509537,14.282 112.509537,15.3366667 C112.509537,15.8786667 111.741495,16.2503333 110.590463,16.2503333 L110.590463,16.2503333 Z" id="Fill-3" fill="#FFFFFE"></path>
                            <path d="M119.527115,14.179 L121.443438,14.179 L121.443438,6.85366667 L119.527115,6.85366667 L119.527115,14.179 Z M119.319462,4.56233333 C119.319462,3.942 119.813842,3.44733333 120.484933,3.44733333 C121.156368,3.44733333 121.66725,3.92733333 121.66725,4.56233333 C121.66725,5.16666667 121.156368,5.662 120.484933,5.662 C119.813842,5.662 119.319462,5.18166667 119.319462,4.56233333 L119.319462,4.56233333 Z" id="Fill-4" fill="#FFFFFE"></path>
                            <path d="M122.943767,12.2733333 C123.518939,12.6303333 124.237474,12.878 125.003109,12.878 C125.771151,12.878 126.329133,12.661 126.329133,12.1036667 C126.329133,10.865 122.784245,11.329 122.784245,8.883 C122.784245,7.58133333 123.870299,6.668 125.643602,6.668 C126.489686,6.668 127.240194,6.807 127.863498,7.024 L127.863498,8.58833333 C127.223348,8.32433333 126.521659,8.12333333 125.723019,8.12333333 C125.083558,8.12333333 124.652093,8.30933333 124.652093,8.78933333 C124.652093,9.95033333 128.198012,9.50133333 128.198012,12.0566667 C128.198012,13.667 126.75991,14.3333333 125.131689,14.3333333 C123.949716,14.3333333 122.975052,13.9923333 122.35278,13.621 L122.943767,12.2733333" id="Fill-5" fill="#FFFFFE"></path>
                            <path d="M129.047534,3.21466667 L130.94701,3.21466667 L130.94701,7.659 C131.63426,7.102 132.497877,6.668 133.456383,6.668 C134.653827,6.668 135.867085,7.24066667 135.867085,9.33166667 L135.867085,14.1786667 L133.966921,14.1786667 L133.966921,9.90433333 C133.966921,9.006 133.774738,8.279 132.800762,8.279 C132.161988,8.279 131.507743,8.60333333 130.94701,9.05266667 L130.94701,14.1786667 L129.047534,14.1786667 L129.047534,3.21466667" id="Fill-6" fill="#FFFFFE"></path>
                            <path d="M117.772377,12.6916667 C117.42136,12.6916667 117.212332,12.537 117.212332,12.0256667 L117.212332,3.21466667 L115.312167,3.21466667 L115.312167,12.5213333 C115.312167,13.6833333 115.951629,14.2866667 117.212332,14.2866667 C117.542033,14.2866667 117.92571,14.2406667 118.289447,14.136 L118.235471,12.6053333 C118.075949,12.6623333 117.864858,12.6916667 117.772377,12.6916667" id="Fill-7" fill="#FFFFFE"></path>
                            <path d="M149.093288,9.10866667 C149.093288,6.84866667 147.830867,5.439 145.834783,5.439 C143.885456,5.439 142.576622,6.786 142.576622,9.10866667 C142.576622,11.417 143.885456,12.764 145.834783,12.764 C147.767265,12.764 149.093288,11.417 149.093288,9.10866667 Z M140.532407,9.10866667 C140.532407,6.01266667 142.720673,3.875 145.834783,3.875 C148.949581,3.875 151.136472,6.028 151.136472,9.10866667 C151.136472,11.9426667 149.331883,13.8936667 146.713184,14.2346667 C147.272541,14.8536667 147.990045,15.1326667 148.852975,15.1326667 C149.268625,15.1326667 149.699746,15.0396667 149.907399,14.9633333 L150.354335,16.3866667 C149.842765,16.619 149.220149,16.6966667 148.628819,16.6966667 C146.553318,16.6966667 145.243453,15.5353333 144.252975,14.1253333 C142.018296,13.5523333 140.532407,11.6793333 140.532407,9.10866667 L140.532407,9.10866667 Z" id="Fill-8" fill="#FFFFFE"></path>
                            <path d="M158.857115,10.0536667 L158.857115,14.3716667 L158.823767,14.3916667 L158.786293,14.3716667 L157.788939,13.889 C157.652451,13.8163333 157.44583,13.704 157.266368,13.491 L157.198984,13.4136667 L157.067309,13.4136667 C156.493857,13.9093333 155.71,14.3276667 154.720897,14.3276667 C153.986203,14.3276667 152.916652,14.034 152.452182,12.887 C152.276846,12.485 152.196741,12.035 152.196741,11.3546667 L152.196741,6.84866667 L154.09725,6.84866667 L154.09725,11.1686667 C154.09725,11.5556667 154.145381,11.85 154.257803,12.0823333 C154.44861,12.5163333 154.816129,12.7476667 155.390957,12.7476667 C156.013916,12.7476667 156.604215,12.4536667 156.940105,12.0986667 L156.940105,6.84866667 L158.857115,6.84866667 L158.857115,12.3603333" id="Fill-9" fill="#FFFFFE"></path>
                            <path d="M163.120194,6.67 C162.065426,6.67 161.0887,6.91666667 160.193797,7.39833333 L160.818475,8.593 C161.360299,8.313 162.04858,8.08 162.800463,8.08 C163.679895,8.08 164.255411,8.45233333 164.255411,9.30533333 L164.255411,9.538 L162.959641,9.584 C162.190912,9.61666667 161.535979,9.74033333 161.00997,10.0023333 C160.227145,10.3913333 159.730015,11.0106667 159.730015,12.0026667 C159.730015,13.4136667 160.801629,14.3443333 162.241794,14.3443333 C163.185859,14.3443333 163.87139,13.972 164.415277,13.491 L164.575142,13.491 C164.75426,13.704 164.958819,13.8163333 165.097025,13.889 L166.093692,14.3716667 L166.130822,14.3916667 L166.164514,14.3716667 L166.164514,9.33633333 C166.164514,7.569 165.150314,6.67 163.120194,6.67 M162.784305,12.8863333 C162.097399,12.8863333 161.665247,12.515 161.665247,11.878 C161.665247,11.507 161.810329,11.212 162.127653,11.042 C162.385157,10.9013333 162.736173,10.8233333 163.231241,10.8093333 L164.209686,10.7793333 L164.209686,12.315 L164.214499,12.3733333 C163.947713,12.578 163.452646,12.8863333 162.784305,12.8863333" id="Fill-10" fill="#FFFFFE"></path>
                            <path d="M194.050553,6.67 C192.996472,6.67 192.020433,6.91666667 191.125531,7.39833333 L191.749522,8.593 C192.292033,8.313 192.980314,8.08 193.732885,8.08 C194.611629,8.08 195.187145,8.45233333 195.187145,9.30533333 L195.187145,9.538 L193.891375,9.584 C193.123333,9.61666667 192.468057,9.74033333 191.940329,10.0023333 C191.158191,10.3913333 190.662093,11.0106667 190.662093,12.0026667 C190.662093,13.4136667 191.732676,14.3443333 193.172496,14.3443333 C194.116906,14.3443333 194.803812,13.972 195.346323,13.491 L195.506188,13.491 C195.685994,13.704 195.890897,13.8163333 196.028416,13.889 L197.024738,14.3716667 L197.063244,14.3916667 L197.096248,14.3716667 L197.096248,9.33633333 C197.096248,7.569 196.082392,6.67 194.050553,6.67 M193.716383,12.8863333 C193.028445,12.8863333 192.596293,12.515 192.596293,11.878 C192.596293,11.507 192.741719,11.212 193.059731,11.042 C193.316203,10.9013333 193.667907,10.8233333 194.163318,10.8093333 L195.14142,10.7793333 L195.14142,12.315 L195.146233,12.3733333 C194.878759,12.578 194.38438,12.8863333 193.716383,12.8863333" id="Fill-11" fill="#FFFFFE"></path>
                            <path d="M169.852765,12.686 C169.501749,12.686 169.293064,12.531 169.293064,12.0206667 L169.293064,3.20966667 L167.392556,3.20966667 L167.392556,12.5163333 C167.392556,13.677 168.03133,14.2816667 169.293064,14.2816667 C169.605232,14.2816667 169.966562,14.238 170.312078,14.1466667 L170.312078,12.5996667 C170.153931,12.657 169.943871,12.686 169.852765,12.686" id="Fill-12" fill="#FFFFFE"></path>
                            <path d="M171.478924,14.1733333 L173.396622,14.1733333 L173.396622,6.84866667 L171.478924,6.84866667 L171.478924,14.1733333 Z M171.271958,4.55666667 C171.271958,3.937 171.766682,3.441 172.437429,3.441 C173.108176,3.441 173.619402,3.92166667 173.619402,4.55666667 C173.619402,5.161 173.108176,5.65633333 172.437429,5.65633333 C171.766682,5.65633333 171.271958,5.17633333 171.271958,4.55666667 L171.271958,4.55666667 Z" id="Fill-13" fill="#FFFFFE"></path>
                            <path d="M180.595037,14.1733333 L182.509985,14.1733333 L182.509985,6.84866667 L180.595037,6.84866667 L180.595037,14.1733333 Z M180.386697,4.55666667 C180.386697,3.937 180.882451,3.441 181.553543,3.441 C182.223602,3.441 182.734484,3.92166667 182.734484,4.55666667 C182.734484,5.161 182.223602,5.65633333 181.553543,5.65633333 C180.882451,5.65633333 180.386697,5.17633333 180.386697,4.55666667 Z M175.627175,8.28833333 L174.509492,8.28833333 L174.509492,6.84866667 L175.627175,6.84866667 L175.627175,5.82633333 C175.627175,4.107 176.665785,3.20966667 178.198774,3.20966667 C178.693498,3.20966667 179.268326,3.30266667 179.780239,3.535 L179.396562,5.006 C179.077175,4.897 178.757444,4.805 178.471061,4.805 C177.831599,4.805 177.544185,5.17633333 177.544185,5.81 L177.544185,6.84866667 L179.508984,6.84866667 L179.044858,8.28833333 L177.544185,8.28833333 L177.544185,14.1733333 L175.627175,14.1733333 L175.627175,8.28833333 L175.627175,8.28833333 Z" id="Fill-14" fill="#FFFFFE"></path>
                            <path d="M198.954469,12.3603333 L198.954469,8.28833333 L197.596472,8.28833333 L197.596472,6.84866667 L198.954469,6.84866667 L198.954469,5.14466667 L200.853946,4.60333333 L200.853946,6.84866667 L203.137788,6.84866667 L202.675381,8.28833333 L200.853946,8.28833333 L200.853946,11.912 C200.853946,12.594 201.093572,12.8416667 201.58864,12.8416667 C202.035232,12.8416667 202.45157,12.67 202.73864,12.485 L203.313812,13.7536667 C202.770613,14.1116667 201.860239,14.3276667 201.109731,14.3276667 C199.767892,14.3276667 198.954469,13.5836667 198.954469,12.3603333" id="Fill-15" fill="#FFFFFE"></path>
                            <path d="M204.450747,14.1733333 L206.367414,14.1733333 L206.367414,6.84866667 L204.450747,6.84866667 L204.450747,14.1733333 Z M204.243438,4.55666667 C204.243438,3.937 204.738505,3.441 205.408565,3.441 C206.080344,3.441 206.591226,3.92166667 206.591226,4.55666667 C206.591226,5.161 206.080344,5.65633333 205.408565,5.65633333 C204.738505,5.65633333 204.243438,5.17633333 204.243438,4.55666667 L204.243438,4.55666667 Z" id="Fill-16" fill="#FFFFFE"></path>
                            <path d="M212.997534,10.4876667 C212.997534,9.14 212.374574,8.14933333 211.177474,8.14933333 C209.979342,8.14933333 209.356039,9.14 209.356039,10.4876667 C209.356039,11.85 209.979342,12.8416667 211.177474,12.8416667 C212.374574,12.8416667 212.997534,11.85 212.997534,10.4876667 Z M207.408087,10.4876667 C207.408087,8.28833333 208.925262,6.66166667 211.177474,6.66166667 C213.429686,6.66166667 214.963363,8.28833333 214.963363,10.4876667 C214.963363,12.686 213.429686,14.3276667 211.177474,14.3276667 C208.925262,14.3276667 207.408087,12.686 207.408087,10.4876667 L207.408087,10.4876667 Z" id="Fill-17" fill="#FFFFFE"></path>
                            <g id="Group-21" transform="translate(215.904335, 6.333333)">
                                <mask id="mask-2" fill="white">
                                    <use xlink:href="#path-1"></use>
                                </mask>
                                <g id="Clip-19"></g>
                                <path d="M0.0859491779,0.515333333 L1.7145142,0.515333333 L1.90669656,1.33566667 C2.70533632,0.731666667 3.55210762,0.328333333 4.49411061,0.328333333 C5.69189836,0.328333333 6.92234679,0.901666667 6.92234679,2.99266667 L6.92234679,7.84 L5.00499253,7.84 L5.00499253,3.56533333 C5.00499253,2.66766667 4.81384155,1.94 3.83917788,1.94 C3.21621824,1.94 2.54615845,2.26433333 1.9868012,2.71433333 L1.9868012,7.84 L0.0859491779,7.84 L0.0859491779,0.515333333" id="Fill-18" fill="#FFFFFE" mask="url(#mask-2)"></path>
                                <path d="M8.51103139,5.935 C9.0855157,6.291 9.80370703,6.53866667 10.5696861,6.53866667 C11.3373842,6.53866667 11.8960538,6.32166667 11.8960538,5.76533333 C11.8960538,4.52566667 8.35047833,4.991 8.35047833,2.544 C8.35047833,1.243 9.43584454,0.328333333 11.2098356,0.328333333 C12.0552317,0.328333333 12.8067713,0.468333333 13.4290433,0.684333333 L13.4290433,2.24933333 C12.7899253,1.98533333 12.0882362,1.78433333 11.2889088,1.78433333 C10.6497907,1.78433333 10.2183259,1.97033333 10.2183259,2.45033333 C10.2183259,3.61133333 13.7652765,3.163 13.7652765,5.71833333 C13.7652765,7.32833333 12.3268311,7.99433333 10.6982661,7.99433333 C9.51594918,7.99433333 8.54197309,7.65366667 7.91866966,7.283 L8.51103139,5.935" id="Fill-20" fill="#FFFFFE" mask="url(#mask-2)"></path>
                            </g>
                            <path d="M189.6558,12.272 L189.529283,12.3463333 C189.000867,12.6243333 188.474858,12.8416667 187.772481,12.8416667 C186.47843,12.8416667 185.632347,12.0206667 185.632347,10.5186667 C185.632347,9.171 186.463303,8.14933333 187.867713,8.14933333 C188.603094,8.14933333 189.177578,8.35033333 189.704963,8.72166667 L189.704963,7.15766667 C189.306158,6.90933333 188.618565,6.66166667 187.675874,6.66166667 C185.424694,6.66166667 183.683019,8.28833333 183.683019,10.5653333 C183.683019,12.6863333 185.041704,14.3276667 187.500194,14.3276667 C188.538117,14.3276667 189.480463,14.0176667 190.087952,13.6163333 C190.087952,13.6163333 189.790568,13.238 189.6558,12.272" id="Fill-22" fill="#FFFFFE"></path>
                            <path d="M60.2448729,15.1026667 C60.2448729,15.8343333 61.0459193,16.284 62.3110912,16.284 C63.4645291,16.284 64.2336024,15.912 64.2336024,15.368 C64.2336024,14.311 61.8785949,14.5293333 60.8544245,14.141 C60.6141106,14.311 60.2448729,14.6223333 60.2448729,15.1026667" id="Fill-23" fill="#FFFFFE"></path>
                            <path d="M52.6548729,10.5553333 C52.6548729,11.9833333 53.6003139,12.806 54.9779073,12.806 C55.2333483,12.806 55.6187444,12.7753333 55.8741854,12.6826667 L55.8741854,8.287 C55.5860837,8.22466667 55.3464574,8.178 54.9603737,8.178 C53.6315994,8.178 52.6548729,9.04766667 52.6548729,10.5553333" id="Fill-24" fill="#FFFFFE"></path>
                            <path d="M62.1666966,7.77233333 C61.4141256,7.77233333 60.8544245,8.25466667 60.8544245,9.14 C60.8544245,9.86966667 61.3343647,10.5063333 62.1838864,10.5063333 C62.9519283,10.5063333 63.5291629,10.0406667 63.5291629,9.15533333 C63.5291629,8.42533333 63.0162182,7.77233333 62.1666966,7.77233333" id="Fill-25" fill="#FFFFFE"></path>
                            <path d="M36.5978475,8.11533333 C36.021988,8.11533333 35.6854111,8.25466667 35.4447534,8.34766667 L35.4447534,12.6033333 C35.7493572,12.6976667 36.0529297,12.7276667 36.3262481,12.7276667 C37.7034978,12.7276667 38.5843049,11.749 38.5843049,10.3053333 C38.5843049,9.016 37.8472048,8.11533333 36.5978475,8.11533333" id="Fill-26" fill="#FFFFFE"></path>
                            <g id="Group-30">
                                <mask id="mask-4" fill="white">
                                    <use xlink:href="#path-3"></use>
                                </mask>
                                <g id="Clip-28"></g>
                                <path d="M17.2194021,10.7733333 L16.2388939,10.803 C15.7424514,10.8183333 15.3904036,10.896 15.1346188,11.036 C14.8131689,11.206 14.6691181,11.5023333 14.6691181,11.8743333 C14.6691181,12.5116667 15.1016143,12.8836667 15.7909268,12.8836667 C16.4620179,12.8836667 16.9567414,12.575 17.2238714,12.3713333 L17.2194021,12.3133333 L17.2194021,10.7733333" id="Fill-27" fill="#FFFFFE" mask="url(#mask-4)"></path>
                                <path d="M70.4040658,12.884 C71.1566368,12.884 71.7648132,12.6836667 72.3107623,12.3873333 L72.8873094,13.6603333 C72.0862631,14.1413333 71.1404783,14.3443333 70.2105082,14.3443333 C67.4553214,14.3443333 66.3348879,12.5103333 66.3348879,10.5236667 C66.3348879,8.31766667 67.5832138,6.657 69.7467265,6.657 C71.8768909,6.657 73.1107773,8.147 73.1107773,10.5856667 L73.1107773,11.021 L68.2573991,11.021 C68.3051868,12.1543333 69.1382063,12.884 70.4040658,12.884 Z M66.2657848,6.422 L65.9384903,7.06 C65.8411958,7.23033333 65.6459193,7.567 65.023991,7.61666667 L64.8043049,7.627 C65.1529148,8.06766667 65.338565,8.61133333 65.338565,9.187 C65.338565,10.833 64.04142,11.9043333 62.1983259,11.9043333 C61.8469656,11.9043333 61.5258595,11.8583333 61.2707623,11.7806667 C61.1260239,12.0136667 61.0778924,12.167 61.0778924,12.324 C61.0778924,13.6433333 66.0591629,12.4163333 66.0591629,15.1656667 C66.0591629,16.5016667 64.6822571,17.5893333 62.0553064,17.5893333 C59.8285351,17.5893333 58.5310463,16.7033333 58.5310463,15.4303333 C58.5310463,14.6223333 59.108281,13.9856667 59.8921375,13.659 C59.573438,13.4736667 59.3953513,13.1316667 59.3953513,12.7426667 C59.3953513,12.3083333 59.6848281,11.7806667 60.3095067,11.36 C59.5077728,10.91 59.0429596,10.0566667 59.0429596,9.078 C59.0429596,7.72733333 60.068849,6.37333333 62.1350673,6.37333333 L66.2657848,6.37333333 L66.2809118,6.39633333 L66.2657848,6.422 Z M57.7973842,13.801 C57.0437818,14.1573333 55.9388191,14.3443333 55.0095366,14.3443333 C52.543139,14.3443333 50.699701,13.008 50.699701,10.5856667 C50.699701,8.25666667 52.4458445,6.657 54.8496712,6.657 C55.1381166,6.657 55.5699253,6.68733333 55.8741854,6.749 L55.8741854,3.19233333 L57.7973842,3.19233333 L57.7973842,13.801 Z M48.5069656,5.64533333 C47.8341555,5.64533333 47.337713,5.16466667 47.337713,4.54466667 C47.337713,3.923 47.8341555,3.42566667 48.5069656,3.42566667 C49.1801196,3.42566667 49.6927205,3.90633333 49.6927205,4.54466667 C49.6927205,5.14933333 49.1801196,5.64533333 48.5069656,5.64533333 Z M47.5467414,14.1903333 L49.4689088,14.1903333 L49.4689088,6.84266667 L47.5467414,6.84266667 L47.5467414,14.1903333 Z M46.4022422,8.519 C46.4022422,8.519 45.9192078,8.09566667 45.230583,8.09566667 C44.7499552,8.09566667 44.1682511,8.302 43.5820777,9.002 L43.5820777,14.1893333 L41.6750374,14.1893333 L41.6750374,6.84266667 L43.2932885,6.84266667 L43.5026607,7.66566667 C43.9636921,7.14333333 44.7207324,6.69266667 45.5846936,6.69266667 C45.8501046,6.69266667 46.1244544,6.73433333 46.4022422,6.82966667 L46.4022422,8.519 Z M36.021988,14.265 C35.044574,14.265 34.1788939,14.0786667 33.5387444,13.7536667 L33.5387444,3.115 L35.4447534,3.115 L35.4447534,6.795 C35.8772496,6.67066667 36.3262481,6.57766667 36.9179223,6.57766667 C38.9373842,6.57766667 40.5546039,7.867 40.5546039,10.1966667 C40.5546039,12.7753333 38.6021824,14.265 36.021988,14.265 Z M32.1718087,14.1573333 L30.2654559,14.1573333 L30.2654559,9.79366667 C30.2654559,8.92466667 30.089432,8.241 29.1109865,8.241 C28.5028102,8.241 27.8619731,8.536 27.3184305,8.97133333 L27.3345889,9.25 L27.3345889,14.1573333 L25.4103587,14.1573333 L25.4103587,9.81 C25.4103587,8.956 25.2666517,8.241 24.2902691,8.241 C23.6814051,8.241 23.0398804,8.536 22.479148,8.97 L22.479148,14.1573333 L20.5734828,14.1573333 L20.5734828,6.51433333 L20.6099253,6.49566667 L20.6480867,6.51433333 L21.6189686,6.985 C21.7980867,7.07866667 22.1030344,7.24433333 22.2969357,7.636 L22.3681016,7.636 C23.1206726,7.06 23.9849776,6.62533333 24.9139163,6.62533333 C25.8431988,6.62533333 26.5651719,7.029 26.9330344,7.75933333 C27.8465022,7.01366667 28.8074141,6.62533333 29.6562481,6.62533333 C30.9860538,6.62533333 32.1718087,7.33966667 32.1718087,9.28166667 L32.1718087,14.1573333 Z M19.1450075,14.3923333 L19.1071898,14.3703333 L18.1077728,13.8876667 C17.9692227,13.8153333 17.7643199,13.7026667 17.5838266,13.4913333 L17.4239611,13.4913333 C16.8800747,13.9713333 16.1907623,14.3433333 15.2470404,14.3433333 C13.8041256,14.3433333 12.7304484,13.412 12.7304484,11.9996667 C12.7304484,11.0053333 13.2286099,10.383 14.0124664,9.99633333 C14.5412257,9.73033333 15.1982212,9.60666667 15.9676383,9.576 L17.2654709,9.52933333 L17.2654709,9.29666667 C17.2654709,8.44166667 16.6875486,8.06833333 15.8067414,8.06833333 C15.0545142,8.06833333 14.3652018,8.302 13.8213154,8.58066667 L13.1959492,7.38633333 C14.092571,6.904 15.0710164,6.657 16.1261286,6.657 C18.1617489,6.657 19.1714798,7.55633333 19.1714798,9.328 L19.1718236,14.3703333 L19.1450075,14.3923333 Z M9.18074738,14.3443333 C5.72008969,14.3443333 3.84536622,12.1846667 3.84536622,9.187 C3.84536622,6.22166667 6.02469357,3.86 9.42037369,3.86 C10.5744993,3.86 11.5357549,4.07766667 12.1930942,4.35733333 L12.1930942,6.09633333 C11.3758894,5.67666667 10.4943946,5.42833333 9.47022422,5.42833333 C7.12931241,5.42833333 5.8964574,7.13666667 5.8964574,9.14133333 C5.8964574,11.2853333 7.24276532,12.7753333 9.40455904,12.7753333 C10.4455755,12.7753333 11.2449028,12.4803333 11.9985052,12.063 C12.0019432,12.6466667 12.1621525,13.159 12.4413154,13.579 C11.3036921,14.1633333 10.2117937,14.3443333 9.18074738,14.3443333 Z M72.5809865,0.181 L0.000687593423,0.181 L0,20 L72.5809865,20 L86.791136,10.0906667 L72.5809865,0.181 L72.5809865,0.181 Z" id="Fill-29" fill="#FFFFFE" mask="url(#mask-4)"></path>
                            </g>
                            <path d="M69.7147534,8.06966667 C68.7689686,8.06966667 68.2573991,8.845 68.2405531,9.73133333 L71.1717638,9.73133333 C71.1566368,8.891 70.7241405,8.06966667 69.7147534,8.06966667" id="Fill-31" fill="#FFFFFE"></path>
                        </g>
                    </g>
                </g>
            </g>
        </g>
    </g>
</svg>