<?xml version="1.0" encoding="UTF-8"?>
<svg width="154px" height="103px" viewBox="0 0 154 103" version="1.1" xmlns="http://www.w3.org/2000/svg" xmlns:xlink="http://www.w3.org/1999/xlink">
    <!-- Generator: Sketch 46.2 (44496) - http://www.bohemiancoding.com/sketch -->
    <title>estudiantes amarillo</title>
    <desc>Created with Sketch.</desc>
    <defs></defs>
    <g id="DESIGN" stroke="none" stroke-width="1" fill="none" fill-rule="evenodd">
        <g id="CONTACTO_SELEC_PERFIL" transform="translate(-426.000000, -697.000000)">
            <g id="FILTER" transform="translate(394.000000, 643.000000)">
                <g id="estudiantes-amarillo" transform="translate(4.000000, 0.000000)">
                    <path d="M50.9005181,96.6472441 L42.6020725,96.6472441 C42.2829016,96.6472441 41.9637306,96.888189 41.9637306,97.2897638 L41.9637306,155.19685 C41.9637306,155.51811 42.2031088,155.83937 42.6020725,155.83937 L50.9803109,155.83937 C51.2994819,155.83937 51.6186528,155.598425 51.6186528,155.19685 L51.6186528,97.2897638 C51.5388601,96.9685039 51.2994819,96.6472441 50.9005181,96.6472441 Z M50.3419689,102.911811 L46.9108808,102.911811 C46.5917098,102.911811 46.2725389,103.152756 46.2725389,103.554331 C46.2725389,103.875591 46.5119171,104.19685 46.9108808,104.19685 L50.3419689,104.19685 L50.3419689,110.622047 L47.8683938,110.622047 C47.5492228,110.622047 47.2300518,110.862992 47.2300518,111.264567 C47.2300518,111.585827 47.4694301,111.907087 47.8683938,111.907087 L50.3419689,111.907087 L50.3419689,118.332283 L46.9108808,118.332283 C46.5917098,118.332283 46.2725389,118.573228 46.2725389,118.974803 C46.2725389,119.296063 46.5119171,119.617323 46.9108808,119.617323 L50.3419689,119.617323 L50.3419689,126.04252 L47.8683938,126.04252 C47.5492228,126.04252 47.2300518,126.283465 47.2300518,126.685039 C47.2300518,127.006299 47.4694301,127.327559 47.8683938,127.327559 L50.3419689,127.327559 L50.3419689,133.752756 L46.9108808,133.752756 C46.5917098,133.752756 46.2725389,133.993701 46.2725389,134.395276 C46.2725389,134.716535 46.5119171,135.037795 46.9108808,135.037795 L50.3419689,135.037795 L50.3419689,141.462992 L47.8683938,141.462992 C47.5492228,141.462992 47.2300518,141.703937 47.2300518,142.105512 C47.2300518,142.426772 47.4694301,142.748031 47.8683938,142.748031 L50.3419689,142.748031 L50.3419689,149.173228 L46.9108808,149.173228 C46.5917098,149.173228 46.2725389,149.414173 46.2725389,149.815748 C46.2725389,150.137008 46.5119171,150.458268 46.9108808,150.458268 L50.3419689,150.458268 L50.3419689,154.554331 L43.1606218,154.554331 L43.1606218,97.8519685 L50.3419689,97.8519685 L50.3419689,102.911811 Z" id="Shape" fill="#FAB200" fill-rule="nonzero"></path>
                    <path d="M41.0722336,135.941689 L39.0932227,135.941689 C38.8953217,135.941689 38.6974206,136.084695 38.6974206,136.322835 C38.6974206,136.513407 38.8459255,136.70398 39.0932227,136.70398 L41.0722336,136.70398 C41.2701347,136.70398 41.4680357,136.560974 41.4680357,136.322835 C41.4186396,136.132262 41.2701347,135.941689 41.0722336,135.941689 L41.0722336,135.941689 Z M31.1277833,135.941689 L29.1487724,135.941689 C28.9508713,135.941689 28.7529703,136.084695 28.7529703,136.322835 C28.7529703,136.513407 28.9011586,136.70398 29.1487724,136.70398 L31.1277833,136.70398 C31.3256843,136.70398 31.5235854,136.560974 31.5235854,136.322835 C31.4741893,136.132262 31.3256843,135.941689 31.1277833,135.941689 L31.1277833,135.941689 Z M26.1305434,135.941689 L25.0422458,135.941689 C24.8443447,135.941689 24.6464436,136.084695 24.6464436,136.322835 C24.6464436,136.513407 24.7949486,136.70398 25.0422458,136.70398 L26.1305434,136.70398 C26.3284445,136.70398 26.5263456,136.560974 26.5263456,136.322835 C26.5263456,136.132262 26.3781572,135.941689 26.1305434,135.941689 L26.1305434,135.941689 Z M36.0753104,135.941689 L34.0962995,135.941689 C33.8983984,135.941689 33.7004974,136.084695 33.7004974,136.322835 C33.7004974,136.513407 33.8490023,136.70398 34.0962995,136.70398 L36.0753104,136.70398 C36.2732114,136.70398 36.4711125,136.560974 36.4711125,136.322835 C36.4711125,136.132262 36.2732114,135.941689 36.0753104,135.941689 L36.0753104,135.941689 Z M21.0842241,134.321974 L21.0842241,138.276129 L16.483103,136.322835 L21.0842241,134.321974 Z M21.8264323,138.419134 L46.1188695,138.419134 L46.1188695,134.226535 L21.8264323,134.226535 L21.8264323,138.419134 Z M46.8607611,138.419134 L49.0376731,138.419134 L49.0376731,134.226535 L46.8607611,134.226535 L46.8607611,138.419134 Z M49.7798813,134.226535 L51.7588921,134.226535 C52.7977937,134.226535 53.6391107,135.036393 53.6391107,136.036823 L53.6391107,136.608846 C53.6391107,137.609277 52.7977937,138.419134 51.7588921,138.419134 L49.7798813,138.419134 L49.7798813,134.226535 Z M15.4438849,136.656413 L21.1336202,139.086291 C21.1830163,139.086291 21.2327291,139.133858 21.2821252,139.133858 L21.3809174,139.133858 L21.4306301,139.133858 L51.709496,139.133858 C53.1441997,139.133858 54.3316062,137.990422 54.3316062,136.608846 L54.3316062,136.036823 C54.3316062,134.655247 53.1441997,133.511811 51.709496,133.511811 L49.3840791,133.511811 L46.464959,133.511811 L21.4800262,133.511811 L21.3809174,133.511811 L21.1336202,133.511811 L15.4438849,135.989256 C15.2956965,136.036823 15.2459838,136.179829 15.2459838,136.322835 C15.1965877,136.46584 15.2956965,136.560974 15.4438849,136.656413 L15.4438849,136.656413 Z" id="Fill-1" stroke="#FAB200" stroke-width="0.5" fill="#FAB200" transform="translate(34.782383, 136.322835) rotate(-90.000000) translate(-34.782383, -136.322835) "></path>
                    <path d="M132.209326,77.9338583 L132.209326,87.8929134 C132.209326,88.2944882 131.890155,88.5354331 131.570984,88.5354331 C131.172021,88.5354331 130.932642,88.2141732 130.932642,87.8929134 L130.932642,77.9338583 C130.932642,77.5322835 131.251813,77.2913386 131.570984,77.2913386 C131.969948,77.2913386 132.209326,77.6125984 132.209326,77.9338583 Z M131.650777,90.5433071 C131.969948,90.5433071 132.209326,90.784252 132.289119,91.1858268 L132.289119,94.3984252 C132.289119,94.8 131.969948,95.0409449 131.650777,95.0409449 C131.251813,95.0409449 131.012435,94.719685 131.012435,94.3984252 L131.012435,91.1858268 C131.012435,90.784252 131.331606,90.5433071 131.650777,90.5433071 Z" id="Combined-Shape" fill="#FAB200" fill-rule="nonzero"></path>
                    <path d="M48.9056995,79.1385827 C48.5865285,79.1385827 48.3471503,78.8173228 48.2673575,78.496063 L48.2673575,68.5370079 C48.2673575,68.1354331 48.5865285,67.8944882 48.9056995,67.8944882 C49.3046632,67.8944882 49.5440415,68.215748 49.5440415,68.5370079 L49.5440415,78.496063 C49.5440415,78.8976378 49.2248705,79.1385827 48.9056995,79.1385827 Z M48.9056995,85.5637795 C48.5865285,85.5637795 48.3471503,85.3228346 48.2673575,85.0015748 L48.2673575,81.7889764 C48.2673575,81.3874016 48.5865285,81.1464567 48.9056995,81.1464567 C49.3046632,81.1464567 49.5440415,81.4677165 49.5440415,81.7889764 L49.5440415,85.0015748 C49.5440415,85.3228346 49.2248705,85.5637795 48.9056995,85.5637795 Z" id="Combined-Shape" fill="#FAB200" fill-rule="nonzero"></path>
                    <path d="M30.3937824,87.4913386 L29.0373057,86.2062992 C28.7979275,85.9653543 28.7979275,85.5637795 29.0373057,85.3228346 C29.2766839,85.0818898 29.6756477,85.0818898 29.9150259,85.3228346 L31.1917098,86.607874 C31.4310881,86.8488189 31.4310881,87.2503937 31.1917098,87.4913386 C31.1119171,87.5716535 30.9523316,87.6519685 30.7927461,87.6519685 C30.6331606,87.6519685 30.4735751,87.5716535 30.3937824,87.4913386 Z M34.7823834,91.9086614 L33.346114,90.5433071 C33.1067358,90.3023622 33.1067358,89.9007874 33.346114,89.6598425 C33.5854922,89.4188976 33.984456,89.4188976 34.2238342,89.6598425 L35.5803109,91.0251969 C35.8196891,91.2661417 35.8196891,91.6677165 35.5803109,91.9086614 C35.5005181,91.9889764 35.3409326,92.0692913 35.1813472,92.0692913 C35.0217617,92.0692913 34.8621762,91.9889764 34.7823834,91.9086614 Z M29.4362694,92.1496063 C29.2766839,92.1496063 29.1968912,92.0692913 28.957513,91.9889764 C28.7181347,91.7480315 28.7181347,91.3464567 28.957513,91.1055118 L30.3139896,89.7401575 C30.5533679,89.4992126 30.9523316,89.4992126 31.1917098,89.7401575 C31.4310881,89.9811024 31.4310881,90.3826772 31.1917098,90.623622 L29.8352332,91.9889764 C29.7554404,92.0692913 29.5958549,92.1496063 29.4362694,92.1496063 Z M33.8248705,87.7322835 C33.665285,87.7322835 33.5854922,87.6519685 33.346114,87.5716535 C33.1067358,87.3307087 33.1067358,86.9291339 33.346114,86.688189 L34.7025907,85.3228346 C34.9419689,85.0818898 35.3409326,85.0818898 35.5803109,85.3228346 C35.8196891,85.5637795 35.8196891,85.9653543 35.5803109,86.2062992 L34.2238342,87.5716535 C34.1440415,87.6519685 33.984456,87.7322835 33.8248705,87.7322835 Z" id="Combined-Shape" fill="#FAB200" fill-rule="nonzero"></path>
                    <path d="M150.481865,100.502362 L151.758549,101.867717 C151.997927,102.108661 151.997927,102.510236 151.758549,102.751181 C151.678756,102.831496 151.519171,102.911811 151.359585,102.911811 C151.2,102.911811 151.040415,102.831496 150.960622,102.751181 L149.604145,101.385827 C149.364767,101.144882 149.364767,100.743307 149.604145,100.502362 C149.843523,100.261417 150.242487,100.261417 150.481865,100.502362 Z M154.870466,104.919685 L156.14715,106.285039 C156.386528,106.525984 156.386528,106.927559 156.14715,107.168504 C156.067358,107.248819 155.907772,107.329134 155.748187,107.329134 C155.588601,107.329134 155.429016,107.248819 155.349223,107.168504 L153.992746,105.80315 C153.753368,105.562205 153.753368,105.16063 153.992746,104.919685 C154.232124,104.67874 154.631088,104.67874 154.870466,104.919685 Z M150.960622,104.919685 C151.2,104.67874 151.598964,104.67874 151.758549,104.919685 C151.997927,105.16063 151.997927,105.562205 151.758549,105.80315 L150.402073,107.168504 C150.32228,107.248819 150.162694,107.329134 150.003109,107.329134 C149.843523,107.329134 149.683938,107.248819 149.604145,107.168504 C149.364767,106.927559 149.364767,106.525984 149.604145,106.285039 L150.960622,104.919685 Z M155.429016,100.502362 C155.588601,100.261417 155.987565,100.261417 156.226943,100.502362 C156.466321,100.743307 156.466321,101.144882 156.226943,101.385827 L154.870466,102.751181 C154.790674,102.831496 154.631088,102.911811 154.471503,102.911811 C154.311917,102.911811 154.152332,102.831496 154.072539,102.751181 C153.833161,102.510236 153.833161,102.108661 154.072539,101.867717 L155.429016,100.502362 Z" id="Combined-Shape" fill="#FAB200" fill-rule="nonzero"></path>
                    <path d="M66.4601036,148.932283 L65.0238342,147.566929 C64.784456,147.325984 64.784456,146.924409 65.0238342,146.683465 C65.2632124,146.44252 65.6621762,146.44252 65.9015544,146.683465 L67.2580311,148.048819 C67.4974093,148.289764 67.4974093,148.691339 67.2580311,148.932283 C67.1782383,149.012598 67.0186528,149.092913 66.8590674,149.092913 C66.6994819,149.092913 66.5398964,149.012598 66.4601036,148.932283 Z M70.8487047,153.349606 L69.492228,152.064567 C69.2528497,151.823622 69.2528497,151.422047 69.492228,151.181102 C69.7316062,150.940157 70.1305699,150.940157 70.3699482,151.181102 L71.6466321,152.466142 C71.8860104,152.707087 71.8860104,153.108661 71.6466321,153.349606 C71.5668394,153.429921 71.4072539,153.510236 71.2476684,153.510236 C71.0880829,153.510236 70.9284974,153.429921 70.8487047,153.349606 Z M65.5025907,153.590551 C65.4227979,153.590551 65.2632124,153.510236 65.0238342,153.429921 C64.784456,153.188976 64.784456,152.787402 65.0238342,152.546457 L66.3803109,151.181102 C66.6196891,150.940157 67.0186528,150.940157 67.2580311,151.181102 C67.4974093,151.422047 67.4974093,151.823622 67.2580311,152.064567 L65.9015544,153.429921 C65.8217617,153.510236 65.6621762,153.590551 65.5025907,153.590551 Z M69.9709845,149.173228 C69.811399,149.173228 69.6518135,149.092913 69.492228,149.012598 C69.2528497,148.771654 69.2528497,148.370079 69.492228,148.129134 L70.8487047,146.76378 C71.0880829,146.522835 71.4870466,146.522835 71.7264249,146.76378 C71.9658031,147.004724 71.9658031,147.406299 71.7264249,147.647244 L70.3699482,149.012598 C70.2901554,149.092913 70.1305699,149.173228 69.9709845,149.173228 Z" id="Combined-Shape" fill="#FAB200" fill-rule="nonzero"></path>
                    <path d="M67.3378238,71.4283465 C67.5772021,71.6692913 67.5772021,72.0708661 67.2580311,72.311811 C67.1782383,72.392126 67.0186528,72.4724409 66.8590674,72.4724409 C66.6994819,72.4724409 66.5398964,72.392126 66.4601036,72.311811 L65.1036269,70.9464567 C64.8642487,70.7055118 64.8642487,70.303937 65.1036269,70.0629921 C65.3430052,69.8220472 65.7419689,69.8220472 65.9813472,70.0629921 L67.3378238,71.4283465 Z M69.5720207,75.3637795 C69.3326425,75.1228346 69.3326425,74.7212598 69.492228,74.480315 C69.7316062,74.2393701 70.1305699,74.2393701 70.3699482,74.480315 L71.7264249,75.8456693 C71.9658031,76.0866142 71.9658031,76.488189 71.7264249,76.7291339 C71.6466321,76.8094488 71.4870466,76.8897638 71.3274611,76.8897638 C71.1678756,76.8897638 71.0082902,76.8094488 70.9284974,76.7291339 L69.5720207,75.3637795 Z M66.5398964,74.480315 C66.7792746,74.2393701 67.0984456,74.2393701 67.3378238,74.480315 C67.5772021,74.7212598 67.5772021,75.1228346 67.3378238,75.3637795 L65.9813472,76.7291339 C65.9015544,76.8094488 65.7419689,76.8897638 65.5823834,76.8897638 C65.4227979,76.8897638 65.2632124,76.8094488 65.1834197,76.7291339 C64.9440415,76.488189 64.9440415,76.0866142 65.1834197,75.8456693 L66.5398964,74.480315 Z M69.9709845,72.4724409 C69.811399,72.4724409 69.6518135,72.392126 69.492228,72.311811 C69.2528497,72.0708661 69.2528497,71.6692913 69.492228,71.4283465 L70.8487047,70.0629921 C71.0880829,69.8220472 71.4870466,69.8220472 71.7264249,70.0629921 C71.9658031,70.303937 71.9658031,70.7055118 71.7264249,70.9464567 L70.3699482,72.311811 C70.2901554,72.392126 70.1305699,72.4724409 69.9709845,72.4724409 Z" id="Combined-Shape" fill="#FAB200" fill-rule="nonzero"></path>
                    <path d="M142.741969,81.3070866 C142.741969,82.9133858 144.018653,84.1984252 145.614508,84.1984252 C147.210363,84.1984252 148.487047,82.9133858 148.487047,81.3070866 C148.487047,79.7007874 147.210363,78.415748 145.614508,78.415748 C144.018653,78.415748 142.741969,79.7007874 142.741969,81.3070866 Z M147.290155,81.3070866 C147.290155,82.2708661 146.492228,82.9937008 145.614508,82.9937008 C144.656995,82.9937008 143.93886,82.1905512 143.93886,81.3070866 C143.93886,80.3433071 144.736788,79.6204724 145.614508,79.6204724 C146.572021,79.6204724 147.290155,80.423622 147.290155,81.3070866 Z" id="Shape" fill="#FAB200" fill-rule="nonzero"></path>
                    <path d="M64.7046632,90.4629921 C63.1088083,90.4629921 61.8321244,91.7480315 61.8321244,93.3543307 C61.8321244,94.9606299 63.1088083,96.2456693 64.7046632,96.2456693 C66.3005181,96.2456693 67.5772021,94.9606299 67.5772021,93.3543307 C67.5772021,91.7480315 66.3005181,90.4629921 64.7046632,90.4629921 Z M64.7046632,95.1212598 C63.7471503,95.1212598 63.0290155,94.3181102 63.0290155,93.4346457 C63.0290155,92.5511811 63.826943,91.7480315 64.7046632,91.7480315 C65.6621762,91.7480315 66.3803109,92.5511811 66.3803109,93.4346457 C66.3803109,94.3181102 65.6621762,95.1212598 64.7046632,95.1212598 Z" id="Shape" fill="#FAB200" fill-rule="nonzero"></path>
                    <path d="M126.304663,66.207874 C125.985492,66.207874 125.666321,65.9669291 125.666321,65.5653543 C125.666321,65.1637795 125.985492,64.9228346 126.304663,64.9228346 L136.996891,64.9228346 C137.395855,64.9228346 137.635233,65.1637795 137.635233,65.5653543 C137.635233,65.9669291 137.316062,66.207874 136.996891,66.207874 L126.304663,66.207874 Z M140.507772,66.207874 C140.188601,66.207874 139.86943,65.9669291 139.86943,65.5653543 C139.86943,65.1637795 140.188601,64.9228346 140.507772,64.9228346 L143.93886,64.9228346 C144.337824,64.9228346 144.577202,65.1637795 144.577202,65.5653543 C144.577202,65.9669291 144.258031,66.207874 143.93886,66.207874 L140.507772,66.207874 Z M144.577202,69.3401575 C144.577202,69.6614173 144.258031,69.9826772 144.018653,69.9826772 L136.518135,69.9826772 C136.119171,69.9826772 135.879793,69.6614173 135.879793,69.3401575 C135.879793,68.9385827 136.198964,68.6976378 136.518135,68.6976378 L143.93886,68.6976378 C144.337824,68.6976378 144.577202,69.0188976 144.577202,69.3401575 Z M130.85285,68.6976378 L133.246632,68.6976378 C133.645596,68.6976378 133.884974,69.0188976 133.884974,69.3401575 C133.884974,69.7417323 133.565803,69.9826772 133.246632,69.9826772 L130.85285,69.9826772 C130.453886,69.9826772 130.214508,69.6614173 130.214508,69.3401575 C130.214508,68.9385827 130.533679,68.6976378 130.85285,68.6976378 Z" id="Combined-Shape" fill="#FFFFFF" fill-rule="nonzero"></path>
                    <g id="libros" transform="translate(136.119171, 117.047244)" stroke="#FAB200" stroke-width="1.5999999" stroke-linecap="round">
                        <path d="M38.6994819,4.03359661 C38.6994819,5.50118871 38.7553847,6.69375405 38.1173714,6.69375405 C37.4395461,6.69375405 36.2662715,5.50148223 36.3060835,4.03389013 C36.3060835,2.56629803 37.4793581,1.37343917 38.1173714,1.37343917 C38.7553847,1.37343917 38.6994819,2.56600451 38.6994819,4.03359661 Z M34.8421024,0.252153133 C34.9615451,0.252153133 35.0809878,0.317524853 35.1207172,0.382687718 C35.2004305,0.448059438 35.2004305,0.546012591 35.1207172,0.611175456 C33.4095539,2.7325191 33.4095539,5.47353653 35.1207172,7.59488018 C35.1604465,7.69262448 35.1604465,7.79057763 35.1207172,7.85594935 C35.0412585,7.92111221 34.9615451,7.98648393 34.8421024,7.98648393 L2.2283678,7.98648393 C2.14890911,7.98648393 2.0294664,7.9539025 1.98973705,7.88853078 C0.159131046,5.60407112 0.159131046,2.63456595 1.98973705,0.350106286 C2.0294664,0.284943421 2.10917977,0.252153133 2.2283678,0.252153133 L34.8421024,0.252153133 Z M7.28627866,4.33047084 L22.2075228,4.33047084" id="Combined-Shape"></path>
                        <path d="M43.4870466,16.8661417 C43.4870466,18.638512 43.5429494,20.0787402 42.9049362,20.0787402 C42.2271108,20.0787402 41.0538363,18.6388665 41.0936483,16.8664962 C41.0936483,15.0941259 42.2669229,13.6535433 42.9049362,13.6535433 C43.5429494,13.6535433 43.4870466,15.0937714 43.4870466,16.8661417 Z M39.6296672,12.2993972 C39.7491099,12.2993972 39.8685526,12.3783448 39.9082819,12.4570402 C39.9879953,12.5359878 39.9879953,12.6542832 39.9082819,12.7329785 C38.1971186,15.2948665 38.1971186,18.6051173 39.9082819,21.1670052 C39.9480113,21.2850483 39.9480113,21.4033436 39.9082819,21.4822912 C39.8288232,21.5609866 39.7491099,21.6399342 39.6296672,21.6399342 L2.2283678,21.6399342 C2.14890911,21.6399342 2.0294664,21.6005865 1.98973705,21.5216389 C0.159131046,18.7627603 0.159131046,15.1765712 1.98973705,12.4176925 C2.0294664,12.3389971 2.10917977,12.2993972 2.2283678,12.2993972 L39.6296672,12.2993972 Z M7.28508162,16.9744806 L15.66332,16.9744806 M19.2539935,16.9744806 L27.6322319,16.9744806" id="Combined-Shape"></path>
                        <path d="M45.0829016,30.519685 C45.0829016,32.2920554 45.1388044,33.7322835 44.5007911,33.7322835 C43.8229658,33.7322835 42.6496912,32.2924098 42.6895032,30.5200395 C42.6895032,28.7476692 43.8627778,27.3070866 44.5007911,27.3070866 C45.1388044,27.3070866 45.0829016,28.7473147 45.0829016,30.519685 Z M41.2255221,25.9529405 C41.3449648,25.9529405 41.4644075,26.0318881 41.5041369,26.1105835 C41.5838502,26.1895312 41.5838502,26.3078265 41.5041369,26.3865218 C39.7929736,28.9484098 39.7929736,32.2586606 41.5041369,34.8205485 C41.5438662,34.9385916 41.5438662,35.0568869 41.5041369,35.1358345 C41.4246782,35.2145299 41.3449648,35.2934775 41.2255221,35.2934775 L2.2283678,35.2934775 C2.14890911,35.2934775 2.0294664,35.2541298 1.98973705,35.1751822 C0.159131046,32.4163036 0.159131046,28.8301145 1.98973705,26.0712358 C2.0294664,25.9925405 2.10917977,25.9529405 2.2283678,25.9529405 L41.2255221,25.9529405 Z M6.4883512,30.2264491 L30.1867974,30.2264491" id="Combined-Shape" stroke-linejoin="round"></path>
                    </g>
                    <path d="M76.2708692,134.314961 L76.0523954,134.314961 C75.2335668,133.784851 74.7068723,133.450205 74.4723116,133.311024 C74.1204707,133.102251 72.6839378,132.256599 72.6839378,130.5 L72.6839378,126.283465 L79.865285,126.283465 L79.865285,130.5 C79.865285,132.513038 78.8938612,133.098991 78.3707572,133.311024 C78.2574379,133.432577 76.4862984,134.232174 76.4215344,134.314961 L76.2708692,134.314961 Z" id="Fill-50" stroke="#FAB200" stroke-width="1.5999999"></path>
                    <g id="estudiante" transform="translate(55.927461, 54.803150)" stroke-linecap="round" stroke="#FAB200" stroke-width="1.5999999">
                        <g id="Group-31" transform="translate(0.000000, 0.282888)">
                            <path d="M21.5313505,22.4015364 C32.2483616,25.8417714 43.4226089,25.8417714 54.13962,22.4015364" id="Stroke-3"></path>
                            <path d="M54.9742916,29.2480682 C56.8269607,29.7798396 58.1691932,30.3975744 58.1691932,33.1374629 C58.1691932,36.1522808 56.5365151,36.9349733 54.4027464,37.1317648 C53.2064557,41.6984868 50.7283221,48.023509 47.3795706,50.6461907 L47.9266724,57.0181739 C48.0136623,57.7792942 48.4277629,58.4630002 49.0582599,58.8905878 C49.2825644,59.0432459 49.5284367,59.1590057 49.7879685,59.234973 L61.7170868,62.7200648 C63.2634939,63.0622796 64.8422526,63.8935793 66.3951301,65.1835769 C68.841631,67.2166074 70.5210392,70.0454862 71.133563,73.1507414 L76.2020725,99.7092381 M0.398963731,92.8824665 L4.77033901,73.1507414 C5.38286289,70.0454862 7.06227109,67.2166074 9.50877199,65.1835769 C11.0616494,63.8935793 12.6404082,63.0622796 14.1868153,62.7200648 L26.1159335,59.234973 C26.3754654,59.1590057 26.6213376,59.0432459 26.8456421,58.8905878 C27.4768581,58.4630002 27.8902398,57.7792942 27.9772297,57.0181739 L28.5250503,50.6461907 C25.17558,48.023509 22.6974464,41.6984868 21.5011556,37.1317648 C19.367387,36.9349733 17.7354278,36.1522808 17.7354278,33.1374629 C17.7354278,30.3975744 19.0769414,29.7798396 20.9303294,29.2480682" id="Stroke-5"></path>
                            <path d="M21.5267493,22.4008129 C20.8107003,25.7824445 20.9300418,30.0512178 20.9300418,30.0512178" id="Stroke-7"></path>
                            <path d="M54.7064921,30.0208309 C54.7064921,30.0208309 54.8380554,25.76291 54.1421362,22.393578" id="Stroke-9"></path>
                            <path d="M26.8456421,58.8908772 L37.8667584,70.3887138" id="Stroke-11"></path>
                            <path d="M48.8872996,58.8908772 L37.8661833,70.3887138" id="Stroke-13"></path>
                            <path d="M37.5025907,70.3887862 L37.5025907,80.3681988" id="Stroke-15"></path>
                            <path d="M53.4611399,22.4011747 L53.4611399,11.4228099" id="Stroke-17"></path>
                            <path d="M20.746114,11.430696 L20.746114,22.4011023" id="Stroke-19"></path>
                            <polyline id="Stroke-21" stroke-linejoin="round" points="37.9521667 0.0787166265 64.9779856 7.35783409 37.834263 15.6028219 37.8371387 15.6028219 10.6926973 7.35783409 37.9521667 0.0787166265"></polyline>
                            <path d="M64.6321244,7.35783409 L64.6321244,19.0864667" id="Stroke-23" stroke-linejoin="round"></path>
                            <path d="M64.1802738,19.0864667 L61.2290878,23.6915341" id="Stroke-25" stroke-linejoin="round"></path>
                            <path d="M64.9782013,19.0864667 L67.9293874,23.6915341" id="Stroke-27" stroke-linejoin="round"></path>
                            <path d="M51.0897256,75.496063 L61.4968801,75.496063" id="Stroke-29"></path>
                        </g>
                    </g>
                </g>
            </g>
        </g>
    </g>
</svg>