<?xml version="1.0" encoding="UTF-8"?>
<svg width="192px" height="128px" viewBox="0 0 192 128" version="1.1" xmlns="http://www.w3.org/2000/svg" xmlns:xlink="http://www.w3.org/1999/xlink">
    <!-- Generator: Sketch 46.2 (44496) - http://www.bohemiancoding.com/sketch -->
    <title>estudiantes</title>
    <desc>Created with Sketch.</desc>
    <defs></defs>
    <g id="DESIGN" stroke="none" stroke-width="1" fill="none" fill-rule="evenodd">
        <g id="HOMEPAGE" transform="translate(-274.000000, -630.000000)">
            <g id="FILTER" transform="translate(150.000000, 608.000000)">
                <g id="estudiantes" transform="translate(123.000000, 22.000000)">
                    <path d="M28.7,53.1 L18.3,53.1 C17.9,53.1 17.5,53.4 17.5,53.9 L17.5,126 C17.5,126.4 17.8,126.8 18.3,126.8 L28.8,126.8 C29.2,126.8 29.6,126.5 29.6,126 L29.6,53.9 C29.5,53.5 29.2,53.1 28.7,53.1 Z M28,60.9 L23.7,60.9 C23.3,60.9 22.9,61.2 22.9,61.7 C22.9,62.1 23.2,62.5 23.7,62.5 L28,62.5 L28,70.5 L24.9,70.5 C24.5,70.5 24.1,70.8 24.1,71.3 C24.1,71.7 24.4,72.1 24.9,72.1 L28,72.1 L28,80.1 L23.7,80.1 C23.3,80.1 22.9,80.4 22.9,80.9 C22.9,81.3 23.2,81.7 23.7,81.7 L28,81.7 L28,89.7 L24.9,89.7 C24.5,89.7 24.1,90 24.1,90.5 C24.1,90.9 24.4,91.3 24.9,91.3 L28,91.3 L28,99.3 L23.7,99.3 C23.3,99.3 22.9,99.6 22.9,100.1 C22.9,100.5 23.2,100.9 23.7,100.9 L28,100.9 L28,108.9 L24.9,108.9 C24.5,108.9 24.1,109.2 24.1,109.7 C24.1,110.1 24.4,110.5 24.9,110.5 L28,110.5 L28,118.5 L23.7,118.5 C23.3,118.5 22.9,118.8 22.9,119.3 C22.9,119.7 23.2,120.1 23.7,120.1 L28,120.1 L28,125.2 L19,125.2 L19,54.6 L28,54.6 L28,60.9 Z" id="Shape" fill="#E33C10" fill-rule="nonzero"></path>
                    <path d="M16.3827343,102.025437 L13.9025454,102.025437 C13.6545265,102.025437 13.4065076,102.203493 13.4065076,102.5 C13.4065076,102.737282 13.592621,102.974563 13.9025454,102.974563 L16.3827343,102.974563 C16.6307532,102.974563 16.8787721,102.796507 16.8787721,102.5 C16.8168666,102.262718 16.6307532,102.025437 16.3827343,102.025437 L16.3827343,102.025437 Z M3.91988422,102.025437 L1.43969531,102.025437 C1.19167641,102.025437 0.943657524,102.203493 0.943657524,102.5 C0.943657524,102.737282 1.12937407,102.974563 1.43969531,102.974563 L3.91988422,102.974563 C4.16790311,102.974563 4.415922,102.796507 4.415922,102.5 C4.35401648,102.262718 4.16790311,102.025437 3.91988422,102.025437 L3.91988422,102.025437 Z M-2.34289041,102.025437 L-3.70679589,102.025437 C-3.95481478,102.025437 -4.20283368,102.203493 -4.20283368,102.5 C-4.20283368,102.737282 -4.0167203,102.974563 -3.70679589,102.974563 L-2.34289041,102.974563 C-2.09487152,102.974563 -1.84685262,102.796507 -1.84685262,102.5 C-1.84685262,102.262718 -2.03256917,102.025437 -2.34289041,102.025437 L-2.34289041,102.025437 Z M10.1203565,102.025437 L7.64016759,102.025437 C7.39214869,102.025437 7.1441298,102.203493 7.1441298,102.5 C7.1441298,102.737282 7.33024318,102.974563 7.64016759,102.974563 L10.1203565,102.974563 C10.3683754,102.974563 10.6163943,102.796507 10.6163943,102.5 C10.6163943,102.262718 10.3683754,102.025437 10.1203565,102.025437 L10.1203565,102.025437 Z M-8.66717372,100.008732 L-8.66717372,104.932043 L-14.4335137,102.5 L-8.66717372,100.008732 Z M-7.73700367,105.110099 L22.7074144,105.110099 L22.7074144,99.8899013 L-7.73700367,99.8899013 L-7.73700367,105.110099 Z M23.6371877,105.110099 L26.3653955,105.110099 L26.3653955,99.8899013 L23.6371877,99.8899013 L23.6371877,105.110099 Z M27.2955655,99.8899013 L29.7757544,99.8899013 C31.0777544,99.8899013 32.1321323,100.898254 32.1321323,102.143888 L32.1321323,102.856112 C32.1321323,104.101746 31.0777544,105.110099 29.7757544,105.110099 L27.2955655,105.110099 L27.2955655,99.8899013 Z M-15.7359105,102.915338 L-8.6052682,105.940774 C-8.54336269,105.940774 -8.48106034,106 -8.41915483,106 L-8.2953438,106 L-8.23304145,106 L29.7138489,106 C31.5118867,106 33,104.57631 33,102.856112 L33,102.143888 C33,100.42369 31.5118867,99 29.7138489,99 L26.7995277,99 L23.1411499,99 L-8.17113593,99 L-8.2953438,99 L-8.6052682,99 L-15.7359105,102.084662 C-15.9216271,102.143888 -15.9839294,102.321944 -15.9839294,102.5 C-16.0458349,102.678056 -15.9216271,102.796507 -15.7359105,102.915338 L-15.7359105,102.915338 Z" id="Fill-1" stroke="#E33C10" stroke-width="0.5" fill="#E33C10" transform="translate(8.500000, 102.500000) rotate(-90.000000) translate(-8.500000, -102.500000) "></path>
                    <path d="M130.6,29.8 L130.6,42.2 C130.6,42.7 130.2,43 129.8,43 C129.3,43 129,42.6 129,42.2 L129,29.8 C129,29.3 129.4,29 129.8,29 C130.3,29 130.6,29.4 130.6,29.8 Z M129.9,45.5 C130.3,45.5 130.6,45.8 130.7,46.3 L130.7,50.3 C130.7,50.8 130.3,51.1 129.9,51.1 C129.4,51.1 129.1,50.7 129.1,50.3 L129.1,46.3 C129.1,45.8 129.5,45.5 129.9,45.5 Z" id="Combined-Shape" fill="#E33C10" fill-rule="nonzero"></path>
                    <path d="M26.2,31.3 C25.8,31.3 25.5,30.9 25.4,30.5 L25.4,18.1 C25.4,17.6 25.8,17.3 26.2,17.3 C26.7,17.3 27,17.7 27,18.1 L27,30.5 C27,31 26.6,31.3 26.2,31.3 Z M26.2,39.3 C25.8,39.3 25.5,39 25.4,38.6 L25.4,34.6 C25.4,34.1 25.8,33.8 26.2,33.8 C26.7,33.8 27,34.2 27,34.6 L27,38.6 C27,39 26.6,39.3 26.2,39.3 Z" id="Combined-Shape" fill="#E33C10" fill-rule="nonzero"></path>
                    <path d="M3,41.7 L1.3,40.1 C1,39.8 1,39.3 1.3,39 C1.6,38.7 2.1,38.7 2.4,39 L4,40.6 C4.3,40.9 4.3,41.4 4,41.7 C3.9,41.8 3.7,41.9 3.5,41.9 C3.3,41.9 3.1,41.8 3,41.7 Z M8.5,47.2 L6.7,45.5 C6.4,45.2 6.4,44.7 6.7,44.4 C7,44.1 7.5,44.1 7.8,44.4 L9.5,46.1 C9.8,46.4 9.8,46.9 9.5,47.2 C9.4,47.3 9.2,47.4 9,47.4 C8.8,47.4 8.6,47.3 8.5,47.2 Z M1.8,47.5 C1.6,47.5 1.5,47.4 1.2,47.3 C0.9,47 0.9,46.5 1.2,46.2 L2.9,44.5 C3.2,44.2 3.7,44.2 4,44.5 C4.3,44.8 4.3,45.3 4,45.6 L2.3,47.3 C2.2,47.4 2,47.5 1.8,47.5 Z M7.3,42 C7.1,42 7,41.9 6.7,41.8 C6.4,41.5 6.4,41 6.7,40.7 L8.4,39 C8.7,38.7 9.2,38.7 9.5,39 C9.8,39.3 9.8,39.8 9.5,40.1 L7.8,41.8 C7.7,41.9 7.5,42 7.3,42 Z" id="Combined-Shape" fill="#E33C10" fill-rule="nonzero"></path>
                    <path d="M153.5,57.9 L155.1,59.6 C155.4,59.9 155.4,60.4 155.1,60.7 C155,60.8 154.8,60.9 154.6,60.9 C154.4,60.9 154.2,60.8 154.1,60.7 L152.4,59 C152.1,58.7 152.1,58.2 152.4,57.9 C152.7,57.6 153.2,57.6 153.5,57.9 Z M159,63.4 L160.6,65.1 C160.9,65.4 160.9,65.9 160.6,66.2 C160.5,66.3 160.3,66.4 160.1,66.4 C159.9,66.4 159.7,66.3 159.6,66.2 L157.9,64.5 C157.6,64.2 157.6,63.7 157.9,63.4 C158.2,63.1 158.7,63.1 159,63.4 Z M154.1,63.4 C154.4,63.1 154.9,63.1 155.1,63.4 C155.4,63.7 155.4,64.2 155.1,64.5 L153.4,66.2 C153.3,66.3 153.1,66.4 152.9,66.4 C152.7,66.4 152.5,66.3 152.4,66.2 C152.1,65.9 152.1,65.4 152.4,65.1 L154.1,63.4 Z M159.7,57.9 C159.9,57.6 160.4,57.6 160.7,57.9 C161,58.2 161,58.7 160.7,59 L159,60.7 C158.9,60.8 158.7,60.9 158.5,60.9 C158.3,60.9 158.1,60.8 158,60.7 C157.7,60.4 157.7,59.9 158,59.6 L159.7,57.9 Z" id="Combined-Shape" fill="#E33C10" fill-rule="nonzero"></path>
                    <path d="M48.2,118.2 L46.4,116.5 C46.1,116.2 46.1,115.7 46.4,115.4 C46.7,115.1 47.2,115.1 47.5,115.4 L49.2,117.1 C49.5,117.4 49.5,117.9 49.2,118.2 C49.1,118.3 48.9,118.4 48.7,118.4 C48.5,118.4 48.3,118.3 48.2,118.2 Z M53.7,123.7 L52,122.1 C51.7,121.8 51.7,121.3 52,121 C52.3,120.7 52.8,120.7 53.1,121 L54.7,122.6 C55,122.9 55,123.4 54.7,123.7 C54.6,123.8 54.4,123.9 54.2,123.9 C54,123.9 53.8,123.8 53.7,123.7 Z M47,124 C46.9,124 46.7,123.9 46.4,123.8 C46.1,123.5 46.1,123 46.4,122.7 L48.1,121 C48.4,120.7 48.9,120.7 49.2,121 C49.5,121.3 49.5,121.8 49.2,122.1 L47.5,123.8 C47.4,123.9 47.2,124 47,124 Z M52.6,118.5 C52.4,118.5 52.2,118.4 52,118.3 C51.7,118 51.7,117.5 52,117.2 L53.7,115.5 C54,115.2 54.5,115.2 54.8,115.5 C55.1,115.8 55.1,116.3 54.8,116.6 L53.1,118.3 C53,118.4 52.8,118.5 52.6,118.5 Z" id="Combined-Shape" fill="#E33C10" fill-rule="nonzero"></path>
                    <path d="M49.3,21.7 C49.6,22 49.6,22.5 49.2,22.8 C49.1,22.9 48.9,23 48.7,23 C48.5,23 48.3,22.9 48.2,22.8 L46.5,21.1 C46.2,20.8 46.2,20.3 46.5,20 C46.8,19.7 47.3,19.7 47.6,20 L49.3,21.7 Z M52.1,26.6 C51.8,26.3 51.8,25.8 52,25.5 C52.3,25.2 52.8,25.2 53.1,25.5 L54.8,27.2 C55.1,27.5 55.1,28 54.8,28.3 C54.7,28.4 54.5,28.5 54.3,28.5 C54.1,28.5 53.9,28.4 53.8,28.3 L52.1,26.6 Z M48.3,25.5 C48.6,25.2 49,25.2 49.3,25.5 C49.6,25.8 49.6,26.3 49.3,26.6 L47.6,28.3 C47.5,28.4 47.3,28.5 47.1,28.5 C46.9,28.5 46.7,28.4 46.6,28.3 C46.3,28 46.3,27.5 46.6,27.2 L48.3,25.5 Z M52.6,23 C52.4,23 52.2,22.9 52,22.8 C51.7,22.5 51.7,22 52,21.7 L53.7,20 C54,19.7 54.5,19.7 54.8,20 C55.1,20.3 55.1,20.8 54.8,21.1 L53.1,22.8 C53,22.9 52.8,23 52.6,23 Z" id="Combined-Shape" fill="#E33C10" fill-rule="nonzero"></path>
                    <path d="M143.8,34 C143.8,36 145.4,37.6 147.4,37.6 C149.4,37.6 151,36 151,34 C151,32 149.4,30.4 147.4,30.4 C145.4,30.4 143.8,32 143.8,34 Z M149.5,34 C149.5,35.2 148.5,36.1 147.4,36.1 C146.2,36.1 145.3,35.1 145.3,34 C145.3,32.8 146.3,31.9 147.4,31.9 C148.6,31.9 149.5,32.9 149.5,34 Z" id="Shape" fill="#E33C10" fill-rule="nonzero"></path>
                    <path d="M46,45.4 C44,45.4 42.4,47 42.4,49 C42.4,51 44,52.6 46,52.6 C48,52.6 49.6,51 49.6,49 C49.6,47 48,45.4 46,45.4 Z M46,51.2 C44.8,51.2 43.9,50.2 43.9,49.1 C43.9,48 44.9,47 46,47 C47.2,47 48.1,48 48.1,49.1 C48.1,50.2 47.2,51.2 46,51.2 Z" id="Shape" fill="#E33C10" fill-rule="nonzero"></path>
                    <path d="M123.2,15.2 C122.8,15.2 122.4,14.9 122.4,14.4 C122.4,13.9 122.8,13.6 123.2,13.6 L136.6,13.6 C137.1,13.6 137.4,13.9 137.4,14.4 C137.4,14.9 137,15.2 136.6,15.2 L123.2,15.2 Z M141,15.2 C140.6,15.2 140.2,14.9 140.2,14.4 C140.2,13.9 140.6,13.6 141,13.6 L145.3,13.6 C145.8,13.6 146.1,13.9 146.1,14.4 C146.1,14.9 145.7,15.2 145.3,15.2 L141,15.2 Z M146.1,19.1 C146.1,19.5 145.7,19.9 145.4,19.9 L136,19.9 C135.5,19.9 135.2,19.5 135.2,19.1 C135.2,18.6 135.6,18.3 136,18.3 L145.3,18.3 C145.8,18.3 146.1,18.7 146.1,19.1 Z M128.9,18.3 L131.9,18.3 C132.4,18.3 132.7,18.7 132.7,19.1 C132.7,19.6 132.3,19.9 131.9,19.9 L128.9,19.9 C128.4,19.9 128.1,19.5 128.1,19.1 C128.1,18.6 128.5,18.3 128.9,18.3 Z" id="Combined-Shape" fill="#E33C10" fill-rule="nonzero"></path>
                    <g id="libros" transform="translate(135.500000, 78.500000)" stroke="#E33C10" stroke-width="2" stroke-linecap="round">
                        <path d="M48.5,5.02222323 C48.5,6.84951927 48.57006,8.33438004 47.7704719,8.33438004 C46.9209896,8.33438004 45.450587,6.84988473 45.5004813,5.02258869 C45.5004813,3.19529264 46.9708839,1.71006642 47.7704719,1.71006642 C48.57006,1.71006642 48.5,3.19492719 48.5,5.02222323 Z M43.6657517,0.313955372 C43.8154429,0.313955372 43.9651341,0.395349572 44.0149248,0.476483728 C44.1148253,0.557877928 44.1148253,0.679839206 44.0149248,0.760973362 C41.8704149,3.40225418 41.8704149,6.8150896 44.0149248,9.45637042 C44.0647154,9.57807165 44.0647154,9.70003293 44.0149248,9.78142713 C43.9153434,9.86256129 43.8154429,9.94395549 43.6657517,9.94395549 L2.79269472,9.94395549 C2.69311337,9.94395549 2.54342218,9.90338841 2.4936315,9.82199421 C0.199430466,6.97761796 0.199430466,3.2802929 2.4936315,0.43591665 C2.54342218,0.354782495 2.64332269,0.313955372 2.79269472,0.313955372 L43.6657517,0.313955372 Z M9.13150508,5.39186076 L27.8315058,5.39186076" id="Combined-Shape"></path>
                        <path d="M54.5,21 C54.5,23.2067748 54.57006,25 53.7704719,25 C52.9209896,25 51.450587,23.2072162 51.5004813,21.0004414 C51.5004813,18.7936666 52.9708839,17 53.7704719,17 C54.57006,17 54.5,18.7932252 54.5,21 Z M49.6657517,15.3139554 C49.8154429,15.3139554 49.9651341,15.4122529 50.0149248,15.5102364 C50.1148253,15.6085339 50.1148253,15.7558231 50.0149248,15.8538066 C47.8704149,19.0436083 47.8704149,23.165195 50.0149248,26.3549967 C50.0647154,26.5019719 50.0647154,26.6492612 50.0149248,26.7475587 C49.9153434,26.8455421 49.8154429,26.9438397 49.6657517,26.9438397 L2.79269472,26.9438397 C2.69311337,26.9438397 2.54342218,26.8948479 2.4936315,26.7965504 C0.199430466,23.361476 0.199430466,18.896319 2.4936315,15.4612446 C2.54342218,15.3632612 2.64332269,15.3139554 2.79269472,15.3139554 L49.6657517,15.3139554 Z M9.13000488,21.1348926 L19.6300049,21.1348926 M24.1300049,21.1348926 L34.6300049,21.1348926" id="Combined-Shape"></path>
                        <path d="M56.5,38 C56.5,40.2067748 56.57006,42 55.7704719,42 C54.9209896,42 53.450587,40.2072162 53.5004813,38.0004414 C53.5004813,35.7936666 54.9708839,34 55.7704719,34 C56.57006,34 56.5,35.7932252 56.5,38 Z M51.6657517,32.3139554 C51.8154429,32.3139554 51.9651341,32.4122529 52.0149248,32.5102364 C52.1148253,32.6085339 52.1148253,32.7558231 52.0149248,32.8538066 C49.8704149,36.0436083 49.8704149,40.165195 52.0149248,43.3549967 C52.0647154,43.5019719 52.0647154,43.6492612 52.0149248,43.7475587 C51.9153434,43.8455421 51.8154429,43.9438397 51.6657517,43.9438397 L2.79269472,43.9438397 C2.69311337,43.9438397 2.54342218,43.8948479 2.4936315,43.7965504 C0.199430466,40.361476 0.199430466,35.896319 2.4936315,32.4612446 C2.54342218,32.3632612 2.64332269,32.3139554 2.79269472,32.3139554 L51.6657517,32.3139554 Z M8.13150508,37.6348926 L37.8315058,37.6348926" id="Combined-Shape" stroke-linejoin="round"></path>
                    </g>
                    <path d="M60.4953102,100 L60.2215085,100 C59.1953143,99.3399613 58.535236,98.9232947 58.2412737,98.75 C57.8003302,98.490058 56,97.4371382 56,95.25 L56,90 L65,90 L65,95.25 C65,97.7564297 63.7825663,98.4859985 63.126988,98.75 C62.9849709,98.9013459 60.7652961,99.8969221 60.6841308,100 L60.4953102,100 Z" id="Fill-50" stroke="#E33C10" stroke-width="2"></path>
                    <g id="estudiante" transform="translate(35.000000, 1.000000)" stroke-linecap="round" stroke="#E33C10" stroke-width="2">
                        <g id="Group-31" transform="translate(0.000000, 0.352223)">
                            <path d="M26.984095,27.8921091 C40.4151545,32.1755388 54.4192436,32.1755388 67.850303,27.8921091" id="Stroke-3"></path>
                            <path d="M68.8963525,36.4167124 C71.218204,37.0788198 72.9003525,37.8479603 72.9003525,41.2593901 C72.9003525,45.0131339 70.854204,45.9876628 68.1800653,46.2326876 C66.6808178,51.9187041 63.575105,59.7939769 59.3782931,63.0594727 L60.0639465,70.9932165 C60.1729663,71.940886 60.6919366,72.7921669 61.482105,73.3245554 C61.7632139,73.5146298 62.0713525,73.658762 62.3966099,73.7533488 L77.3467386,78.0926298 C79.2847683,78.5187207 81.2633426,79.5537702 83.2094812,81.1599438 C86.2755505,83.6912661 88.3802634,87.2134975 89.1479069,91.0798446 L95.5,124.147777 M0.5,115.647777 L5.97841188,91.0798446 C6.74605545,87.2134975 8.85076832,83.6912661 11.9168376,81.1599438 C13.8629762,79.5537702 15.8415505,78.5187207 17.7795802,78.0926298 L32.7297089,73.7533488 C33.0549663,73.658762 33.363105,73.5146298 33.6442139,73.3245554 C34.4352832,72.7921669 34.9533525,71.940886 35.0623723,70.9932165 L35.7489267,63.0594727 C31.5512139,59.7939769 28.445501,51.9187041 26.9462535,46.2326876 C24.2721149,45.9876628 22.2268673,45.0131339 22.2268673,41.2593901 C22.2268673,37.8479603 23.9081149,37.0788198 26.2308673,36.4167124" id="Stroke-5"></path>
                            <path d="M26.9783287,27.8912083 C26.0809426,32.1016711 26.2305069,37.4167124 26.2305069,37.4167124" id="Stroke-7"></path>
                            <path d="M68.5607337,37.3788777 C68.5607337,37.3788777 68.7256149,32.0773488 67.8534564,27.8822" id="Stroke-9"></path>
                            <path d="M33.6442139,73.3249157 L47.4563921,87.6408496" id="Stroke-11"></path>
                            <path d="M61.2678495,73.3249157 L47.4556713,87.6408496" id="Stroke-13"></path>
                            <path d="M47,87.6409397 L47,100.066287" id="Stroke-15"></path>
                            <path d="M67,27.8916587 L67,14.2225182" id="Stroke-17"></path>
                            <path d="M26,14.2323372 L26,27.8915686" id="Stroke-19"></path>
                            <polyline id="Stroke-21" stroke-linejoin="round" points="47.5634297 0.0980099174 81.4334495 9.16122479 47.4156673 19.427043 47.4192713 19.427043 13.4005881 9.16122479 47.5634297 0.0980099174"></polyline>
                            <path d="M81,9.16122479 L81,23.7645223" id="Stroke-23" stroke-linejoin="round"></path>
                            <path d="M80.4337198,23.7645223 L76.7351554,29.4982826" id="Stroke-25" stroke-linejoin="round"></path>
                            <path d="M81.4337198,23.7645223 L85.1322842,29.4982826" id="Stroke-27" stroke-linejoin="round"></path>
                            <path d="M64.0280327,94 L77.0707653,94" id="Stroke-29"></path>
                        </g>
                    </g>
                </g>
            </g>
        </g>
    </g>
</svg>