<?xml version="1.0" encoding="UTF-8"?>
<svg width="208px" height="98px" viewBox="0 0 208 98" version="1.1" xmlns="http://www.w3.org/2000/svg" xmlns:xlink="http://www.w3.org/1999/xlink">
    <!-- Generator: Sketch 46.2 (44496) - http://www.bohemiancoding.com/sketch -->
    <title>familias</title>
    <desc>Created with Sketch.</desc>
    <defs>
        <path d="M9.43542094,19.771243 C10.6513733,24.4118492 10.6513733,27.9427453 9.43542094,30.3639312 C8.21946862,32.785117 7.58099497,35.7876162 7.52,39.3714286 C7.82779555,45.9182291 6.86779555,49.7969259 4.64,51.0075188 C2.41220445,52.2181117 0.871511647,54.9207766 0.0179215836,59.1155133 L1.16461377,69.1801046 C9.38411939,68.8066304 14.4127849,69.7762615 16.2506104,72.0889979 C18.0884358,74.4017343 19.3790115,77.0131479 20.1223373,79.9232385 L77.9684205,105.228997 L72.5003628,87.0059938 C77.3386474,75.5195639 81.8665849,69.1113567 86.0841754,67.7813723 C90.3017658,66.4513879 94.7626788,65.1399749 99.4669143,63.8471334 C92.8313972,62.3816002 88.9056625,59.1263709 87.6897102,54.0814456 C85.8657817,46.5140575 81.6162775,13.5265823 110.77896,12.0133412 C130.220748,11.0045137 131.537173,7.87714863 114.728234,2.63124592 L28.8780003,0.704404307 L9.43542094,19.771243 Z" id="path-1"></path>
        <rect id="path-3" x="0" y="0" width="48" height="59.7744361"></rect>
    </defs>
    <g id="DESIGN" stroke="none" stroke-width="1" fill="none" fill-rule="evenodd">
        <g id="CONTACTO_SELEC_PERFIL" transform="translate(-620.000000, -705.000000)">
            <g id="FILTER" transform="translate(394.000000, 643.000000)">
                <g id="familias" transform="translate(224.000000, 0.000000)">
                    <path d="M16.4,98.2386818 L16.4,107.404095 C16.4,107.891617 16,108.184131 15.6,108.184131 C15.1,108.184131 14.8,107.794113 14.8,107.404095 L14.8,98.2386818 C14.8,97.7511598 15.2,97.4586466 15.6,97.4586466 C16.1,97.4586466 16.4,97.8486642 16.4,98.2386818 Z M15.6,110.914254 C16,110.914254 16.4,111.206767 16.4,111.694289 L16.4,115.009438 C16.4,115.49696 16,115.789474 15.6,115.789474 C15.1,115.789474 14.8,115.399456 14.8,115.009438 L14.8,111.694289 C14.8,111.206767 15.2,110.914254 15.6,110.914254 Z" id="Combined-Shape" fill="#FAB200" fill-rule="nonzero"></path>
                    <path d="M197.952941,77.4320909 C197.576471,77.4320909 197.294118,77.0590306 197.2,76.6859702 L197.2,67.919053 C197.2,67.4527276 197.576471,67.1729323 197.952941,67.1729323 C198.423529,67.1729323 198.705882,67.5459926 198.705882,67.919053 L198.705882,76.6859702 C198.705882,77.1522956 198.329412,77.4320909 197.952941,77.4320909 Z M197.294118,83.9606463 L197.294118,80.7896337 C197.294118,80.3233083 197.670588,80.043513 198.047059,80.043513 C198.517647,80.043513 198.8,80.4165733 198.8,80.7896337 L198.8,83.9606463 C198.8,84.4269717 198.423529,84.7067669 198.047059,84.7067669 C197.576471,84.7067669 197.294118,84.3337066 197.294118,83.9606463 Z" id="Combined-Shape" fill="#FAB200" fill-rule="nonzero"></path>
                    <path d="M131.84,65.0210526 C131.84,63.8695714 130.918845,62.9518797 129.76,62.9518797 C128.601155,62.9518797 127.68,63.8695714 127.68,65.0210526 C127.68,66.1725339 128.601155,67.0902256 129.76,67.0902256 C130.918845,67.0902256 131.84,66.1725339 131.84,65.0210526 Z" id="Shape" stroke="#FAB200" stroke-width="1.5999999" fill-rule="nonzero"></path>
                    <path d="M208.64,96.9007519 C208.64,95.7492706 207.718845,94.8315789 206.56,94.8315789 C205.401155,94.8315789 204.48,95.7492706 204.48,96.9007519 C204.48,98.0522331 205.401155,98.9699249 206.56,98.9699249 C207.718845,98.9699249 208.64,98.0522331 208.64,96.9007519 Z" id="Shape" stroke="#FAB200" stroke-width="1.5999999" fill-rule="nonzero"></path>
                    <path d="M11.04,120.013534 C11.04,118.862053 10.1188453,117.944361 8.96,117.944361 C7.80115466,117.944361 6.87999995,118.862053 6.87999995,120.013534 C6.87999995,121.165015 7.80115466,122.082707 8.96,122.082707 C10.1188453,122.082707 11.04,121.165015 11.04,120.013534 Z" id="Shape" stroke="#FAB200" stroke-width="1.5999999" fill-rule="nonzero"></path>
                    <path d="M103.2,150.458647 C103.2,150.06015 103.506767,149.661654 104.018045,149.661654 L115.981955,149.661654 C116.493233,149.661654 116.8,150.06015 116.8,150.458647 C116.8,150.956767 116.390977,151.255639 115.981955,151.255639 L104.018045,151.255639 C103.506767,151.255639 103.2,150.857143 103.2,150.458647 Z M123.97037,149.661654 C124.385185,149.661654 124.8,150.06015 124.8,150.458647 C124.8,150.956767 124.385185,151.255639 123.97037,151.255639 L120.02963,151.255639 C119.511111,151.255639 119.2,150.857143 119.2,150.458647 C119.2,149.960526 119.614815,149.661654 120.02963,149.661654 L123.97037,149.661654 Z M123.208247,152.849624 C123.604124,152.849624 124,153.24812 124,153.646617 C124,154.144737 123.604124,154.443609 123.208247,154.443609 L115.191753,154.443609 C114.696907,154.443609 114.4,154.045113 114.4,153.646617 C114.4,153.148496 114.795876,152.849624 115.191753,152.849624 L123.208247,152.849624 Z M111.238095,152.849624 C111.619048,152.849624 111.904762,153.24812 112,153.646617 C112,154.144737 111.619048,154.443609 111.238095,154.443609 L108.761905,154.443609 C108.285714,154.443609 108,154.045113 108,153.646617 C108,153.148496 108.380952,152.849624 108.761905,152.849624 L111.238095,152.849624 Z" id="Combined-Shape" fill="#FAB200" fill-rule="nonzero"></path>
                    <path d="M68,81.1203008 C68,80.7218045 68.3067669,80.3233083 68.8180451,80.3233083 L80.7819549,80.3233083 C81.2932331,80.3233083 81.6,80.7218045 81.6,81.1203008 C81.6,81.6184211 81.1909774,81.9172932 80.7819549,81.9172932 L68.8180451,81.9172932 C68.3067669,81.9172932 68,81.518797 68,81.1203008 Z M88.7703704,80.3233083 C89.1851852,80.3233083 89.6,80.7218045 89.6,81.1203008 C89.6,81.6184211 89.1851852,81.9172932 88.7703704,81.9172932 L84.8296296,81.9172932 C84.3111111,81.9172932 84,81.518797 84,81.1203008 C84,80.6221805 84.4148148,80.3233083 84.8296296,80.3233083 L88.7703704,80.3233083 Z M88.0082474,83.5112782 C88.4041237,83.5112782 88.8,83.9097744 88.8,84.3082707 C88.8,84.806391 88.4041237,85.1052632 88.0082474,85.1052632 L79.9917526,85.1052632 C79.4969072,85.1052632 79.2,84.7067669 79.2,84.3082707 C79.2,83.8101504 79.5958763,83.5112782 79.9917526,83.5112782 L88.0082474,83.5112782 Z M76.0380952,83.5112782 C76.4190476,83.5112782 76.7047619,83.9097744 76.8,84.3082707 C76.8,84.806391 76.4190476,85.1052632 76.0380952,85.1052632 L73.5619048,85.1052632 C73.0857143,85.1052632 72.8,84.7067669 72.8,84.3082707 C72.8,83.8101504 73.1809524,83.5112782 73.5619048,83.5112782 L76.0380952,83.5112782 Z" id="Combined-Shape" fill="#FAB200" fill-rule="nonzero" transform="translate(78.720000, 82.554887) scale(-1, -1) translate(-78.720000, -82.554887) "></path>
                    <path d="M97.2,67.7308271 C97.44,67.9699248 97.44,68.3684211 97.12,68.6075188 C97.04,68.687218 96.88,68.7669173 96.72,68.7669173 C96.56,68.7669173 96.4,68.687218 96.32,68.6075188 L95.12,67.4120301 C94.88,67.1729323 94.88,66.7744361 95.12,66.5353383 C95.36,66.2962406 95.76,66.2962406 96,66.5353383 L97.2,67.7308271 Z M100,70.4406015 L101.12,71.6360902 C101.36,71.875188 101.36,72.2736842 101.12,72.512782 C101.04,72.5924812 100.88,72.6721805 100.72,72.6721805 C100.56,72.6721805 100.4,72.5924812 100.32,72.512782 L99.12,71.3172932 C98.88,71.0781955 98.88,70.6796992 99.12,70.4406015 C99.36,70.2015038 99.76,70.2015038 100,70.4406015 Z M96.4,70.4406015 C96.64,70.281203 96.96,70.281203 97.2,70.4406015 C97.44,70.6796992 97.44,71.0781955 97.2,71.3172932 L96,72.512782 C95.92,72.5924812 95.76,72.6721805 95.6,72.6721805 C95.44,72.6721805 95.28,72.5924812 95.2,72.512782 C94.96,72.2736842 94.96,71.875188 95.2,71.6360902 L96.4,70.4406015 Z M101.2,66.5353383 C101.44,66.7744361 101.44,67.0932331 101.12,67.4120301 L99.92,68.6075188 C99.84,68.687218 99.68,68.7669173 99.52,68.7669173 C99.36,68.7669173 99.2,68.687218 99.12,68.6075188 C98.88,68.3684211 98.88,67.9699248 99.12,67.7308271 L100.32,66.5353383 C100.56,66.2962406 100.96,66.2962406 101.2,66.5353383 Z" id="Combined-Shape" fill="#FAB200" fill-rule="nonzero"></path>
                    <path d="M3.52,88.7714286 L4.64,89.9669173 C4.88,90.206015 4.88,90.6045113 4.64,90.843609 C4.56,90.9233083 4.4,91.0030075 4.24,91.0030075 C4.08,91.0030075 3.92,90.9233083 3.84,90.843609 L2.64,89.6481203 C2.4,89.4090226 2.4,89.0105263 2.64,88.7714286 C2.88,88.5323308 3.28,88.5323308 3.52,88.7714286 Z M7.92,94.7488722 L6.64,93.5533835 C6.4,93.3142857 6.4,92.9157895 6.64,92.6766917 C6.88,92.437594 7.28,92.437594 7.52,92.6766917 L8.72,93.8721805 C8.96,94.1112782 8.96,94.5097744 8.72,94.7488722 C8.64,94.8285714 8.48,94.9082707 8.32,94.9082707 C8.16,94.9082707 8,94.8285714 7.92,94.7488722 Z M3.92,92.6766917 C4.16,92.437594 4.56,92.437594 4.72,92.6766917 C4.96,92.9157895 4.96,93.3142857 4.72,93.5533835 L3.52,94.7488722 C3.44,94.8285714 3.28,94.9082707 3.12,94.9082707 C2.96,94.9082707 2.8,94.8285714 2.72,94.7488722 C2.48,94.5097744 2.48,94.1112782 2.72,93.8721805 L3.92,92.6766917 Z M7.12,91.0030075 C6.96,91.0030075 6.8,90.9233083 6.64,90.843609 C6.4,90.6045113 6.4,90.206015 6.64,89.9669173 L7.84,88.7714286 C8.08,88.5323308 8.48,88.5323308 8.72,88.7714286 C8.96,89.0105263 8.96,89.4090226 8.72,89.6481203 L7.52,90.843609 C7.44,90.9233083 7.28,91.0030075 7.12,91.0030075 Z" id="Combined-Shape" fill="#FAB200" fill-rule="nonzero"></path>
                    <path d="M196.666667,109.592299 L197.793711,110.784063 C198.03522,111.022416 198.03522,111.419671 197.793711,111.658024 C197.713208,111.737475 197.552201,111.816925 197.391195,111.816925 C197.230189,111.816925 197.069182,111.737475 196.988679,111.658024 L195.781132,110.466259 C195.539623,110.227906 195.539623,109.830651 195.781132,109.592299 C196.022642,109.353946 196.425157,109.353946 196.666667,109.592299 Z M200.691824,113.564847 L201.818868,114.756611 C202.060377,114.994964 202.060377,115.392219 201.818868,115.630572 C201.738365,115.710023 201.577358,115.789474 201.416352,115.789474 C201.255346,115.789474 201.09434,115.710023 201.013836,115.630572 L199.806289,114.438807 C199.56478,114.200454 199.56478,113.8032 199.806289,113.564847 C200.047799,113.326494 200.450314,113.326494 200.691824,113.564847 Z M197.069182,113.564847 C197.310692,113.326494 197.632704,113.326494 197.874214,113.564847 C198.115723,113.8032 198.115723,114.200454 197.874214,114.438807 L196.666667,115.630572 C196.586164,115.710023 196.425157,115.789474 196.264151,115.789474 C196.103145,115.789474 195.942138,115.710023 195.861635,115.630572 C195.620126,115.392219 195.620126,114.994964 195.861635,114.756611 L197.069182,113.564847 Z M201.013836,109.592299 C201.255346,109.353946 201.657862,109.353946 201.818868,109.592299 C202.060377,109.830651 202.060377,110.227906 201.818868,110.466259 L200.611321,111.658024 C200.530818,111.737475 200.369811,111.816925 200.208805,111.816925 C200.047799,111.816925 199.886792,111.737475 199.806289,111.658024 C199.56478,111.419671 199.56478,111.022416 199.806289,110.784063 L201.013836,109.592299 Z" id="Combined-Shape" fill="#FAB200" fill-rule="nonzero"></path>
                    <g id="padre" transform="translate(15.600000, 75.939850)" stroke-width="1.75999993" stroke="#FAB200" stroke-linecap="round">
                        <path d="M17.3873906,53.6005732 C17.4406471,53.4841267 17.4925311,53.3650526 17.542967,53.2434143 L16.940211,53.5279121 L17.0941555,53.6005732 L17.3873906,53.6005732 Z M16.1097103,54.2184677 L15.1503875,54.2184677 L15.743033,52.9628499 C16.7245317,50.883382 17.211254,47.6931012 16.5385361,43.9263309 L16.1243695,41.607275 L17.9575248,43.0868344 C20.4505993,45.0990219 23.3590215,46.1679359 26.4358428,46.1679359 C29.0307797,46.1679359 31.5891883,45.3485711 33.8641003,43.8265358 L35.7967924,42.5334636 L35.2044104,44.7821116 C34.5802364,47.1514406 34.5253438,49.3417399 34.893422,51.2913264 C35.13412,52.5662234 35.5578098,53.6476865 35.8139358,54.0094501 L36.1217693,54.4442477 L35.8792325,54.9185749 C35.3353499,55.9822416 34.5406248,56.9212376 33.3467059,58.0105162 C33.0341945,58.2956377 30.0258414,60.8329297 29.1041285,61.7189929 C28.1754157,62.6117853 27.3721659,63.5054361 26.6467448,64.4793958 L25.962018,65.3987188 L25.2508334,64.4997072 C24.7947118,63.9231218 24.3146206,63.356301 23.80224,62.7859395 C22.8152048,61.6872115 18.2883138,57.2608588 17.3599311,56.1039462 C16.8418555,55.4583416 16.4284153,54.8404102 16.1097103,54.2184677 Z M19.3516484,7.34021855 C18.8067212,8.23748161 18.5445548,9.42308772 18.8557188,10.3295602 L19.3133962,11.6628501 L17.9145615,11.4885169 C15.2169447,11.1523199 13.4472782,11.3397865 12.7251076,12.2677695 C12.2494505,12.7716487 11.8023047,13.6597916 11.4400645,14.8109908 L10.3868759,18.1580228 L9.73591726,14.7101129 C9.6700882,14.3614385 9.63212313,13.9771365 9.61320133,13.5361578 C9.59968109,13.2210641 9.59692828,12.9702757 9.60130597,12.5376783 C8.79967133,4.53095432 9.87361957,2.74715154 15.1405658,1.00207553 C15.5654329,0.852050262 15.5681473,0.8510918 15.9984095,0.699161476 C16.122122,0.655477227 16.122122,0.655477227 16.2688118,0.604033852 C19.2992839,-0.373007564 22.6175487,-0.879999967 26.1884178,-0.879999967 C29.6805417,-0.879999967 33.1189859,-0.359648922 36.131001,0.611792978 C36.6877073,0.808372098 36.6877073,0.808372098 37.2279634,0.999324578 C37.8778875,1.21447649 37.9669484,1.2441814 38.2239286,1.33306844 C42.4839224,2.8065601 43.5756637,4.9404241 43.1510448,12.4500109 C43.1510448,12.7104136 43.1341496,12.91922 43.0843875,13.3936514 C43.0413652,13.8038261 43.0273323,13.9772568 43.0273323,14.1536966 L43.0273323,18.6752908 L41.3315639,14.4837298 C40.5805339,12.627351 39.6211715,11.5286654 38.5724094,11.3571945 C37.513024,11.2225255 35.7289072,11.1401835 33.4347979,11.1033882 C31.7228617,11.0759304 29.9286687,11.075631 28.1171809,11.0915958 C27.7727308,11.0946314 27.0870889,11.1021142 27.0544054,11.1021142 C27.0779566,11.1018004 27.0779566,11.1018004 27.0269784,11.1035758 C26.3210589,11.126505 25.4381791,11.0125211 24.3443249,10.6286327 C22.7246628,10.0602119 21.0775662,9.01745417 19.4724635,7.39937419 C19.4218926,7.37339705 19.3834741,7.35456263 19.3516484,7.34021855 Z M41.3643013,32.0284664 C38.9111412,40.4237008 32.8172651,45.9621446 25.9409927,45.9621446 C19.0762176,45.9621446 12.9912247,40.4422062 10.5300199,32.0705536 L10.1057907,32.0705536 C8.59420417,32.0705536 7.49381551,29.3337444 7.49381551,25.9484437 C7.49381551,23.0061546 8.43021483,20.4081676 9.68907119,19.8765467 C9.7636689,19.8502054 9.80934336,19.8176264 9.84435331,19.7549453 L9.84435331,19.2647537 L9.86451897,19.077444 C10.4500192,16.3897388 11.4485317,13.412348 12.3907854,12.2896356 C13.360378,11.0913273 16.6333597,11.2197413 19.8009489,12.0133819 C19.7250899,11.9865953 19.8199445,11.9402187 19.876568,11.850244 C19.8676252,11.8644542 19.8662844,11.8582994 19.8265118,11.8284927 C18.7018649,10.9349611 18.3033363,9.76225398 18.5195059,8.61727588 L18.8024332,7.11870473 L19.9582953,8.11356456 C21.4987156,9.43941669 23.0344029,10.2702142 24.5096173,10.7096499 C25.4444321,10.9881118 26.1671144,11.0661772 26.7117143,11.0485884 C26.7463653,11.0472014 26.7463653,11.0472014 26.8069803,11.0457999 C26.7848718,11.0457999 27.3379396,11.0390965 27.7450419,11.0353529 C29.4933023,11.0192766 31.31351,11.0195696 33.0330447,11.0472363 C35.3878974,11.085125 37.2035236,11.1697925 38.2600036,11.3108126 C40.3039424,11.4773674 41.7404002,15.239316 42.2778556,19.4145074 L42.2850572,19.5268592 L42.2850572,19.7889647 L41.4050572,19.7889647 L42.2444809,19.5248287 C42.2814184,19.6422159 42.3228915,19.6951659 42.4057745,19.7318741 C43.7795235,20.0943688 44.635595,22.710387 44.635595,25.817391 C44.635595,29.2026916 43.5352063,31.9395008 42.0236198,31.9395008 L41.557531,31.9395008 L41.4383366,31.8763675 C41.4243062,31.9060383 41.4001141,31.9542057 41.3643013,32.0284664 Z" fill-rule="nonzero"></path>
                        <path d="M0.286222332,56.7223913 C1.54353036,55.5796125 2.9881584,55.0421534 4.64259953,55.0421534 C6.12714972,55.1732061 14.5758066,54.9111006 16.0603568,55.0421534 M36.1927662,55.0421534 C37.6773164,54.9111006 48.3329581,55.4353116 49.8175083,56.2216281 C50.9309209,56.8768918 52.0443336,57.5321556 52.9103212,58.4495248 C54.1474464,59.6289995 55.013434,61.2016325 55.7557091,62.9053182 C55.8794216,63.2984764 56.0031341,63.5605819 56.1268466,63.9537401 L58.3536719,71.8169049 L60,79.2613402" id="Path"></path>
                    </g>
                    <path d="M170.881978,83.8284835 L170.821883,83.8284835 L170.6868,83.7836101 C170.662427,83.7755133 170.678347,83.7697441 170.624912,83.8492735 C167.405595,88.449858 163.705764,91.0438924 159.813907,92.0241831 C158.384198,92.3843017 157.010452,92.5023419 155.72879,92.4334432 C154.858944,92.3866826 154.131079,92.2601773 153.625642,92.1162608 L153.424358,92.030687 C152.085108,91.2521303 150.948805,91.1467893 149.988481,91.675235 C149.212819,92.0266024 148.782355,92.9131846 148.780765,93.4361631 C148.474134,98.5291941 149.233807,100.996695 150.511634,102.27015 L150.67438,102.432339 L150.737064,102.653387 C152.420562,108.589997 154.7342,112.945251 157.654765,115.729277 L158.984278,116.996634 L157.163492,117.238574 C156.891299,117.275037 156.721654,117.297689 156.554061,117.319484 C156.281125,117.354979 156.027002,117.386426 155.767333,117.416358 C153.813864,117.641534 152.003328,117.727406 150.258535,117.605489 C148.038124,117.450337 146.178052,116.963597 144.771142,116.046842 L144.50164,115.871231 L144.408918,115.563216 C144.041089,114.341315 143.630386,112.667885 143.275549,110.702557 C142.753248,107.809701 142.449743,104.799738 142.449743,101.770739 C142.449743,93.4386907 144.704973,86.2023783 149.931958,80.8722181 C149.895853,80.9081994 150.129611,80.6667792 150.271225,80.5265846 C150.514691,80.2855608 150.78638,80.0313764 151.093995,79.7617117 C151.952037,79.0095281 152.93768,78.2689046 154.055364,77.5766799 C160.32169,73.6957051 167.901826,72.8370227 176.508925,76.8692559 C182.616549,79.7524422 186.361064,85.4569438 188.198103,93.1065644 C189.47905,98.4405585 189.70752,103.996969 189.344341,109.211123 C189.317045,109.603004 189.288236,109.961005 189.256658,110.315396 C189.242601,110.473155 189.207191,110.851814 189.203834,110.891959 L189.170905,111.06772 L187.724495,115.968687 L187.327359,116.126999 C185.905424,116.693827 184.598017,117.083209 182.872472,117.305098 C180.290477,117.637119 177.651375,117.393271 175.025687,116.396431 L173.734318,115.906164 L174.724393,114.942969 C177.068444,112.662557 178.770276,109.819951 179.913248,106.716989 C180.628135,104.776202 181.085,102.702051 181.085,102.23304 C181.085,102.101614 181.059741,102.038684 181.103232,102.056078 C177.373008,99.7402821 174.669789,95.8432625 172.810225,91.0078985 C171.720778,88.1750423 170.931943,84.7822743 170.881978,83.8284835 Z M150.789969,102.290793 C150.704877,102.126033 150.671766,102.085904 150.60859,102.049415 C150.283041,101.84085 149.90249,101.389363 149.5672,100.625608 C148.898958,99.1034237 148.613656,96.7719476 148.88073,93.4449484 L148.895111,93.3422118 C148.94108,93.1131517 149.043703,92.8209478 149.240866,92.5186572 C149.415657,92.250669 149.640095,92.0237828 149.921662,91.8604538 C150.106011,91.7195465 150.314301,91.6448156 150.541495,91.6070796 C150.684004,91.5834093 150.788503,91.5786756 150.950763,91.5786756 C151.610025,91.5786756 152.352652,91.8399888 153.141214,92.2952358 C153.181386,92.3094333 153.222611,92.3268327 153.265055,92.3479822 C153.345797,92.3882151 153.420179,92.4386267 153.48648,92.497748 C154.587473,92.8007191 156.382276,92.9613455 158.49531,92.6139962 C162.265126,91.9942985 165.924527,89.8924404 169.220424,85.8284183 L170.351409,84.4338515 L170.760736,86.1821066 C172.312617,92.8102713 175.253219,98.6398417 180.209214,102.035431 L180.694385,102.367844 L180.572827,102.943269 C180.03333,105.497113 179.171222,108.058527 177.656283,110.666287 C175.379791,114.584957 172.147731,117.493408 167.784187,118.922198 C167.663239,118.96055 167.464032,119.010386 167.194545,119.057793 C165.286288,119.39349 163.031036,119.11963 160.715555,117.788342 C156.364925,115.270813 152.953903,109.924602 150.789969,102.290793 Z M157.947464,117.20336 C157.867238,117.203289 157.868427,117.20185 157.894678,117.179426 C157.928948,117.150152 157.958369,117.12208 158.016866,117.063783 L158.555637,116.526855 L159.164894,116.982235 C159.551716,117.271358 159.87122,117.450465 160.658833,117.844087 C162.35705,118.796065 164.066693,119.18465 165.795184,119.18465 C166.38027,119.18465 166.883832,119.14037 167.340873,119.064457 C167.43134,119.049431 167.733182,118.986295 167.955935,118.948801 C169.663217,118.412556 171.095128,117.644331 173.128035,116.293697 L173.726915,115.89581 L174.2362,116.403353 C174.257552,116.424632 174.274825,116.441685 174.288775,116.455292 L174.290055,116.455717 C174.48773,116.521384 174.648747,116.586759 175.020975,116.745739 C175.344579,116.883952 175.481776,116.939656 175.615449,116.984061 L176.489163,117.274303 L176.159779,118.134025 C174.986486,121.196421 174.727578,124.019034 175.146006,126.558926 C175.298196,127.482725 175.533117,128.316108 175.821655,129.05096 C176.014904,129.543127 176.205939,129.926704 176.357013,130.177632 L176.616835,130.609187 L176.376279,131.05177 C174.851358,133.857378 173.919762,135.183975 172.064365,137.371773 C171.95165,137.537831 171.848874,137.674249 171.721963,137.821937 L171.791525,137.879707 L170.742324,139.289665 L170.544933,139.158521 C169.231,140.337587 167.516309,141.021722 165.795184,141.021722 C163.634553,141.021722 161.659473,140.078568 160.492275,138.473726 C158.80486,136.533371 157.183347,134.042091 155.605926,131.040955 L155.375334,130.60224 L155.630974,130.177632 C155.756069,129.969853 155.945096,129.57534 156.129571,129.089245 C156.398794,128.379835 156.623568,127.573032 156.776809,126.684496 C157.194921,124.260168 157.029879,121.597194 156.080485,118.758758 L155.837801,118.033197 L156.521491,117.692522 L156.52257,117.691984 C156.707052,117.600058 156.892769,117.529371 157.095355,117.4684 L157.095355,117.20336 L157.947464,117.20336 Z M171.213378,138.518954 C171.34657,138.330952 171.479003,138.188194 171.734701,137.933371 C171.942437,137.726345 172.020782,137.640051 172.088345,137.539052 L172.152601,137.454519 C172.238256,137.35493 172.33156,137.246697 172.506878,137.043372 C172.648404,136.879146 172.750909,136.759839 172.851167,136.64247 C173.168694,136.270752 173.421544,135.967096 173.664048,135.663818 C174.78897,134.256981 175.716553,132.801893 176.804642,130.63316 L177.026137,130.191686 L177.518365,130.150807 C178.19797,130.094367 178.752771,130.066443 180.008126,130.0164 C181.237886,129.967378 181.776536,129.940267 182.398306,129.888962 C183.657645,129.749514 184.786747,129.749514 185.866982,129.885552 C187.913189,130.021499 189.887737,130.55817 191.569587,131.399503 L191.66901,131.446683 C193.530858,132.477504 194.326188,132.990369 195.143823,133.806923 C196.441182,134.970551 197.429618,136.480967 198.439212,138.673808 C198.48739,138.817849 198.526858,138.921097 198.620139,139.153502 C198.653699,139.23711 198.653699,139.23711 198.688856,139.325997 C198.745517,139.470301 198.791784,139.595821 198.837117,139.731356 L198.83683,139.730496 C199.435995,141.52184 199.703078,142.34253 200.036248,143.449351 L204.846982,159.091015 L130.474504,148.799524 L130.754078,147.824361 C131.551502,145.042926 132.349073,142.393453 133.146025,139.87842 C135.26315,133.126799 141.482425,129.330526 149.433121,129.886635 C150.079706,129.940333 150.601764,129.96743 151.78251,130.01646 C152.181478,130.033027 152.359097,130.040607 152.581795,130.050882 C153.210186,130.079874 153.715052,130.110156 154.204542,130.150807 L154.69677,130.191686 L154.918266,130.63316 C156.442272,133.670746 158.118597,136.273009 159.967925,138.511207 C161.39559,140.171118 163.407397,141.110926 165.530105,141.110926 C167.623274,141.110926 169.656111,140.192948 171.138274,138.593801 L171.213378,138.518954 Z" id="madre" stroke="#FAB200" stroke-width="1.75999993" stroke-linecap="round" fill-rule="nonzero"></path>
                    <g id="desk" transform="translate(54.800000, 60.000000)">
                        <mask id="mask-2" fill="white">
                            <use xlink:href="#path-1"></use>
                        </mask>
                        <g id="mask"></g>
                        <path d="M103.194975,70.3031819 L96.9762492,70.3031819 L92.748004,70.3031819 L15.0566513,70.3031819 L10.828406,70.3031819 L4.6096804,70.3031819 L4.6096804,67.0143107 L22.3531337,67.0143107 L32.6345407,67.0143107 L103.194975,67.0143107 L103.194975,70.3031819 Z M96.3129327,99.4099553 L94.8207357,99.4099553 L93.5768844,71.7008206 L96.3129327,71.7008206 L96.3129327,99.4099553 Z M12.9839196,99.4099553 L11.5745045,99.4099553 L11.5745045,71.7008206 L14.3105528,71.7008206 L12.9839196,99.4099553 Z M25.2552764,61.5053198 L29.8984925,61.5053198 L31.6395658,65.5340555 L23.514203,65.5340555 L25.2552764,61.5053198 Z M9.4184603,59.0389295 L9.4184603,37.3323795 C9.4184603,36.7566955 9.91621307,36.2631017 10.4967477,36.2631017 L44.5742392,36.2631017 C45.1547739,36.2631017 45.651996,36.7566955 45.651996,37.3323795 L45.651996,59.0389295 C45.651996,59.6146136 45.1547739,60.1076811 44.5742392,60.1076811 L30.3129327,60.1076811 L24.7580543,60.1076811 L10.4967477,60.1076811 C9.91621307,60.0255909 9.4184603,59.6146136 9.4184603,59.0389295 L9.4184603,59.0389295 Z M103.941073,65.5340555 L33.1322935,65.5340555 L31.3912201,61.5053198 L44.5742392,61.5053198 C45.9836543,61.5053198 47.0619417,60.354478 47.0619417,59.0389295 L47.0619417,37.3323795 C47.0619417,35.9342146 45.9836543,34.865463 44.5742392,34.865463 L10.4967477,34.865463 C9.08680201,34.865463 8.00904523,36.016831 8.00904523,37.3323795 L8.00904523,59.0389295 C8.00904523,60.4365682 9.08680201,61.5053198 10.4967477,61.5053198 L23.6797668,61.5053198 L21.9386935,65.5340555 L3.94636382,65.5340555 C3.53192362,65.5340555 3.20026533,65.8629426 3.20026533,66.2744462 L3.20026533,70.9609561 C3.20026533,71.3719335 3.53192362,71.7008206 3.94636382,71.7008206 L10.1650894,71.7008206 L10.1650894,100.14982 C10.1650894,100.560797 10.4967477,100.889684 10.9111879,100.889684 L13.7300181,100.889684 C14.1449889,100.889684 14.3933347,100.560797 14.4766472,100.23191 L15.8032804,71.7834371 L92.1674693,71.7834371 L93.4941025,100.23191 C93.4941025,100.642887 93.8257608,100.889684 94.240201,100.889684 L97.0590312,100.889684 C97.474002,100.889684 97.8056603,100.560797 97.8056603,100.14982 L97.8056603,71.7008206 L104.023855,71.7008206 C104.438826,71.7008206 104.770484,71.3719335 104.770484,70.9609561 L104.770484,66.2744462 C104.687703,65.8629426 104.356044,65.5340555 103.941073,65.5340555 L103.941073,65.5340555 Z" id="Fill-3" fill="#FAB200" mask="url(#mask-2)"></path>
                        <g id="hijo" mask="url(#mask-2)">
                            <g transform="translate(40.000000, 3.984962)">
                                <mask id="mask-4" fill="white">
                                    <use xlink:href="#path-3"></use>
                                </mask>
                                <g id="mask" stroke="none" fill="none"></g>
                                <path d="M24.6285714,34.3932909 C23.3594829,34.3932909 22.3859356,34.0044403 21.8866666,33.2991048 C21.655775,32.9730016 21.7829012,32.5516323 22.1691692,32.357436 C22.5559804,32.1632397 23.0552494,32.26904 23.2861409,32.5951432 C23.4768301,32.8649112 23.9657769,33.0192606 24.6285714,33.0192606 C25.2908227,33.0192606 25.7797694,32.8644532 25.971002,32.5946852 C26.2013502,32.268582 26.7011625,32.1627817 27.0879737,32.356978 C27.4742417,32.5511743 27.6013678,32.9725436 27.3704763,33.2986468 C26.8712073,34.0044403 25.8976599,34.3932909 24.6285714,34.3932909" id="Fill-1" stroke="none" fill="#FAB200" fill-rule="evenodd" mask="url(#mask-4)"></path>
                                <path d="M21.7434193,25.1481781 L19.6565807,25.1481781 C19.2468339,25.1481781 18.9142857,24.8295773 18.9142857,24.4370156 C18.9142857,24.0444539 19.2468339,23.7258531 19.6565807,23.7258531 L21.7434193,23.7258531 C22.1531661,23.7258531 22.4857143,24.0444539 22.4857143,24.4370156 C22.4857143,24.8295773 22.1531661,25.1481781 21.7434193,25.1481781" id="Fill-3" stroke="none" fill="#FAB200" fill-rule="evenodd" mask="url(#mask-4)"></path>
                                <path d="M28.8862765,25.1481781 L26.7994378,25.1481781 C26.389691,25.1481781 26.0571429,24.8295773 26.0571429,24.4370156 C26.0571429,24.0444539 26.389691,23.7258531 26.7994378,23.7258531 L28.8862765,23.7258531 C29.2960233,23.7258531 29.6285714,24.0444539 29.6285714,24.4370156 C29.6285714,24.8295773 29.2960233,25.1481781 28.8862765,25.1481781" id="Fill-5" stroke="none" fill="#FAB200" fill-rule="evenodd" mask="url(#mask-4)"></path>
                                <path d="M13.7906806,26.7171336 C13.915674,26.7171336 14.0406674,26.7473733 14.1528541,26.8073401 C14.3526387,26.9149728 14.4970983,27.1025613 14.5437147,27.3250023 C15.4089354,31.4827008 17.9052175,34.9648757 21.0587396,36.4117671 C23.1482809,37.3702109 25.4043093,37.3522721 27.4769458,36.3712767 C30.5961459,34.8951707 33.0606674,31.4140208 33.908471,27.2860495 C33.958161,27.0472073 34.1179887,26.8452678 34.3392885,26.743273 C34.5611005,26.6407656 34.8172345,26.6494788 35.0318749,26.7673622 C35.0600496,26.7714625 35.2265367,26.7027826 35.4130023,26.4306256 C35.666575,26.0626241 35.8504792,25.5147223 35.9186108,24.9294053 C35.9790585,24.4071303 35.9396138,23.9817247 35.8627736,23.6593391 C35.8556019,23.7095677 35.8499669,23.749033 35.8453565,23.7777351 C35.81001,24.717215 35.0354607,25.4706441 34.0872526,25.4706441 L34.0273172,25.4706441 C33.5411749,25.4706441 33.0729619,25.266142 32.7430613,24.9094163 C32.4070134,24.5455152 32.2364282,24.0519423 32.2753605,23.5537565 C32.303023,23.2026688 32.3168543,22.8459432 32.3168543,22.4938304 C32.3168543,20.8988159 32.0474013,19.8788677 31.4931272,19.3755566 C30.7359951,18.6887572 29.2826907,18.8307299 27.4415993,19.0096053 C26.5287377,19.0987867 25.4939562,19.1992439 24.4228038,19.1992439 C23.3516513,19.1992439 22.3168699,19.0987867 21.4029837,19.0096053 C19.5624046,18.8307299 18.1091002,18.6892698 17.351968,19.3755566 C16.797694,19.8788677 16.528241,20.8988159 16.528241,22.4938304 C16.528241,22.8459432 16.5420723,23.2026688 16.5697347,23.553244 C16.6091794,24.0509172 16.4391064,24.5450027 16.1030586,24.9083913 C15.7726457,25.2656294 15.3044327,25.4706441 14.8177781,25.4706441 L14.7578427,25.4706441 C13.8157818,25.4706441 13.0448184,24.7259282 13.0007633,23.7946488 C12.9802726,23.6875286 12.9357053,23.4517617 12.8788435,23.1263008 C12.7128687,23.4174217 12.5197436,24.0309283 12.6242463,24.9294053 C12.6918657,25.5147223 12.8767945,26.0621116 13.1303671,26.4306256 C13.3122223,26.6961196 13.4674395,26.7719751 13.5007369,26.7719751 C13.5012492,26.7719751 13.5022737,26.7719751 13.502786,26.7714625 C13.5949942,26.7350724 13.6933497,26.7171336 13.7906806,26.7171336 M24.222507,38.660266 C22.9285179,38.660266 21.6483601,38.373758 20.4184045,37.809455 C16.9959418,36.2385297 14.2660654,32.6215575 13.1846675,28.2762706 C12.6949393,28.1737632 12.2308245,27.8360015 11.8640405,27.3024506 C11.4675451,26.7253342 11.1955308,25.9457657 11.0971753,25.106743 C10.869216,23.1411644 11.6350567,21.5502502 12.8788435,21.4057148 C13.2261613,21.3657369 13.5739913,21.4451801 13.9100391,21.6450695 C14.1057255,21.7603903 14.2399397,21.9572044 14.276823,22.1816955 C14.410525,22.9976541 14.5201503,23.5563192 14.5211749,23.5624696 C14.5303957,23.6106481 14.5355184,23.6608767 14.5355184,23.7105928 C14.5355184,23.8330891 14.6348984,23.9330337 14.7578427,23.9330337 L14.8177781,23.9330337 C14.8946183,23.9330337 14.9453328,23.8961311 14.9745321,23.8648664 C15.00117,23.8356518 15.0452251,23.7720972 15.0380533,23.6742027 C15.006805,23.2836496 14.9914369,22.8859211 14.9914369,22.4938304 C14.9914369,20.411906 15.4135458,19.0598339 16.3197479,18.2366998 C17.5804396,17.0922051 19.4210186,17.271593 21.5520537,17.4791704 C22.4731116,17.5688643 23.4264424,17.6616335 24.4228038,17.6616335 C25.4191651,17.6616335 26.3719837,17.5688643 27.2930416,17.4791704 C29.4230521,17.2705679 31.2641434,17.0922051 32.5253473,18.2366998 C33.4315495,19.0598339 33.8536584,20.411906 33.8536584,22.4938304 C33.8536584,22.8859211 33.8382903,23.2836496 33.807042,23.6742027 C33.7998702,23.7720972 33.8439253,23.8356518 33.8710755,23.8653789 C33.8997625,23.8961311 33.950477,23.9330337 34.0273172,23.9330337 L34.0872526,23.9330337 C34.2096847,23.9330337 34.3100892,23.8330891 34.3100892,23.7105928 C34.3100892,23.6706149 34.3131628,23.6301245 34.31931,23.5901466 C34.3203346,23.5845087 34.411006,23.0073923 34.5001406,22.1227538 C34.531389,21.8085687 34.7521765,21.5456374 35.0564637,21.4595312 C35.26342,21.4016145 35.4667904,21.3836757 35.6629891,21.4057148 L35.6640136,21.4057148 C36.9078004,21.5502502 37.6736411,23.1411644 37.4456819,25.1062305 C37.3478387,25.9452532 37.0758243,26.7253342 36.6793289,27.3024506 C36.2869316,27.8734166 35.7833721,28.2198915 35.2552237,28.2942093 C34.183559,32.5795295 31.4992745,36.1683121 28.1341857,37.761789 C26.8740063,38.3578693 25.5579898,38.660266 24.222507,38.660266" id="Fill-7" stroke="none" fill="#FAB200" fill-rule="evenodd" mask="url(#mask-4)"></path>
                                <path d="M27.4948908,42.9272412 L27.4765579,42.9272412 C27.276777,42.9272412 27.0868675,42.8239524 26.9528968,42.643197 C26.8193961,42.4618677 26.7545261,42.2208605 26.7752093,41.9781319 C26.7841406,41.8714001 26.7897815,41.7640945 26.7897815,41.6544936 C26.7897815,41.1793651 27.1056705,40.7937536 27.4948908,40.7937536 C27.8841111,40.7937536 28.2,41.1793651 28.2,41.6544936 L28.2,42.0665012 C28.2,42.5416297 27.8841111,42.9272412 27.4948908,42.9272412" id="Fill-9" stroke="none" fill="#E33C10" fill-rule="evenodd" mask="url(#mask-4)"></path>
                                <path d="M28.1142858,37.3465909 C27.2082425,37.7715602 26.2578029,38.0317431 25.2231007,38.1215737 L25.2945565,38.1182373 C24.8705325,38.1570845 24.4383172,38.1612616 24.0096126,38.1308117 C23.033105,38.0603194 22.0694819,37.8113822 21.1428571,37.3907781 L21.1428571,41.8766999 L21.3010335,42.0349377 L21.3508138,42.2648497 C21.6928592,43.8445997 23.0761282,44.9718913 24.6918518,44.9718913 C26.4483019,44.9718913 27.9105051,43.6466345 28.0942917,41.8863242 C28.1075504,41.7540895 28.1142858,41.6326414 28.1142858,41.517675 L28.1142858,37.346591 Z" id="Fill-11" stroke="#FAB200" stroke-width="1.5999999" fill="none" mask="url(#mask-4)"></path>
                                <path d="M8.28993532,63.8193954 L43.9364277,64.0564897 C41.0773293,49.0527851 37.4135389,41.5937536 33.3478642,41.5937536 L27.6134911,41.5937536 C27.4103589,43.354463 25.9147099,44.67741 24.1275621,44.67741 C22.3405045,44.67741 20.8448046,43.3539116 20.6426447,41.5937536 L17.5955068,41.5937536 C13.164557,41.5937536 9.93544875,48.9403171 8.28993532,63.8193954 Z" id="Fill-13" stroke="#FAB200" stroke-width="1.5999999" fill="none" mask="url(#mask-4)"></path>
                                <path d="M29.5925438,6.77243825 C27.7736311,7.34118735 26.0139525,7.83605317 25.5585986,7.86570526 C19.5427861,7.80193151 14.2129854,11.3523311 13.3508337,16.785255 C13.1749651,17.8944491 13.3586066,20.0438143 13.771726,22.6473783 C13.8586963,23.1953919 13.9425354,23.6768811 14.0049181,24.010676 L14.0176945,24.1210126 C14.0418879,24.6488397 14.4574084,25.0593407 14.9475416,25.0593407 L15.0065194,25.0593407 C15.2567304,25.0593407 15.5011222,24.9489607 15.6756004,24.754095 C15.8595082,24.5489591 15.9550265,24.2628968 15.9328104,23.974061 C15.904119,23.5984421 15.8896559,23.2165711 15.8896559,22.8372793 C15.8896559,21.0171736 16.2036209,19.7912188 16.9540702,19.0875868 C17.8391378,18.2606789 18.7468972,18.2225772 21.5662299,18.5052041 C21.7132063,18.5199246 21.7132063,18.5199246 21.8621977,18.5347223 C22.9757723,18.6448419 23.6931159,18.693711 24.4580942,18.693711 C25.2230672,18.693711 25.9401942,18.6448396 27.053104,18.5347264 C27.2020124,18.5199289 27.2020124,18.5199289 27.3488862,18.5052105 C30.1712133,18.2223621 31.0767823,18.2602814 31.9626504,19.0885568 C32.7120634,19.7912188 33.0260283,21.0171736 33.0260283,22.8372793 C33.0260283,23.2164875 33.0115714,23.5983326 32.9829067,23.9741492 C32.9609951,24.2630698 33.0567901,24.5492698 33.2414613,24.7555477 C33.4148203,24.9491865 33.6590588,25.0593407 33.9091648,25.0593407 L33.9681426,25.0593407 C34.461952,25.0593407 34.8792846,24.6433571 34.9064106,24.0258682 C34.9631929,23.6335942 35.0228485,23.1550699 35.0824005,22.5400664 C35.4048276,19.2348687 35.3270774,16.1117583 34.5937762,14.0332668 C34.148836,12.7702413 33.2451882,11.6544217 31.9348899,10.7661125 L31.011329,10.1399896 L31.9007465,9.46624559 C32.4284912,9.06647297 32.5714227,8.88852644 32.5740063,8.76042382 C32.5747975,8.72299939 32.5621291,8.69582626 32.5364283,8.67537631 C32.3380628,8.51777797 31.7077271,8.48449706 29.9531446,8.6343606 L28.4439937,8.76326117 L29.1883256,7.44412447 C29.3176701,7.21489461 29.4563626,6.98388399 29.5925438,6.77243825 Z" id="Fill-16" stroke="#FAB200" stroke-width="1.5999999" fill="none" mask="url(#mask-4)"></path>
                            </g>
                        </g>
                    </g>
                    <path d="M20.6914764,142.08451 L21.1330028,142.08451 C23.4890664,142.08451 25.4036038,143.995288 25.182605,146.346725 C25.182605,148.698162 23.2680677,150.608469 20.912004,150.608469 C19.9549709,150.608469 18.9979378,150.241175 18.2614323,149.653316 L17.4518889,151.343529 C16.7153833,152.959906 16.2733858,154.797319 16.2733858,156.634262 C16.2733858,157.368851 15.6843699,158.030075 14.8748264,158.030075 L8.61665003,158.030075 C7.88014452,158.030075 7.21761941,157.442216 7.21761941,156.634262 C7.21761941,154.797319 6.84960226,152.959906 6.03958757,151.343529 L5.08208329,149.286021 C3.60954348,146.12616 2.8,142.599004 2.8,139.071849 C2.8,138.116695 3.60954348,137.308271 4.56704776,137.308271 L19.1449562,137.308271 C20.1019893,137.308271 20.912004,138.116695 20.912004,139.071849 C20.912004,140.027002 20.8384948,141.055991 20.6914764,142.08451 Z M19.7600098,147.05406 C19.9633557,147.257006 20.2174568,147.35848 20.4970981,147.35848 C21.0563808,147.35848 21.5392054,146.876441 21.5392054,146.318419 C21.5392054,145.734907 21.0563808,145.278195 20.4970981,145.278195 C20.4208027,145.278195 20.3700476,145.278195 20.2937522,145.303686 C20.1667016,145.912525 19.9887333,146.496038 19.7600098,147.05406 Z M6.33409553,143.039805 C6.4811139,145.905736 7.65914575,148.183808 8.61665003,149.947386 C9.35268433,151.343199 9.94170025,152.518918 9.79421066,153.400707" id="taza" stroke="#FAB200" stroke-width="1.5999999" stroke-linecap="round" transform="translate(14.000000, 147.669173) scale(-1, 1) translate(-14.000000, -147.669173) "></path>
                </g>
            </g>
        </g>
    </g>
</svg>