<?xml version="1.0" encoding="UTF-8"?>
<svg width="260px" height="124px" viewBox="0 0 260 124" version="1.1" xmlns="http://www.w3.org/2000/svg" xmlns:xlink="http://www.w3.org/1999/xlink">
    <!-- Generator: Sketch 46.2 (44496) - http://www.bohemiancoding.com/sketch -->
    <title>familias</title>
    <desc>Created with Sketch.</desc>
    <defs>
        <path d="M11.7942762,24.8073143 C13.3142166,30.6299618 13.3142166,35.060237 11.7942762,38.09814 C10.2743358,41.1360431 9.47624371,44.9033297 9.4,49.4 C9.78474443,57.6143818 8.58474443,62.4810485 5.8,64 C3.01525557,65.5189515 1.08938956,68.910031 0.0224019795,74.1732384 L1.45576721,86.8014519 C11.7301492,86.3328475 18.0159812,87.5494602 20.313263,90.4512898 C22.6105448,93.3531195 24.2237643,96.6297044 25.1529216,100.281045 L97.4605257,132.032609 L90.6254535,109.167898 C96.6733092,94.7556793 102.333231,86.7151929 107.605219,85.0464388 C112.877207,83.3776848 118.453349,81.7322327 124.333643,80.1100825 C116.039247,78.2712531 111.132078,74.1868616 109.612138,67.8569081 C107.332227,58.3619778 102.020347,16.9720325 138.4737,15.0733431 C162.775935,13.8075502 164.421466,9.88359215 143.410292,3.30146894 L36.0975003,0.883828045 L11.7942762,24.8073143 Z" id="path-1"></path>
        <rect id="path-3" x="0" y="0" width="60" height="75"></rect>
    </defs>
    <g id="DESIGN" stroke="none" stroke-width="1" fill="none" fill-rule="evenodd">
        <g id="HOMEPAGE" transform="translate(-612.000000, -633.000000)">
            <g id="FILTER" transform="translate(150.000000, 608.000000)">
                <g id="familias" transform="translate(462.000000, 23.000000)">
                    <path d="M18,47.9787234 L18,59.4787234 C18,60.0904255 17.5,60.4574468 17,60.4574468 C16.375,60.4574468 16,59.9680851 16,59.4787234 L16,47.9787234 C16,47.3670213 16.5,47 17,47 C17.625,47 18,47.4893617 18,47.9787234 Z M17,63.8829787 C17.5,63.8829787 18,64.25 18,64.8617021 L18,69.0212766 C18,69.6329787 17.5,70 17,70 C16.375,70 16,69.5106383 16,69.0212766 L16,64.8617021 C16,64.25 16.5,63.8829787 17,63.8829787 Z" id="Combined-Shape" fill="#E33C10" fill-rule="nonzero"></path>
                    <path d="M244.941176,21.8723404 C244.470588,21.8723404 244.117647,21.4042553 244,20.9361702 L244,9.93617021 C244,9.35106383 244.470588,9 244.941176,9 C245.529412,9 245.882353,9.46808511 245.882353,9.93617021 L245.882353,20.9361702 C245.882353,21.5212766 245.411765,21.8723404 244.941176,21.8723404 Z M244.117647,30.0638298 L244.117647,26.0851064 C244.117647,25.5 244.588235,25.1489362 245.058824,25.1489362 C245.647059,25.1489362 246,25.6170213 246,26.0851064 L246,30.0638298 C246,30.6489362 245.529412,31 245.058824,31 C244.470588,31 244.117647,30.5319149 244.117647,30.0638298 Z" id="Combined-Shape" fill="#E33C10" fill-rule="nonzero"></path>
                    <path d="M162.3,6.3 C162.3,4.85228475 161.147715,3.7 159.7,3.7 C158.252285,3.7 157.1,4.85228475 157.1,6.3 C157.1,7.74771525 158.252285,8.9 159.7,8.9 C161.147715,8.9 162.3,7.74771525 162.3,6.3 Z" id="Shape" stroke="#E33C10" stroke-width="2" fill-rule="nonzero"></path>
                    <path d="M258.3,46.3 C258.3,44.8522847 257.147715,43.7 255.7,43.7 C254.252285,43.7 253.1,44.8522847 253.1,46.3 C253.1,47.7477153 254.252285,48.9 255.7,48.9 C257.147715,48.9 258.3,47.7477153 258.3,46.3 Z" id="Shape" stroke="#E33C10" stroke-width="2" fill-rule="nonzero"></path>
                    <path d="M11.3,75.3 C11.3,73.8522847 10.1477153,72.7 8.7,72.7 C7.25228475,72.7 6.1,73.8522847 6.1,75.3 C6.1,76.7477153 7.25228475,77.9 8.7,77.9 C10.1477153,77.9 11.3,76.7477153 11.3,75.3 Z" id="Shape" stroke="#E33C10" stroke-width="2" fill-rule="nonzero"></path>
                    <path d="M126.5,113.5 C126.5,113 126.883459,112.5 127.522556,112.5 L142.477444,112.5 C143.116541,112.5 143.5,113 143.5,113.5 C143.5,114.125 142.988722,114.5 142.477444,114.5 L127.522556,114.5 C126.883459,114.5 126.5,114 126.5,113.5 Z M152.462963,112.5 C152.981481,112.5 153.5,113 153.5,113.5 C153.5,114.125 152.981481,114.5 152.462963,114.5 L147.537037,114.5 C146.888889,114.5 146.5,114 146.5,113.5 C146.5,112.875 147.018519,112.5 147.537037,112.5 L152.462963,112.5 Z M151.510309,116.5 C152.005155,116.5 152.5,117 152.5,117.5 C152.5,118.125 152.005155,118.5 151.510309,118.5 L141.489691,118.5 C140.871134,118.5 140.5,118 140.5,117.5 C140.5,116.875 140.994845,116.5 141.489691,116.5 L151.510309,116.5 Z M136.547619,116.5 C137.02381,116.5 137.380952,117 137.5,117.5 C137.5,118.125 137.02381,118.5 136.547619,118.5 L133.452381,118.5 C132.857143,118.5 132.5,118 132.5,117.5 C132.5,116.875 132.97619,116.5 133.452381,116.5 L136.547619,116.5 Z" id="Combined-Shape" fill="#E33C10" fill-rule="nonzero"></path>
                    <path d="M82.5,26.5 C82.5,26 82.8834586,25.5 83.5225564,25.5 L98.4774436,25.5 C99.1165414,25.5 99.5,26 99.5,26.5 C99.5,27.125 98.9887218,27.5 98.4774436,27.5 L83.5225564,27.5 C82.8834586,27.5 82.5,27 82.5,26.5 Z M108.462963,25.5 C108.981481,25.5 109.5,26 109.5,26.5 C109.5,27.125 108.981481,27.5 108.462963,27.5 L103.537037,27.5 C102.888889,27.5 102.5,27 102.5,26.5 C102.5,25.875 103.018519,25.5 103.537037,25.5 L108.462963,25.5 Z M107.510309,29.5 C108.005155,29.5 108.5,30 108.5,30.5 C108.5,31.125 108.005155,31.5 107.510309,31.5 L97.4896907,31.5 C96.871134,31.5 96.5,31 96.5,30.5 C96.5,29.875 96.9948454,29.5 97.4896907,29.5 L107.510309,29.5 Z M92.547619,29.5 C93.0238095,29.5 93.3809524,30 93.5,30.5 C93.5,31.125 93.0238095,31.5 92.547619,31.5 L89.452381,31.5 C88.8571429,31.5 88.5,31 88.5,30.5 C88.5,29.875 88.9761905,29.5 89.452381,29.5 L92.547619,29.5 Z" id="Combined-Shape" fill="#E33C10" fill-rule="nonzero" transform="translate(95.900000, 28.300000) scale(-1, -1) translate(-95.900000, -28.300000) "></path>
                    <path d="M119,9.7 C119.3,10 119.3,10.5 118.9,10.8 C118.8,10.9 118.6,11 118.4,11 C118.2,11 118,10.9 117.9,10.8 L116.4,9.3 C116.1,9 116.1,8.5 116.4,8.2 C116.7,7.9 117.2,7.9 117.5,8.2 L119,9.7 Z M122.5,13.1 L123.9,14.6 C124.2,14.9 124.2,15.4 123.9,15.7 C123.8,15.8 123.6,15.9 123.4,15.9 C123.2,15.9 123,15.8 122.9,15.7 L121.4,14.2 C121.1,13.9 121.1,13.4 121.4,13.1 C121.7,12.8 122.2,12.8 122.5,13.1 Z M118,13.1 C118.3,12.9 118.7,12.9 119,13.1 C119.3,13.4 119.3,13.9 119,14.2 L117.5,15.7 C117.4,15.8 117.2,15.9 117,15.9 C116.8,15.9 116.6,15.8 116.5,15.7 C116.2,15.4 116.2,14.9 116.5,14.6 L118,13.1 Z M124,8.2 C124.3,8.5 124.3,8.9 123.9,9.3 L122.4,10.8 C122.3,10.9 122.1,11 121.9,11 C121.7,11 121.5,10.9 121.4,10.8 C121.1,10.5 121.1,10 121.4,9.7 L122.9,8.2 C123.2,7.9 123.7,7.9 124,8.2 Z" id="Combined-Shape" fill="#E33C10" fill-rule="nonzero"></path>
                    <path d="M1.9,36.1 L3.3,37.6 C3.6,37.9 3.6,38.4 3.3,38.7 C3.2,38.8 3,38.9 2.8,38.9 C2.6,38.9 2.4,38.8 2.3,38.7 L0.8,37.2 C0.5,36.9 0.5,36.4 0.8,36.1 C1.1,35.8 1.6,35.8 1.9,36.1 Z M7.4,43.6 L5.8,42.1 C5.5,41.8 5.5,41.3 5.8,41 C6.1,40.7 6.6,40.7 6.9,41 L8.4,42.5 C8.7,42.8 8.7,43.3 8.4,43.6 C8.3,43.7 8.1,43.8 7.9,43.8 C7.7,43.8 7.5,43.7 7.4,43.6 Z M2.4,41 C2.7,40.7 3.2,40.7 3.4,41 C3.7,41.3 3.7,41.8 3.4,42.1 L1.9,43.6 C1.8,43.7 1.6,43.8 1.4,43.8 C1.2,43.8 1,43.7 0.9,43.6 C0.6,43.3 0.6,42.8 0.9,42.5 L2.4,41 Z M6.4,38.9 C6.2,38.9 6,38.8 5.8,38.7 C5.5,38.4 5.5,37.9 5.8,37.6 L7.3,36.1 C7.6,35.8 8.1,35.8 8.4,36.1 C8.7,36.4 8.7,36.9 8.4,37.2 L6.9,38.7 C6.8,38.8 6.6,38.9 6.4,38.9 Z" id="Combined-Shape" fill="#E33C10" fill-rule="nonzero"></path>
                    <path d="M243.333333,62.2242991 L244.742138,63.7196262 C245.044025,64.0186916 245.044025,64.517134 244.742138,64.8161994 C244.641509,64.9158879 244.440252,65.0155763 244.238994,65.0155763 C244.037736,65.0155763 243.836478,64.9158879 243.735849,64.8161994 L242.226415,63.3208723 C241.924528,63.0218069 241.924528,62.5233645 242.226415,62.2242991 C242.528302,61.9252336 243.031447,61.9252336 243.333333,62.2242991 Z M248.36478,67.2087227 L249.773585,68.7040498 C250.075472,69.0031153 250.075472,69.5015576 249.773585,69.8006231 C249.672956,69.9003115 249.471698,70 249.27044,70 C249.069182,70 248.867925,69.9003115 248.767296,69.8006231 L247.257862,68.305296 C246.955975,68.0062305 246.955975,67.5077882 247.257862,67.2087227 C247.559748,66.9096573 248.062893,66.9096573 248.36478,67.2087227 Z M243.836478,67.2087227 C244.138365,66.9096573 244.540881,66.9096573 244.842767,67.2087227 C245.144654,67.5077882 245.144654,68.0062305 244.842767,68.305296 L243.333333,69.8006231 C243.232704,69.9003115 243.031447,70 242.830189,70 C242.628931,70 242.427673,69.9003115 242.327044,69.8006231 C242.025157,69.5015576 242.025157,69.0031153 242.327044,68.7040498 L243.836478,67.2087227 Z M248.767296,62.2242991 C249.069182,61.9252336 249.572327,61.9252336 249.773585,62.2242991 C250.075472,62.5233645 250.075472,63.0218069 249.773585,63.3208723 L248.264151,64.8161994 C248.163522,64.9158879 247.962264,65.0155763 247.761006,65.0155763 C247.559748,65.0155763 247.358491,64.9158879 247.257862,64.8161994 C246.955975,64.517134 246.955975,64.0186916 247.257862,63.7196262 L248.767296,62.2242991 Z" id="Combined-Shape" fill="#E33C10" fill-rule="nonzero"></path>
                    <g id="padre" transform="translate(17.000000, 20.000000)" stroke-width="2.20000005" stroke="#E33C10" stroke-linecap="round">
                        <path d="M20.1359838,68.0246812 L18.940768,68.0246812 L19.6781104,66.4566039 C20.9055863,63.846179 21.5142435,59.8416055 20.6730444,55.1136788 L20.1562842,52.2092483 L22.4484811,54.0662866 C25.5646551,56.5908753 29.1995978,57.931844 33.0448035,57.931844 C36.287727,57.931844 39.485164,56.9039576 42.3285336,54.9944156 L44.7445557,53.3718704 L44.0057722,56.186833 C43.2252499,59.1608318 43.1566032,61.9102798 43.6169171,64.3576092 C43.9179661,65.9581818 44.4479234,67.315996 44.7685467,67.7705674 L45.150945,68.3127217 L44.8498033,68.9038845 C44.1702546,70.2378872 43.1770674,71.4158016 41.6849052,72.7823213 C41.2942992,73.1400377 37.5338376,76.3236382 36.3816517,77.43544 C35.2206707,78.5557286 34.216509,79.6771186 33.3096146,80.8993214 L32.4525592,82.0543573 L31.5622929,80.9247211 C30.9920963,80.2012131 30.3919407,79.489964 29.7514252,78.7742773 C28.5175322,77.3955739 22.8589949,71.8418291 21.69865,70.3903982 C21.0510064,69.5802857 20.5342454,68.8049623 20.1359838,68.0246812 Z M24.1903094,9.2065073 C23.5083768,10.3337765 23.1802806,11.8234462 23.5700604,12.9632241 L24.1397931,14.6292129 L22.3926964,14.4106551 C19.0211243,13.9888792 16.8104367,14.2239484 15.9782818,15.3054385 L15.9078026,15.3882242 C15.3127741,16.0209362 14.7534734,17.1360388 14.3004355,18.5812257 L12.983539,22.7821142 L12.1697569,18.4555175 C12.0875509,18.0184567 12.0401309,17.5366358 12.016494,16.9836921 C12.0000789,16.5996886 11.9963659,16.2917935 11.9961688,15.675894 C11.0047269,5.67915236 12.3529516,3.44720633 18.924505,1.2616605 C19.6101996,1.01862052 19.6137423,1.01736703 20.3348616,0.762214651 C24.1232943,-0.463806697 28.2715254,-1.10000002 32.7355222,-1.10000002 C37.1010856,-1.10000002 41.3995413,-0.447045905 45.1649794,0.771975545 C45.8608623,1.0186267 45.8608623,1.0186267 46.5361292,1.2581998 C47.3485504,1.52815984 47.4598792,1.56543203 47.781122,1.67696617 C53.1059255,3.52571564 54.469453,6.20085673 53.9388061,15.6212401 C53.9388061,15.9475772 53.9177003,16.2094057 53.8555291,16.8043822 C53.8017198,17.3193359 53.7841654,17.5371069 53.7841654,17.7588835 L53.7841654,23.4306506 L51.6639163,18.1700911 C50.7248204,15.8400963 49.5250294,14.4608808 48.2149966,14.2458815 C46.8909559,14.0769343 44.660923,13.9736237 41.7934308,13.9274583 C39.6535507,13.8930072 37.410841,13.8926315 35.1465127,13.9126625 C34.7159748,13.9164712 33.8588877,13.9258603 33.8180067,13.9258603 C33.8476365,13.9254628 33.8476365,13.9254628 33.7838576,13.927692 C32.9009967,13.9564767 31.7969164,13.813397 30.429183,13.3315792 C28.4042639,12.6182517 26.3452164,11.3097457 24.3388263,9.27942602 C24.2757465,9.24684109 24.2299582,9.22434409 24.1903094,9.2065073 Z M13.1616515,40.2353173 L12.6322384,40.2353173 C10.741641,40.2353173 9.36726932,36.8041777 9.36726932,32.557953 C9.36726932,28.8679891 10.5369019,25.6106639 12.1101109,24.9437891 C12.2038118,24.9105775 12.2612703,24.8691384 12.3054416,24.7889251 L12.3054416,24.0538232 L12.3304659,23.938517 C13.0621358,20.5671537 14.3100209,16.832136 15.4872093,15.424201 C16.6992913,13.9205499 20.7921385,14.0817369 24.6519128,15.0474347 L24.7524142,15.0777428 C24.6559852,15.0435641 24.773675,14.9858058 24.8447173,14.8724935 C24.8353777,14.8873902 24.8327664,14.875358 24.7815602,14.8369034 C23.3768103,13.7166184 22.8795201,12.2477745 23.1492427,10.8137534 L23.5026572,8.93477118 L24.949421,10.1847114 C26.8749422,11.848277 28.7943861,12.890603 30.6381095,13.4418824 C31.8062369,13.7911563 32.7091657,13.8890603 33.389509,13.8670045 C33.4327631,13.8652659 33.4327631,13.8652659 33.5087254,13.8635036 C33.4810601,13.8635036 34.1723619,13.8550931 34.6812642,13.8503958 C36.8666217,13.8302243 39.1419138,13.8305918 41.2913726,13.8653063 C44.2350915,13.9128485 46.5047387,14.0190875 47.8253394,14.1960332 C50.3810506,14.4050767 52.1756452,19.1226875 52.8473863,24.3607615 L52.8563216,24.5006818 L52.8563216,24.82955 L51.7563215,24.82955 L52.8059561,24.5005101 C52.8525353,24.6490973 52.9048622,24.716133 53.0085259,24.7622837 C54.7255591,25.2176156 55.7944938,28.496931 55.7944938,32.3935189 C55.7944938,36.6397436 54.4201221,40.0708832 52.5295248,40.0708832 L51.9460028,40.0708832 L51.7987246,39.9925805 C51.7808074,40.0303579 51.7502316,40.0912847 51.7057308,40.1842821 C48.6397539,50.7164748 41.0227981,57.6653325 32.4262409,57.6653325 C23.8435766,57.6653325 16.2373501,50.7389167 13.1616515,40.2353173 Z" fill-rule="nonzero"></path>
                        <path d="M0.357777915,71.1705475 C1.92941295,69.7366836 3.735198,69.0623245 5.80324942,69.0623245 C7.65893716,69.2267586 18.2197582,68.8978904 20.075446,69.0623245 M45.2409578,69.0623245 C47.0966455,68.8978904 60.4161976,69.5556269 62.2718854,70.5422315 C63.6636512,71.364402 65.055417,72.1865726 66.1379015,73.3376113 C67.684308,74.8175182 68.7667925,76.7907275 69.6946363,78.9283709 C69.849277,79.4216732 70.0039176,79.7505414 70.1585583,80.2438437 L72.9420899,90.1098901 L75,99.4505495" id="Path"></path>
                    </g>
                    <path d="M223.822791,52.7297702 C219.188516,49.820182 215.827327,44.9457998 213.512285,38.9033528 C212.149224,35.3456526 211.162688,31.0839334 211.102263,29.893852 L211.026717,29.893852 L210.857323,29.8373682 C210.828199,29.8276569 210.849269,29.8199921 210.782254,29.920114 C206.758392,35.6921385 202.133595,38.9469228 197.268336,40.1770207 C195.480825,40.6289626 193.763236,40.7771047 192.160765,40.6906351 C191.073152,40.6319473 190.163043,40.4731704 189.531001,40.2925258 L189.398192,40.2545674 L189.278891,40.1849515 C187.605512,39.2084829 186.186599,39.0764461 184.987022,39.7390299 C184.017025,40.1800868 183.477944,41.2945664 183.475971,41.9524246 C183.092565,48.3446816 184.042771,51.4426999 185.641009,53.0414793 L185.843686,53.2442259 L185.921626,53.5201061 C188.026263,60.9698089 190.918765,66.4352781 194.569953,69.9289037 L196.22382,71.5114001 L193.954902,71.8140251 C194.186712,71.7831067 193.402602,71.8881972 193.193102,71.9155451 C192.851915,71.9600833 192.534242,71.9995437 192.209636,72.0371022 C189.767571,72.3196607 187.504167,72.4274166 185.32288,72.2744239 C182.546871,72.0797182 180.221252,71.4688576 178.46234,70.3184095 L178.126198,70.0985502 L178.010819,69.7138208 C177.55111,68.1809395 177.0378,66.081537 176.594308,63.6159103 C175.941513,59.9866414 175.562179,56.2104671 175.562179,52.4104552 C175.562179,41.9577836 178.380664,32.8800376 184.913481,26.1931303 C184.868369,26.2382578 185.160563,25.9353472 185.337561,25.7594629 C185.641868,25.4570714 185.981454,25.138165 186.365951,24.7998322 C187.438473,23.8560805 188.670511,22.9268194 190.067628,22.0582662 C197.901159,17.1883534 207.377717,16.1107922 218.137604,21.1705801 C225.771963,24.7880823 230.451872,31.9444929 232.747848,41.5412511 C234.348811,48.2329864 234.634367,55.2039274 234.180446,61.7454576 C234.146331,62.2371015 234.110323,62.6862392 234.070855,63.1308498 C234.053287,63.3287557 234.009021,63.8038987 234.004821,63.8543171 L233.963949,64.0732839 L232.156513,70.2206501 L231.660524,70.4191131 C229.88289,71.1304077 228.248402,71.6190412 226.091111,71.8974958 C222.863007,72.3141666 219.563465,72.008145 216.280822,70.7571899 L214.672944,70.1444574 L215.904009,68.9422962 C218.834448,66.0806593 220.962116,62.513358 222.391097,58.6192937 C223.284983,56.1834005 223.85625,53.5800794 223.85625,52.9905121 C223.85625,52.889837 223.842828,52.7964787 223.822791,52.7297702 Z M185.986839,53.0596426 C185.881455,52.8531344 185.850359,52.808349 185.86206,52.8142014 L185.759152,52.7556028 C185.35242,52.4940434 184.877136,51.9280375 184.458389,50.9705771 C183.623609,49.0618615 183.267141,46.1378287 183.600886,41.9646057 L183.618732,41.8366385 C183.676036,41.5500205 183.80404,41.1841704 184.050049,40.8055667 C184.268294,40.4696913 184.54861,40.1852454 184.900523,39.9803452 C185.13108,39.8034742 185.391834,39.7095559 185.676207,39.6621444 C185.85462,39.6323987 185.985415,39.6264515 186.188454,39.6264515 C187.013286,39.6264515 187.941955,39.9544448 188.92794,40.525798 C188.978185,40.543632 189.029737,40.565477 189.0828,40.5920174 C189.180111,40.640689 189.269983,40.7011884 189.350505,40.7718592 C189.732568,40.8689641 190.286455,40.9758546 190.949148,41.052874 C192.382968,41.2195154 193.954769,41.2000589 195.618482,40.9255388 C200.330163,40.1480907 204.904188,37.5109837 209.024255,32.4115445 L210.439563,30.6598064 L210.951129,32.852974 C212.891243,41.1705691 216.567595,48.4862246 222.763111,52.7470869 L223.367194,53.162535 L223.216206,53.8799723 C222.541975,57.0836562 221.464563,60.2968428 219.571256,63.5682102 C216.725966,68.4844697 212.686144,72.1335251 207.231373,73.9263637 C207.080056,73.9745264 206.830901,74.0370933 206.493879,74.096605 C204.107769,74.5179482 201.287776,74.1742191 198.392889,72.5035201 C192.954684,69.3447814 188.691417,62.6373868 185.986839,53.0596426 Z M193.151864,72.3914997 L193.151731,72.3915665 C193.151773,72.3915453 193.151816,72.3915241 193.151858,72.3915028 Z M194.92981,71.778178 C194.832979,71.7780637 194.834642,71.7760503 194.866792,71.7484837 C194.909664,71.7117241 194.946466,71.6764759 195.019616,71.6033008 L195.694326,70.9283623 L196.457709,71.5010938 C196.941223,71.8638522 197.34055,72.0885498 198.325084,72.5824453 C200.447496,73.7767073 202.58396,74.2641362 204.74398,74.2641362 C205.475104,74.2641362 206.104335,74.2085971 206.675429,74.1133823 C206.788154,74.0945885 207.165257,74.0154107 207.443958,73.9683236 C209.57772,73.295574 211.367484,72.331728 213.908453,70.6371738 L214.658954,70.13667 L215.296716,70.7746481 C215.323418,70.8013592 215.345021,70.8227674 215.362472,70.8398536 L215.363746,70.8402785 C215.61094,70.9227044 215.81224,71.0047433 216.277596,71.2042495 C216.68203,71.3776371 216.853497,71.4475178 217.020489,71.5032007 L218.109619,71.8663669 L217.700217,72.9389725 C216.233123,76.7826669 215.909353,80.3257155 216.432616,83.513944 C216.622943,84.6736014 216.916735,85.7197596 217.277583,86.6422395 C217.519274,87.2601043 217.758213,87.7416772 217.947208,88.056776 L218.269872,88.5947308 L217.971177,89.1463543 C216.065163,92.6663428 214.900823,94.3306115 212.581654,97.075578 C212.439545,97.2857415 212.31008,97.4580519 212.149505,97.6452389 L212.240972,97.7214872 L210.926315,99.4815729 L210.681402,99.3182423 C209.039067,100.796998 206.895694,101.65518 204.74398,101.65518 C202.042292,101.65518 199.572917,100.471536 198.113999,98.4580445 C196.004935,96.0236835 193.97823,92.8981201 192.006616,89.1328521 L191.720305,88.5860725 L192.037775,88.056776 C192.194317,87.7957839 192.430754,87.3004594 192.661478,86.6902045 C192.998163,85.7996829 193.279256,84.7869171 193.470894,83.6715579 C193.993753,80.628435 193.787365,77.2857811 192.600212,73.723114 L192.298687,72.8182329 L193.151864,72.3914997 C193.382867,72.2759693 193.615444,72.187155 193.869194,72.1105518 L193.869194,71.778178 L194.92981,71.778178 Z M211.515427,98.5232977 C211.681831,98.2874986 211.847307,98.1084401 212.166911,97.7887276 C212.426727,97.5288232 212.524727,97.4204703 212.609369,97.293464 L212.689418,97.1877604 C212.796485,97.0628064 212.913114,96.9270056 213.132262,96.6718901 C213.309172,96.4658302 213.437305,96.3161304 213.562632,96.1688613 C213.959561,95.7024367 214.275644,95.321409 214.5788,94.9408486 C215.985132,93.1754421 217.144786,91.3494403 218.50506,88.6279704 L218.781483,88.0749358 L219.397616,88.0235741 C220.2472,87.9527513 220.940738,87.9177123 222.509992,87.8549208 C224.047132,87.7934143 224.720407,87.759399 225.497432,87.6950431 C227.071913,87.5200414 228.483614,87.5200414 229.834001,87.6907487 C232.392251,87.8613565 234.86086,88.534842 237.087799,89.6498507 C239.415085,90.9432258 240.409305,91.5867626 241.431311,92.6112667 C243.052699,94.0710109 244.287925,95.9656664 245.504637,98.6027697 L245.549409,98.7158604 C245.609688,98.8967571 245.659057,99.0263967 245.775706,99.3181167 C245.907569,99.6478863 245.968649,99.8082751 246.046432,100.041705 C246.795366,102.289268 247.129204,103.318951 247.545652,104.707649 L253.557022,124.326831 L160.594573,111.41436 L160.942297,110.196914 C161.939058,106.707064 162.936003,103.382789 163.932178,100.227179 C166.57801,91.7576438 174.352298,86.994277 184.291743,87.692113 C185.099899,87.7594821 185.752434,87.7934799 187.228309,87.8549955 C188.734572,87.9177778 189.407431,87.9528344 190.256019,88.0235741 L190.872151,88.0749358 L191.148575,88.6279704 C193.053753,92.4396206 195.149348,95.7050197 197.46124,98.5136048 C199.245937,100.596458 201.760176,101.775407 204.412631,101.775407 C207.028171,101.775407 209.568686,100.623846 211.421376,98.6173804 L211.515427,98.5232977 Z" id="madre" stroke="#E33C10" stroke-width="2.20000005" stroke-linecap="round" fill-rule="nonzero"></path>
                    <g id="desk" transform="translate(66.000000, 0.000000)">
                        <mask id="mask-2" fill="white">
                            <use xlink:href="#path-1"></use>
                        </mask>
                        <g id="mask"></g>
                        <path d="M128.993719,88.2105962 L121.220312,88.2105962 L115.935005,88.2105962 L18.8208141,88.2105962 L13.5355075,88.2105962 L5.7621005,88.2105962 L5.7621005,84.0839936 L27.9414171,84.0839936 L40.7931759,84.0839936 L128.993719,84.0839936 L128.993719,88.2105962 Z M120.391166,124.731359 L118.52592,124.731359 L116.971106,89.9642372 L120.391166,89.9642372 L120.391166,124.731359 Z M16.2298995,124.731359 L14.4681307,124.731359 L14.4681307,89.9642372 L17.888191,89.9642372 L16.2298995,124.731359 Z M31.5690955,77.1717692 L37.3731156,77.1717692 L39.5494573,82.2266923 L29.3927538,82.2266923 L31.5690955,77.1717692 Z M11.7730754,74.0771474 L11.7730754,46.8415705 C11.7730754,46.11925 12.3952663,45.4999295 13.1209347,45.4999295 L55.717799,45.4999295 C56.4434673,45.4999295 57.064995,46.11925 57.064995,46.8415705 L57.064995,74.0771474 C57.064995,74.7994679 56.4434673,75.4181282 55.717799,75.4181282 L37.8911658,75.4181282 L30.9475678,75.4181282 L13.1209347,75.4181282 C12.3952663,75.3151282 11.7730754,74.7994679 11.7730754,74.0771474 L11.7730754,74.0771474 Z M129.926342,82.2266923 L41.4153668,82.2266923 L39.2390251,77.1717692 L55.717799,77.1717692 C57.4795678,77.1717692 58.8274271,75.7277885 58.8274271,74.0771474 L58.8274271,46.8415705 C58.8274271,45.0872692 57.4795678,43.7462885 55.717799,43.7462885 L13.1209347,43.7462885 C11.3585025,43.7462885 10.0113065,45.1909295 10.0113065,46.8415705 L10.0113065,74.0771474 C10.0113065,75.8307885 11.3585025,77.1717692 13.1209347,77.1717692 L29.5997085,77.1717692 L27.4233668,82.2266923 L4.93295477,82.2266923 C4.41490452,82.2266923 4.00033166,82.6393526 4.00033166,83.1556731 L4.00033166,89.0359167 C4.00033166,89.5515769 4.41490452,89.9642372 4.93295477,89.9642372 L12.7063618,89.9642372 L12.7063618,125.659679 C12.7063618,126.17534 13.1209347,126.588 13.6389849,126.588 L17.1625226,126.588 C17.6812362,126.588 17.9916683,126.17534 18.095809,125.762679 L19.7541005,90.0678974 L115.209337,90.0678974 L116.867628,125.762679 C116.867628,126.27834 117.282201,126.588 117.800251,126.588 L121.323789,126.588 C121.842503,126.588 122.257075,126.17534 122.257075,125.659679 L122.257075,89.9642372 L130.029819,89.9642372 C130.548533,89.9642372 130.963106,89.5515769 130.963106,89.0359167 L130.963106,83.1556731 C130.859628,82.6393526 130.445055,82.2266923 129.926342,82.2266923 L129.926342,82.2266923 Z" id="Fill-3" fill="#E33C10" mask="url(#mask-2)"></path>
                        <g id="hijo" mask="url(#mask-2)">
                            <g transform="translate(50.000000, 5.000000)">
                                <mask id="mask-4" fill="white">
                                    <use xlink:href="#path-3"></use>
                                </mask>
                                <g id="mask" stroke="none" fill="none"></g>
                                <path d="M30.7857143,43.1538462 C29.1993536,43.1538462 27.9824194,42.6659487 27.3583332,41.7809522 C27.0697188,41.371785 27.2286265,40.8430858 27.7114614,40.5994244 C28.1949755,40.355763 28.8190617,40.4885125 29.1076761,40.8976797 C29.3460377,41.2361621 29.9572211,41.429827 30.7857143,41.429827 C31.6135283,41.429827 32.2247118,41.2355875 32.4637525,40.897105 C32.7516878,40.4879378 33.3764531,40.3551883 33.8599671,40.5988497 C34.3428021,40.8425111 34.5017098,41.3712103 34.2130954,41.7803775 C33.5890091,42.6659487 32.3720749,43.1538462 30.7857143,43.1538462" id="Fill-1" stroke="none" fill="#E33C10" fill-rule="evenodd" mask="url(#mask-4)"></path>
                                <path d="M27.1792741,31.5538462 L24.5707259,31.5538462 C24.0585423,31.5538462 23.6428571,31.1540923 23.6428571,30.6615385 C23.6428571,30.1689846 24.0585423,29.7692308 24.5707259,29.7692308 L27.1792741,29.7692308 C27.6914577,29.7692308 28.1071429,30.1689846 28.1071429,30.6615385 C28.1071429,31.1540923 27.6914577,31.5538462 27.1792741,31.5538462" id="Fill-3" stroke="none" fill="#E33C10" fill-rule="evenodd" mask="url(#mask-4)"></path>
                                <path d="M36.1078456,31.5538462 L33.4992973,31.5538462 C32.9871138,31.5538462 32.5714286,31.1540923 32.5714286,30.6615385 C32.5714286,30.1689846 32.9871138,29.7692308 33.4992973,29.7692308 L36.1078456,29.7692308 C36.6200291,29.7692308 37.0357143,30.1689846 37.0357143,30.6615385 C37.0357143,31.1540923 36.6200291,31.5538462 36.1078456,31.5538462" id="Fill-5" stroke="none" fill="#E33C10" fill-rule="evenodd" mask="url(#mask-4)"></path>
                                <path d="M17.2383508,33.5224412 C17.3945925,33.5224412 17.5508343,33.5603835 17.6910677,33.6356248 C17.9407983,33.7706735 18.1213728,34.0060439 18.1796433,34.2851444 C19.2611692,39.5018793 22.3815219,43.8710233 26.3234245,45.6864625 C28.9353511,46.8890382 31.7553867,46.8665301 34.3461823,45.6356585 C38.2451824,43.7835633 41.3258343,39.4157054 42.3855888,34.2362696 C42.4477013,33.9365903 42.6474858,33.6832134 42.9241106,33.5552388 C43.2013757,33.426621 43.5215432,33.4375535 43.7898436,33.5854639 C43.825062,33.5906086 44.0331709,33.5044348 44.2662528,33.1629547 C44.5832187,32.7012171 44.813099,32.0137553 44.8982635,31.2793481 C44.9738231,30.6240408 44.9245173,30.0902773 44.828467,29.6857745 C44.8195023,29.7487972 44.8124586,29.798315 44.8066956,29.834328 C44.7625125,31.0131094 43.7943259,31.9584497 42.6090657,31.9584497 L42.5341465,31.9584497 C41.9264686,31.9584497 41.3412023,31.7018574 40.9288266,31.2542677 C40.5087668,30.7976748 40.2955352,30.1783804 40.3442007,29.5532983 C40.3787788,29.1127826 40.3960678,28.6651929 40.3960678,28.223391 C40.3960678,26.2220992 40.0592516,24.9423529 39.3664091,24.3108398 C38.4199939,23.4491011 36.6033633,23.6272366 34.3019992,23.8516746 C33.1609221,23.963572 31.8674453,24.0896173 30.5285047,24.0896173 C29.1895641,24.0896173 27.8960873,23.963572 26.7537296,23.8516746 C24.4530058,23.6272366 22.6363753,23.4497442 21.68996,24.3108398 C20.9971175,24.9423529 20.6603013,26.2220992 20.6603013,28.223391 C20.6603013,28.6651929 20.6775903,29.1127826 20.7121684,29.5526552 C20.7614742,30.1770942 20.548883,30.7970317 20.1288232,31.2529815 C19.7158071,31.7012143 19.1305409,31.9584497 18.5222226,31.9584497 L18.4473034,31.9584497 C17.2697272,31.9584497 16.306023,31.024042 16.2509541,29.8555499 C16.2253407,29.7211444 16.1696316,29.4253236 16.0985544,29.0169624 C15.8910859,29.3822367 15.6496795,30.1520138 15.7803079,31.2793481 C15.8648321,32.0137553 16.0959931,32.700574 16.4129589,33.1629547 C16.6402779,33.4960746 16.8342994,33.5912517 16.8759212,33.5912517 C16.8765615,33.5912517 16.8778422,33.5912517 16.8784825,33.5906086 C16.9937428,33.5449493 17.1166871,33.5224412 17.2383508,33.5224412 M30.2781337,48.5076923 C28.6606474,48.5076923 27.0604501,48.1482058 25.5230056,47.4401652 C21.2449272,45.4690986 17.8325817,40.9308222 16.4808344,35.4787168 C15.8686741,35.3500991 15.2885306,34.9263037 14.8300507,34.2568485 C14.3344313,33.5327307 13.9944134,32.5545929 13.8714691,31.5018568 C13.58652,29.0356119 14.5438209,27.0394649 16.0985544,26.8581139 C16.5327016,26.8079529 16.9674891,26.9076317 17.3875489,27.1584362 C17.6321568,27.3031312 17.7999246,27.5500772 17.8460288,27.83175 C18.0131562,28.8555471 18.1501879,29.5565137 18.1514686,29.5642308 C18.1629946,29.6246811 18.169398,29.6877038 18.169398,29.7500834 C18.169398,29.9037816 18.293623,30.0291839 18.4473034,30.0291839 L18.5222226,30.0291839 C18.6182728,30.0291839 18.681666,29.9828815 18.7181651,29.9436531 C18.7514625,29.906997 18.8065313,29.827254 18.7975666,29.7044241 C18.7585062,29.2143906 18.7392961,28.7153538 18.7392961,28.223391 C18.7392961,25.611165 19.2669322,23.9146972 20.3996849,22.8818969 C21.9755495,21.44588 24.2762733,21.670961 26.9400671,21.9314119 C28.0913895,22.0439524 29.2830531,22.1603515 30.5285047,22.1603515 C31.7739564,22.1603515 32.9649796,22.0439524 34.116302,21.9314119 C36.7788151,21.6696749 39.0801793,21.44588 40.6566842,22.8818969 C41.7894369,23.9146972 42.317073,25.611165 42.317073,28.223391 C42.317073,28.7153538 42.2978629,29.2143906 42.2588025,29.7044241 C42.2498378,29.827254 42.3049066,29.906997 42.3388444,29.9442962 C42.3747031,29.9828815 42.4380963,30.0291839 42.5341465,30.0291839 L42.6090657,30.0291839 C42.7621058,30.0291839 42.8876115,29.9037816 42.8876115,29.7500834 C42.8876115,29.6999225 42.8914535,29.6491185 42.8991375,29.5989576 C42.9004182,29.5918836 43.0137575,28.8677658 43.1251758,27.7577948 C43.1642362,27.3635815 43.4402206,27.0336771 43.8205797,26.9256382 C44.079275,26.8529692 44.333488,26.830461 44.5787364,26.8581139 L44.580017,26.8581139 C46.1347505,27.0394649 47.0920514,29.0356119 46.8071023,31.5012137 C46.6847983,32.5539498 46.3447804,33.5327307 45.8491611,34.2568485 C45.3586644,34.9732492 44.7292151,35.4079771 44.0690297,35.5012249 C42.7294487,40.8780889 39.3740931,45.3809954 35.1677321,47.380358 C33.5925079,48.12827 31.9474872,48.5076923 30.2781337,48.5076923" id="Fill-7" stroke="none" fill="#E33C10" fill-rule="evenodd" mask="url(#mask-4)"></path>
                                <path d="M34.3686134,53.8615385 L34.3456974,53.8615385 C34.0959712,53.8615385 33.8585844,53.7319402 33.691121,53.5051434 C33.5242451,53.2776265 33.4431576,52.9752307 33.4690116,52.6706749 C33.4801758,52.5367567 33.4872269,52.4021186 33.4872269,52.2646005 C33.4872269,51.6684487 33.8820881,51.1846154 34.3686134,51.1846154 C34.8551388,51.1846154 35.25,51.6684487 35.25,52.2646005 L35.25,52.7815534 C35.25,53.3777051 34.8551388,53.8615385 34.3686134,53.8615385" id="Fill-9" stroke="none" fill="#E33C10" fill-rule="evenodd" mask="url(#mask-4)"></path>
                                <path d="M35.1428571,46.8559865 C34.0104507,47.3889533 32.8224761,47.7152937 31.5288759,47.8280123 L31.618537,47.8238105 C31.0883055,47.8725712 30.5478319,47.8778143 30.0117454,47.8395937 C28.7911598,47.7511493 27.5867216,47.4389121 26.4285714,46.9114091 L26.4285714,52.5460718 L26.6268064,52.7451319 L26.6886816,53.0319832 C27.1166592,55.0160735 28.846068,56.4307692 30.8648148,56.4307692 C33.0594967,56.4307692 34.8878347,54.7674156 35.1178274,52.55623 C35.1344243,52.3900774 35.1428571,52.2374477 35.1428571,52.0929319 L35.1428571,46.8559866 Z" id="Fill-11" stroke="#E33C10" stroke-width="2" fill="none" mask="url(#mask-4)"></path>
                                <path d="M10.3619589,80.0790495 L54.9213852,80.3765445 C51.3472563,61.547202 46.7662581,52.1846154 41.6848302,52.1846154 L34.517247,52.1846154 C34.2649181,54.3928309 32.39524,56.0537315 30.1594526,56.0537315 C27.9237792,56.0537315 26.0540391,54.3921409 25.8029242,52.1846154 L21.9943835,52.1846154 C16.4563046,52.1846154 12.4188012,61.4061672 10.3619589,80.0790495 Z" id="Fill-13" stroke="#E33C10" stroke-width="2" fill="none" mask="url(#mask-4)"></path>
                                <path d="M36.9952176,8.492468 C34.7198998,9.20668598 32.5184109,9.82819741 31.9482082,9.86546022 C24.4290804,9.785449 17.7667227,14.240267 16.6886331,21.0595792 C16.4686304,22.4523602 16.6982227,25.1496789 17.2147487,28.4172165 C17.3234723,29.104887 17.4282824,29.7090838 17.5062722,30.1279635 L17.522126,30.2653886 C17.5524899,30.9303376 18.0726506,31.4461538 18.684427,31.4461538 L18.7581493,31.4461538 C19.0700828,31.4461538 19.3750809,31.307881 19.5932524,31.0632971 C19.8239371,30.805014 19.9439052,30.4443726 19.9159912,30.0800894 C19.8801415,29.6089845 19.8620698,29.1300354 19.8620698,28.6543221 C19.8620698,26.3720723 20.2540953,24.835534 21.1912159,23.9535607 C22.2978354,22.915758 23.4334373,22.8679131 26.9581596,23.2225859 C27.1418795,23.2410559 27.1418795,23.2410559 27.3281149,23.2596224 C28.7199705,23.3977801 29.6165485,23.4590902 30.5726177,23.4590902 C31.5286803,23.4590902 32.4249875,23.3977774 33.816012,23.2596277 C34.0021437,23.2410613 34.0021437,23.2410613 34.1857352,23.222594 C37.7142007,22.8676433 38.8470649,22.9152592 39.9546829,23.954776 C40.8905099,24.835534 41.2825354,26.3720723 41.2825354,28.6543221 C41.2825354,29.1299307 41.2644716,29.6088475 41.2286549,30.080204 C41.2011235,30.4445952 41.3214369,30.8054037 41.5530736,31.0651185 C41.7698474,31.3081646 42.0746527,31.4461538 42.386456,31.4461538 L42.4601782,31.4461538 C43.0765532,31.4461538 43.599002,30.9234286 43.6233581,30.2531506 L43.632937,30.146733 C43.7039303,29.6544333 43.7785137,29.053909 43.8529654,28.2821321 C44.2560954,24.1340543 44.1588858,20.2145549 43.2418292,17.6054124 C42.6852919,16.0196413 41.5553088,14.6190787 39.9171642,13.5043171 L38.7684138,12.7225895 L39.8744883,11.8815636 C40.5350686,11.3792781 40.7142235,11.1553927 40.7175062,10.9920117 C40.7185384,10.9430028 40.7019461,10.907279 40.6690994,10.8810445 C40.4215473,10.6836259 39.6343729,10.6419073 37.4417495,10.8298918 L35.5583063,10.9913687 L36.4846166,9.34352698 C36.6479846,9.05290669 36.8232868,8.76000329 36.9952176,8.492468 Z" id="Fill-16" stroke="#E33C10" stroke-width="2" fill="none" mask="url(#mask-4)"></path>
                            </g>
                        </g>
                    </g>
                    <path d="M23.3643455,102.992828 L23.9162534,102.992828 C26.8613331,102.992828 29.2545047,105.390314 28.9782563,108.340702 C28.9782563,111.29109 26.5850846,113.687985 23.640005,113.687985 C22.4437136,113.687985 21.2474223,113.227134 20.3267904,112.489537 L19.3148611,114.610276 C18.3942292,116.638373 17.8417322,118.943806 17.8417322,121.24865 C17.8417322,122.170351 17.1054623,123 16.093533,123 L8.27081254,123 C7.35018065,123 6.52202427,122.262403 6.52202427,121.24865 C6.52202427,118.943806 6.06200283,116.638373 5.04948446,114.610276 L3.85260411,112.028687 C2.01192935,108.063955 1,103.638373 1,99.2127911 C1,98.0143434 2.01192935,97 3.20880971,97 L21.4311953,97 C22.6274866,97 23.640005,98.0143434 23.640005,99.2127911 C23.640005,100.411239 23.5481185,101.702329 23.3643455,102.992828 Z M22.2000122,109.228207 C22.4541946,109.482848 22.771821,109.610168 23.1213726,109.610168 C23.820476,109.610168 24.4240067,109.005345 24.4240067,108.305186 C24.4240067,107.573043 23.820476,107 23.1213726,107 C23.0260034,107 22.9625595,107 22.8671902,107.031983 C22.708377,107.795905 22.4859166,108.528047 22.2000122,109.228207 Z M5.41761941,104.191453 C5.60139238,107.787386 7.07393218,110.645722 8.27081254,112.858513 C9.19085541,114.609863 9.92712531,116.085057 9.74276333,117.191453" id="taza" stroke="#E33C10" stroke-width="2" stroke-linecap="round" transform="translate(15.000000, 110.000000) scale(-1, 1) translate(-15.000000, -110.000000) "></path>
                </g>
            </g>
        </g>
    </g>
</svg>