<svg id="Layer_8" data-name="Layer 8" xmlns="http://www.w3.org/2000/svg" viewBox="0 0 96 288"><defs><style>.cls-1,.cls-3,.cls-4,.cls-6,.cls-7,.cls-8{fill:none;}.cls-2{fill:#fde052;}.cls-3{stroke:#282d33;}.cls-3,.cls-4,.cls-6,.cls-7,.cls-8,.cls-9{stroke-width:2px;}.cls-4,.cls-7{stroke:#2e2e2e;}.cls-5{fill:#2e2e2e;}.cls-6,.cls-8,.cls-9{stroke:#fde052;}.cls-7,.cls-8{stroke-miterlimit:10;}.cls-9{fill:#f3f3f3;}</style></defs><title>fileformats_icon_sprite</title><rect class="cls-1" width="96" height="288"/><circle class="cls-2" cx="24" cy="264" r="22"/><polyline class="cls-3" points="21 272 21 257.38 31 252.25 31 265"/><circle class="cls-4" cx="28" cy="265" r="3"/><circle class="cls-4" cx="18" cy="271" r="3"/><circle class="cls-5" cx="72" cy="264" r="22"/><polyline class="cls-6" points="69 272 69 257.38 79 252.25 79 265"/><circle class="cls-6" cx="76" cy="265" r="3"/><circle class="cls-6" cx="66" cy="271" r="3"/><circle class="cls-2" cx="24" cy="216" r="22"/><path class="cls-7" d="M29,216.88v-2A2,2,0,0,0,27,213H15a2,2,0,0,0-2,2v8.1a1.8,1.8,0,0,0,2,1.9H27a1.86,1.86,0,0,0,2-2v-1.38l8,3.33v-11.5Z"/><circle class="cls-7" cx="16.5" cy="208.5" r="3.5"/><circle class="cls-7" cx="24.5" cy="208.5" r="3.5"/><circle class="cls-5" cx="72" cy="216" r="22"/><path class="cls-8" d="M77,216.88v-2A2,2,0,0,0,75,213H63a2,2,0,0,0-2,2v8.1a1.8,1.8,0,0,0,2,1.9H75a1.86,1.86,0,0,0,2-2v-1.38l8,3.33v-11.5Z"/><circle class="cls-8" cx="64.5" cy="208.5" r="3.5"/><circle class="cls-8" cx="72.5" cy="208.5" r="3.5"/><circle class="cls-2" cx="24" cy="168" r="22"/><path class="cls-5" d="M38,160v1.76a0.71,0.71,0,0,1-.61.76l-0.27,0-0.69.12L31.68,178h-3l-3.86-12.07-0.15-.5c-0.05-.18-0.1-0.37-0.15-0.58,0,0.2-.1.39-0.15,0.58l-0.15.5L20.33,178h-3l-4.75-15.3-0.7-.12-0.28,0a0.72,0.72,0,0,1-.63-0.76V160h7v1.76a0.87,0.87,0,0,1-.79.76l-0.21,0-0.32.07-0.44.1,2.52,8.92c0.07,0.26.13,0.54,0.2,0.85s0.12,0.63.17,1q0.1-.51.21-1t0.25-.85l3.47-10.57a1.62,1.62,0,0,1,.39-0.68,1.25,1.25,0,0,1,.7-0.4h1a1.32,1.32,0,0,1,.71.36,1.27,1.27,0,0,1,.39.63l3.45,10.61a14.46,14.46,0,0,1,.46,1.76c0.06-.31.11-0.61,0.18-0.91s0.12-.56.19-0.81L33,162.75c-0.25-.06-0.28-0.13-0.71-0.22S32,162.19,32,161.76V160h6Z"/><circle class="cls-5" cx="72" cy="168" r="22"/><path class="cls-2" d="M86,160v1.76a0.71,0.71,0,0,1-.61.76l-0.27,0-0.69.12L79.68,178h-3l-3.86-12.07-0.15-.5c-0.05-.18-0.1-0.37-0.15-0.58,0,0.2-.1.39-0.15,0.58l-0.15.5L68.33,178h-3l-4.75-15.3-0.7-.12-0.28,0a0.72,0.72,0,0,1-.63-0.76V160h7v1.76a0.87,0.87,0,0,1-.79.76l-0.21,0-0.32.07-0.44.1,2.52,8.92c0.07,0.26.13,0.54,0.2,0.85s0.12,0.63.17,1q0.1-.51.21-1t0.25-.85l3.47-10.57a1.62,1.62,0,0,1,.39-0.68,1.25,1.25,0,0,1,.7-0.4h1a1.32,1.32,0,0,1,.71.36,1.27,1.27,0,0,1,.39.63l3.45,10.61a14.46,14.46,0,0,1,.46,1.76c0.06-.31.11-0.61,0.18-0.91s0.12-.56.19-0.81L81,162.75c-0.25-.06-0.28-0.13-0.71-0.22S80,162.19,80,161.76V160h6Z"/><circle class="cls-2" cx="24" cy="120" r="22"/><circle class="cls-4" cx="24" cy="120" r="13.06"/><ellipse class="cls-4" cx="24" cy="120" rx="7" ry="13"/><line class="cls-4" x1="12" y1="115" x2="36" y2="115"/><line class="cls-4" x1="12" y1="125" x2="36" y2="125"/><line class="cls-4" x1="24" y1="108" x2="24" y2="132"/><circle class="cls-5" cx="72" cy="120" r="22"/><circle class="cls-6" cx="72" cy="120" r="13.06"/><ellipse class="cls-6" cx="72" cy="120" rx="7" ry="13"/><line class="cls-9" x1="60" y1="115" x2="84" y2="115"/><line class="cls-6" x1="60" y1="125" x2="84" y2="125"/><line class="cls-6" x1="72" y1="108" x2="72" y2="132"/><circle class="cls-2" cx="24" cy="72" r="22"/><polygon class="cls-5" points="30.79 58 14 58 14 86 36 86 36 63 30.79 58"/><circle class="cls-5" cx="72" cy="72" r="22"/><polygon class="cls-2" points="78.79 58 62 58 62 86 84 86 84 63 78.79 58"/><path class="cls-2" d="M21.8,71.06a2,2,0,0,1-.14.77,1.59,1.59,0,0,1-.42.6,2,2,0,0,1-.7.39,3.11,3.11,0,0,1-1,.14H18.84v1.24l0.24,0,0.12,0h0a0.23,0.23,0,0,1,.2.25V75H17.16V74.53a0.23,0.23,0,0,1,.2-0.25h0.05l0.12,0,0.24,0V70l-0.24,0-0.12,0H17.36a0.23,0.23,0,0,1-.2-0.25V69.22h2.39a3.31,3.31,0,0,1,1,.14,1.93,1.93,0,0,1,.7.38,1.49,1.49,0,0,1,.41.58A2,2,0,0,1,21.8,71.06Zm-1.08,0a1.16,1.16,0,0,0-.07-0.42,0.82,0.82,0,0,0-.22-0.32,1,1,0,0,0-.36-0.2,1.71,1.71,0,0,0-.52-0.07H18.84v2.07h0.71a1.62,1.62,0,0,0,.52-0.07,1,1,0,0,0,.36-0.21,0.86,0.86,0,0,0,.22-0.34A1.28,1.28,0,0,0,20.72,71.06Z"/><path class="cls-2" d="M28.05,72.11a3.13,3.13,0,0,1-.21,1.17,2.62,2.62,0,0,1-1.52,1.51,3.25,3.25,0,0,1-1.2.21H22.4V74.53a0.23,0.23,0,0,1,.2-0.25h0.05l0.12,0,0.24,0V70l-0.24,0-0.12,0H22.6a0.23,0.23,0,0,1-.2-0.25V69.22h2.73a3.22,3.22,0,0,1,1.2.21,2.71,2.71,0,0,1,.92.6,2.66,2.66,0,0,1,.6.91A3.13,3.13,0,0,1,28.05,72.11Zm-1.1,0a2.65,2.65,0,0,0-.13-0.85,1.82,1.82,0,0,0-.36-0.64,1.57,1.57,0,0,0-.57-0.4,2,2,0,0,0-.76-0.14h-1v4.07h1A2,2,0,0,0,25.89,74a1.57,1.57,0,0,0,.57-0.4A1.81,1.81,0,0,0,26.82,73,2.65,2.65,0,0,0,27,72.11Z"/><path class="cls-2" d="M33.11,69.22v1.52H32.65a0.17,0.17,0,0,1-.19-0.15c0-.06,0-0.23-0.06-0.51H30.35v1.71h2v0.86h-2v1.56l0.24,0,0.12,0h0.05a0.23,0.23,0,0,1,.2.25V75H28.66V74.53a0.23,0.23,0,0,1,.2-0.25h0.05l0.12,0,0.24,0V70L29,70l-0.12,0H28.86a0.23,0.23,0,0,1-.2-0.25V69.22h4.45Z"/><circle class="cls-2" cx="24" cy="24" r="22"/><line class="cls-4" x1="35" y1="27" x2="14" y2="27"/><line class="cls-4" x1="35" y1="21" x2="14" y2="21"/><line class="cls-4" x1="19" y1="15" x2="19" y2="33"/><rect class="cls-4" x="13" y="15" width="22" height="18"/><circle class="cls-5" cx="72" cy="24" r="22"/><line class="cls-6" x1="83" y1="27" x2="62" y2="27"/><line class="cls-6" x1="83" y1="21" x2="62" y2="21"/><line class="cls-6" x1="67" y1="15" x2="67" y2="33"/><rect class="cls-6" x="61" y="15" width="22" height="18"/><path class="cls-5" d="M69.8,71.06a2,2,0,0,1-.14.77,1.59,1.59,0,0,1-.42.6,2,2,0,0,1-.7.39,3.11,3.11,0,0,1-1,.14H66.84v1.24l0.24,0,0.12,0h0a0.23,0.23,0,0,1,.2.25V75H65.16V74.53a0.23,0.23,0,0,1,.2-0.25h0.05l0.12,0,0.24,0V70l-0.24,0-0.12,0H65.36a0.23,0.23,0,0,1-.2-0.25V69.22h2.39a3.31,3.31,0,0,1,1,.14,1.93,1.93,0,0,1,.7.38,1.49,1.49,0,0,1,.41.58A2,2,0,0,1,69.8,71.06Zm-1.08,0a1.16,1.16,0,0,0-.07-0.42,0.82,0.82,0,0,0-.22-0.32,1,1,0,0,0-.36-0.2,1.71,1.71,0,0,0-.52-0.07H66.84v2.07h0.71a1.62,1.62,0,0,0,.52-0.07,1,1,0,0,0,.36-0.21,0.86,0.86,0,0,0,.22-0.34A1.28,1.28,0,0,0,68.72,71.06Z"/><path class="cls-5" d="M76.05,72.11a3.13,3.13,0,0,1-.21,1.17,2.62,2.62,0,0,1-1.52,1.51,3.25,3.25,0,0,1-1.2.21H70.4V74.53a0.23,0.23,0,0,1,.2-0.25h0.05l0.12,0,0.24,0V70l-0.24,0-0.12,0H70.6a0.23,0.23,0,0,1-.2-0.25V69.22h2.73a3.22,3.22,0,0,1,1.2.21,2.71,2.71,0,0,1,.92.6,2.66,2.66,0,0,1,.6.91A3.13,3.13,0,0,1,76.05,72.11Zm-1.1,0a2.65,2.65,0,0,0-.13-0.85,1.82,1.82,0,0,0-.36-0.64,1.57,1.57,0,0,0-.57-0.4,2,2,0,0,0-.76-0.14h-1v4.07h1A2,2,0,0,0,73.89,74a1.57,1.57,0,0,0,.57-0.4A1.81,1.81,0,0,0,74.82,73,2.65,2.65,0,0,0,75,72.11Z"/><path class="cls-5" d="M81.11,69.22v1.52H80.65a0.17,0.17,0,0,1-.19-0.15c0-.06,0-0.23-0.06-0.51H78.35v1.71h2v0.86h-2v1.56l0.24,0,0.12,0h0.05a0.23,0.23,0,0,1,.2.25V75H76.66V74.53a0.23,0.23,0,0,1,.2-0.25h0.05l0.12,0,0.24,0V70L77,70l-0.12,0H76.86a0.23,0.23,0,0,1-.2-0.25V69.22h4.45Z"/></svg>