<?xml version="1.0" encoding="UTF-8"?>
<svg width="26px" height="26px" viewBox="0 0 26 26" version="1.1" xmlns="http://www.w3.org/2000/svg" xmlns:xlink="http://www.w3.org/1999/xlink">
    <!-- Generator: Sketch 46.2 (44496) - http://www.bohemiancoding.com/sketch -->
    <title>icon_topbar_flag</title>
    <desc>Created with Sketch.</desc>
    <defs></defs>
    <g id="DESIGN" stroke="none" stroke-width="1" fill="none" fill-rule="evenodd">
        <g id="CONTACTO_ENVIADO" transform="translate(-1264.000000, -11.000000)">
            <g id="IDIOMA" transform="translate(1165.000000, 0.000000)">
                <g id="icon_topbar_flag_on" transform="translate(96.000000, 8.000000)">
                    <circle id="Oval-3" fill="#E1523D" cx="16" cy="16" r="13"></circle>
                    <path d="M11,22.4166667 L11,9.58333333 L12,9.58333333 L12,22.4166667 L11,22.4166667 Z M13.5294118,10 C15.2941176,10.6666667 16.6176471,11 17.5,11 C18.3823529,11 19.7058824,10.6666667 21.4705882,10 C21.7633529,10 22,10.224 22,10.5 L22,16.5 C22,16.776 21.7633529,17 21.4705882,17 C19.7058824,17.6666667 18.3823529,18 17.5,18 C16.6176471,18 15.2941176,17.6666667 13.5294118,17 C13.2366471,17 13,16.776 13,16.5 L13,10.5 C13,10.224 13.2366471,10 13.5294118,10 Z" id="Combined-Shape" fill="#1D1E1C"></path>
                </g>
            </g>
        </g>
    </g>
</svg>