<?xml version="1.0" encoding="UTF-8"?>
<svg width="26px" height="26px" viewBox="0 0 26 26" version="1.1" xmlns="http://www.w3.org/2000/svg" xmlns:xlink="http://www.w3.org/1999/xlink">
    <!-- Generator: Sketch 46.2 (44496) - http://www.bohemiancoding.com/sketch -->
    <title>icon_topbar_flag</title>
    <desc>Created with Sketch.</desc>
    <defs></defs>
    <g id="Symbols" stroke="none" stroke-width="1" fill="none" fill-rule="evenodd">
        <g id="TOP-BAR" transform="translate(-1264.000000, -11.000000)" fill="#4A4A4A">
            <g id="IDIOMA" transform="translate(1183.000000, 8.000000)">
                <g id="icon_topbar_flag" transform="translate(78.000000, 0.000000)">
                    <g id="MENU/ICON/IDIOMA" transform="translate(3.000000, 3.000000)">
                        <path d="M13,26 C5.82029825,26 0,20.1797017 0,13 C0,5.82029825 5.82029825,0 13,0 C20.1797017,0 26,5.82029825 26,13 C26,20.1797017 20.1797017,26 13,26 Z M8,19.4166667 L9,19.4166667 L9,6.58333333 L8,6.58333333 L8,19.4166667 Z M10.5294118,7 C10.2366471,7 10,7.224 10,7.5 L10,13.5 C10,13.776 10.2366471,14 10.5294118,14 C12.2941176,14.6666667 13.6176471,15 14.5,15 C15.3823529,15 16.7058824,14.6666667 18.4705882,14 C18.7633529,14 19,13.776 19,13.5 L19,7.5 C19,7.224 18.7633529,7 18.4705882,7 C16.7058824,7.66666667 15.3823529,8 14.5,8 C13.6176471,8 12.2941176,7.66666667 10.5294118,7 Z" id="Oval-3"></path>
                    </g>
                </g>
            </g>
        </g>
    </g>
</svg>