<?xml version="1.0" encoding="UTF-8"?>
<svg width="49px" height="49px" viewBox="0 0 49 49" version="1.1" xmlns="http://www.w3.org/2000/svg" xmlns:xlink="http://www.w3.org/1999/xlink">
    <!-- Generator: Sketch 46.2 (44496) - http://www.bohemiancoding.com/sketch -->
    <title>profes</title>
    <desc>Created with Sketch.</desc>
    <defs>
        <circle id="path-1" cx="22.5" cy="22.5" r="22.5"></circle>
    </defs>
    <g id="DESIGN" stroke="none" stroke-width="1" fill="none" fill-rule="evenodd">
        <g id="RECURSOS-PROFESORES" transform="translate(-1006.000000, -384.000000)">
            <g id="FILTER-PROFES" transform="translate(150.000000, 368.000000)">
                <g id="FILTER">
                    <g id="profes" transform="translate(857.000000, 18.000000)">
                        <g id="icon_profesores">
                            <g transform="translate(1.000000, 0.000000)">
                                <mask id="mask-2" fill="white">
                                    <use xlink:href="#path-1"></use>
                                </mask>
                                <circle stroke="#FFFFFF" stroke-width="2" cx="22.5" cy="22.5" r="23.5"></circle>
                                <g id="teacher" mask="url(#mask-2)" fill="#FFFFFF">
                                    <g transform="translate(-9.741071, 4.321429)">
                                        <path d="M43.7410714,8.21610272 L43.7410714,3.02977129 C43.7410714,1.45509709 42.4645458,0.178571429 40.8898716,0.178571429 L3.09227129,0.178571429 L3.09227129,0.178571429 C1.51759709,0.178571429 0.241071429,1.45509709 0.241071429,3.02977129 L0.241071429,3.02977129 L0.241071429,26.3273716 C0.241071429,27.9020458 1.51759709,29.1785714 3.09227129,29.1785714 L3.09227129,29.1785714 L21.5689572,29.1785714 L21.3574261,28.946835 C20.0779562,27.8468911 19.6612504,26.079628 20.2295811,24.5755543 L16.9078054,14.7152426 C16.5290257,13.3994766 17.1101667,12.1125709 18.2066109,11.5577414 C18.4475593,11.4165654 18.697833,11.3380095 18.9548557,11.2952436 C19.0572895,11.2781997 19.1518694,11.2691593 19.2449543,11.2649352 C19.3406001,11.2620061 19.3406001,11.2620061 19.3791168,11.2621304 C20.428909,11.2621304 21.4081847,11.894725 21.8116161,12.9016252 L24.9145688,22.1002817 C25.3885354,22.2105398 25.840509,22.4093159 26.252044,22.7027803 L26.3509063,22.7732788 L30.5325951,26.5971915 L33.9302277,22.1088153 C34.25526,21.6401746 34.6605333,21.2741589 35.1394054,20.9950503 C35.4079812,20.7797077 35.7002813,20.5934187 36.0098844,20.4397185 C34.8116126,19.1093762 34.0823353,17.3491105 34.0823353,15.4184353 C34.0823353,11.2697229 37.4497833,7.90787837 41.6020771,7.90787837 C42.3451427,7.90787837 43.0630743,8.01553873 43.7410714,8.21610272 Z" id="Rectangle-3" fill-rule="evenodd" opacity="0.699999988"></path>
                                        <path d="M41.6020771,20.9289922 C44.6505463,20.9289922 47.1218189,18.4618319 47.1218189,15.4184353 C47.1218189,12.3750387 44.6505463,9.90787837 41.6020771,9.90787837 C38.5536079,9.90787837 36.0823353,12.3750387 36.0823353,15.4184353 C36.0823353,18.4618319 38.5536079,20.9289922 41.6020771,20.9289922 Z M53.3615269,30.4167338 C54.2254865,31.4230094 54.0814933,32.9563817 53.1215382,33.8189037 L48.0337762,38.0356777 L48.0337762,38.1794314 C48.0337762,38.8502818 47.5058009,39.3773785 46.8338323,39.3773785 L35.2663735,42.4624793 L35.2663735,30.1292264 L33.3464633,32.6209565 C32.6744948,33.6272321 31.5225487,34.2022468 30.3226048,34.2022468 C30.082616,34.2022468 29.7946295,34.1543289 29.506643,34.106411 C28.9786677,34.0105752 28.5466879,33.7709858 28.1627058,33.4355606 L22.7389596,27.4937427 C21.875,26.8228923 21.7310067,25.5770272 22.4029753,24.7624232 L18.8031437,14.0767345 C18.7071482,13.7413093 18.8991392,13.4058841 19.1871257,13.3100483 C19.2351235,13.2621304 19.331119,13.2621304 19.3791168,13.2621304 C19.6191055,13.2621304 19.8590943,13.4058841 19.9550898,13.6454735 L23.4589259,24.0436549 C23.6509169,23.995737 23.7949102,23.995737 23.9869012,23.995737 C24.3708832,23.995737 24.7548653,24.0915727 25.0908496,24.3311622 L30.8025823,29.5542118 L35.55436,23.2769687 C35.746351,22.9894614 35.9863398,22.7977898 36.2743263,22.6540362 C36.7543039,22.2227752 37.4262725,21.9352679 38.1462388,21.9352679 L45.0579154,21.9352679 C45.6818862,21.9352679 46.2578593,22.1269394 46.7378368,22.4623646 C47.1698166,22.6061183 47.5058009,22.8457077 47.7937874,23.2290508 L52.7375561,29.6500476 L53.3615269,30.4167338 Z M47.9857784,32.860546 L49.3777133,31.7105167 L47.9857784,29.9375549 L47.9857784,32.860546 Z" id="Combined-Shape" fill-opacity="0.699999988" fill-rule="nonzero"></path>
                                    </g>
                                </g>
                            </g>
                        </g>
                    </g>
                </g>
            </g>
        </g>
    </g>
</svg>