<svg xmlns="http://www.w3.org/2000/svg" xmlns:xlink="http://www.w3.org/1999/xlink" width="240" height="240" viewBox="0 0 240 240"><defs><path id="a" d="M7.452 25.564l-1.17 3.52-2.07-1.384a1.08 1.08 0 0 0-.864-.15l-2.333.585 1.96-5.24c.03.027.064.05.094.076.24.209.489.407.744.599.1.075.198.152.299.225.259.186.526.36.797.528.1.062.2.125.303.184a14.513 14.513 0 0 0 2.131 1.013c.037.013.072.031.109.044zm1.656-1.747a11.819 11.819 0 0 1-3.058-1.339c-.04-.024-.08-.046-.117-.071a12.247 12.247 0 0 1-3.362-3.188 11.912 11.912 0 0 1-.562-.874c-.112-.189-.219-.38-.32-.574a11.604 11.604 0 0 1-.186-.388c-.083-.176-.17-.35-.244-.531a11.468 11.468 0 0 1-.333-.914c-.038-.12-.068-.242-.102-.364-.026-.092-.048-.185-.072-.279a12.68 12.68 0 0 1-.28-1.437l-.014-.099v-.003A11.33 11.33 0 0 1 .36 12.31C.361 5.722 5.707.362 12.278.362c6.57 0 11.916 5.36 11.916 11.948 0 .475-.033.958-.096 1.446v.002c-.004.034-.01.067-.015.1a12.68 12.68 0 0 1-.28 1.437c-.023.094-.045.188-.072.28-.035.121-.063.244-.102.363-.099.31-.211.615-.335.915-.073.18-.16.354-.242.529-.061.13-.122.26-.187.388a13.493 13.493 0 0 1-.494.862 11.39 11.39 0 0 1-1.23 1.636 11.944 11.944 0 0 1-2.52 2.139c-.038.025-.077.047-.116.071a11.835 11.835 0 0 1-3.058 1.339c-1.011.28-2.07.442-3.17.442-1.098 0-2.157-.162-3.17-.442zm12.1 3.733a1.088 1.088 0 0 0-.864.15l-2.07 1.384-1.17-3.52c.037-.013.072-.031.108-.045a13.957 13.957 0 0 0 2.131-1.013c.102-.06.203-.122.304-.184.272-.169.538-.343.797-.528.102-.073.2-.15.299-.225.253-.192.503-.39.743-.599.032-.027.065-.05.095-.077l1.96 5.241-2.333-.584z"/></defs><g fill="none" fill-rule="evenodd"><path fill="#E94A34" d="M120 210L150 240 180 210 150 180z"/><path fill="#FAB200" d="M0 240L120 240 120 180 0 180z"/><path fill="#FAB200" d="M0 60L60 60 60 0 0 0z"/><path fill="#E5007D" d="M239.853 0c-51.781.018-82.428 9.614-135.678 32.536C58.425 52.233 36.368 59.298 0 60.124v60.124c47.271-.939 77.468-10.682 128.043-32.455C176.967 66.732 198.793 60.124 240 60.124V0h-.147z"/><path fill="#009FE3" d="M60 180L180 180 180 60 60 60z"/><path fill="#FAB200" d="M210 120.124c-16.569 0-30-13.459-30-30.062S193.431 60 210 60c16.569 0 30 13.459 30 30.062s-13.431 30.062-30 30.062"/><g transform="translate(88 89)"><path stroke="#FFF" stroke-width="2" d="M1.083 54h19.929c.038.048.482-.048.521 0h21.934c.026-.032 6.842-.032 20.45 0A1.08 1.08 0 0 0 65 52.923V1.077A1.08 1.08 0 0 0 63.917 0H1.083A1.08 1.08 0 0 0 0 1.077v51.846A1.08 1.08 0 0 0 1.083 54z"/><path stroke="#FFF" stroke-width="2" d="M10.634 48.983A6.902 6.902 0 0 0 5 43.333V10.976c2.875-.484 5.15-3.009 5.634-5.891h43.732c.484 2.882 2.76 5.406 5.634 5.891v32.36a6.902 6.902 0 0 0-5.634 5.649l-43.732-.001z"/><path fill="#FAB200" fill-rule="nonzero" d="M25 13L38 13 38 15 25 15z"/><path fill="#FAB200" fill-rule="nonzero" d="M21 18H43V20H21z"/><path fill="#FAB200" fill-rule="nonzero" d="M17 24H47V26H17z"/><path fill="#FFF" fill-rule="nonzero" d="M47 35L56 35 56 37 47 37z"/><path fill="#FFF" fill-rule="nonzero" d="M9 35L18 35 18 37 9 37z"/><g fill-rule="nonzero" transform="translate(20.222 33.31)"><use fill="#009FDA" fill-rule="evenodd" xlink:href="#a"/><path stroke="#FFF" stroke-width="2.16" d="M3.61 28.597l-4.326 1.086 3.232-8.648 1.178 1.055a.196.196 0 0 1-.014-.013c.035.026.035.026.097.079.209.18.434.361.685.55l.105.08c.092.07.131.1.174.131.216.155.452.31.733.486l.079.048c.104.065.149.092.203.123a13.422 13.422 0 0 0 1.947.928c.09.034.09.034.129.051l.979.347-1.952 5.869-3.248-2.171zM-.613 13.891a12.4 12.4 0 0 1-.105-1.58c0-7.184 5.83-13.029 12.997-13.029S25.274 5.127 25.274 12.31a12.4 12.4 0 0 1-.105 1.582v.004l-.013.086-.003.022a13.743 13.743 0 0 1-.303 1.558l-.018.073-.004.014a5.13 5.13 0 0 1-.06.225l-.03.115-.003.009c-.033.123-.052.19-.077.267-.104.33-.226.661-.365.998a8.98 8.98 0 0 1-.229.504l-.033.07c-.097.208-.142.303-.208.432a14.523 14.523 0 0 1-.958 1.573c-.276.388-.58.768-.918 1.145-.81.906-1.733 1.69-2.743 2.329l-.102.063-.03.019a12.912 12.912 0 0 1-3.337 1.46 12.9 12.9 0 0 1-3.457.48c-1.162 0-2.316-.164-3.458-.48a12.891 12.891 0 0 1-3.335-1.459l-.029-.017-.1-.063a13.328 13.328 0 0 1-3.665-3.475 12.79 12.79 0 0 1-.612-.95 12.973 12.973 0 0 1-.351-.632 11.758 11.758 0 0 1-.215-.446l.014.03-.04-.086a9.499 9.499 0 0 1-.226-.496c-.137-.33-.258-.663-.365-1a5.54 5.54 0 0 1-.077-.27l-.013-.047-.022-.08a6.486 6.486 0 0 1-.057-.219l-.02-.084A13.782 13.782 0 0 1-.6 13.986c-.006-.031-.006-.031-.014-.089v-.006zm21.562 14.707h-.004l-3.248 2.17-1.951-5.868.977-.346c.034-.015.034-.016.109-.046a12.875 12.875 0 0 0 2.173-1.059l.078-.048-.004.002c.277-.171.516-.329.738-.488.07-.05.13-.095.274-.207.262-.198.485-.377.69-.555.051-.043.051-.043.082-.067l.01-.008c.012-.009.012-.009-.01.01l1.177-1.054 3.232 8.647-4.323-1.083z"/><path fill="#FFF" d="M22.028 12.31c0-.6-.486-1.086-1.084-1.086-4.535 0-7.583 3.492-7.583 8.69 0 .6.485 1.086 1.083 1.086 4.466 0 7.584-3.574 7.584-8.69zm-2.244 1.195c-.32 2.455-1.655 4.687-4.18 5.209.3-2.35 1.52-4.685 4.18-5.209zm-16.173-2.28c-.598 0-1.083.486-1.083 1.085 0 5.116 3.118 8.69 7.583 8.69.598 0 1.083-.487 1.083-1.086 0-5.198-3.047-8.69-7.583-8.69zm1.16 2.28c2.66.524 3.88 2.86 4.18 5.209-2.524-.522-3.858-2.754-4.18-5.209zm11.84-5.54c0-2.931-3.39-5.046-3.777-5.276a1.083 1.083 0 0 0-1.11 0c-.389.23-3.78 2.345-3.78 5.277 0 2.931 3.391 5.046 3.778 5.276a1.08 1.08 0 0 0 1.112 0c.386-.23 3.777-2.345 3.777-5.276zm-4.334 3.033c-.879-.656-2.166-1.87-2.166-3.032 0-1.155 1.29-2.374 2.168-3.033.878.656 2.165 1.87 2.165 3.033 0 1.154-1.29 2.373-2.167 3.032z"/></g></g></g></svg>