<?xml version="1.0" encoding="UTF-8"?>
<svg width="70px" height="67px" viewBox="0 0 70 67" version="1.1" xmlns="http://www.w3.org/2000/svg" xmlns:xlink="http://www.w3.org/1999/xlink">
    <!-- Generator: Sketch 46.2 (44496) - http://www.bohemiancoding.com/sketch -->
    <title>icon_like_big</title>
    <desc>Created with Sketch.</desc>
    <defs></defs>
    <g id="DESIGN" stroke="none" stroke-width="1" fill="none" fill-rule="evenodd">
        <g id="index" transform="translate(-393.000000, -3673.000000)" fill-rule="nonzero" fill="#FFFFFF">
            <g id="SOCIAL-MEDIA" transform="translate(0.000000, 3302.000000)">
                <g id="RRSS" transform="translate(0.000000, 181.000000)">
                    <g id="FB-CE" transform="translate(0.000000, 84.000000)">
                        <path d="M427.734,172.034 C427.67,172.034 427.605,172.031 427.541,172.024 C426.94,171.966 424.141,171.239 414.514,168.643 C413.726,168.43 412.954,168.222 412.284,168.041 C411.893,168.737 411.123,169.47 409.702,170.119 C409.441,170.239 409.157,170.301 408.87,170.301 L396.733,170.301 C396.445,170.301 396.161,170.238 395.899,170.119 C393.975,169.236 393,168.041 393,166.566 L393,137.176 C393,136.116 393.57,135.006 394.488,134.279 C395.21,133.706 396.073,133.448 396.894,133.55 L408.707,133.55 C409.744,133.414 410.867,133.854 411.69,134.727 C411.763,134.805 411.834,134.886 411.899,134.968 C414.134,133.224 417.369,130.707 419.816,128.802 C421.635,127.387 422.992,126.331 423.106,126.241 C423.132,126.22 423.167,126.193 423.194,126.174 C423.2,126.167 423.767,125.697 424.149,124.845 C424.761,123.482 431.8,108.729 432.1,108.105 C432.456,107.357 433.08,106.769 433.853,106.456 C434.099,106.353 435.045,106 436.271,106 C438.748,106 442.94,107.448 442.94,112.875 L442.934,117.628 C442.928,120.876 442.921,124.571 442.93,127.482 L454.092,127.482 C459.102,127.482 462.215,130.414 462.216,135.131 C462.216,137.284 461.353,139.327 459.877,140.829 C460.516,142.005 460.856,143.327 460.856,144.696 C460.856,147.072 459.802,149.304 458.054,150.828 C458.552,151.895 458.817,153.067 458.817,154.263 C458.817,156.639 457.763,158.871 456.015,160.395 C456.513,161.46 456.777,162.631 456.777,163.828 C456.777,168.242 453.156,171.924 448.706,172.034 L427.734,172.034 Z M427.904,168.034 L448.656,168.034 C450.906,167.977 452.777,166.09 452.777,163.827 C452.777,162.834 452.419,161.876 451.768,161.13 C451.355,160.657 451.188,160.017 451.318,159.401 C451.448,158.787 451.86,158.268 452.429,158.003 C453.879,157.326 454.817,155.857 454.817,154.263 C454.817,153.271 454.458,152.312 453.805,151.562 C453.394,151.088 453.228,150.449 453.359,149.834 C453.489,149.221 453.899,148.703 454.468,148.438 C455.918,147.759 456.856,146.292 456.856,144.697 C456.856,143.625 456.445,142.608 455.697,141.835 C455.269,141.392 455.069,140.775 455.155,140.165 C455.241,139.555 455.604,139.019 456.138,138.712 C457.42,137.975 458.216,136.604 458.216,135.133 C458.216,133.567 457.787,131.483 454.092,131.483 L440.94,131.483 C439.841,131.483 438.948,130.596 438.94,129.498 C438.919,126.435 438.926,121.68 438.934,117.622 L438.94,112.876 C438.94,110.5 437.489,110.001 436.271,110.001 C435.994,110.001 435.749,110.049 435.584,110.092 C434.59,112.172 428.363,125.227 427.798,126.485 C427.037,128.182 425.896,129.137 425.675,129.311 C425.635,129.343 425.6,129.371 425.568,129.395 C425.396,129.531 424.786,130.006 422.273,131.961 C419.233,134.326 414.485,138.021 412.602,139.495 L412.602,163.986 C413.329,164.18 414.307,164.445 415.554,164.781 C419.483,165.84 426.692,167.785 427.904,168.034 Z M397.204,166.301 L408.405,166.301 C408.483,166.26 408.548,166.222 408.602,166.19 L408.602,165.57 C408.601,165.543 408.601,165.516 408.602,165.49 L408.602,138.54 C408.602,138.528 408.602,138.517 408.602,138.505 L408.602,137.549 L397,137.549 L397,166.178 C397.051,166.212 397.118,166.253 397.204,166.301 Z" id="icon_like_big"></path>
                    </g>
                </g>
            </g>
        </g>
    </g>
</svg>