<svg xmlns="http://www.w3.org/2000/svg" width="18" height="20" viewBox="0 0 18 20"><g fill="none" fill-rule="evenodd" transform="translate(-7 -6)"><path d="M0 0H32V32H0z"/><path fill="#FFF" d="M16.257 26h-.514c-.188-.218-4.345-2.198-4.629-2.5C9.803 22.972 7 21.513 7 16.5V6h18v10.5c0 5.013-2.803 6.472-4.114 7-.284.303-4.467 2.294-4.629 2.5z"/><path fill="#00A4A1" d="M14.961 22.807c-.108-.125-3.447-2.347-3.609-2.52C10.602 19.986 9 19.151 9 16.286v-6.273h5.961v12.794z"/><path fill="#FF5427" d="M16.023 15.01h6.941v1.083c0 3.645-2.489 4.706-3.442 5.09-.207.22-3.381 1.692-3.5 1.842V15.01z"/><path fill="#004C76" d="M16.023 13.987L20 13.987 16.023 8.337z"/></g></svg>