<?xml version="1.0" encoding="UTF-8"?>
<svg width="240px" height="240px" viewBox="0 0 240 240" version="1.1" xmlns="http://www.w3.org/2000/svg" xmlns:xlink="http://www.w3.org/1999/xlink">
    <!-- Generator: Sketch 46.2 (44496) - http://www.bohemiancoding.com/sketch -->
    <title>icon_comofunciona_dcha</title>
    <desc>Created with Sketch.</desc>
    <defs>
        <circle id="path-1" cx="120" cy="120" r="120"></circle>
        <path d="M8.94183369,30.6770909 L7.53783363,34.9002635 L5.05353353,33.2396703 C4.83903353,33.096291 4.58813352,33.020691 4.33333351,33.020691 C4.2280335,33.020691 4.1214335,33.0337255 4.01743349,33.0597944 L1.21853338,33.7623531 L3.56893348,27.4732149 C3.60533348,27.5058011 3.64693348,27.5331735 3.68333348,27.5657597 C3.97193349,27.8160218 4.2696335,28.0532494 4.57513352,28.2839597 C4.69473352,28.3738977 4.81303352,28.4664425 4.93393353,28.5537735 C5.24463354,28.7766632 5.56573355,28.9852149 5.89073357,29.1872494 C6.01163357,29.261546 6.13123358,29.337146 6.25473358,29.4088357 C6.5992336,29.6095667 6.95153361,29.7959598 7.31033362,29.9732288 C7.41823363,30.0266702 7.52483363,30.0788081 7.63403364,30.1296426 C8.01883365,30.3095184 8.41143367,30.4724495 8.81183368,30.6236495 C8.85603369,30.6392909 8.89763369,30.6614495 8.94183369,30.6770909 Z M10.9295338,28.5798425 C9.62823372,28.2200908 8.39583367,27.6752494 7.25963362,26.9739942 C7.21283362,26.9453183 7.16473362,26.9179459 7.11923362,26.8879666 C6.00513357,26.182801 4.98983353,25.3212217 4.0954335,24.3214768 C3.73663348,23.9200147 3.39863347,23.5016078 3.08533346,23.0623457 C2.92153345,22.8316354 2.76813344,22.5957112 2.61993344,22.3584836 C2.54843343,22.2450836 2.47953343,22.1303802 2.41063343,22.0143733 C2.27673342,21.7875733 2.14803342,21.5581664 2.02713341,21.3248491 C1.94913341,21.1723457 1.87633341,21.0159319 1.8035334,20.8595181 C1.7034334,20.6483594 1.6007334,20.4385043 1.51103339,20.2221318 C1.36283339,19.8636835 1.22893338,19.498718 1.11063338,19.1259318 C1.06513338,18.9825525 1.03003337,18.8352628 0.988433373,18.6892766 C0.957233371,18.5784835 0.93123337,18.4663869 0.902633369,18.3542904 C0.754433363,17.7768628 0.645233359,17.2007386 0.567233356,16.6298282 C0.562033356,16.5894213 0.554233355,16.5516213 0.549033355,16.5112144 C0.549033355,16.509911 0.549033355,16.5086076 0.549033355,16.5073041 C0.473633352,15.9220558 0.433333351,15.3420213 0.433333351,14.7724144 C0.433333351,6.86700027 6.84883361,0.434482776 14.7333339,0.434482776 C22.6178342,0.434482776 29.0333345,6.86700027 29.0333345,14.7724144 C29.0333345,15.3420213 28.9930345,15.9220558 28.9176345,16.5073041 C28.9176345,16.5073041 28.9176345,16.5086076 28.9176345,16.509911 C28.9124345,16.5503179 28.9046345,16.5894213 28.8994345,16.6298282 C28.8214345,17.2007386 28.7122345,17.7768628 28.5640345,18.3542904 C28.5354345,18.4663869 28.5094345,18.5797869 28.4769345,18.6905801 C28.4353345,18.8352628 28.4015345,18.9825525 28.3547345,19.1259318 C28.2364345,19.498718 28.1012344,19.8636835 27.9530344,20.2234353 C27.8646344,20.4385043 27.7619344,20.6483594 27.6618344,20.8582146 C27.5890344,21.0146284 27.5162344,21.1710422 27.4382344,21.3235457 C27.3173344,21.5555595 27.1886344,21.7849664 27.0560344,22.0117664 C26.9871344,22.1290767 26.9169344,22.2437802 26.8454344,22.3584836 C26.6972344,22.5957112 26.5438344,22.8316354 26.3800344,23.0610423 C26.0680344,23.5016078 25.7287344,23.9200147 25.3699343,24.3214768 C24.4768343,25.3212217 23.4602343,26.182801 22.3461342,26.8879666 C22.2993342,26.9179459 22.2525342,26.9453183 22.2057342,26.9739942 C21.0682342,27.6752494 19.8371341,28.2200908 18.5358341,28.5798425 C17.322934,28.9161322 16.051534,29.110346 14.7333339,29.110346 C13.4151339,29.110346 12.1437338,28.9161322 10.9295338,28.5798425 Z M25.4492343,33.0597944 C25.0956343,32.9724634 24.7173343,33.0363323 24.4131343,33.2396703 L21.9288342,34.9002635 L20.5248341,30.6770909 C20.5690342,30.6614495 20.6106342,30.6392909 20.6548342,30.622346 C21.0552342,30.471146 21.4478342,30.308215 21.8326342,30.1283391 C21.9418342,30.0775046 22.0484342,30.0253667 22.1563342,29.9719253 C22.5151342,29.7946564 22.8674342,29.6082632 23.2119343,29.4075322 C23.3341343,29.3358425 23.4550343,29.2602425 23.5759343,29.185946 C23.9022343,28.9839115 24.2220343,28.7753598 24.5327343,28.5524701 C24.6549343,28.4651391 24.7732343,28.3738977 24.8915343,28.2826563 C25.1957343,28.0519459 25.4947343,27.8147183 25.7833344,27.5644563 C25.8210344,27.5318701 25.8613344,27.5044976 25.8977344,27.4719114 L28.2481345,33.7610496 L25.4492343,33.0597944 Z" id="path-2"></path>
    </defs>
    <g id="DESIGN" stroke="none" stroke-width="1" fill="none" fill-rule="evenodd">
        <g id="HOMEPAGE" transform="translate(-988.000000, -1120.000000)">
            <g id="COMO-FUNCIONA" transform="translate(210.000000, 863.000000)">
                <g id="dcha" transform="translate(594.000000, 257.000000)">
                    <g id="icon_comofunciona_dcha" transform="translate(184.000000, 0.000000)">
                        <g>
                            <g id="Oval">
                                <use fill="#F2F1F0" fill-rule="evenodd" xlink:href="#path-1"></use>
                                <circle stroke="#E1523D" stroke-width="8" cx="120" cy="120" r="116"></circle>
                            </g>
                            <g id="icon" transform="translate(81.499998, 82.699998)">
                                <g id="Unknown-6">
                                    <path d="M1.30000005,64.8000026 L25.2139641,64.8000026 C25.2594641,64.8581609 25.793301,64.7418443 25.840101,64.8000026 L52.1599021,64.8000026 C52.1911021,64.7612304 60.3711357,64.7612304 76.700003,64.8000026 C77.4176031,64.8000026 78.0000031,64.2210042 78.0000031,63.5075954 L78.0000031,1.29240716 C78.0000031,0.578998407 77.4176031,0 76.700003,0 L1.30000005,0 C0.582400023,0 0,0.578998407 0,1.29240716 L0,63.5075954 C0,64.2210042 0.582400023,64.8000026 1.30000005,64.8000026 Z" id="Shape" stroke="#D8D8D8" stroke-width="2.4000001" fill-rule="nonzero"></path>
                                    <path d="M12.7607347,58.7794071 C12.1804967,55.3204531 9.4498035,52.5838953 6.00000024,52.0007397 L6.00000024,13.1705696 C9.4498035,12.5887926 12.1791218,9.55932262 12.7607347,6.10036868 L65.2392684,6.10036868 C65.8195064,9.55932262 68.5501996,12.587414 72.0000029,13.1705696 L72.0000029,52.0021183 C68.5501996,52.5838953 65.8208813,55.3218318 65.2392684,58.7807857 L12.7607347,58.7794071 Z" id="Path" stroke="#D8D8D8" stroke-width="2.4000001"></path>
                                    <polygon id="Rectangle-path" fill="#E1523D" fill-rule="nonzero" points="30.0000012 15.6000006 45.6000018 15.6000006 45.6000018 18.0000007 30.0000012 18.0000007"></polygon>
                                    <rect id="Rectangle-path" fill="#E1523D" fill-rule="nonzero" x="25.200001" y="21.6000009" width="26.400001" height="2.4000001"></rect>
                                    <rect id="Rectangle-path" fill="#E1523D" fill-rule="nonzero" x="20.4000008" y="28.8000011" width="36.0000014" height="2.4000001"></rect>
                                    <polygon id="Rectangle-path" fill="#D8D8D8" fill-rule="nonzero" points="56.4000022 42.0000017 67.2000027 42.0000017 67.2000027 44.4000018 56.4000022 44.4000018"></polygon>
                                    <polygon id="Rectangle-path" fill="#D8D8D8" fill-rule="nonzero" points="10.8000004 42.0000017 21.6000009 42.0000017 21.6000009 44.4000018 10.8000004 44.4000018"></polygon>
                                </g>
                                <g id="Unknown-6-Copy" transform="translate(24.266668, 39.972415)" fill-rule="nonzero">
                                    <g id="Shape">
                                        <use fill="#F2F1F0" fill-rule="evenodd" xlink:href="#path-2"></use>
                                        <path stroke="#E1523D" stroke-width="2.59199988" d="M4.33287857,34.3168188 L-0.85930752,35.6201219 L3.01933755,25.2417464 L4.41530261,26.4914498 C4.41552057,26.4916224 4.41574503,26.4918002 4.41597609,26.4919833 C4.45809319,26.5239737 4.50043046,26.5577895 4.53239864,26.5866253 C4.78276255,26.8037306 5.05310853,27.0208773 5.35405165,27.2481497 C5.41927398,27.2974146 5.41927398,27.2974146 5.4799491,27.3436528 C5.59030979,27.4277494 5.63760278,27.4633132 5.68937355,27.5007179 C5.94827277,27.6864468 6.23179616,27.8732646 6.5692784,28.0830788 C6.61747839,28.1127692 6.61747839,28.1127692 6.6632744,28.1411125 C6.78857207,28.2186577 6.84222812,28.2513403 6.90719908,28.2890568 C7.2097571,28.4653494 7.53221984,28.637308 7.88553873,28.8118697 C8.00712626,28.8720903 8.09529003,28.9148203 8.18285103,28.9555832 C8.52331276,29.1147331 8.88296705,29.2651855 9.24418548,29.4018935 C9.35140026,29.4429787 9.35247415,29.4433902 9.39794478,29.4637427 L10.5727443,29.8794777 L8.23123788,36.9226296 L4.33332359,34.3171272 C4.33310515,34.3169812 4.33295142,34.3168837 4.33287857,34.3168188 Z M-0.736865368,16.6688459 C-0.820098178,16.0215407 -0.862666589,15.3885721 -0.862666589,14.7724144 C-0.862666589,6.15200667 6.13230295,-0.861517164 14.7333339,-0.861517164 C23.3343649,-0.861517164 30.3293344,6.15200667 30.3293344,14.7724144 C30.3293344,15.3889827 30.2867093,16.0223844 30.2033667,16.6701401 L30.2030342,16.6753302 C30.1936953,16.7417953 30.1936953,16.7417953 30.1875515,16.7789899 C30.1839453,16.801428 30.1839453,16.801428 30.1835055,16.805263 C30.0963177,17.4434224 29.9759139,18.066453 29.8198065,18.6746845 C29.8095151,18.7154151 29.8095151,18.7154151 29.7979652,18.7620496 L29.7939365,18.7783193 C29.76374,18.9002103 29.7455442,18.9701158 29.7224718,19.0487039 C29.7127161,19.0826337 29.7055783,19.1089761 29.6849617,19.1865577 L29.6820353,19.1975827 C29.6427414,19.3455906 29.620196,19.4256505 29.5900263,19.5179394 C29.4642956,19.9141412 29.3184253,20.3114792 29.1517266,20.7161349 C29.0768236,20.898367 29.0115064,21.040152 28.8771598,21.3208476 C28.8540054,21.3692159 28.8540054,21.3692159 28.836803,21.4050827 C28.7208099,21.6542986 28.6668365,21.7675163 28.5875543,21.9224444 C28.4633182,22.1608603 28.3276736,22.4044916 28.1735425,22.6681135 C28.1037418,22.7869575 28.0307045,22.9069749 27.9445802,23.0451382 C27.7638663,23.3344116 27.6017974,23.580208 27.4376782,23.8100452 C27.1073845,24.2764428 26.7413897,24.7317912 26.3364434,25.1848864 C25.365316,26.2719759 24.2572101,27.212146 23.0451995,27.979261 C22.9740276,28.0239549 22.9740276,28.0239549 22.922132,28.0552271 C22.8999944,28.0685889 22.8999944,28.0685889 22.8858472,28.0771996 C21.6321398,28.8500952 20.2872607,29.4402641 18.8821011,29.828728 C17.5121541,30.2085606 16.1274172,30.4063459 14.7333339,30.4063459 C13.3394959,30.4063459 11.9549774,30.2086425 10.5836111,29.8288234 L10.5842008,29.8289866 C9.17674054,29.4398863 7.8303915,28.8492291 6.5825307,28.0790496 C6.56907743,28.0708708 6.56907743,28.0708708 6.54746677,28.0579421 C6.49219573,28.0250168 6.4525337,28.0007146 6.42610864,27.9830436 C5.210145,27.2134038 4.10320418,26.2739199 3.12911904,25.1851042 C2.73066099,24.7392686 2.36476697,24.2839604 2.02858776,23.8126153 C1.86179532,23.5776901 1.69950911,23.3312222 1.52365183,23.0497018 C1.45330871,22.9381366 1.38616664,22.8274043 1.29461808,22.6732554 C1.1416915,22.4142281 1.00343416,22.1661825 0.873295099,21.9149957 C0.798531374,21.7688197 0.744557888,21.655602 0.628651552,21.4065724 L0.632455548,21.4146689 C0.608355344,21.3639206 0.608355344,21.3639206 0.583414961,21.3115896 C0.448138169,21.0277487 0.387536645,20.8962317 0.313361987,20.7173076 C0.149393108,20.3207195 0.00337980371,19.9214127 -0.124658448,19.5179394 C-0.156044325,19.4190364 -0.177125993,19.3437784 -0.217498222,19.1928033 C-0.225329539,19.1635119 -0.225329539,19.1635119 -0.232728056,19.1359707 C-0.245943487,19.087156 -0.245943487,19.087156 -0.25904638,19.0405744 C-0.281361186,18.9613331 -0.297057038,18.9001318 -0.327319288,18.7779715 C-0.340888298,18.7231858 -0.340888298,18.7231858 -0.353153711,18.6746256 L-0.352680824,18.6764738 C-0.509246032,18.066453 -0.629649884,17.4434224 -0.718166317,16.7952475 C-0.716873102,16.8042224 -0.716873102,16.8042224 -0.720324403,16.7830339 C-0.726623103,16.7455673 -0.726623103,16.7455673 -0.736366317,16.6766337 L-0.736865368,16.6688459 Z M25.1381762,34.317918 C25.1355055,34.3173649 25.1321594,34.3179192 25.1333443,34.3171272 L21.23543,36.9226296 L18.8939235,29.8794777 L20.0666319,29.4644828 C20.1068296,29.4462869 20.1070744,29.4461882 20.1969919,29.409912 C20.5837008,29.2638821 20.9433551,29.1134296 21.2856839,28.9534088 C21.3713778,28.9135168 21.4595416,28.8707869 21.5822728,28.8100005 C21.934448,28.6360046 22.2569107,28.4640459 22.5561462,28.2896959 C22.622617,28.2507003 22.6834112,28.2137007 22.8048689,28.1387845 C22.8503092,28.1107499 22.8503092,28.1107499 22.8965385,28.0822987 L22.8936829,28.0840617 C23.2261104,27.8782333 23.5131505,27.6889056 23.7791907,27.4980566 C23.8639464,27.4374853 23.9350391,27.3836845 24.1083832,27.250043 C24.4219567,27.0122236 24.6896995,26.7974027 24.9358392,26.5839626 C24.9975658,26.5322852 24.9975658,26.5322852 25.034522,26.5035794 L25.0470267,26.4938853 C25.060924,26.4827922 25.060924,26.4827922 25.0333063,26.5063132 L26.4473303,25.2404429 L30.3255158,35.6175889 L25.1381762,34.317918 Z"></path>
                                    </g>
                                    <path d="M26.4333344,14.7724144 C26.4333344,14.0529109 25.8509344,13.4689661 25.1333343,13.4689661 C19.6902341,13.4689661 16.033334,17.6595524 16.033334,23.8965527 C16.033334,24.6160562 16.615734,25.200001 17.333334,25.200001 C22.6919342,25.200001 26.4333344,20.911656 26.4333344,14.7724144 Z M23.7410343,16.2062075 C23.3562343,19.1520008 21.7546342,21.8305871 18.7243341,22.4562423 C19.0844341,19.6368835 20.5495341,16.8344696 23.7410343,16.2062075 Z" id="Shape" fill="#E1523D"></path>
                                    <path d="M4.33333351,13.4689661 C3.61573348,13.4689661 3.03333345,14.0529109 3.03333345,14.7724144 C3.03333345,20.911656 6.7747336,25.200001 12.1333338,25.200001 C12.8509338,25.200001 13.4333339,24.6160562 13.4333339,23.8965527 C13.4333339,17.6595524 9.77643372,13.4689661 4.33333351,13.4689661 Z M5.72563356,16.2062075 C8.91713369,16.8344696 10.3822337,19.6368835 10.7423338,22.4562423 C7.71203364,21.8305871 6.11173358,19.1520008 5.72563356,16.2062075 Z" id="Shape" fill="#E1523D"></path>
                                    <path d="M19.9333341,9.55862107 C19.9333341,6.04061403 15.864334,3.50280014 15.4002339,3.22646909 C14.9894339,2.98142081 14.4785339,2.98142081 14.0677339,3.22646909 C13.6023339,3.50280014 9.53333371,6.04061403 9.53333371,9.55862107 C9.53333371,13.0766281 13.6023339,15.614442 14.0664339,15.890773 C14.2731339,16.0146006 14.5032339,16.0758627 14.7333339,16.0758627 C14.9634339,16.0758627 15.1935339,16.0146006 15.4002339,15.890773 C15.864334,15.614442 19.9333341,13.0766281 19.9333341,9.55862107 Z M14.7320339,13.1978488 C13.6777339,12.410566 12.1333338,10.9546142 12.1333338,9.55862107 C12.1333338,8.1730555 13.6816339,6.71058647 14.7346339,5.91939334 C15.788934,6.70667613 17.333334,8.16262791 17.333334,9.55862107 C17.333334,10.9441866 15.785034,12.4066557 14.7320339,13.1978488 Z" id="Shape" fill="#E1523D"></path>
                                </g>
                            </g>
                        </g>
                    </g>
                </g>
            </g>
        </g>
    </g>
</svg>