<?xml version="1.0" encoding="UTF-8"?>
<svg width="24px" height="24px" viewBox="0 0 24 24" version="1.1" xmlns="http://www.w3.org/2000/svg" xmlns:xlink="http://www.w3.org/1999/xlink">
    <!-- Generator: Sketch 46.2 (44496) - http://www.bohemiancoding.com/sketch -->
    <title>icon_skills_reading</title>
    <desc>Created with Sketch.</desc>
    <defs></defs>
    <g id="Symbols" stroke="none" stroke-width="1" fill="none" fill-rule="evenodd">
        <g id="icon_skills_reading" stroke="#FFFFFF" stroke-width="2">
            <path d="M5,4 L9,4 L9,4 C10.6568542,4 12,5.34314575 12,7 L12,18 L5,18 L5,18 C3.34314575,18 2,16.6568542 2,15 L2,7 L2,7 C2,5.34314575 3.34314575,4 5,4 Z" id="Rectangle"></path>
            <path d="M15,4 L19,4 L19,4 C20.6568542,4 22,5.34314575 22,7 L22,15 L22,15 C22,16.6568542 20.6568542,18 19,18 L12,18 L12,7 L12,7 C12,5.34314575 13.3431458,4 15,4 Z" id="Rectangle"></path>
            <path d="M7,18 L9,18 L9,18 C10.6568542,18 12,19.3431458 12,21 L12,21" id="Rectangle"></path>
            <path d="M12,21 C12,19.3431458 13.3431458,18 15,18" id="Rectangle"></path>
        </g>
    </g>
</svg>