<?xml version="1.0" encoding="UTF-8"?>
<svg width="98px" height="98px" viewBox="0 0 98 98" version="1.1" xmlns="http://www.w3.org/2000/svg" xmlns:xlink="http://www.w3.org/1999/xlink">
    <!-- Generator: Sketch 46.2 (44496) - http://www.bohemiancoding.com/sketch -->
    <title>icon_profesores</title>
    <desc>Created with Sketch.</desc>
    <defs>
        <circle id="path-1" cx="45" cy="45" r="45"></circle>
        <path d="M82.2041542,40.8579845 C76.1072158,40.8579845 71.1646707,35.9236637 71.1646707,29.8368706 C71.1646707,23.7500775 76.1072158,18.8157567 82.2041542,18.8157567 C88.3010926,18.8157567 93.2436377,23.7500775 93.2436377,29.8368706 C93.2436377,35.9236637 88.3010926,40.8579845 82.2041542,40.8579845 Z M105.723054,59.8334675 C107.450973,61.8460187 107.162987,64.9127635 105.243076,66.6378074 L95.0675524,75.0713554 L95.0675524,75.3588627 C95.0675524,76.7005635 94.0116018,77.754757 92.6676647,77.754757 L69.532747,83.9249586 L69.532747,59.2584529 L65.6929266,64.2419131 C64.3489895,66.2544643 62.0450973,67.4044936 59.6452096,67.4044936 C59.165232,67.4044936 58.589259,67.3086578 58.0132859,67.212822 C56.9573353,67.0211505 56.0933757,66.5419716 55.3254117,65.8711212 L44.4779192,53.9874854 C42.75,52.6457845 42.4620135,50.1540544 43.8059506,48.5248463 L36.6062874,27.153469 C36.4142964,26.4826186 36.7982784,25.8117681 37.3742515,25.6200966 C37.470247,25.5242608 37.662238,25.5242608 37.7582335,25.5242608 C38.2382111,25.5242608 38.7181886,25.8117681 38.9101796,26.290947 L45.9178518,47.0873097 C46.3018338,46.9914739 46.5898204,46.9914739 46.9738024,46.9914739 C47.7417665,46.9914739 48.5097305,47.1831455 49.1816991,47.6623244 L60.6051647,58.1084236 L70.1087201,45.5539374 C70.4927021,44.9789227 70.9726796,44.5955796 71.5486527,44.3080723 C72.5086078,43.4455504 73.8525449,42.8705357 75.2924775,42.8705357 L89.1158308,42.8705357 C90.3637725,42.8705357 91.5157186,43.2538788 92.4756737,43.9247292 C93.3396332,44.2122365 94.0116018,44.6914154 94.5875749,45.4581016 L104.475112,58.3000951 L105.723054,59.8334675 Z M94.9715569,64.7210919 L97.7554266,62.4210334 L94.9715569,58.8751098 L94.9715569,64.7210919 Z M66.7488772,66.7336431 L67.1328593,66.1586285 C67.1328593,66.1586285 67.2288548,66.0627927 67.2288548,66.0627927 L67.2288548,66.7336431 L66.7488772,66.7336431 Z" id="path-3"></path>
    </defs>
    <g id="DESIGN" stroke="none" stroke-width="1" fill="none" fill-rule="evenodd">
        <g id="CONTACTO_SELEC_PERFIL" transform="translate(-900.000000, -645.000000)">
            <g id="PERFILES" transform="translate(412.000000, 649.000000)">
                <g id="profes" transform="translate(460.000000, 0.000000)">
                    <g id="icon_profesores" transform="translate(32.000000, 0.000000)">
                        <mask id="mask-2" fill="white">
                            <use xlink:href="#path-1"></use>
                        </mask>
                        <circle stroke="#FAB200" stroke-width="4" cx="45" cy="45" r="47"></circle>
                        <g id="teacher" mask="url(#mask-2)">
                            <g transform="translate(-18.482143, 9.642857)">
                                <path d="M5.70239972,0 L81.3335284,0 C84.4828768,7.81302394e-15 87.0359281,2.55305132 87.0359281,5.70239972 L87.0359281,53.0768743 L87.0359281,53.0768743 C87.0359281,56.2262227 84.4828768,58.779274 81.3335284,58.779274 L5.70239972,58.779274 C2.55305132,58.779274 -5.02494476e-16,56.2262227 -8.8817842e-16,53.0768743 L0,5.70239972 C-3.85683944e-16,2.55305132 2.55305132,-1.19783092e-15 5.70239972,-1.77635684e-15 L5.70239972,0 Z M23.0069237,53.0291276 L23.0069237,50.4415618 C23.0069237,48.8123536 21.758982,47.5664886 20.1270584,47.5664886 L13.0233907,47.5664886 C11.3914671,47.5664886 10.1435254,48.8123536 10.1435254,50.4415618 L10.1435254,53.0291276 L23.0069237,53.0291276 Z" id="Rectangle-3" fill="#FAB200" fill-rule="evenodd"></path>
                                <g id="Combined-Shape" fill="none" fill-rule="nonzero">
                                    <use fill="#FAB200" fill-rule="evenodd" xlink:href="#path-3"></use>
                                    <path stroke="#FFFFFF" stroke-width="3.16799984" d="M82.2041542,42.4419844 C75.2329868,42.4419844 69.5806707,36.7990738 69.5806707,29.8368706 C69.5806707,22.8746674 75.2329868,17.2317568 82.2041542,17.2317568 C89.1753216,17.2317568 94.8276376,22.8746674 94.8276376,29.8368706 C94.8276376,36.7990738 89.1753216,42.4419844 82.2041542,42.4419844 Z M106.93939,58.8185997 C109.195621,61.4652991 108.876295,65.5028158 106.253867,67.8573802 L96.623551,75.839056 C96.3988388,77.7499522 94.8472812,79.2234276 92.8994768,79.3323 L67.9487471,85.986788 L67.9487471,63.9094642 L66.978716,65.1684062 C65.3518825,67.5696788 62.5853271,68.9884935 59.6452096,68.9884935 C59.1241327,68.9884935 58.7111385,68.9347143 57.7303879,68.7713548 C56.4332106,68.5358968 55.3076824,67.9588846 54.2833245,67.064063 L54.1555143,66.9390144 L43.391765,55.1471209 C41.3205265,53.4499019 40.7959431,50.5272213 42.0548486,48.2882824 L35.0834253,27.5892977 C34.6918346,26.2210108 35.3704815,24.7846303 36.6077789,24.2216751 C36.8283689,24.0888173 37.0621801,24.0143338 37.3062562,23.9737222 C37.4760773,23.9454658 37.5907751,23.9402609 37.7582335,23.9402609 C38.8901174,23.9402609 39.9487495,24.6241183 40.4112499,25.785137 L47.0233816,45.4076714 C48.142145,45.416594 49.1973594,45.7280022 50.1013651,46.372646 L50.2506331,46.4933779 L60.3915631,55.7666724 L68.7914284,44.6742792 C69.2760275,43.9485901 69.890388,43.4032392 70.6498565,42.9905053 C71.920674,41.9165286 73.5829918,41.2865358 75.2924775,41.2865358 L89.1158308,41.2865358 C90.5873092,41.2865358 91.9898194,41.7099783 93.1946183,42.4988794 C94.2714645,42.9001954 95.1378512,43.5534048 95.8426622,44.4917623 L105.703662,57.3002346 L106.93939,58.8185997 Z M93.9626481,63.4999618 L96.7465178,61.1999033 L96.5095208,63.3991818 L93.725651,59.8532582 L96.5555568,58.8751098 L96.5555568,64.7210919 L93.9626481,63.4999618 Z M63.7864093,68.3176431 L65.9026993,65.1484903 L68.8128547,62.2431774 L68.8128547,68.3176431 L63.7864093,68.3176431 Z"></path>
                                </g>
                            </g>
                        </g>
                    </g>
                </g>
            </g>
        </g>
    </g>
</svg>