<?xml version="1.0" encoding="UTF-8"?>
<svg width="98px" height="98px" viewBox="0 0 98 98" version="1.1" xmlns="http://www.w3.org/2000/svg" xmlns:xlink="http://www.w3.org/1999/xlink">
    <!-- Generator: Sketch 46.2 (44496) - http://www.bohemiancoding.com/sketch -->
    <title>icon_familias</title>
    <desc>Created with Sketch.</desc>
    <defs>
        <circle id="path-1" cx="45" cy="45" r="45"></circle>
    </defs>
    <g id="DESIGN" stroke="none" stroke-width="1" fill="none" fill-rule="evenodd">
        <g id="CONTACTO_SELEC_PERFIL" transform="translate(-673.000000, -645.000000)">
            <g id="PERFILES" transform="translate(412.000000, 649.000000)">
                <g id="familias" transform="translate(256.000000, 0.000000)">
                    <g id="icon_familias" transform="translate(9.000000, 0.000000)">
                        <mask id="mask-2" fill="white">
                            <use xlink:href="#path-1"></use>
                        </mask>
                        <circle stroke="#FAB200" stroke-width="4" cx="45" cy="45" r="47"></circle>
                        <path d="M51.014933,72.0388975 C55.5629018,72.0388975 59.2465737,75.7023578 59.2465737,80.2208609 L59.2465737,94.1296692 L33.9869643,94.1296692 L33.9869643,80.2208609 C33.9869643,75.7023578 37.6716518,72.0388975 42.2196205,72.0388975 L51.014933,72.0388975 Z M46.1602455,69.0225241 C41.5018531,69.0225241 37.7254799,65.268941 37.7254799,60.6386616 C37.7254799,56.0083821 41.5018531,52.254799 46.1602455,52.254799 C50.818638,52.254799 54.5950112,56.0083821 54.5950112,60.6386616 C54.5950112,65.268941 50.818638,69.0225241 46.1602455,69.0225241 Z M24.9519643,49.0769063 C18.4773317,49.0769063 13.2286049,43.8598551 13.2286049,37.4242963 C13.2286049,30.9887376 18.4773317,25.7716864 24.9519643,25.7716864 C31.4265969,25.7716864 36.6753237,30.9887376 36.6753237,37.4242963 C36.6753237,43.8598551 31.4265969,49.0769063 24.9519643,49.0769063 Z M62.9739174,40.1802198 C56.4992848,40.1802198 51.250558,34.9631687 51.250558,28.5276099 C51.250558,22.0920512 56.4992848,16.875 62.9739174,16.875 C69.44855,16.875 74.6972768,22.0920512 74.6972768,28.5276099 C74.6972768,34.9631687 69.44855,40.1802198 62.9739174,40.1802198 Z M69.7196987,42.6787219 C76.0389174,42.6787219 81.1607143,47.7716282 81.1607143,54.050692 L81.1607143,80.3571429 L62.3069718,91.5130969 L62.2934487,80.2218704 C62.2934487,74.9240365 58.5732143,70.4832645 53.5966518,69.3183064 C56.0666518,67.2225931 57.6408705,64.1123366 57.6408705,60.6386616 C57.6408705,54.6685034 53.0045424,49.7633634 47.1250893,49.2737579 C48.9420424,45.3831612 52.8968862,42.6787219 57.4966518,42.6787219 L69.7196987,42.6787219 Z M38.9350893,69.4979966 C34.3129799,70.8991768 30.9400893,75.1743915 30.9400893,80.2208609 L30.9400893,80.3571429 L30.9400893,92.5915935 L8.03571429,80.3571429 L8.03571429,62.9473784 C8.03571429,56.6662956 13.1564955,51.5754083 19.4746987,51.5764178 L31.6997768,51.5764178 C33.822433,51.5764178 35.8029018,52.1609159 37.5061049,53.1613262 C35.7511049,55.1661849 34.6786049,57.7777505 34.6786049,60.6386616 C34.6786049,64.2122767 36.341183,67.4032929 38.9350893,69.4979966 Z" id="Combined-Shape" fill="#FAB200" fill-rule="nonzero" mask="url(#mask-2)"></path>
                    </g>
                </g>
            </g>
        </g>
    </g>
</svg>