<?xml version="1.0" encoding="UTF-8"?>
<svg width="217px" height="172px" viewBox="0 0 217 172" version="1.1" xmlns="http://www.w3.org/2000/svg" xmlns:xlink="http://www.w3.org/1999/xlink">
    <!-- Generator: Sketch 46.2 (44496) - http://www.bohemiancoding.com/sketch -->
    <title>icon_newsletter</title>
    <desc>Created with Sketch.</desc>
    <defs></defs>
    <g id="DESIGN" stroke="none" stroke-width="1" fill="none" fill-rule="evenodd" fill-opacity="0.300000012">
        <g id="index" transform="translate(-615.000000, -3059.000000)" fill-rule="nonzero" fill="#FFFFFF">
            <g id="NEWSLETTER" transform="translate(0.000000, 2878.000000)">
                <g id="icono">
                    <path d="M667.50053,254.499318 L713.000114,254.499318 C714.932096,254.499318 716.500082,252.931333 716.500082,250.999351 L716.500082,212.499708 C716.500082,210.567726 714.932096,208.99974 713.000114,208.99974 L667.50053,208.99974 C665.568548,208.99974 664.000562,210.567726 664.000562,212.499708 L664.000562,250.999351 C664.000562,252.931333 665.568548,254.499318 667.50053,254.499318 Z M667.50053,212.499708 L713.000114,212.499708 L713.000114,250.999351 L667.50053,250.999351 L667.50053,212.499708 Z M730.499953,210.749724 C730.499953,209.783733 731.287446,208.99974 732.249937,208.99974 L781.249489,208.99974 C782.21198,208.99974 782.999473,209.783733 782.999473,210.749724 C782.999473,211.715715 782.21198,212.499708 781.249489,212.499708 L732.249937,212.499708 C731.287446,212.499708 730.499953,211.715715 730.499953,210.749724 Z M730.499953,221.249627 C730.499953,220.283636 731.287446,219.499643 732.249937,219.499643 L781.249489,219.499643 C782.21198,219.499643 782.999473,220.283636 782.999473,221.249627 C782.999473,222.215618 782.21198,222.99961 781.249489,222.99961 L732.249937,222.99961 C731.287446,222.99961 730.499953,222.215618 730.499953,221.249627 Z M730.499953,231.749529 C730.499953,230.783538 731.287446,229.999545 732.249937,229.999545 L781.249489,229.999545 C782.21198,229.999545 782.999473,230.783538 782.999473,231.749529 C782.999473,232.71552 782.21198,233.499513 781.249489,233.499513 L732.249937,233.499513 C731.287446,233.499513 730.499953,232.71552 730.499953,231.749529 Z M730.499953,242.249432 C730.499953,241.283441 731.287446,240.499448 732.249937,240.499448 L781.249489,240.499448 C782.21198,240.499448 782.999473,241.283441 782.999473,242.249432 C782.999473,243.215423 782.21198,243.999416 781.249489,243.999416 L732.249937,243.999416 C731.287446,243.999416 730.499953,243.215423 730.499953,242.249432 Z M730.499953,252.749334 C730.499953,251.783343 731.287446,250.999351 732.249937,250.999351 L781.249489,250.999351 C782.21198,250.999351 782.999473,251.783343 782.999473,252.749334 C782.999473,253.715325 782.21198,254.499318 781.249489,254.499318 L732.249937,254.499318 C731.287446,254.499318 730.499953,253.715325 730.499953,252.749334 Z M730.499953,270.249172 C730.499953,269.283181 731.287446,268.499188 732.249937,268.499188 L781.249489,268.499188 C782.21198,268.499188 782.999473,269.283181 782.999473,270.249172 C782.999473,271.215163 782.21198,271.999156 781.249489,271.999156 L732.249937,271.999156 C731.287446,271.999156 730.499953,271.215163 730.499953,270.249172 Z M730.499953,280.749075 C730.499953,279.783084 731.287446,278.999091 732.249937,278.999091 L781.249489,278.999091 C782.21198,278.999091 782.999473,279.783084 782.999473,280.749075 C782.999473,281.715066 782.21198,282.499058 781.249489,282.499058 L732.249937,282.499058 C731.287446,282.499058 730.499953,281.715066 730.499953,280.749075 Z M730.499953,291.248977 C730.499953,290.282986 731.287446,289.498993 732.249937,289.498993 L781.249489,289.498993 C782.21198,289.498993 782.999473,290.282986 782.999473,291.248977 C782.999473,292.211468 782.21198,292.998961 781.249489,292.998961 L732.249937,292.998961 C731.287446,292.998961 730.499953,292.211468 730.499953,291.248977 Z M730.499953,301.74888 C730.499953,300.786389 731.287446,299.998896 732.249937,299.998896 L781.249489,299.998896 C782.21198,299.998896 782.999473,300.786389 782.999473,301.74888 C782.999473,302.711371 782.21198,303.498864 781.249489,303.498864 L732.249937,303.498864 C731.287446,303.498864 730.499953,302.711371 730.499953,301.74888 Z M664.000562,270.249172 C664.000562,269.283181 664.784555,268.499188 665.750546,268.499188 L714.750098,268.499188 C715.716089,268.499188 716.500082,269.283181 716.500082,270.249172 C716.500082,271.215163 715.716089,271.999156 714.750098,271.999156 L665.750546,271.999156 C664.784555,271.999156 664.000562,271.215163 664.000562,270.249172 Z M664.000562,280.749075 C664.000562,279.783084 664.784555,278.999091 665.750546,278.999091 L714.750098,278.999091 C715.716089,278.999091 716.500082,279.783084 716.500082,280.749075 C716.500082,281.715066 715.716089,282.499058 714.750098,282.499058 L665.750546,282.499058 C664.784555,282.499058 664.000562,281.715066 664.000562,280.749075 Z M664.000562,291.248977 C664.000562,290.282986 664.784555,289.498993 665.750546,289.498993 L714.750098,289.498993 C715.716089,289.498993 716.500082,290.282986 716.500082,291.248977 C716.500082,292.211468 715.716089,292.998961 714.750098,292.998961 L665.750546,292.998961 C664.784555,292.998961 664.000562,292.211468 664.000562,291.248977 Z M664.000562,301.74888 C664.000562,300.786389 664.784555,299.998896 665.750546,299.998896 L714.750098,299.998896 C715.716089,299.998896 716.500082,300.786389 716.500082,301.74888 C716.500082,302.711371 715.716089,303.498864 714.750098,303.498864 L665.750546,303.498864 C664.784555,303.498864 664.000562,302.711371 664.000562,301.74888 Z M830.336539,286.520521 C830.336539,286.517021 830.329539,286.517021 830.322539,286.513521 L830.322539,286.513521 L810.999216,274.669631 L810.999216,184.499968 C810.999216,182.567985 809.43123,181 807.499248,181 L639.500787,181 C637.568804,181 636.000819,182.567985 636.000819,184.499968 L636.000819,273.850639 L616.582997,286.573021 L616.589997,286.58002 C615.606506,287.224014 615.001011,288.316004 615.001011,289.498993 L615.001011,394.42802 C614.952012,396.475501 616.691496,398.064486 618.581478,397.997987 L828.425557,397.997987 C828.453556,397.997987 828.478056,397.997987 828.499056,397.997987 C830.494038,397.997987 832.044523,396.342502 831.999024,394.42802 L831.999024,289.498993 C831.999024,288.284505 831.36903,287.161015 830.336539,286.520521 Z M821.292622,289.187496 L810.999216,294.335949 L810.999216,282.877055 L821.292622,289.187496 Z M803.99928,187.999935 L803.99928,297.835916 L778.673512,310.498799 L732.249937,310.498799 C731.287446,310.498799 730.499953,311.286291 730.499953,312.248782 C730.499953,313.211273 731.287446,313.998766 732.249937,313.998766 L771.673576,313.998766 L757.673704,320.998701 L732.249937,320.998701 C731.287446,320.998701 730.499953,321.786194 730.499953,322.748685 C730.499953,323.711176 731.287446,324.498669 732.249937,324.498669 L750.673769,324.498669 L723.500017,338.085543 L696.326266,324.498669 L714.750098,324.498669 C715.716089,324.498669 716.500082,323.711176 716.500082,322.748685 C716.500082,321.786194 715.716089,320.998701 714.750098,320.998701 L689.32633,320.998701 L675.326459,313.998766 L714.750098,313.998766 C715.716089,313.998766 716.500082,313.211273 716.500082,312.248782 C716.500082,311.286291 715.716089,310.498799 714.750098,310.498799 L668.326523,310.498799 L643.000755,297.835916 L643.000755,187.999935 L803.99928,187.999935 Z M636.000819,294.335949 L625.511415,289.089497 L636.000819,282.215561 L636.000819,294.335949 Z M622.000947,295.161941 L636.000819,302.161876 L636.000819,302.333374 L636.347316,302.333374 L715.674089,341.998506 L622.000947,388.835072 L622.000947,295.161941 Z M633.326843,390.998052 L723.500017,345.91147 L813.673192,390.998052 L633.326843,390.998052 Z M824.999088,388.835072 L731.325946,341.998506 L824.999088,295.161941 L824.999088,388.835072 Z" id="icon_newsletter"></path>
                </g>
            </g>
        </g>
    </g>
</svg>