<?xml version="1.0" encoding="UTF-8"?>
<svg width="32px" height="32px" viewBox="0 0 32 32" version="1.1" xmlns="http://www.w3.org/2000/svg" xmlns:xlink="http://www.w3.org/1999/xlink">
    <!-- Generator: Sketch 46.2 (44496) - http://www.bohemiancoding.com/sketch -->
    <title>icon_menu_conocenos_activo</title>
    <desc>Created with Sketch.</desc>
    <defs></defs>
    <g id="Symbols" stroke="none" stroke-width="1" fill="none" fill-rule="evenodd">
        <g id="icon_menu_conocenos_activo">
            <rect id="Rectangle" fill="#FF5427" x="5.01386182" y="13.025" width="22" height="13"></rect>
            <polygon id="Path" stroke="#FAB200" fill="#FAB200" points="3.00198864 9.00035511 16.0162287 3.98542957 29.0036354 9.01916042 29.0036354 11.003054 3.00198864 11.003054"></polygon>
            <g id="Unknown-14" transform="translate(0.013862, 1.025000)" fill-rule="nonzero">
                <path d="M30.0897215,11.9773344 C30.5996257,11.9773344 31.0129848,11.5639754 31.0129848,11.0540711 L31.0129848,7.39787803 C31.0132081,7.02813028 30.7928164,6.69390986 30.4528717,6.54847578 L16.3686144,0.794065611 C16.1357927,0.693960626 15.8720581,0.693960626 15.6392364,0.794065611 L1.55186205,6.54847578 C1.21191738,6.69390986 0.991525655,7.02813028 0.991748977,7.39787803 L0.991748977,11.1929688 C0.991748977,11.702873 1.39150382,11.9908381 1.90140807,11.9908381 L2.98812682,11.9773344 L2.98812682,24.9691127 L1.9592939,24.9691127 L1.9592939,26.9774083 L30.0031061,26.9774083 L30.0031061,24.9691127 L28.9897736,24.9766744 L28.9897736,11.9773344 L30.0897215,11.9773344 Z M2.98812682,7.97535511 L16.0023669,2.96042957 L28.9897736,7.99416042 L28.9897736,9.97805398 L2.98812682,9.97805398 L2.98812682,7.97535511 Z M14.9506168,11.9908381 L14.9506168,24.9691127 L10.9810145,24.9691127 L10.9810145,11.9908381 L14.9506168,11.9908381 Z M16.9905416,11.9908381 L20.9601439,11.9908381 L20.9601439,24.9691127 L16.9905416,24.9691127 L16.9905416,11.9908381 Z M4.97852487,11.9908381 L8.94812715,11.9908381 L8.94812715,24.9691127 L4.97852487,24.9691127 L4.97852487,11.9908381 Z M26.9673374,24.9691127 L22.9977351,24.9691127 L22.9977351,11.9908381 L26.9632631,11.9908381 L26.9673374,24.9691127 Z" id="Shape" fill="#FFFFFF"></path>
                <path d="M14.4916705,6.46803977 C14.4916705,7.29309357 15.1605088,7.96193182 15.9855626,7.96193182 C16.8106164,7.96193182 17.4794546,7.29309357 17.4794554,6.46927358 C17.4784371,5.6439601 16.8096422,4.97516524 15.9855626,4.97414773 C15.1605088,4.97414773 14.4916705,5.64298598 14.4916705,6.46803977 Z" id="Shape" stroke="#FFFFFF" stroke-width="2"></path>
                <rect id="Rectangle-path" fill="#FFFFFF" x="1.00971347" y="27.9578827" width="29.9754817" height="2.00571537"></rect>
            </g>
        </g>
    </g>
</svg>