<?xml version="1.0" encoding="UTF-8"?>
<svg width="24px" height="24px" viewBox="0 0 24 24" version="1.1" xmlns="http://www.w3.org/2000/svg" xmlns:xlink="http://www.w3.org/1999/xlink">
    <!-- Generator: Sketch 46.2 (44496) - http://www.bohemiancoding.com/sketch -->
    <title>icon_skills_writing</title>
    <desc>Created with Sketch.</desc>
    <defs>
        <polygon id="path-1" points="12.4432186 0.982328846 7.8145327 5.3798743 13.832171 5.3798743 14.0248885 12.7801837 18.3837096 8.92281984 18.3837096 23.0080737 0.176639009 23.0080737 0.176639009 1.09806351"></polygon>
    </defs>
    <g id="Symbols" stroke="none" stroke-width="1" fill="none" fill-rule="evenodd">
        <g id="icon_skills_writing">
            <g id="Group" transform="translate(3.000000, 0.000000)">
                <mask id="mask-2" fill="white">
                    <use xlink:href="#path-1"></use>
                </mask>
                <g id="Path"></g>
                <rect id="Rectangle" stroke="#FFFFFF" stroke-width="2" mask="url(#mask-2)" x="2" y="3" width="14" height="18" rx="2"></rect>
            </g>
            <path d="M12.9010214,12.9919076 L10.0147155,13 L10.0089313,10.1017825 L17.8464956,2.3337043 C18.0594461,2.12008117 18.3487603,2 18.6504967,2 C18.952233,2 19.2415472,2.12008117 19.4544977,2.3337043 L20.6576072,3.54177659 C20.8715138,3.75544814 20.9916929,4.04530281 20.9916929,4.34754347 C20.9916929,4.64978413 20.8715138,4.9396388 20.6576072,5.15331035 L12.9010214,12.9919076 Z" id="write" stroke="#FFFFFF" stroke-width="2"></path>
            <polygon id="write-path" fill="#FFFFFF" points="14.2273719 13.1613068 9.8394169 8.77633331 9.8394169 13.1613068"></polygon>
        </g>
    </g>
</svg>