<svg xmlns="http://www.w3.org/2000/svg" width="200" height="200" viewBox="0 0 200 200"><g fill="none" fill-rule="evenodd" transform="translate(10 10)"><circle cx="90" cy="90" r="90" stroke="#004C76" stroke-width="4"/><g transform="translate(29.8 54.7)"><path fill="#004C76" fill-rule="nonzero" d="M100.2 18.3v-8a6 6 0 0 0-6-6h-66a6 6 0 0 0-6 6v8h78zm0 2h-78v38a6 6 0 0 0 6 6h66a6 6 0 0 0 6-6v-38zm-72-20h66c5.523 0 10 4.477 10 10v48c0 5.523-4.477 10-10 10h-66c-5.523 0-10-4.477-10-10v-48c0-5.523 4.477-10 10-10z"/><path fill="#E1523D" d="M51.208 39.263S39.994 28.706 39.722 28.696c.272.01 3.119-2.696 2.754-2.696.365 0 16.559 15.297 16.559 15.297S42.543 57 42.476 57c.067 0-2.78-2.706-2.754-2.696-.026-.01 11.486-11.011 11.486-11.011H.183v-4.03h51.025z"/><circle cx="74.2" cy="11.3" r="3" fill="#E1523D"/><circle cx="82.2" cy="11.3" r="3" fill="#E1523D"/><circle cx="90.2" cy="11.3" r="3" fill="#E1523D"/></g></g></svg>