<?xml version="1.0" encoding="UTF-8"?>
<svg width="283px" height="272px" viewBox="0 0 283 272" version="1.1" xmlns="http://www.w3.org/2000/svg" xmlns:xlink="http://www.w3.org/1999/xlink">
    <!-- Generator: Sketch 46.2 (44496) - http://www.bohemiancoding.com/sketch -->
    <title>icon_newsletter</title>
    <desc>Created with Sketch.</desc>
    <defs></defs>
    <g id="DESIGN" stroke="none" stroke-width="1" fill="none" fill-rule="evenodd" fill-opacity="0.300000012">
        <g id="HOMEPAGE" transform="translate(-931.000000, -3139.000000)" fill-rule="nonzero" fill="#FFFFFF">
            <g id="NEWSLETTER" transform="translate(0.000000, 3009.000000)">
                <g id="icono">
                    <path d="M999.468434,225.853949 L1058.8066,225.853949 C1061.32619,225.853949 1063.37107,223.809065 1063.37107,221.289476 L1063.37107,171.080264 C1063.37107,168.560675 1061.32619,166.51579 1058.8066,166.51579 L999.468434,166.51579 C996.948844,166.51579 994.903959,168.560675 994.903959,171.080264 L994.903959,221.289476 C994.903959,223.809065 996.948844,225.853949 999.468434,225.853949 Z M999.468434,171.080264 L1058.8066,171.080264 L1058.8066,221.289476 L999.468434,221.289476 L999.468434,171.080264 Z M1081.62897,168.798027 C1081.62897,167.538232 1082.65598,166.51579 1083.91121,166.51579 L1147.81385,166.51579 C1149.06908,166.51579 1150.09609,167.538232 1150.09609,168.798027 C1150.09609,170.057822 1149.06908,171.080264 1147.81385,171.080264 L1083.91121,171.080264 C1082.65598,171.080264 1081.62897,170.057822 1081.62897,168.798027 Z M1081.62897,182.491448 C1081.62897,181.231654 1082.65598,180.209212 1083.91121,180.209212 L1147.81385,180.209212 C1149.06908,180.209212 1150.09609,181.231654 1150.09609,182.491448 C1150.09609,183.751243 1149.06908,184.773685 1147.81385,184.773685 L1083.91121,184.773685 C1082.65598,184.773685 1081.62897,183.751243 1081.62897,182.491448 Z M1081.62897,196.18487 C1081.62897,194.925075 1082.65598,193.902633 1083.91121,193.902633 L1147.81385,193.902633 C1149.06908,193.902633 1150.09609,194.925075 1150.09609,196.18487 C1150.09609,197.444665 1149.06908,198.467107 1147.81385,198.467107 L1083.91121,198.467107 C1082.65598,198.467107 1081.62897,197.444665 1081.62897,196.18487 Z M1081.62897,209.878291 C1081.62897,208.618496 1082.65598,207.596054 1083.91121,207.596054 L1147.81385,207.596054 C1149.06908,207.596054 1150.09609,208.618496 1150.09609,209.878291 C1150.09609,211.138086 1149.06908,212.160528 1147.81385,212.160528 L1083.91121,212.160528 C1082.65598,212.160528 1081.62897,211.138086 1081.62897,209.878291 Z M1081.62897,223.571713 C1081.62897,222.311918 1082.65598,221.289476 1083.91121,221.289476 L1147.81385,221.289476 C1149.06908,221.289476 1150.09609,222.311918 1150.09609,223.571713 C1150.09609,224.831507 1149.06908,225.853949 1147.81385,225.853949 L1083.91121,225.853949 C1082.65598,225.853949 1081.62897,224.831507 1081.62897,223.571713 Z M1081.62897,246.394081 C1081.62897,245.134287 1082.65598,244.111845 1083.91121,244.111845 L1147.81385,244.111845 C1149.06908,244.111845 1150.09609,245.134287 1150.09609,246.394081 C1150.09609,247.653876 1149.06908,248.676318 1147.81385,248.676318 L1083.91121,248.676318 C1082.65598,248.676318 1081.62897,247.653876 1081.62897,246.394081 Z M1081.62897,260.087503 C1081.62897,258.827708 1082.65598,257.805266 1083.91121,257.805266 L1147.81385,257.805266 C1149.06908,257.805266 1150.09609,258.827708 1150.09609,260.087503 C1150.09609,261.347298 1149.06908,262.36974 1147.81385,262.36974 L1083.91121,262.36974 C1082.65598,262.36974 1081.62897,261.347298 1081.62897,260.087503 Z M1081.62897,273.780924 C1081.62897,272.521129 1082.65598,271.498687 1083.91121,271.498687 L1147.81385,271.498687 C1149.06908,271.498687 1150.09609,272.521129 1150.09609,273.780924 C1150.09609,275.036154 1149.06908,276.063161 1147.81385,276.063161 L1083.91121,276.063161 C1082.65598,276.063161 1081.62897,275.036154 1081.62897,273.780924 Z M1081.62897,287.474345 C1081.62897,286.219115 1082.65598,285.192109 1083.91121,285.192109 L1147.81385,285.192109 C1149.06908,285.192109 1150.09609,286.219115 1150.09609,287.474345 C1150.09609,288.729576 1149.06908,289.756582 1147.81385,289.756582 L1083.91121,289.756582 C1082.65598,289.756582 1081.62897,288.729576 1081.62897,287.474345 Z M994.903959,246.394081 C994.903959,245.134287 995.926401,244.111845 997.186196,244.111845 L1061.08884,244.111845 C1062.34863,244.111845 1063.37107,245.134287 1063.37107,246.394081 C1063.37107,247.653876 1062.34863,248.676318 1061.08884,248.676318 L997.186196,248.676318 C995.926401,248.676318 994.903959,247.653876 994.903959,246.394081 Z M994.903959,260.087503 C994.903959,258.827708 995.926401,257.805266 997.186196,257.805266 L1061.08884,257.805266 C1062.34863,257.805266 1063.37107,258.827708 1063.37107,260.087503 C1063.37107,261.347298 1062.34863,262.36974 1061.08884,262.36974 L997.186196,262.36974 C995.926401,262.36974 994.903959,261.347298 994.903959,260.087503 Z M994.903959,273.780924 C994.903959,272.521129 995.926401,271.498687 997.186196,271.498687 L1061.08884,271.498687 C1062.34863,271.498687 1063.37107,272.521129 1063.37107,273.780924 C1063.37107,275.036154 1062.34863,276.063161 1061.08884,276.063161 L997.186196,276.063161 C995.926401,276.063161 994.903959,275.036154 994.903959,273.780924 Z M994.903959,287.474345 C994.903959,286.219115 995.926401,285.192109 997.186196,285.192109 L1061.08884,285.192109 C1062.34863,285.192109 1063.37107,286.219115 1063.37107,287.474345 C1063.37107,288.729576 1062.34863,289.756582 1061.08884,289.756582 L997.186196,289.756582 C995.926401,289.756582 994.903959,288.729576 994.903959,287.474345 Z M1211.8306,267.61432 C1211.8306,267.609756 1211.82147,267.609756 1211.81234,267.605191 L1211.81234,267.605191 L1186.61188,252.159012 L1186.61188,134.564474 C1186.61188,132.044884 1184.567,130 1182.04741,130 L962.952639,130 C960.433049,130 958.388165,132.044884 958.388165,134.564474 L958.388165,251.090925 L933.064461,267.682787 L933.07359,267.691916 C931.790973,268.531779 931.001319,269.955895 931.001319,271.498687 L931.001319,408.341611 C930.937416,411.011828 933.20596,413.084099 935.670776,412.997374 L1209.3384,412.997374 C1209.37491,412.997374 1209.40687,412.997374 1209.43425,412.997374 C1212.036,412.997374 1214.05807,410.838378 1213.99873,408.341611 L1213.99873,271.498687 C1213.99873,269.914815 1213.17712,268.449619 1211.8306,267.61432 Z M1200.036,271.092449 L1186.61188,277.80679 L1186.61188,262.862703 L1200.036,271.092449 Z M1177.48293,139.128948 L1177.48293,282.371264 L1144.4544,298.88553 L1083.91121,298.88553 C1082.65598,298.88553 1081.62897,299.912537 1081.62897,301.167767 C1081.62897,302.422997 1082.65598,303.450004 1083.91121,303.450004 L1135.32545,303.450004 L1117.06755,312.578951 L1083.91121,312.578951 C1082.65598,312.578951 1081.62897,313.605958 1081.62897,314.861188 C1081.62897,316.116418 1082.65598,317.143425 1083.91121,317.143425 L1107.9386,317.143425 L1072.50002,334.862712 L1037.06144,317.143425 L1061.08884,317.143425 C1062.34863,317.143425 1063.37107,316.116418 1063.37107,314.861188 C1063.37107,313.605958 1062.34863,312.578951 1061.08884,312.578951 L1027.9325,312.578951 L1009.6746,303.450004 L1061.08884,303.450004 C1062.34863,303.450004 1063.37107,302.422997 1063.37107,301.167767 C1063.37107,299.912537 1062.34863,298.88553 1061.08884,298.88553 L1000.54565,298.88553 L967.517113,282.371264 L967.517113,139.128948 L1177.48293,139.128948 Z M958.388165,277.80679 L944.708435,270.964644 L958.388165,262.000017 L958.388165,277.80679 Z M940.130267,278.884006 L958.388165,288.012953 L958.388165,288.236613 L958.840048,288.236613 L1062.29386,339.965794 L940.130267,401.047582 L940.130267,278.884006 Z M954.900906,403.868427 L1072.50002,345.068876 L1190.09914,403.868427 L954.900906,403.868427 Z M1204.86978,401.047582 L1082.70619,339.965794 L1204.86978,278.884006 L1204.86978,401.047582 Z" id="icon_newsletter"></path>
                </g>
            </g>
        </g>
    </g>
</svg>