<?xml version="1.0" encoding="UTF-8"?>
<svg width="240px" height="240px" viewBox="0 0 240 240" version="1.1" xmlns="http://www.w3.org/2000/svg" xmlns:xlink="http://www.w3.org/1999/xlink">
    <!-- Generator: Sketch 46.2 (44496) - http://www.bohemiancoding.com/sketch -->
    <title>icon_comofunciona_cntr</title>
    <desc>Created with Sketch.</desc>
    <defs>
        <circle id="path-1" cx="120" cy="120" r="120"></circle>
    </defs>
    <g id="DESIGN" stroke="none" stroke-width="1" fill="none" fill-rule="evenodd">
        <g id="HOMEPAGE" transform="translate(-601.000000, -1120.000000)">
            <g id="COMO-FUNCIONA" transform="translate(210.000000, 863.000000)">
                <g id="cntro" transform="translate(374.000000, 257.000000)">
                    <g id="icon_comofunciona_cntr" transform="translate(17.000000, 0.000000)">
                        <g>
                            <g id="Oval">
                                <use fill="#F2F1F0" fill-rule="evenodd" xlink:href="#path-1"></use>
                                <circle stroke="#00A4A1" stroke-width="8" cx="120" cy="120" r="116"></circle>
                            </g>
                            <g id="icon_cards_browser" transform="translate(62.800003, 86.700002)">
                                <path d="M24.9092301,0 L90.3485943,0 L90.3485943,0 C94.7952596,7.08202522e-15 98.3999941,3.60473449 98.3999941,8.05139983 L98.3999941,46.0437473 L98.3999941,55.5485964 L98.3999941,55.5485964 C98.3999941,59.9952617 94.7952596,63.5999962 90.3485943,63.5999962 L24.9092301,63.5999962 L24.9092301,63.5999962 C20.4625648,63.5999962 16.8578303,59.9952617 16.8578303,55.5485964 L16.8578303,47.0374972 L16.8578303,33.787498 L16.8578303,8.05139983 L16.8578303,8.05139983 C16.8578303,3.60473449 20.4625648,8.16839171e-16 24.9092301,0 Z" id="Rectangle-99" stroke="#D8D8D8" stroke-width="2.68379994"></path>
                                <path d="M17.9999989,17.9999989 L98.3999941,17.9999989" id="Line" stroke="#D8D8D8" stroke-width="2.39999986" stroke-linecap="square"></path>
                                <path d="M44.3999974,38.3999977 C44.9133714,38.3760576 35.0370129,28.8089758 34.7999979,28.7999983 C35.0370129,28.8089758 37.5179164,26.3999984 37.1999978,26.3999984 C37.5179164,26.3999984 51.5999969,40.0738131 51.5999969,39.5999976 C51.5999969,40.0738131 37.2580122,53.9999968 37.1999978,53.9999968 C37.2580122,53.9999968 34.7771087,51.5910194 34.7999979,51.5999969 C34.7771087,51.5910194 44.8897438,41.7945112 44.3999974,41.9999975 C44.8897438,41.7945112 3.55271368e-15,41.9999975 3.55271368e-15,41.9999975 L3.55271368e-15,38.3999977 C3.55271368e-15,38.3999977 42.2417836,38.5409526 44.3999974,38.3999977 Z" id="Shape" fill="#00A4A1"></path>
                                <circle id="Oval-109-Copy-2" fill="#00A4A1" cx="71.3999957" cy="8.99999946" r="2.99999982"></circle>
                                <circle id="Oval-109-Copy-2" fill="#00A4A1" cx="79.7999952" cy="8.99999946" r="2.99999982"></circle>
                                <circle id="Oval-109-Copy-2" fill="#00A4A1" cx="88.1999947" cy="8.99999946" r="2.99999982"></circle>
                            </g>
                        </g>
                    </g>
                </g>
            </g>
        </g>
    </g>
</svg>