<svg xmlns="http://www.w3.org/2000/svg" width="143" height="112" viewBox="0 0 143 112"><defs><filter id="a" width="125%" height="118.8%" x="-12.5%" y="-9.4%" filterUnits="objectBoundingBox"><feOffset in="SourceAlpha" result="shadowOffsetOuter1"/><feGaussianBlur in="shadowOffsetOuter1" result="shadowBlurOuter1" stdDeviation="15"/><feColorMatrix in="shadowBlurOuter1" result="shadowMatrixOuter1" values="0 0 0 0 0.607892215 0 0 0 0 0.607803345 0 0 0 0 0.607922554 0 0 0 1 0"/><feMerge><feMergeNode in="shadowMatrixOuter1"/><feMergeNode in="SourceGraphic"/></feMerge></filter></defs><g fill="none" fill-rule="evenodd" filter="url(#a)" transform="translate(24 31)"><path stroke="#FFF" stroke-width="2.1" d="M30.686 0H81.7A6.3 6.3 0 0 1 88 6.3v37.4a6.3 6.3 0 0 1-6.3 6.3H30.686a6.3 6.3 0 0 1-6.3-6.3V6.3a6.3 6.3 0 0 1 6.3-6.3z"/><path stroke="#FFF" stroke-linecap="square" stroke-width="2.1" d="M25.976 12.5H86.41"/><ellipse cx="80.578" cy="7.292" fill="#FFF" rx="2.12" ry="2.083"/><ellipse cx="74.217" cy="7.292" fill="#FFF" rx="2.12" ry="2.083"/><ellipse cx="67.855" cy="7.292" fill="#FFF" rx="2.12" ry="2.083"/><path fill="#FFF" d="M45.038 28.768l-7.709-7.556 1.937-1.903 10.992 10.8-11.195 10.998-1.937-1.902 7.894-7.737-44.374.072-.033-2.381s42.34-.261 44.425-.391z"/></g></svg>