<?xml version="1.0" encoding="UTF-8"?>
<svg width="92px" height="92px" viewBox="0 0 92 92" version="1.1" xmlns="http://www.w3.org/2000/svg" xmlns:xlink="http://www.w3.org/1999/xlink">
    <!-- Generator: Sketch 46.2 (44496) - http://www.bohemiancoding.com/sketch -->
    <title>icon_newsletter</title>
    <desc>Created with Sketch.</desc>
    <defs></defs>
    <g id="Symbols" stroke="none" stroke-width="1" fill="none" fill-rule="evenodd">
        <g id="icon_contactoenviado" transform="translate(-9.000000, -9.000000)" fill-rule="nonzero" fill="#FAB200">
            <path d="M31.2582893,40.1610012 L50.5484353,40.1610012 C51.3675245,40.1610012 52.0322926,39.4962332 52.0322926,38.677144 L52.0322926,22.3547148 C52.0322926,21.5356256 51.3675245,20.8708576 50.5484353,20.8708576 L31.2582893,20.8708576 C30.4392001,20.8708576 29.774432,21.5356256 29.774432,22.3547148 L29.774432,38.677144 C29.774432,39.4962332 30.4392001,40.1610012 31.2582893,40.1610012 Z M31.2582893,22.3547148 L50.5484353,22.3547148 L50.5484353,38.677144 L31.2582893,38.677144 L31.2582893,22.3547148 Z M57.9677221,21.6127862 C57.9677221,21.2032416 58.3015901,20.8708576 58.7096508,20.8708576 L79.4836541,20.8708576 C79.8917149,20.8708576 80.2255828,21.2032416 80.2255828,21.6127862 C80.2255828,22.0223308 79.8917149,22.3547148 79.4836541,22.3547148 L58.7096508,22.3547148 C58.3015901,22.3547148 57.9677221,22.0223308 57.9677221,21.6127862 Z M57.9677221,26.0643578 C57.9677221,25.6548132 58.3015901,25.3224292 58.7096508,25.3224292 L79.4836541,25.3224292 C79.8917149,25.3224292 80.2255828,25.6548132 80.2255828,26.0643578 C80.2255828,26.4739024 79.8917149,26.8062864 79.4836541,26.8062864 L58.7096508,26.8062864 C58.3015901,26.8062864 57.9677221,26.4739024 57.9677221,26.0643578 Z M57.9677221,30.5159294 C57.9677221,30.1063848 58.3015901,29.7740008 58.7096508,29.7740008 L79.4836541,29.7740008 C79.8917149,29.7740008 80.2255828,30.1063848 80.2255828,30.5159294 C80.2255828,30.925474 79.8917149,31.257858 79.4836541,31.257858 L58.7096508,31.257858 C58.3015901,31.257858 57.9677221,30.925474 57.9677221,30.5159294 Z M57.9677221,34.967501 C57.9677221,34.5579564 58.3015901,34.2255724 58.7096508,34.2255724 L79.4836541,34.2255724 C79.8917149,34.2255724 80.2255828,34.5579564 80.2255828,34.967501 C80.2255828,35.3770456 79.8917149,35.7094296 79.4836541,35.7094296 L58.7096508,35.7094296 C58.3015901,35.7094296 57.9677221,35.3770456 57.9677221,34.967501 Z M57.9677221,39.4190726 C57.9677221,39.009528 58.3015901,38.677144 58.7096508,38.677144 L79.4836541,38.677144 C79.8917149,38.677144 80.2255828,39.009528 80.2255828,39.4190726 C80.2255828,39.8286172 79.8917149,40.1610012 79.4836541,40.1610012 L58.7096508,40.1610012 C58.3015901,40.1610012 57.9677221,39.8286172 57.9677221,39.4190726 Z M57.9677221,46.8383586 C57.9677221,46.428814 58.3015901,46.09643 58.7096508,46.09643 L79.4836541,46.09643 C79.8917149,46.09643 80.2255828,46.428814 80.2255828,46.8383586 C80.2255828,47.2479032 79.8917149,47.5802872 79.4836541,47.5802872 L58.7096508,47.5802872 C58.3015901,47.5802872 57.9677221,47.2479032 57.9677221,46.8383586 Z M57.9677221,51.2899302 C57.9677221,50.8803856 58.3015901,50.5480016 58.7096508,50.5480016 L79.4836541,50.5480016 C79.8917149,50.5480016 80.2255828,50.8803856 80.2255828,51.2899302 C80.2255828,51.6994748 79.8917149,52.0318588 79.4836541,52.0318588 L58.7096508,52.0318588 C58.3015901,52.0318588 57.9677221,51.6994748 57.9677221,51.2899302 Z M57.9677221,55.7415018 C57.9677221,55.3319572 58.3015901,54.9995732 58.7096508,54.9995732 L79.4836541,54.9995732 C79.8917149,54.9995732 80.2255828,55.3319572 80.2255828,55.7415018 C80.2255828,56.1495626 79.8917149,56.4834304 79.4836541,56.4834304 L58.7096508,56.4834304 C58.3015901,56.4834304 57.9677221,56.1495626 57.9677221,55.7415018 Z M57.9677221,60.1930734 C57.9677221,59.7850127 58.3015901,59.4511448 58.7096508,59.4511448 L79.4836541,59.4511448 C79.8917149,59.4511448 80.2255828,59.7850127 80.2255828,60.1930734 C80.2255828,60.6011342 79.8917149,60.935002 79.4836541,60.935002 L58.7096508,60.935002 C58.3015901,60.935002 57.9677221,60.6011342 57.9677221,60.1930734 Z M29.774432,46.8383586 C29.774432,46.428814 30.106816,46.09643 30.5163607,46.09643 L51.2903639,46.09643 C51.6999086,46.09643 52.0322926,46.428814 52.0322926,46.8383586 C52.0322926,47.2479032 51.6999086,47.5802872 51.2903639,47.5802872 L30.5163607,47.5802872 C30.106816,47.5802872 29.774432,47.2479032 29.774432,46.8383586 Z M29.774432,51.2899302 C29.774432,50.8803856 30.106816,50.5480016 30.5163607,50.5480016 L51.2903639,50.5480016 C51.6999086,50.5480016 52.0322926,50.8803856 52.0322926,51.2899302 C52.0322926,51.6994748 51.6999086,52.0318588 51.2903639,52.0318588 L30.5163607,52.0318588 C30.106816,52.0318588 29.774432,51.6994748 29.774432,51.2899302 Z M29.774432,55.7415018 C29.774432,55.3319572 30.106816,54.9995732 30.5163607,54.9995732 L51.2903639,54.9995732 C51.6999086,54.9995732 52.0322926,55.3319572 52.0322926,55.7415018 C52.0322926,56.1495626 51.6999086,56.4834304 51.2903639,56.4834304 L30.5163607,56.4834304 C30.106816,56.4834304 29.774432,56.1495626 29.774432,55.7415018 Z M29.774432,60.1930734 C29.774432,59.7850127 30.106816,59.4511448 30.5163607,59.4511448 L51.2903639,59.4511448 C51.6999086,59.4511448 52.0322926,59.7850127 52.0322926,60.1930734 C52.0322926,60.6011342 51.6999086,60.935002 51.2903639,60.935002 L30.5163607,60.935002 C30.106816,60.935002 29.774432,60.6011342 29.774432,60.1930734 Z M100.294754,53.7368108 C100.294754,53.7353269 100.291786,53.7353269 100.288818,53.733843 L100.288818,53.733843 L92.0964419,48.7124703 L92.0964419,10.4838572 C92.0964419,9.66476803 91.4316737,9 90.6125845,9 L19.3874303,9 C18.568341,9 17.9035729,9.66476803 17.9035729,10.4838572 L17.9035729,48.3652477 L9.6711322,53.7590686 L9.67409991,53.7620363 C9.25713599,54.0350661 9.00042867,54.4980295 9.00042867,54.9995732 L9.00042867,99.4856121 C8.97965466,100.353669 9.71713178,101.02734 10.5184148,100.999146 L99.4845677,100.999146 C99.4964386,100.999146 99.5068256,100.999146 99.5157287,100.999146 C100.361527,100.999146 101.018876,100.297282 100.999586,99.4856121 L100.999586,54.9995732 C100.999586,54.4846748 100.732492,54.0083566 100.294754,53.7368108 Z M96.4604664,54.8675099 L92.0964419,57.0502639 L92.0964419,52.1921154 L96.4604664,54.8675099 Z M89.1287271,11.9677144 L89.1287271,58.5341211 L78.3915351,63.9027164 L58.7096508,63.9027164 C58.3015901,63.9027164 57.9677221,64.2365843 57.9677221,64.644645 C57.9677221,65.0527058 58.3015901,65.3865736 58.7096508,65.3865736 L75.4238203,65.3865736 L69.4883908,68.354288 L58.7096508,68.354288 C58.3015901,68.354288 57.9677221,68.6881559 57.9677221,69.0962166 C57.9677221,69.5042774 58.3015901,69.8381452 58.7096508,69.8381452 L66.5206761,69.8381452 L55.0000074,75.5984789 L43.4793387,69.8381452 L51.2903639,69.8381452 C51.6999086,69.8381452 52.0322926,69.5042774 52.0322926,69.0962166 C52.0322926,68.6881559 51.6999086,68.354288 51.2903639,68.354288 L40.511624,68.354288 L34.5761944,65.3865736 L51.2903639,65.3865736 C51.6999086,65.3865736 52.0322926,65.0527058 52.0322926,64.644645 C52.0322926,64.2365843 51.6999086,63.9027164 51.2903639,63.9027164 L31.6084797,63.9027164 L20.8712877,58.5341211 L20.8712877,11.9677144 L89.1287271,11.9677144 Z M17.9035729,57.0502639 L13.4564524,54.8259619 L17.9035729,51.9116664 L17.9035729,57.0502639 Z M11.9681434,57.4004542 L17.9035729,60.3681686 L17.9035729,60.4408776 L18.0504748,60.4408776 L51.6821023,77.2574313 L11.9681434,97.1144083 L11.9681434,57.4004542 Z M16.7699059,98.0314321 L55.0000074,78.9163836 L93.2301089,98.0314321 L16.7699059,98.0314321 Z M98.0318714,97.1144083 L58.3179125,77.2574313 L98.0318714,57.4004542 L98.0318714,97.1144083 Z" id="icon_newsletter"></path>
        </g>
    </g>
</svg>