<svg xmlns="http://www.w3.org/2000/svg" width="85" height="52" viewBox="0 0 85 52"><g fill="#FFF" fill-rule="evenodd"><path fill-rule="nonzero" d="M82.95 14V7.3c0-2.9-2.35-5.25-5.25-5.25H26.3a5.25 5.25 0 0 0-5.25 5.25V14h61.9zm0 2h-61.9v29A4.95 4.95 0 0 0 26 49.95h51.7c2.9 0 5.25-2.35 5.25-5.25V16zM26.3-.05h51.4a7.35 7.35 0 0 1 7.35 7.35v37.4a7.35 7.35 0 0 1-7.35 7.35H26A7.05 7.05 0 0 1 18.95 45V7.3A7.35 7.35 0 0 1 26.3-.05zM77 10a2 2 0 1 1 0-4 2 2 0 0 1 0 4zm-7 0a2 2 0 1 1 0-4 2 2 0 0 1 0 4zm-7 0a2 2 0 1 1 0-4 2 2 0 0 1 0 4z"/><path d="M42.846 34H0v-2h42.875l-6.645-6.645 1.562-1.562 9.193 9.192-9.193 9.193-1.562-1.562L42.846 34z"/></g></svg>