<svg xmlns="http://www.w3.org/2000/svg" width="240" height="240" viewBox="0 0 240 240"><g fill="none" fill-rule="evenodd"><path fill="#FAB200" d="M60 90c0 16.569-13.431 30-30 30-16.569 0-30-13.431-30-30 0-16.569 13.431-30 30-30 16.569 0 30 13.431 30 30z"/><path fill="#E94A34" d="M90 60L120 30 90 0 60 30z"/><path fill="#FAB200" d="M30 180L60 150 30 120 0 150z"/><path fill="#009FE3" d="M120 210c0 16.569-13.431 30-30 30-16.569 0-30-13.431-30-30 0-16.569 13.431-30 30-30 16.569 0 30 13.431 30 30m0-90.298v.594c.16 66.1 53.813 119.644 120 119.704v-59.494c-33.344-.06-60.456-27.179-60.456-60.507 0-16.163 6.3-31.358 17.739-42.785 11.412-11.403 26.579-17.692 42.716-17.72V0C173.81.06 120.159 53.601 120 119.702"/><path fill="#FAB200" d="M60 180L180 180 180 60 60 60z"/><path fill="#E5007D" d="M0 240L60 240 60 180 0 180z"/><g transform="translate(71 92)"><path stroke="#FFF" stroke-width="2.237" d="M20.758 0H75.29A6.71 6.71 0 0 1 82 6.71v39.58A6.71 6.71 0 0 1 75.29 53H20.758a6.71 6.71 0 0 1-6.71-6.71V6.71A6.71 6.71 0 0 1 20.758 0z"/><path stroke="#FFF" stroke-linecap="square" stroke-width="2" d="M15 15h67"/><path fill="#E1523D" d="M37 32c.428-.02-7.802-7.993-8-8 .198.007 2.265-2 2-2 .265 0 12 11.395 12 11 0 .395-11.952 12-12 12 .048 0-2.02-2.007-2-2-.02-.007 8.408-8.171 8-8 .408-.171-37 0-37 0v-3s35.201.117 37 0z"/><circle cx="59.5" cy="7.5" r="2.5" fill="#E1523D"/><circle cx="66.5" cy="7.5" r="2.5" fill="#E1523D"/><circle cx="73.5" cy="7.5" r="2.5" fill="#E1523D"/></g></g></svg>