<?xml version="1.0" encoding="UTF-8"?>
<svg width="49px" height="49px" viewBox="0 0 49 49" version="1.1" xmlns="http://www.w3.org/2000/svg" xmlns:xlink="http://www.w3.org/1999/xlink">
    <!-- Generator: Sketch 46.2 (44496) - http://www.bohemiancoding.com/sketch -->
    <title>icon_estudiantes</title>
    <desc>Created with Sketch.</desc>
    <defs>
        <circle id="path-1" cx="22.5" cy="22.5" r="22.5"></circle>
    </defs>
    <g id="DESIGN" stroke="none" stroke-width="1" fill="none" fill-rule="evenodd">
        <g id="RECURSOS-ESTUDIANTES" transform="translate(-238.000000, -384.000000)">
            <g id="FILTER-ESTUDIANTES" transform="translate(150.000000, 368.000000)">
                <g id="FILTER">
                    <g id="estudiantes" transform="translate(90.000000, 18.000000)">
                        <g id="icon_estudiantes">
                            <mask id="mask-2" fill="white">
                                <use xlink:href="#path-1"></use>
                            </mask>
                            <circle stroke="#FFFFFF" stroke-width="2" cx="22.5" cy="22.5" r="23.5"></circle>
                            <path d="M29.5362526,32.6168894 C33.2244664,32.6168894 36.1607143,35.5479754 36.1607143,39.2297053 L36.1607143,44.1964286 C31.7706358,47.228121 27.3372117,48.7439672 22.8604421,48.7439672 C18.3836724,48.7439672 13.7099536,47.228121 8.83928571,44.1964286 L8.83928571,39.2297053 C8.83928571,35.5479754 11.8471494,32.6168894 15.4637474,32.6168894 L29.5362526,32.6168894 Z M22.482096,20.3206263 L28.5694392,18.5691237 C29.5362526,19.820197 30.1449869,21.4287198 30.1449869,23.1802224 C30.1449869,27.3981266 26.7074284,30.7938969 22.517904,30.7938969 C18.2925716,30.7938969 14.890821,27.3623816 14.890821,23.1802224 C14.890821,21.4644647 15.4637474,19.8559419 16.4663687,18.5691237 L22.482096,20.3206263 Z M16.3947529,16.9248559 L12.6349232,17.8184797 L12.6349232,23.2874572 C12.8855785,23.3946921 13.064618,23.6806517 13.064618,23.9666113 L13.064618,25.8968386 C13.064618,26.325778 12.706539,26.6832276 12.2768442,26.6832276 L11.6681099,26.6832276 C11.2384151,26.6832276 10.8803361,26.325778 10.8803361,25.8968386 L10.8803361,23.9666113 C10.8803361,23.6806517 11.0593756,23.430437 11.3100309,23.2874572 L11.3100309,17.2823055 C11.3100309,16.9606009 11.5248783,16.6746413 11.8471494,16.6031514 L13.7449682,16.138467 L8.83928571,14.7444139 L22.482096,10.8482143 L35.910059,14.7444139 L22.3746723,18.6406136 L16.3947529,16.9248559 Z" id="Combined-Shape" fill="#FFFFFF" fill-rule="nonzero" opacity="0.699999988" mask="url(#mask-2)"></path>
                        </g>
                    </g>
                </g>
            </g>
        </g>
    </g>
</svg>