<?xml version="1.0" encoding="UTF-8"?>
<svg width="49px" height="49px" viewBox="0 0 49 49" version="1.1" xmlns="http://www.w3.org/2000/svg" xmlns:xlink="http://www.w3.org/1999/xlink">
    <!-- Generator: Sketch 46.2 (44496) - http://www.bohemiancoding.com/sketch -->
    <title>icon_profesores</title>
    <desc>Created with Sketch.</desc>
    <defs>
        <circle id="path-1" cx="22.5" cy="22.5" r="22.5"></circle>
        <path d="M41.1020771,20.4289922 C38.0536079,20.4289922 35.5823353,17.9618319 35.5823353,14.9184353 C35.5823353,11.8750387 38.0536079,9.40787837 41.1020771,9.40787837 C44.1505463,9.40787837 46.6218189,11.8750387 46.6218189,14.9184353 C46.6218189,17.9618319 44.1505463,20.4289922 41.1020771,20.4289922 Z M52.8615269,29.9167338 C53.7254865,30.9230094 53.5814933,32.4563817 52.6215382,33.3189037 L47.5337762,37.5356777 L47.5337762,37.6794314 C47.5337762,38.3502818 47.0058009,38.8773785 46.3338323,38.8773785 L34.7663735,41.9624793 L34.7663735,29.6292264 L32.8464633,32.1209565 C32.1744948,33.1272321 31.0225487,33.7022468 29.8226048,33.7022468 C29.582616,33.7022468 29.2946295,33.6543289 29.006643,33.606411 C28.4786677,33.5105752 28.0466879,33.2709858 27.6627058,32.9355606 L22.2389596,26.9937427 C21.375,26.3228923 21.2310067,25.0770272 21.9029753,24.2624232 L18.3031437,13.5767345 C18.2071482,13.2413093 18.3991392,12.9058841 18.6871257,12.8100483 C18.7351235,12.7621304 18.831119,12.7621304 18.8791168,12.7621304 C19.1191055,12.7621304 19.3590943,12.9058841 19.4550898,13.1454735 L22.9589259,23.5436549 C23.1509169,23.495737 23.2949102,23.495737 23.4869012,23.495737 C23.8708832,23.495737 24.2548653,23.5915727 24.5908496,23.8311622 L30.3025823,29.0542118 L35.05436,22.7769687 C35.246351,22.4894614 35.4863398,22.2977898 35.7743263,22.1540362 C36.2543039,21.7227752 36.9262725,21.4352679 37.6462388,21.4352679 L44.5579154,21.4352679 C45.1818862,21.4352679 45.7578593,21.6269394 46.2378368,21.9623646 C46.6698166,22.1061183 47.0058009,22.3457077 47.2937874,22.7290508 L52.2375561,29.1500476 L52.8615269,29.9167338 Z M47.4857784,32.360546 L48.8777133,31.2105167 L47.4857784,29.4375549 L47.4857784,32.360546 Z M33.3744386,33.3668216 L33.5664296,33.0793143 C33.5664296,33.0793143 33.6144274,33.0313964 33.6144274,33.0313964 L33.6144274,33.3668216 L33.3744386,33.3668216 Z" id="path-3"></path>
    </defs>
    <g id="DESIGN" stroke="none" stroke-width="1" fill="none" fill-rule="evenodd">
        <g id="RECURSOS-ESTUDIANTES" transform="translate(-1005.000000, -384.000000)">
            <g id="FILTER-ESTUDIANTES" transform="translate(150.000000, 368.000000)">
                <g id="FILTER">
                    <g id="profes" transform="translate(857.000000, 18.000000)">
                        <g id="icon_profesores">
                            <mask id="mask-2" fill="white">
                                <use xlink:href="#path-1"></use>
                            </mask>
                            <circle stroke="#FF5427" stroke-width="2" cx="22.5" cy="22.5" r="23.5"></circle>
                            <g id="teacher" mask="url(#mask-2)">
                                <g transform="translate(-9.000000, 5.000000)">
                                    <path d="M2.85119986,0 L40.6667642,0 C42.2414384,3.90651197e-15 43.5179641,1.27652566 43.5179641,2.85119986 L43.5179641,26.5384371 L43.5179641,26.5384371 C43.5179641,28.1131113 42.2414384,29.389637 40.6667642,29.389637 L2.85119986,29.389637 C1.27652566,29.389637 -2.51247238e-16,28.1131113 -4.4408921e-16,26.5384371 L0,2.85119986 C-1.92841972e-16,1.27652566 1.27652566,-5.98915462e-16 2.85119986,-8.8817842e-16 L2.85119986,0 Z M11.5034618,26.5145638 L11.5034618,25.2207809 C11.5034618,24.4061768 10.879491,23.7832443 10.0635292,23.7832443 L6.51169536,23.7832443 C5.69573353,23.7832443 5.07176272,24.4061768 5.07176272,25.2207809 L5.07176272,26.5145638 L11.5034618,26.5145638 Z" id="Rectangle-3" fill="#FF5427" fill-rule="evenodd"></path>
                                    <g id="Combined-Shape" fill="none" fill-rule="nonzero">
                                        <use fill="#FF5427" fill-rule="evenodd" xlink:href="#path-3"></use>
                                        <path stroke="#E33C10" stroke-width="1.58399992" d="M41.1020771,21.2209922 C37.6164934,21.2209922 34.7903354,18.3995369 34.7903354,14.9184353 C34.7903354,11.4373337 37.6164934,8.61587841 41.1020771,8.61587841 C44.5876608,8.61587841 47.4138188,11.4373337 47.4138188,14.9184353 C47.4138188,18.3995369 44.5876608,21.2209922 41.1020771,21.2209922 Z M53.469695,29.4092998 C54.5978104,30.7326495 54.4381475,32.7514079 53.1269336,33.9286901 L48.3117755,37.919528 C48.1994194,38.8749761 47.4236406,39.6117138 46.4497384,39.66615 L33.9743735,42.993394 L33.9743735,31.9524962 L33.5051091,32.5607856 C32.6938766,33.7756096 31.3021958,34.4942467 29.8226048,34.4942467 C29.5620664,34.4942467 29.3555692,34.4673572 28.8651939,34.3856774 C28.2166053,34.2679484 27.6538412,33.9794423 27.0777571,33.4695072 L21.6958825,27.5735604 C20.6602633,26.7249509 20.3979716,25.2636107 21.0274243,24.1441412 L17.5417126,13.7946488 C17.3459173,13.1105054 17.6852407,12.3923151 18.3038895,12.1108376 C18.4141845,12.0444086 18.5310901,12.0071669 18.6531281,11.9868611 C18.7380386,11.9727329 18.7953876,11.9701305 18.8791168,11.9701305 C19.4450587,11.9701305 19.9743747,12.3120592 20.205625,12.8925685 L23.5116907,22.7038355 C24.0710882,22.7083098 24.5997652,22.8648791 25.1253166,23.2466889 L30.1957815,27.8833362 L34.3957142,22.3371396 C34.6380138,21.974295 34.945194,21.7016196 35.3249282,21.4952527 C35.960337,20.9582643 36.7914959,20.6432679 37.6462388,20.6432679 L44.5579154,20.6432679 C45.2936546,20.6432679 45.9949097,20.8549892 46.5973091,21.2494397 C47.1357322,21.4500977 47.5689256,21.7767024 47.9213311,22.2458812 L52.8518311,28.6501173 L53.469695,29.4092998 Z M46.981324,31.7499809 L48.3732589,30.5999516 L48.2547604,31.6995909 L46.8628255,29.9266291 L48.2777784,29.4375549 L48.2777784,32.360546 L46.981324,31.7499809 Z M31.8932047,34.1588215 L32.9077838,32.6394852 L33.0068676,32.5188196 L34.4064274,31.1215887 L34.4064274,34.1588215 L31.8932047,34.1588215 Z"></path>
                                    </g>
                                </g>
                            </g>
                        </g>
                    </g>
                </g>
            </g>
        </g>
    </g>
</svg>