<?xml version="1.0" encoding="UTF-8"?>
<svg width="98px" height="98px" viewBox="0 0 98 98" version="1.1" xmlns="http://www.w3.org/2000/svg" xmlns:xlink="http://www.w3.org/1999/xlink">
    <!-- Generator: Sketch 46.2 (44496) - http://www.bohemiancoding.com/sketch -->
    <title>icon_estudiantes</title>
    <desc>Created with Sketch.</desc>
    <defs>
        <circle id="path-1" cx="45" cy="45" r="45"></circle>
    </defs>
    <g id="DESIGN" stroke="none" stroke-width="1" fill="none" fill-rule="evenodd">
        <g id="CONTACTO_SELEC_PERFIL" transform="translate(-446.000000, -645.000000)">
            <g id="PERFILES" transform="translate(412.000000, 649.000000)">
                <g id="estudiantes">
                    <g id="icon_estudiantes" transform="translate(38.000000, 0.000000)">
                        <mask id="mask-2" fill="white">
                            <use xlink:href="#path-1"></use>
                        </mask>
                        <circle stroke="#FAB200" stroke-width="4" cx="45" cy="45" r="47"></circle>
                        <path d="M59.0725051,65.2337788 C66.4489328,65.2337788 72.3214286,71.0959508 72.3214286,78.4594107 L72.3214286,88.3928571 C63.5412716,94.456242 54.6744234,97.4879344 45.7208841,97.4879344 C36.7673448,97.4879344 27.4199072,94.456242 17.6785714,88.3928571 L17.6785714,78.4594107 C17.6785714,71.0959508 23.6942988,65.2337788 30.9274949,65.2337788 L59.0725051,65.2337788 Z M44.9641921,40.6412526 L57.1388785,37.1382474 C59.0725051,39.640394 60.2899738,42.8574395 60.2899738,46.3604447 C60.2899738,54.7962532 53.4148568,61.5877938 45.0358079,61.5877938 C36.5851432,61.5877938 29.781642,54.7247633 29.781642,46.3604447 C29.781642,42.9289294 30.9274949,39.7118839 32.9327373,37.1382474 L44.9641921,40.6412526 Z M32.7895057,33.8497119 L25.2698465,35.6369594 L25.2698465,46.5749144 C25.7711571,46.7893841 26.1292361,47.3613034 26.1292361,47.9332226 L26.1292361,51.7936773 C26.1292361,52.6515561 25.4130781,53.3664551 24.5536884,53.3664551 L23.3362198,53.3664551 C22.4768302,53.3664551 21.7606722,52.6515561 21.7606722,51.7936773 L21.7606722,47.9332226 C21.7606722,47.3613034 22.1187512,46.860874 22.6200618,46.5749144 L22.6200618,34.5646109 C22.6200618,33.9212018 23.0497566,33.3492826 23.6942988,33.2063028 L27.4899363,32.2769341 L17.6785714,29.4888279 L44.9641921,21.6964286 L71.820118,29.4888279 L44.7493447,37.2812272 L32.7895057,33.8497119 Z" id="Combined-Shape" fill="#FAB200" fill-rule="nonzero" mask="url(#mask-2)"></path>
                    </g>
                </g>
            </g>
        </g>
    </g>
</svg>