<?xml version="1.0" encoding="UTF-8"?>
<svg width="24px" height="24px" viewBox="0 0 24 24" version="1.1" xmlns="http://www.w3.org/2000/svg" xmlns:xlink="http://www.w3.org/1999/xlink">
    <!-- Generator: Sketch 46.2 (44496) - http://www.bohemiancoding.com/sketch -->
    <title>icon_skills_listening</title>
    <desc>Created with Sketch.</desc>
    <defs></defs>
    <g id="Symbols" stroke="none" stroke-width="1" fill="none" fill-rule="evenodd">
        <g id="icon_skills_listening" fill-rule="nonzero" fill="#FFFFFF">
            <path d="M12,4 C16.418278,4 20,7.581722 20,12 C21.7178097,12.159838 23.0076255,13.5965346 23.0076255,15.3471184 L23.0076255,16.6528816 C23.0076255,18.501444 21.5090696,20 19.6605071,20 L17,20 L17,12 L18,12 C18,8.6862915 15.3137085,6 12,6 C8.6862915,6 6,8.6862915 6,12 L7.06172076,12 L7.06172076,20 L4.3471184,20 C2.49855595,20 1,18.501444 1,16.6528816 L1,15.3471184 C1,13.6157668 2.31454432,12.1914436 4,12.0177815 C4,7.581722 7.581722,4 12,4 Z M19.6605071,14 L19.0503388,14 L19.0503388,18 L19.6605071,18 C20.4045001,18 21.0076255,17.3968745 21.0076255,16.6528816 L21.0076255,15.3471184 C21.0076255,14.6031255 20.4045001,14 19.6605071,14 Z M4.3471184,14 C3.60312545,14 3,14.6031255 3,15.3471184 L3,16.6528816 C3,17.3968745 3.60312545,18 4.3471184,18 L5.01138201,18 L5.01138201,14 L4.3471184,14 Z" id="Combined-Shape"></path>
        </g>
    </g>
</svg>