<?xml version="1.0" encoding="UTF-8"?>
<svg width="48px" height="48px" viewBox="0 0 48 48" version="1.1" xmlns="http://www.w3.org/2000/svg" xmlns:xlink="http://www.w3.org/1999/xlink">
    <!-- Generator: Sketch 46.2 (44496) - http://www.bohemiancoding.com/sketch -->
    <title>icon_cards_newapp</title>
    <desc>Created with Sketch.</desc>
    <defs></defs>
    <g id="Symbols" stroke="none" stroke-width="1" fill="none" fill-rule="evenodd">
        <g id="icon_cards_newapp">
            <circle id="Oval" fill="#FFD101" cx="24" cy="24" r="24"></circle>
            <path d="M30,24 L18,24 L18,8 L30,8 L30,24 Z M25,28 C25,28.5525424 24.5499154,29 24,29 C23.4500846,29 23,28.5525424 23,28 C23,27.4474576 23.4500846,27 24,27 C24.5499154,27 25,27.4474576 25,28 Z M30,30 L18,30 L18,26 L30,26 L30,30 Z M18,6 C16.9532143,6 16,6.9366682 16,8 L16,30 C16,31.0633318 16.9532143,32 18,32 L30,32 C31.0467857,32 32,31.0633318 32,30 L32,8 C32,6.9366682 31.0467857,6 30,6 L18,6 Z" id="9H" fill="#1A1919"></path>
        </g>
    </g>
</svg>