<?xml version="1.0" encoding="UTF-8"?>
<svg width="240px" height="239px" viewBox="0 0 240 239" version="1.1" xmlns="http://www.w3.org/2000/svg" xmlns:xlink="http://www.w3.org/1999/xlink">
    <!-- Generator: Sketch 46.2 (44496) - http://www.bohemiancoding.com/sketch -->
    <title>icon_comofunciona_dcha</title>
    <desc>Created with Sketch.</desc>
    <defs>
        <path d="M10.3175,35.303 L8.6975,40.163 L5.831,38.252 C5.5835,38.087 5.294,38 5,38 C4.8785,38 4.7555,38.015 4.6355,38.045 L1.406,38.8535 L4.118,31.616 C4.16,31.6535 4.208,31.685 4.25,31.7225 C4.583,32.0105 4.9265,32.2835 5.279,32.549 C5.417,32.6525 5.5535,32.759 5.693,32.8595 C6.0515,33.116 6.422,33.356 6.797,33.5885 C6.9365,33.674 7.0745,33.761 7.217,33.8435 C7.6145,34.0745 8.021,34.289 8.435,34.493 C8.5595,34.5545 8.6825,34.6145 8.8085,34.673 C9.2525,34.88 9.7055,35.0675 10.1675,35.2415 C10.2185,35.2595 10.2665,35.285 10.3175,35.303 Z M12.611,32.8895 C11.1095,32.4755 9.6875,31.8485 8.3765,31.0415 C8.3225,31.0085 8.267,30.977 8.2145,30.9425 C6.929,30.131 5.7575,29.1395 4.7255,27.989 C4.3115,27.527 3.9215,27.0455 3.56,26.54 C3.371,26.2745 3.194,26.003 3.023,25.73 C2.9405,25.5995 2.861,25.4675 2.7815,25.334 C2.627,25.073 2.4785,24.809 2.339,24.5405 C2.249,24.365 2.165,24.185 2.081,24.005 C1.9655,23.762 1.847,23.5205 1.7435,23.2715 C1.5725,22.859 1.418,22.439 1.2815,22.01 C1.229,21.845 1.1885,21.6755 1.1405,21.5075 C1.1045,21.38 1.0745,21.251 1.0415,21.122 C0.8705,20.4575 0.7445,19.7945 0.6545,19.1375 C0.6485,19.091 0.6395,19.0475 0.6335,19.001 C0.6335,18.9995 0.6335,18.998 0.6335,18.9965 C0.5465,18.323 0.5,17.6555 0.5,17 C0.5,7.9025 7.9025,0.5 17,0.5 C26.0975,0.5 33.5,7.9025 33.5,17 C33.5,17.6555 33.4535,18.323 33.3665,18.9965 C33.3665,18.9965 33.3665,18.998 33.3665,18.9995 C33.3605,19.046 33.3515,19.091 33.3455,19.1375 C33.2555,19.7945 33.1295,20.4575 32.9585,21.122 C32.9255,21.251 32.8955,21.3815 32.858,21.509 C32.81,21.6755 32.771,21.845 32.717,22.01 C32.5805,22.439 32.4245,22.859 32.2535,23.273 C32.1515,23.5205 32.033,23.762 31.9175,24.0035 C31.8335,24.1835 31.7495,24.3635 31.6595,24.539 C31.52,24.806 31.3715,25.07 31.2185,25.331 C31.139,25.466 31.058,25.598 30.9755,25.73 C30.8045,26.003 30.6275,26.2745 30.4385,26.5385 C30.0785,27.0455 29.687,27.527 29.273,27.989 C28.2425,29.1395 27.0695,30.131 25.784,30.9425 C25.73,30.977 25.676,31.0085 25.622,31.0415 C24.3095,31.8485 22.889,32.4755 21.3875,32.8895 C19.988,33.2765 18.521,33.5 17,33.5 C15.479,33.5 14.012,33.2765 12.611,32.8895 Z M29.3645,38.045 C28.9565,37.9445 28.52,38.018 28.169,38.252 L25.3025,40.163 L23.6825,35.303 C23.7335,35.285 23.7815,35.2595 23.8325,35.24 C24.2945,35.066 24.7475,34.8785 25.1915,34.6715 C25.3175,34.613 25.4405,34.553 25.565,34.4915 C25.979,34.2875 26.3855,34.073 26.783,33.842 C26.924,33.7595 27.0635,33.6725 27.203,33.587 C27.5795,33.3545 27.9485,33.1145 28.307,32.858 C28.448,32.7575 28.5845,32.6525 28.721,32.5475 C29.072,32.282 29.417,32.009 29.75,31.721 C29.7935,31.6835 29.84,31.652 29.882,31.6145 L32.594,38.852 L29.3645,38.045 Z" id="path-1"></path>
    </defs>
    <g id="DESIGN" stroke="none" stroke-width="1" fill="none" fill-rule="evenodd">
        <g id="index" transform="translate(-989.000000, -1042.000000)">
            <g id="COMO-FUNCIONA" transform="translate(177.000000, 859.000000)">
                <g id="icon_comofunciona_dcha" transform="translate(812.000000, 183.000000)">
                    <ellipse id="Path" fill="#F2F1F0" cx="120" cy="119.5" rx="120" ry="119.5"></ellipse>
                    <g id="Unknown-6" transform="translate(75.000000, 75.000000)" fill-rule="nonzero" fill="#9B9B9B">
                        <path d="M1.5,75 L29.661,75 C29.7135,75.0675 29.7615,75.1395 29.8155,75.207 L60.1845,75.2085 C60.2385,75.141 60.2865,75.069 60.339,75.0015 L88.5,75.0015 C89.328,75.0015 90,74.3295 90,73.5015 L90,1.5 C90,0.672 89.328,0 88.5,0 L1.5,0 C0.672,0 0,0.672 0,1.5 L0,73.5 C0,74.328 0.672,75 1.5,75 Z M64.2855,65.751 C64.3125,65.565 64.347,65.3805 64.368,65.193 C64.386,65.0265 64.3995,64.86 64.4145,64.692 C64.467,64.1235 64.5,63.5595 64.5,63 C64.5,52.248 55.752,43.5 45,43.5 C34.248,43.5 25.5,52.248 25.5,63 C25.5,63.5595 25.533,64.1235 25.5855,64.692 C25.6005,64.86 25.6125,65.0265 25.632,65.193 C25.653,65.3805 25.6875,65.565 25.7145,65.751 C25.7265,65.835 25.731,65.9175 25.7445,66 L16.374,66 C15.741,62.2365 12.762,59.259 8.9985,58.6245 L8.9985,16.3755 C12.762,15.7425 15.7395,12.7635 16.374,9 L73.6245,9 C74.2575,12.7635 77.2365,15.741 81,16.3755 L81,58.626 C77.2365,59.259 74.259,62.238 73.6245,66.0015 L64.254,66.0015 C64.269,65.916 64.2735,65.8335 64.2855,65.751 Z M40.611,78.8895 C39.1095,78.4755 37.6875,77.8485 36.3765,77.0415 C36.3225,77.0085 36.267,76.977 36.2145,76.9425 C34.929,76.131 33.7575,75.1395 32.7255,73.989 C32.3115,73.527 31.9215,73.0455 31.56,72.54 C31.371,72.2745 31.194,72.003 31.023,71.73 C30.9405,71.5995 30.861,71.4675 30.7815,71.334 C30.627,71.073 30.4785,70.809 30.339,70.5405 C30.249,70.365 30.165,70.185 30.081,70.005 C29.9655,69.762 29.847,69.5205 29.7435,69.2715 C29.5725,68.859 29.418,68.439 29.2815,68.01 C29.229,67.845 29.1885,67.6755 29.1405,67.5075 C29.1045,67.38 29.0745,67.251 29.0415,67.122 C28.8705,66.4575 28.7445,65.7945 28.6545,65.1375 C28.6485,65.091 28.6395,65.0475 28.6335,65.001 C28.5465,64.323 28.5,63.6555 28.5,63 C28.5,53.9025 35.9025,46.5 45,46.5 C54.0975,46.5 61.5,53.9025 61.5,63 C61.5,63.6555 61.4535,64.323 61.3665,64.9965 C61.3605,65.046 61.3515,65.091 61.3455,65.1375 C61.2555,65.7945 61.1295,66.4575 60.9585,67.122 C60.9255,67.251 60.8955,67.3815 60.858,67.509 C60.81,67.6755 60.771,67.845 60.717,68.01 C60.5805,68.439 60.4245,68.859 60.2535,69.273 C60.1515,69.5205 60.033,69.762 59.9175,70.0035 C59.8335,70.1835 59.7495,70.3635 59.6595,70.539 C59.52,70.806 59.3715,71.07 59.2185,71.331 C59.139,71.466 59.058,71.598 58.9755,71.73 C58.8045,72.003 58.6275,72.2745 58.4385,72.5385 C58.0785,73.0455 57.687,73.527 57.273,73.989 C56.2425,75.1395 55.0695,76.131 53.784,76.9425 C53.73,76.977 53.676,77.0085 53.622,77.0415 C52.3095,77.8485 50.889,78.4755 49.3875,78.8895 C47.988,79.2765 46.521,79.5 45,79.5 C43.479,79.5 42.012,79.2765 40.611,78.8895 Z M3,3 L87,3 L87,72 L62.2875,72 C62.3175,71.943 62.337,71.8815 62.367,71.8245 C62.652,71.265 62.91,70.692 63.1425,70.1025 C63.219,69.9075 63.288,69.7125 63.357,69.516 C63.4185,69.3435 63.489,69.1755 63.546,69 L75,69 C75.828,69 76.5,68.328 76.5,67.5 C76.5,64.191 79.191,61.5 82.5,61.5 C83.328,61.5 84,60.828 84,60 L84,15 C84,14.172 83.328,13.5 82.5,13.5 C79.191,13.5 76.5,10.809 76.5,7.5 C76.5,6.672 75.828,6 75,6 L15,6 C14.172,6 13.5,6.672 13.5,7.5 C13.5,10.809 10.809,13.5 7.5,13.5 C6.672,13.5 6,14.172 6,15 L6,60 C6,60.828 6.672,61.5 7.5,61.5 C10.809,61.5 13.5,64.191 13.5,67.5 C13.5,68.328 14.172,69 15,69 L26.454,69 C26.511,69.1755 26.5815,69.3435 26.643,69.516 C26.7135,69.7125 26.781,69.909 26.8575,70.1025 C27.0885,70.6905 27.3465,71.265 27.633,71.8245 C27.663,71.8815 27.6825,71.943 27.7125,72 L3,72 L3,3 Z" id="Shape"></path>
                        <rect id="Rectangle-path" x="36" y="18" width="18" height="3"></rect>
                        <rect id="Rectangle-path" x="30" y="25.5" width="30" height="3"></rect>
                        <rect id="Rectangle-path" x="24" y="33" width="42" height="3"></rect>
                        <rect id="Rectangle-path" x="64.5" y="48" width="12" height="3"></rect>
                        <rect id="Rectangle-path" x="13.5" y="48" width="12" height="3"></rect>
                    </g>
                    <g id="Unknown-6-Copy" transform="translate(103.000000, 121.000000)" fill-rule="nonzero">
                        <g id="Shape">
                            <use fill="#00A4A1" fill-rule="evenodd" xlink:href="#path-1"></use>
                            <path stroke="#F2F1F0" stroke-width="4" d="M2.96383668,33.2539659 C2.96493959,33.2548014 2.96603967,33.2556336 2.96713691,33.2564627 C2.98102709,33.267705 2.95014111,33.2431009 2.91796846,33.2143753 C2.93326254,33.2276161 2.94855104,33.2408121 2.96383668,33.2539659 Z M9.44633544,37.1070293 C9.45175047,37.109073 9.45716866,37.1111157 9.46259002,37.1131575 C9.46047082,37.1128728 9.42345152,37.0974249 9.4379526,37.1032889 C9.44072414,37.1045303 9.44351832,37.1057771 9.44633544,37.1070293 Z M4.90596563,40.0390113 L-1.80343375,41.7186983 L3.27044494,28.1780652 L5.41445734,30.092362 C5.46446595,30.1305372 5.51849638,30.1739249 5.55830387,30.2097737 C5.83803032,30.4516992 6.14120822,30.6945729 6.479,30.949 C6.5563979,31.0073072 6.5563979,31.0073072 6.6268332,31.0608423 C6.75074134,31.1550125 6.80302523,31.1942254 6.85676358,31.2329532 C7.14540307,31.4394694 7.46365296,31.6486143 7.84212412,31.8832975 C7.89886777,31.9181583 7.89886777,31.9181583 7.9519349,31.950915 C8.09248819,32.0376716 8.15167969,32.0736305 8.22190065,32.1142878 C8.56052565,32.3110737 8.92253024,32.503608 9.32077505,32.6998456 C9.45775044,32.7675082 9.55617241,32.8150838 9.65360037,32.8603209 C10.0344064,33.0378589 10.4377017,33.2061212 10.8331402,33.3555193 C10.9087837,33.382217 10.9733532,33.408683 11.0291212,33.4332479 L12.8363237,34.0710841 L9.76682395,43.2795835 L4.90596563,40.0390113 Z M-1.35063153,19.2479808 C-1.44940841,18.4818379 -1.5,17.7315761 -1.5,17 C-1.5,6.7979305 6.7979305,-1.5 17,-1.5 C27.2020695,-1.5 35.5,6.7979305 35.5,17 C35.5,17.7320501 35.4493428,18.4828101 35.3504395,19.24947 L35.3500557,19.2554427 C35.3372483,19.3463238 35.3372483,19.3463238 35.3296553,19.3920501 C35.3259983,19.4149488 35.3259983,19.4149488 35.3269948,19.4089376 C35.2237688,20.1624875 35.0810867,20.8988439 34.8961054,21.6176665 C34.8849686,21.6616245 34.8849686,21.6616245 34.8717962,21.7146652 L34.8671286,21.7334651 C34.8306128,21.8804744 34.8082349,21.9662194 34.7797358,22.0630139 C34.7697732,22.0975716 34.7626067,22.1239501 34.7392699,22.2114991 L34.7358832,22.2242245 C34.6881581,22.4035144 34.6602569,22.502331 34.6228516,22.6164073 C34.4732993,23.0864288 34.3000843,23.5570031 34.102624,24.0350632 C34.0113687,24.2564916 33.9331691,24.4257916 33.7740733,24.7573173 C33.7473717,24.8129481 33.7473717,24.8129481 33.7298663,24.8492709 C33.5933435,25.1418196 33.5292584,25.2758926 33.4321367,25.4651529 C33.2846588,25.7474224 33.1241831,26.0348903 32.941876,26.345877 C32.8588176,26.4869195 32.772294,26.628722 32.6704494,26.7916716 C32.4567952,27.1327687 32.2642665,27.4239885 32.0692204,27.696408 C31.6765553,28.2494113 31.2422835,28.7882766 30.7627712,29.3233844 C29.6110239,30.6092508 28.2965396,31.7215718 26.8607786,32.6278925 C26.8108172,32.6598123 26.769183,32.6852554 26.7073239,32.7224176 C26.6822711,32.7375001 26.6822711,32.7375001 26.669543,32.7452176 C25.1829006,33.6592903 23.5875281,34.3575303 21.9205496,34.8171561 C20.2973547,35.2660139 18.6548226,35.5 17,35.5 C15.3454877,35.5 13.7032573,35.2661168 12.0784806,34.8173027 L12.0793889,34.8175533 C10.4093714,34.357089 8.8122177,33.6582548 7.33359998,32.7480637 C7.3219701,32.7410104 7.3219701,32.7410104 7.29781399,32.726594 C7.23091805,32.6868896 7.17782136,32.6544416 7.14688528,32.6337122 C5.70428148,31.723037 4.39124249,30.6115814 3.23602963,29.3237202 C2.76413353,28.7971115 2.33029315,28.2586809 1.93066922,27.6998626 C1.73176877,27.4204548 1.53920024,27.1287701 1.33248408,26.798717 C1.24843281,26.6657631 1.16886813,26.5348904 1.06043512,26.3527913 C0.879409711,26.0469814 0.715343395,25.7534109 0.559365074,25.4531333 C0.469241619,25.2773926 0.405156451,25.1433196 0.26863372,24.8507709 L0.274661116,24.8635685 C0.247233027,24.8059653 0.247233027,24.8059653 0.218531931,24.7459024 C0.058642568,24.4113064 -0.0137547284,24.2546059 -0.104042197,24.0373902 C-0.298719692,23.5677735 -0.472178236,23.0946663 -0.62435156,22.6164073 C-0.663717018,22.4926873 -0.689512678,22.4008448 -0.738103941,22.2196146 C-0.747114733,22.1860012 -0.747114733,22.1860012 -0.755438082,22.1550994 C-0.770038802,22.1013184 -0.770038802,22.1013184 -0.784247581,22.0509581 C-0.811934936,21.9528988 -0.830988025,21.8788034 -0.867187954,21.733061 C-0.882726375,21.6704945 -0.882726375,21.6704945 -0.895395443,21.6204336 C-1.08108669,20.8988439 -1.22376878,20.1624875 -1.32905573,19.3934427 C-1.32537108,19.4192072 -1.32537108,19.4192072 -1.32878785,19.398048 C-1.33662108,19.3517072 -1.33662108,19.3517072 -1.35005573,19.2569427 L-1.35063153,19.2479808 Z M24.5735702,37.0979952 C24.5735886,37.0979869 24.573607,37.0979786 24.5736255,37.0979703 L24.5829023,37.0938193 C24.5976248,37.0875016 24.5976248,37.0875016 24.5467749,37.1081037 C24.5557128,37.1047379 24.5646446,37.1013684 24.5735702,37.0979952 Z M29.0941432,40.0389387 L24.2331761,43.2795835 L21.1636763,34.0710841 L22.9669615,33.4346305 C23.0022728,33.4187563 23.0171194,33.4127837 23.12759,33.3683425 C23.5622983,33.2046212 23.9655936,33.0363589 24.3492774,32.8574821 C24.4438276,32.8135838 24.5422496,32.7660082 24.6809881,32.6974758 C25.0774698,32.502108 25.4394744,32.3095737 25.7729752,32.1157758 C25.8454965,32.0733432 25.9133254,32.0321715 26.050412,31.9478388 C26.1028752,31.9155569 26.1028752,31.9155569 26.1534436,31.884522 L26.1521586,31.8853149 C26.5266434,31.6540593 26.8485491,31.4422965 27.1461631,31.2293632 C27.237306,31.1643997 27.3160523,31.1049645 27.5144661,30.9524213 C27.8680742,30.6849485 28.1686406,30.4444298 28.4441208,30.2061801 C28.5305266,30.1340415 28.5305266,30.1340415 28.578514,30.0968966 C28.5797006,30.0959786 28.5807255,30.0951857 28.5816261,30.0944891 L30.7295551,28.1765652 L35.8027243,41.715305 L29.0941432,40.0389387 Z"></path>
                        </g>
                        <path d="M30.5,17 C30.5,16.172 29.828,15.5 29,15.5 C22.7195,15.5 18.5,20.3225 18.5,27.5 C18.5,28.328 19.172,29 20,29 C26.183,29 30.5,24.065 30.5,17 Z M27.3935,18.65 C26.9495,22.04 25.1015,25.1225 21.605,25.8425 C22.0205,22.598 23.711,19.373 27.3935,18.65 Z" id="Shape" fill="#F2F1F0"></path>
                        <path d="M5,15.5 C4.172,15.5 3.5,16.172 3.5,17 C3.5,24.065 7.817,29 14,29 C14.828,29 15.5,28.328 15.5,27.5 C15.5,20.3225 11.2805,15.5 5,15.5 Z M6.6065,18.65 C10.289,19.373 11.9795,22.598 12.395,25.8425 C8.8985,25.1225 7.052,22.04 6.6065,18.65 Z" id="Shape" fill="#F2F1F0"></path>
                        <path d="M23,11 C23,6.9515 18.305,4.031 17.7695,3.713 C17.2955,3.431 16.706,3.431 16.232,3.713 C15.695,4.031 11,6.9515 11,11 C11,15.0485 15.695,17.969 16.2305,18.287 C16.469,18.4295 16.7345,18.5 17,18.5 C17.2655,18.5 17.531,18.4295 17.7695,18.287 C18.305,17.969 23,15.0485 23,11 Z M16.9985,15.188 C15.782,14.282 14,12.6065 14,11 C14,9.4055 15.7865,7.7225 17.0015,6.812 C18.218,7.718 20,9.3935 20,11 C20,12.5945 18.2135,14.2775 16.9985,15.188 Z" id="Shape" fill="#F2F1F0"></path>
                    </g>
                </g>
            </g>
        </g>
    </g>
</svg>