<?xml version="1.0" encoding="UTF-8"?>
<svg width="24px" height="24px" viewBox="0 0 24 24" version="1.1" xmlns="http://www.w3.org/2000/svg" xmlns:xlink="http://www.w3.org/1999/xlink">
    <!-- Generator: Sketch 46.2 (44496) - http://www.bohemiancoding.com/sketch -->
    <title>icon_skills_speaking</title>
    <desc>Created with Sketch.</desc>
    <defs></defs>
    <g id="Symbols" stroke="none" stroke-width="1" fill="none" fill-rule="evenodd">
        <g id="icon_skills_speaking" stroke="#FFFFFF" stroke-width="2">
            <path d="M14.9893614,9.18266281 C14.7950734,6.29276936 11.9639714,4 8.5,4 C4.91014913,4 2,6.46243388 2,9.5 C2,10.6566853 2.42198224,11.7299743 3.14278936,12.6156569 C2.64355469,14.1447754 2.20117188,16.376709 3.99520133,18.0721711 C5.20092773,16.4304199 5.7064209,14.7095947 8.5,15 C9.41282928,15 10.28171,14.8407825 11.0699704,14.5533773 C11.0239431,14.3033601 11,14.0464255 11,13.7840237 C11,11.5724646 12.700765,9.74925619 14.9893614,9.18266281 Z" id="Oval"></path>
            <path d="M16.5,18.3076923 C19.5375661,18.3076923 22,16.2240944 22,13.6538462 C22,11.0835979 19.5375661,9 16.5,9 C13.4624339,9 11,11.0835979 11,13.6538462 C11,14.6325798 11.3570619,15.5407475 11.9669756,16.2901712 C11.5445463,17.5840407 11.1702224,19.4725999 12.6882473,20.9072217 C13.7084773,19.5180476 14.1362023,18.0619648 16.5,18.3076923 Z" id="Oval" transform="translate(16.500000, 14.953611) scale(-1, 1) translate(-16.500000, -14.953611) "></path>
        </g>
    </g>
</svg>