<svg xmlns="http://www.w3.org/2000/svg" width="240" height="240" viewBox="0 0 240 240"><g fill="none" fill-rule="evenodd"><path fill="#009FE3" d="M0 120L60 120 60 60 0 60z"/><path fill="#009FE3" d="M120 240L180 240 180 180 120 180z"/><path fill="#E5007D" d="M120 30c0 16.569-13.431 30-30 30-16.569 0-30-13.431-30-30C60 13.431 73.431 0 90 0c16.569 0 30 13.431 30 30z"/><path fill="#009FE3" d="M210 120L240 90 210 60 180 90z"/><path fill="#FAB200" d="M239.853 120c-51.782.018-82.428 9.594-135.678 32.469C58.425 172.125 36.368 179.175 0 180v60c47.271-.938 77.468-10.66 128.043-32.388C176.967 186.594 198.792 180 240 180v-60h-.147z"/><path fill="#E94A34" d="M60 180L180 180 180 60 60 60z"/><g stroke-width="2" transform="translate(90 89)"><rect width="47" height="6" x="1" y="1" stroke="#FFF" rx="2"/><rect width="58" height="6" x="1" y="12" stroke="#FAB200" rx="2"/><rect width="51" height="6" x="1" y="23" stroke="#FAB200" rx="2"/><rect width="43" height="6" x="1" y="34" stroke="#FFF" rx="2"/><rect width="54" height="6" x="1" y="45" stroke="#FAB200" rx="2"/><rect width="49" height="6" x="1" y="56" stroke="#FFF" rx="2"/></g></g></svg>