<?xml version="1.0" encoding="UTF-8"?>
<svg width="98px" height="98px" viewBox="0 0 98 98" version="1.1" xmlns="http://www.w3.org/2000/svg" xmlns:xlink="http://www.w3.org/1999/xlink">
    <!-- Generator: Sketch 46.2 (44496) - http://www.bohemiancoding.com/sketch -->
    <title>profes</title>
    <desc>Created with Sketch.</desc>
    <defs>
        <circle id="path-1" cx="45" cy="45" r="45"></circle>
    </defs>
    <g id="DESIGN" stroke="none" stroke-width="1" fill="none" fill-rule="evenodd">
        <g id="HOMEPAGE" transform="translate(-1053.000000, -630.000000)">
            <g id="FILTER" transform="translate(150.000000, 608.000000)">
                <g id="profes" transform="translate(907.000000, 26.000000)">
                    <g id="icon_profesores">
                        <mask id="mask-2" fill="white">
                            <use xlink:href="#path-1"></use>
                        </mask>
                        <circle stroke="#FFFFFF" stroke-width="4" cx="45" cy="45" r="47"></circle>
                        <g id="teacher" mask="url(#mask-2)" fill="#FFFFFF">
                            <g transform="translate(-19.482143, 8.642857)">
                                <path d="M87.4821429,16.4322054 L87.4821429,6.05954257 C87.4821429,2.91019417 84.9290915,0.357142857 81.7797431,0.357142857 L6.18454257,0.357142857 L6.18454257,0.357142857 C3.03519417,0.357142857 0.482142857,2.91019417 0.482142857,6.05954257 L0.482142857,6.05954257 L0.482142857,52.6547431 C0.482142857,55.8040915 3.03519417,58.3571429 6.18454257,58.3571429 L6.18454257,58.3571429 L43.1379144,58.3571429 L42.7148521,57.89367 C40.1559124,55.6937822 39.3225007,52.159256 40.4591622,49.1511085 L33.8156108,29.4304852 C33.0580514,26.7989533 34.2203333,24.2251418 36.4132219,23.1154828 C36.8951186,22.8331309 37.3956661,22.6760189 37.9097113,22.5904873 C38.114579,22.5563995 38.3037388,22.5383186 38.4899086,22.5298704 C38.6812002,22.5240123 38.6812002,22.5240123 38.7582335,22.5242608 C40.8578179,22.5242608 42.8163694,23.7894501 43.6232322,25.8032505 L49.8291375,44.2005633 C50.7770708,44.4210796 51.681018,44.8186318 52.504088,45.4055607 L52.7018127,45.5465575 L61.0651902,53.1943831 L67.8604555,44.2176305 C68.5105201,43.2803493 69.3210666,42.5483178 70.2788109,41.9901005 C70.8159624,41.5594154 71.4005627,41.1868374 72.0197689,40.8794369 C69.6232251,38.2187524 68.1646707,34.6982209 68.1646707,30.8368706 C68.1646707,22.5394459 74.8995667,15.8157567 83.2041542,15.8157567 C84.6902855,15.8157567 86.1261487,16.0310775 87.4821429,16.4322054 Z" id="Rectangle-3" fill-rule="evenodd" opacity="0.699999988"></path>
                                <path d="M83.2041542,41.8579845 C89.3010926,41.8579845 94.2436377,36.9236637 94.2436377,30.8368706 C94.2436377,24.7500775 89.3010926,19.8157567 83.2041542,19.8157567 C77.1072158,19.8157567 72.1646707,24.7500775 72.1646707,30.8368706 C72.1646707,36.9236637 77.1072158,41.8579845 83.2041542,41.8579845 Z M106.723054,60.8334675 C108.450973,62.8460187 108.162987,65.9127635 106.243076,67.6378074 L96.0675524,76.0713554 L96.0675524,76.3588627 C96.0675524,77.7005635 95.0116018,78.754757 93.6676647,78.754757 L70.532747,84.9249586 L70.532747,60.2584529 L66.6929266,65.2419131 C65.3489895,67.2544643 63.0450973,68.4044936 60.6452096,68.4044936 C60.165232,68.4044936 59.589259,68.3086578 59.0132859,68.212822 C57.9573353,68.0211505 57.0933757,67.5419716 56.3254117,66.8711212 L45.4779192,54.9874854 C43.75,53.6457845 43.4620135,51.1540544 44.8059506,49.5248463 L37.6062874,28.153469 C37.4142964,27.4826186 37.7982784,26.8117681 38.3742515,26.6200966 C38.470247,26.5242608 38.662238,26.5242608 38.7582335,26.5242608 C39.2382111,26.5242608 39.7181886,26.8117681 39.9101796,27.290947 L46.9178518,48.0873097 C47.3018338,47.9914739 47.5898204,47.9914739 47.9738024,47.9914739 C48.7417665,47.9914739 49.5097305,48.1831455 50.1816991,48.6623244 L61.6051647,59.1084236 L71.1087201,46.5539374 C71.4927021,45.9789227 71.9726796,45.5955796 72.5486527,45.3080723 C73.5086078,44.4455504 74.8525449,43.8705357 76.2924775,43.8705357 L90.1158308,43.8705357 C91.3637725,43.8705357 92.5157186,44.2538788 93.4756737,44.9247292 C94.3396332,45.2122365 95.0116018,45.6914154 95.5875749,46.4581016 L105.475112,59.3000951 L106.723054,60.8334675 Z M95.9715569,65.7210919 L98.7554266,63.4210334 L95.9715569,59.8751098 L95.9715569,65.7210919 Z" id="Combined-Shape" fill-opacity="0.699999988" fill-rule="nonzero"></path>
                            </g>
                        </g>
                    </g>
                </g>
            </g>
        </g>
    </g>
</svg>