<?xml version="1.0" encoding="UTF-8"?>
<svg width="32px" height="32px" viewBox="0 0 32 32" version="1.1" xmlns="http://www.w3.org/2000/svg" xmlns:xlink="http://www.w3.org/1999/xlink">
    <!-- Generator: Sketch 46.2 (44496) - http://www.bohemiancoding.com/sketch -->
    <title>icon_menu_recursosdigitales_activo</title>
    <desc>Created with Sketch.</desc>
    <defs></defs>
    <g id="Symbols" stroke="none" stroke-width="1" fill="none" fill-rule="evenodd">
        <g id="icon_menu_recursosdigitales_activo">
            <circle id="Oval" fill="#FFFFFF" fill-rule="nonzero" cx="13.0007291" cy="26.0075194" r="1.54689575"></circle>
            <path d="M28.2954196,11.0325997 L17.6841226,11.0325997 C17.2970956,11.0325997 16.9833482,11.3463471 16.9833482,11.7333741 L16.9833482,29.3057752 C16.9833482,29.6928022 17.2970956,30.0065496 17.6841226,30.0065496 L28.2954196,30.0065496 C28.6824466,30.0065496 28.996194,29.6928022 28.996194,29.3057752 L28.996194,11.7333741 C28.996194,11.3463471 28.6824466,11.0325997 28.2954196,11.0325997 Z" id="Shape" stroke="#FFFFFF" stroke-width="2" fill-rule="nonzero"></path>
            <rect id="Rectangle" fill="#FAB200" x="19" y="13" width="8" height="12"></rect>
            <circle id="Oval" fill="#FFFFFF" fill-rule="nonzero" transform="translate(22.989771, 27.007712) rotate(-45.000000) translate(-22.989771, -27.007712) " cx="22.9897711" cy="27.007712" r="1.11898481"></circle>
            <polygon id="Path" fill="#FF5427" points="5 23.0310806 15 23.0310806 15 9.03815116 21 9.03815116 21 4.0310806 5 4.0310806"></polygon>
            <path d="M23.0091513,9.00764356 L23.0091513,2.9980696 C23.0091513,2.44885678 22.5639263,2.00363183 22.0147135,2.00363183 L3.99358251,2.00363183 C3.4443697,2.00363183 2.99914474,2.44885678 2.99914474,2.9980696 L2.99914474,29.0035724 C2.99914474,29.5527852 3.4443697,29.9980102 3.99358251,29.9980102 L15.0130471,29.9980102" id="Shape" stroke="#FFFFFF" stroke-width="2" fill-rule="nonzero"></path>
        </g>
    </g>
</svg>