<?xml version="1.0" encoding="UTF-8"?>
<svg width="200px" height="200px" viewBox="0 0 200 200" version="1.1" xmlns="http://www.w3.org/2000/svg" xmlns:xlink="http://www.w3.org/1999/xlink">
    <!-- Generator: Sketch 46.2 (44496) - http://www.bohemiancoding.com/sketch -->
    <title>icon_comofunciona_dcha</title>
    <desc>Created with Sketch.</desc>
    <defs></defs>
    <g id="Symbols" stroke="none" stroke-width="1" fill="none" fill-rule="evenodd">
        <g id="icon_comofunciona_dcha">
            <g transform="translate(10.000000, 10.000000)">
                <circle id="Oval" stroke="#004C76" stroke-width="2" cx="90" cy="90" r="45"></circle>
                <g id="icon" transform="translate(68.000000, 70.000000)" fill-rule="nonzero">
                    <g id="Unknown-6">
                        <g id="Group" transform="translate(3.540230, 3.036145)" fill="#004C76">
                            <path d="M25.2065545,30.0072297 L33.0210177,30.0072297 L33.112928,29.6173826 C33.4853055,28.0379045 34.7226159,26.7967064 36.2704814,26.4530446 L36.6666675,26.3650822 L36.6666675,3.75869926 L36.2297059,3.69867877 C34.7701133,3.4981909 33.4999774,2.18612008 33.1129714,0.541839464 L33.0211717,0.151807989 L3.89852406,0.151807989 L3.80661378,0.541655101 C3.41876591,2.18675255 2.14896765,3.49884113 0.690033593,3.69865165 L0.252874347,3.75852345 L0.252874347,26.3650822 L0.64906042,26.4530446 C2.1975591,26.796847 3.43498585,28.0378099 3.80656005,29.6171544 L3.8983335,30.0072297 L12.7244816,30.0072297 C12.7805493,29.6596569 12.8650114,29.3214855 12.9754033,28.9951815 L4.68350554,28.9951815 C4.16424077,27.3596881 2.8799285,26.0700011 1.2643686,25.5701227 L1.2643686,4.61615783 C2.84809058,4.21454721 4.15370349,2.85717986 4.6842036,1.16385618 L32.2352204,1.16385618 C32.7651449,2.85667043 34.0710906,4.21394324 35.6551732,4.61602821 L35.6551732,25.5701367 C34.0401298,26.0699688 32.7560519,27.3597871 32.2361968,28.9951815 L24.9556327,28.9951815 C25.0660247,29.3214855 25.1504868,29.6596569 25.2065545,30.0072297 Z" id="Path"></path>
                        </g>
                        <path d="M28.4965908,36.0713087 C28.9366141,36.0710145 29.1579667,36.0708449 29.1606487,36.0707996 C29.3015138,36.0684247 29.511623,36.0664145 29.7897108,36.0648009 C30.3503529,36.0615476 31.1839637,36.0599176 32.2898456,36.0599176 C34.5039826,36.0599176 37.8078042,36.0664496 42.2009437,36.0795144 C42.9959238,36.0489852 43.7471272,35.3128581 43.7471272,34.5458766 L43.7471272,1.68545025 C43.7471272,0.90329337 42.980251,0.151807989 42.2039501,0.151807989 L1.79605148,0.151807989 C1.01975053,0.151807989 0.252874347,0.90329337 0.252874347,1.68545025 L0.252874347,34.5458766 C0.252874347,35.3128581 1.00407774,36.0489852 1.79605148,36.0795188 L14.4913749,36.0795188 C14.6031356,36.0911652 14.6938096,36.0864899 14.9132069,36.0795188 C15.4637001,36.0791937 15.9982408,36.0788777 16.5168291,36.0785707 C16.5052481,36.04432 16.4939853,36.0099901 16.4830414,35.975576 C16.4681062,35.9286113 16.458747,35.8952707 16.4416649,35.8315246 C16.4320243,35.7957918 16.4320243,35.7957918 16.4281055,35.7819095 C16.4178004,35.7453925 16.4100675,35.7153034 16.3984191,35.6682543 C16.32787,35.3930345 16.2798736,35.1466426 16.2439358,34.8876594 C16.2410885,34.8708895 16.2410337,34.8705027 16.2351004,34.8285836 C16.201265,34.5647564 16.1839088,34.3073109 16.1839088,34.0554224 L15.1924542,34.0554224 C15.1155325,34.0444635 15.0390195,34.0412319 14.9567541,34.04201 C14.8850285,34.0426884 14.8336818,34.0458026 14.6352469,34.0554224 L2.27586285,34.0554224 L2.27586285,2.17590437 L41.7241387,2.17590437 L41.7241387,34.0548727 C32.3724234,34.0264397 29.7262612,34.0216095 28.9118782,34.0554224 L28.827587,34.0554224 C28.827587,34.3076681 28.8101768,34.5654799 28.7772717,34.8201072 C28.7715842,34.8626008 28.7715842,34.8626008 28.7683366,34.8825413 C28.733041,35.1393426 28.6845489,35.3894455 28.6217552,35.6335888 C28.6001017,35.7205722 28.5919059,35.7519933 28.5813844,35.787734 C28.5775706,35.8012968 28.5775706,35.8012968 28.5703844,35.8282438 C28.5522119,35.8965509 28.5418756,35.9331788 28.5279717,35.975576 C28.517821,36.0074956 28.5073608,36.0394011 28.4965908,36.0713087 Z" id="Shape" fill="#004C76"></path>
                        <rect id="Rectangle-path" fill="#E1523D" x="17.9540238" y="10.778314" width="8.09195402" height="1.01204819"></rect>
                        <rect id="Rectangle-path" fill="#E1523D" x="15.4252881" y="16.8506032" width="13.1494253" height="1.01204819"></rect>
                        <rect id="Rectangle-path" fill="#E1523D" x="12.8965525" y="13.8144586" width="18.2068966" height="1.01204819"></rect>
                        <polygon id="Rectangle-path" fill="#004C76" points="27.057472 24.4409646 32.1149433 24.4409646 32.1149433 25.4530128 27.057472 25.4530128"></polygon>
                        <polygon id="Rectangle-path" fill="#004C76" points="12.3908054 24.4409646 17.4482766 24.4409646 17.4482766 25.4530128 12.3908054 25.4530128"></polygon>
                    </g>
                    <g id="Unknown-6-Copy" transform="translate(15.307280, 28.323391)" fill="#E1523D">
                        <path d="M4.01655957,11.4751544 C3.99420554,11.4672395 3.97316646,11.4560267 3.95081244,11.4481118 C3.74831128,11.3716009 3.54975495,11.2891539 3.35514345,11.1981324 C3.29991586,11.1724089 3.24600321,11.1460259 3.1914331,11.1189832 C3.00997102,11.0292809 2.8317963,10.9349615 2.65756641,10.8333867 C2.59510664,10.79711 2.53461928,10.7588546 2.47347445,10.7212588 C2.30910663,10.6190244 2.14671122,10.5134922 1.98957558,10.4007047 C1.92843075,10.3565131 1.86860086,10.3096832 1.8081135,10.2641724 C1.65360775,10.1474274 1.50304682,10.0273845 1.3570882,9.90074588 C1.338679,9.88425647 1.31763992,9.87040537 1.29923072,9.85391597 L0.11052263,13.0363714 L1.52605832,12.6808598 C1.57865602,12.6676683 1.63256867,12.6610725 1.68582384,12.6610725 C1.81468821,12.6610725 1.94158017,12.699328 2.05006294,12.7718813 L3.30649057,13.6121815 L4.01655957,11.4751544 Z M5.785916,10.8486942 C6.23681256,10.9733141 6.70895049,11.0452845 7.19846773,11.0452845 C7.68798497,11.0452845 8.1601229,10.9733141 8.61053669,10.8486942 C9.09377807,10.7153798 9.55095049,10.5134762 9.97336428,10.2536098 C9.99074359,10.2429833 10.0081229,10.2328399 10.0255022,10.2217303 C10.4392263,9.96041488 10.8167436,9.64113668 11.1483988,9.27065804 C11.2816401,9.12188695 11.4076401,8.96683657 11.5235022,8.80357479 C11.5843298,8.71856275 11.6412953,8.63113558 11.6963298,8.5432254 C11.7228815,8.50071937 11.7489505,8.45821335 11.7745367,8.41474128 C11.8237781,8.33069528 11.8715712,8.24568323 11.9164677,8.15970513 C11.9454332,8.10319144 11.9724677,8.04522868 11.9995022,7.98726592 C12.0366746,7.90949922 12.0748126,7.83173252 12.1076401,7.75203372 C12.1626746,7.61871937 12.2128815,7.48347293 12.2568126,7.34532835 C12.2741919,7.29219582 12.2867436,7.23761423 12.3021919,7.18399867 C12.3142608,7.14294172 12.323916,7.10091872 12.3345367,7.05937874 C12.3895712,6.84539955 12.4301229,6.63190338 12.4590884,6.42033931 C12.4610195,6.40536559 12.463916,6.3908749 12.465847,6.37493515 C12.493847,6.15805782 12.5088126,5.94311258 12.5088126,5.73203153 C12.5088126,2.80249703 10.1263988,0.418778519 7.19846773,0.418778519 C4.27053669,0.418778519 1.8881229,2.80249703 1.8881229,5.73203153 C1.8881229,5.94311258 1.90308842,6.15805782 1.93108842,6.37638421 C1.93301945,6.39135793 1.935916,6.40536559 1.93784704,6.42033931 C1.96681256,6.63190338 2.00736428,6.84539955 2.06239876,7.05937874 C2.07301945,7.10091872 2.08267463,7.14245869 2.09426083,7.18351565 C2.10970911,7.23761423 2.12274359,7.29219582 2.13964014,7.34532835 C2.18357118,7.48347293 2.23329532,7.61871937 2.2883298,7.7515507 C2.32164014,7.83173252 2.35977807,7.90949922 2.39695049,7.98774895 C2.42398497,8.04571171 2.45101945,8.10367447 2.47998497,8.16018816 C2.52488152,8.24664927 2.57267463,8.33166132 2.62239876,8.41570732 C2.64798497,8.45869637 2.67357118,8.5012024 2.7001229,8.5432254 C2.75515738,8.63113558 2.8121229,8.71856275 2.87295049,8.80405782 C2.98929532,8.96683657 3.11481256,9.12188695 3.24805394,9.27065804 C3.58019187,9.64113668 3.95722635,9.96041488 4.37095049,10.2217303 C4.38784704,10.2328399 4.40570911,10.2429833 4.42308842,10.2536098 C4.84501945,10.5134762 5.30267463,10.7153798 5.785916,10.8486942 Z M12.36513,12.6808598 L13.7806657,13.0357119 L12.5919576,9.85325639 C12.5735484,9.8697458 12.5531668,9.8835969 12.5341001,9.9000863 C12.3881415,10.0267249 12.2369231,10.1467678 12.0830748,10.2635128 C12.0232449,10.3096832 11.9634151,10.3558535 11.9016128,10.4000451 C11.7444771,10.5128327 11.5827392,10.6183649 11.4177139,10.7205992 C11.3565691,10.758195 11.2954242,10.7964504 11.2336219,10.8327271 C11.059392,10.9343019 10.8812173,11.0286213 10.6997552,11.1183237 C10.6451851,11.1453663 10.5912725,11.1717493 10.5360449,11.1974728 C10.3414334,11.2884943 10.1428771,11.3709414 9.94037589,11.4474522 C9.91802187,11.4560267 9.89698279,11.4672395 9.87462876,11.4751544 L10.5846978,13.6121815 L11.8411254,12.7718813 C11.9949737,12.6689875 12.1862978,12.6366682 12.36513,12.6808598 Z" id="Shape"></path>
                    </g>
                </g>
            </g>
        </g>
    </g>
</svg>