<?xml version="1.0" encoding="UTF-8"?>
<svg width="240px" height="240px" viewBox="0 0 240 240" version="1.1" xmlns="http://www.w3.org/2000/svg" xmlns:xlink="http://www.w3.org/1999/xlink">
    <!-- Generator: Sketch 46.2 (44496) - http://www.bohemiancoding.com/sketch -->
    <title>icon_comofunciona_izda</title>
    <desc>Created with Sketch.</desc>
    <defs>
        <circle id="path-1" cx="120" cy="120" r="120"></circle>
    </defs>
    <g id="DESIGN" stroke="none" stroke-width="1" fill="none" fill-rule="evenodd">
        <g id="index" transform="translate(-221.000000, -1042.000000)">
            <g id="COMO-FUNCIONA" transform="translate(177.000000, 859.000000)">
                <g id="icon_comofunciona_izda" transform="translate(44.000000, 183.000000)">
                    <mask id="mask-2" fill="white">
                        <use xlink:href="#path-1"></use>
                    </mask>
                    <use id="Oval-2" fill="#F2F1F0" xlink:href="#path-1"></use>
                    <rect id="Rectangle-18-Copy-21" stroke="#9B9B9B" stroke-width="3" mask="url(#mask-2)" x="-123.5" y="82.5" width="297" height="75" rx="3"></rect>
                    <g id="search" mask="url(#mask-2)" fill="#00A4A1">
                        <g transform="translate(96.000000, 94.000000)">
                            <path d="M34.092365,31.0870932 L50.4206195,47.3793459 C51.212537,48.2270854 51.189915,49.5508374 50.369495,50.3709657 C49.5490749,51.1910941 48.2266737,51.2118869 47.3809278,50.4179566 L31.0548187,34.1278446 C27.7846944,36.7402342 23.6399836,38.3018156 19.1309265,38.3018156 C8.56520752,38.3018156 0,29.7276621 0,19.1509078 C0,8.57415348 8.56520752,2.84217094e-14 19.1309265,2.84217094e-14 L19.1309265,8.8899658e-14 C29.6966454,2.84217094e-14 38.2618529,8.57415348 38.2618529,19.1509078 C38.2618529,23.6646006 36.7019519,27.8135784 34.092365,31.0870932 Z M19.1309265,4.25575729 C10.9131451,4.25575729 4.25131699,10.9245433 4.25131699,19.1509078 C4.25131699,27.3772723 10.9131451,34.0460583 19.1309265,34.0460583 C27.3487078,34.0460583 34.0105359,27.3772723 34.0105359,19.1509078 C34.0105359,10.9245433 27.3487078,4.25575729 19.1309265,4.25575729 Z"></path>
                        </g>
                    </g>
                </g>
            </g>
        </g>
    </g>
</svg>