<?xml version="1.0" encoding="UTF-8"?>
<svg width="54px" height="44px" viewBox="0 0 54 44" version="1.1" xmlns="http://www.w3.org/2000/svg" xmlns:xlink="http://www.w3.org/1999/xlink">
    <!-- Generator: Sketch 46.2 (44496) - http://www.bohemiancoding.com/sketch -->
    <title>icon_twitter_big</title>
    <desc>Created with Sketch.</desc>
    <defs></defs>
    <g id="DESIGN" stroke="none" stroke-width="1" fill="none" fill-rule="evenodd">
        <g id="index" transform="translate(-986.000000, -3694.000000)" fill-rule="nonzero" fill="#FFFFFF">
            <g id="SOCIAL-MEDIA" transform="translate(0.000000, 3302.000000)">
                <g id="RRSS" transform="translate(0.000000, 181.000000)">
                    <g id="FB-IELTS" transform="translate(720.000000, 84.000000)">
                        <path d="M313.674286,133.708532 C316.095527,132.320803 317.899001,130.074721 318.722857,127.420942 C316.508596,128.690749 314.077355,129.54339 311.551429,129.935978 C309.277607,128.110463 306.462354,127.079036 303.54,127.000823 C297.383922,126.927371 292.310367,131.780912 292.151429,137.895528 C292.084841,138.755545 292.229972,139.61874 292.574286,140.410564 C283.693026,140.08584 275.387371,135.959905 269.797143,129.09574 C268.797898,130.748571 268.218377,132.618112 268.108571,134.543092 C268.205305,138.246561 270.089399,141.677661 273.171429,143.762999 C271.407839,143.74458 269.673404,143.313779 268.108571,142.505481 C268.136711,147.74685 271.814149,152.270273 276.965714,153.400186 C276.108571,153.400186 275.277143,153.820304 274.014286,153.820304 L271.905714,153.820304 C273.397279,158.344459 277.659824,161.39302 282.451429,161.362574 C278.380942,164.249809 273.53145,165.855839 268.531429,165.972527 L266,165.972527 C271.061374,169.13627 276.892997,170.873938 282.871429,170.999761 C291.270882,171.032358 299.335829,167.731911 305.275454,161.831282 C311.215078,155.930653 314.537765,147.91823 314.505714,139.573164 L314.505714,138.315646 C316.556884,136.420811 318.398735,134.313972 320,132.030895 C318.014968,132.976568 315.869606,133.545537 313.674286,133.708532 Z" id="icon_twitter_big"></path>
                    </g>
                </g>
            </g>
        </g>
    </g>
</svg>