<?xml version="1.0" encoding="UTF-8"?>
<svg width="200px" height="200px" viewBox="0 0 200 200" version="1.1" xmlns="http://www.w3.org/2000/svg" xmlns:xlink="http://www.w3.org/1999/xlink">
    <!-- Generator: Sketch 46.2 (44496) - http://www.bohemiancoding.com/sketch -->
    <title>icon_comofunciona_cntr</title>
    <desc>Created with Sketch.</desc>
    <defs></defs>
    <g id="Symbols" stroke="none" stroke-width="1" fill="none" fill-rule="evenodd">
        <g id="icon_comofunciona_cntr">
            <g transform="translate(55.000000, 55.000000)">
                <circle id="Oval" stroke="#004C76" stroke-width="2" cx="45" cy="45" r="45"></circle>
                <g id="icon_cards_browser" transform="translate(14.900001, 27.350001)">
                    <path d="M50.0999985,9.14999905 L50.0999985,5.14999905 C50.0999985,3.4931448 48.7568528,2.14999905 47.0999985,2.14999905 L14.0999985,2.14999905 C12.4431443,2.14999905 11.0999985,3.4931448 11.0999985,5.14999905 L11.0999985,9.14999905 L50.0999985,9.14999905 Z M50.0999985,10.1499991 L11.0999985,10.1499991 L11.0999985,29.1499991 C11.0999985,30.8068533 12.4431443,32.1499991 14.0999985,32.1499991 L47.0999985,32.1499991 C48.7568528,32.1499991 50.0999985,30.8068533 50.0999985,29.1499991 L50.0999985,10.1499991 Z M14.0999985,0.149999052 L47.0999985,0.149999052 C49.8614223,0.149999052 52.0999985,2.3885753 52.0999985,5.14999905 L52.0999985,29.1499991 C52.0999985,31.9114228 49.8614223,34.1499991 47.0999985,34.1499991 L14.0999985,34.1499991 C11.3385748,34.1499991 9.09999853,31.9114228 9.09999853,29.1499991 L9.09999853,5.14999905 C9.09999853,2.3885753 11.3385748,0.149999052 14.0999985,0.149999052 Z" id="Combined-Shape" fill="#004C76" fill-rule="nonzero"></path>
                    <path d="M25.6038655,19.631456 C25.6038655,19.631456 19.9970175,14.3528678 19.8610306,14.3478261 C19.9970175,14.3528678 21.4204314,13 21.2380262,13 C21.4204314,13 29.5174399,20.6485011 29.5174399,20.6485011 C29.5174399,20.6485011 21.2713119,28.5 21.2380262,28.5 C21.2713119,28.5 19.847898,27.1471322 19.8610306,27.1521739 C19.847898,27.1471322 25.6038655,21.6463718 25.6038655,21.6463718 L0.0912835515,21.6463718 L0.0912835515,19.631456 L25.6038655,19.631456 Z" id="Shape" fill="#E1523D"></path>
                    <circle id="Oval-109-Copy-2" fill="#E1523D" cx="37.0999984" cy="5.64999896" r="1.49999991"></circle>
                    <circle id="Oval-109-Copy-2" fill="#E1523D" cx="41.0999984" cy="5.64999896" r="1.49999991"></circle>
                    <circle id="Oval-109-Copy-2" fill="#E1523D" cx="45.0999984" cy="5.64999896" r="1.49999991"></circle>
                </g>
            </g>
        </g>
    </g>
</svg>