<svg xmlns="http://www.w3.org/2000/svg" width="212" height="30" viewBox="0 0 212 30"><path fill="#E1523D" fill-rule="evenodd" d="M15.526 18.31l.87 2.49c-1.82 1-3.83 1.5-6.03 1.5-3.06 0-5.46-.92-7.2-2.76-1.74-1.84-2.61-4.24-2.61-7.2 0-2.92.95-5.365 2.85-7.335 1.9-1.97 4.37-2.955 7.41-2.955 1.98 0 3.67.33 5.07.99v2.94c-1.58-.84-3.25-1.26-5.01-1.26-2.14 0-3.835.72-5.085 2.16-1.25 1.44-1.875 3.23-1.875 5.37 0 2.2.615 3.98 1.845 5.34 1.23 1.36 2.885 2.04 4.965 2.04 1.64 0 3.24-.44 4.8-1.32zM27.266 22l-.51-1.44c-1.24 1.16-2.62 1.74-4.14 1.74-1.36 0-2.47-.415-3.33-1.245-.86-.83-1.29-1.915-1.29-3.255 0-1.76.79-3.04 2.37-3.84.84-.44 2.05-.69 3.63-.75l2.55-.09v-.6c0-1.76-.95-2.64-2.85-2.64-1.3 0-2.56.35-3.78 1.05l-1.08-2.07c1.64-.94 3.42-1.41 5.34-1.41 3.66 0 5.49 1.69 5.49 5.07v5.46c0 2.04.09 3.38.27 4.02h-2.67zm-.72-6.75l-2.13.09c-1 .02-1.76.18-2.28.48-.66.36-.99.96-.99 1.8 0 .68.21 1.215.63 1.605.42.39.98.585 1.68.585 1.06 0 2.09-.45 3.09-1.35v-3.21zm6.13 6.75V7.81h2.61l.33 1.68c1.68-1.36 3.29-2.04 4.83-2.04 1.78 0 3.02.76 3.72 2.28 1.76-1.52 3.48-2.28 5.16-2.28 1.32 0 2.405.415 3.255 1.245.85.83 1.275 2.115 1.275 3.855V22h-3.12v-8.58c0-1.04-.155-1.84-.465-2.4-.31-.56-.905-.84-1.785-.84-1.12 0-2.35.55-3.69 1.65.02.12.03.34.03.66V22h-3.12v-8.55c0-1.04-.155-1.845-.465-2.415-.31-.57-.895-.855-1.755-.855-1.14 0-2.37.55-3.69 1.65V22h-3.12zm28.75.3c-1.78 0-3.25-.32-4.41-.96V.76h3.12v7.2c.96-.34 1.92-.51 2.88-.51 1.92 0 3.51.62 4.77 1.86 1.26 1.24 1.89 2.96 1.89 5.16 0 2.42-.77 4.33-2.31 5.73-1.54 1.4-3.52 2.1-5.94 2.1zm.48-2.61c1.38 0 2.485-.46 3.315-1.38.83-.92 1.245-2.14 1.245-3.66 0-1.38-.35-2.49-1.05-3.33-.7-.84-1.66-1.26-2.88-1.26-.7 0-1.5.18-2.4.54v8.79c.58.2 1.17.3 1.77.3zM72.026 22V7.81h2.61l.36 1.65c1.32-1.34 2.63-2.01 3.93-2.01.72 0 1.34.17 1.86.51l-1.11 2.67c-.46-.26-.96-.39-1.5-.39-.88 0-1.89.53-3.03 1.59V22h-3.12zm10.15 0V7.81h3.12V22h-3.12zm1.56-16.8c-.56 0-1.025-.185-1.395-.555a1.855 1.855 0 0 1-.555-1.365c0-.54.185-.995.555-1.365.37-.37.835-.555 1.395-.555s1.025.18 1.395.54c.37.36.555.82.555 1.38 0 .54-.185.995-.555 1.365-.37.37-.835.555-1.395.555zm11.95 17.1c-2.3 0-4.185-.635-5.655-1.905-1.47-1.27-2.205-3.055-2.205-5.355 0-2.24.725-4.065 2.175-5.475 1.45-1.41 3.275-2.115 5.475-2.115.8 0 1.49.07 2.07.21V.76h3.12v20.52c-1.3.68-2.96 1.02-4.98 1.02zm0-2.61c.76 0 1.38-.1 1.86-.3V10.3c-.64-.16-1.27-.24-1.89-.24-1.34 0-2.445.44-3.315 1.32-.87.88-1.305 2.08-1.305 3.6 0 1.46.425 2.61 1.275 3.45.85.84 1.975 1.26 3.375 1.26zm13.36 9.42c-2 0-3.58-.375-4.74-1.125-1.16-.75-1.74-1.755-1.74-3.015 0-1.56.86-2.73 2.58-3.51-.64-.36-.96-.94-.96-1.74 0-1 .55-1.91 1.65-2.73-1.54-.92-2.31-2.37-2.31-4.35 0-1.42.5-2.64 1.5-3.66s2.36-1.53 4.08-1.53c1.06 0 1.99.2 2.79.6.1.06.21.05.33-.03.82-.82 1.91-1.23 3.27-1.23.24 0 .54.03.9.09l-.63 2.28c-.44-.08-.77-.12-.99-.12-.44 0-.82.1-1.14.3.9.92 1.35 2.07 1.35 3.45 0 1.56-.53 2.82-1.59 3.78s-2.44 1.44-4.14 1.44c-.7 0-1.29-.09-1.77-.27-.34.44-.51.85-.51 1.23 0 .48.32.835.96 1.065.64.23 1.415.4 2.325.51.91.11 1.825.265 2.745.465.92.2 1.7.59 2.34 1.17.64.58.96 1.36.96 2.34 0 1.34-.64 2.44-1.92 3.3-1.28.86-3.06 1.29-5.34 1.29zm.36-2.25c1.18 0 2.12-.19 2.82-.57.7-.38 1.05-.86 1.05-1.44 0-.66-.355-1.135-1.065-1.425-.71-.29-1.675-.51-2.895-.66-1.22-.15-2.06-.305-2.52-.465-.94.62-1.41 1.33-1.41 2.13 0 .74.365 1.33 1.095 1.77.73.44 1.705.66 2.925.66zm-.15-11.28c.8 0 1.455-.25 1.965-.75s.765-1.2.765-2.1c0-.8-.255-1.475-.765-2.025-.51-.55-1.185-.825-2.025-.825-.8 0-1.445.25-1.935.75s-.735 1.19-.735 2.07c0 .84.245 1.53.735 2.07.49.54 1.155.81 1.995.81zm20.56.09h-9.12c.04 1.24.435 2.24 1.185 3 .75.76 1.765 1.14 3.045 1.14 1.24 0 2.43-.32 3.57-.96l.93 2.13c-1.34.88-2.95 1.32-4.83 1.32-2.34 0-4.105-.71-5.295-2.13-1.19-1.42-1.785-3.19-1.785-5.31 0-2.18.56-3.96 1.68-5.34 1.12-1.38 2.63-2.07 4.53-2.07 1.92 0 3.415.665 4.485 1.995 1.07 1.33 1.605 3.155 1.605 5.475v.75zm-9.15-2.22h5.97c-.04-1-.305-1.845-.795-2.535-.49-.69-1.205-1.035-2.145-1.035-.92 0-1.65.345-2.19 1.035s-.82 1.535-.84 2.535zm17.6 15.66V8.35c1.7-.6 3.41-.9 5.13-.9 2.42 0 4.285.655 5.595 1.965 1.31 1.31 1.965 3.125 1.965 5.445 0 2.22-.675 4.015-2.025 5.385-1.35 1.37-3.105 2.055-5.265 2.055-.78 0-1.54-.13-2.28-.39v7.2h-3.12zm3.12-9.87c.66.3 1.35.45 2.07.45 1.38 0 2.44-.435 3.18-1.305.74-.87 1.11-2.055 1.11-3.555 0-1.58-.4-2.77-1.2-3.57-.8-.8-1.89-1.2-3.27-1.2-.66 0-1.29.09-1.89.27v8.91zm20.5 2.76l-.51-1.44c-1.24 1.16-2.62 1.74-4.14 1.74-1.36 0-2.47-.415-3.33-1.245-.86-.83-1.29-1.915-1.29-3.255 0-1.76.79-3.04 2.37-3.84.84-.44 2.05-.69 3.63-.75l2.55-.09v-.6c0-1.76-.95-2.64-2.85-2.64-1.3 0-2.56.35-3.78 1.05l-1.08-2.07c1.64-.94 3.42-1.41 5.34-1.41 3.66 0 5.49 1.69 5.49 5.07v5.46c0 2.04.09 3.38.27 4.02h-2.67zm-.72-6.75l-2.13.09c-1 .02-1.76.18-2.28.48-.66.36-.99.96-.99 1.8 0 .68.21 1.215.63 1.605.42.39.98.585 1.68.585 1.06 0 2.09-.45 3.09-1.35v-3.21zm6.13 6.75V7.81h2.61l.36 1.65c1.32-1.34 2.63-2.01 3.93-2.01.72 0 1.34.17 1.86.51l-1.11 2.67c-.46-.26-.96-.39-1.5-.39-.88 0-1.89.53-3.03 1.59V22h-3.12zm18.22 0l-.51-1.44c-1.24 1.16-2.62 1.74-4.14 1.74-1.36 0-2.47-.415-3.33-1.245-.86-.83-1.29-1.915-1.29-3.255 0-1.76.79-3.04 2.37-3.84.84-.44 2.05-.69 3.63-.75l2.55-.09v-.6c0-1.76-.95-2.64-2.85-2.64-1.3 0-2.56.35-3.78 1.05l-1.08-2.07c1.64-.94 3.42-1.41 5.34-1.41 3.66 0 5.49 1.69 5.49 5.07v5.46c0 2.04.09 3.38.27 4.02h-2.67zm-.72-6.75l-2.13.09c-1 .02-1.76.18-2.28.48-.66.36-.99.96-.99 1.8 0 .68.21 1.215.63 1.605.42.39.98.585 1.68.585 1.06 0 2.09-.45 3.09-1.35v-3.21zm17.27 7.05c-1.18 0-2.105-.32-2.775-.96-.67-.64-1.005-1.54-1.005-2.7v-8.37h-2.49V7.81h2.49V4.54l3.12-.96v4.23h4.26l-.78 2.46h-3.48v7.68c0 1.2.47 1.8 1.41 1.8.78 0 1.52-.24 2.22-.72l.99 2.16c-1.06.74-2.38 1.11-3.96 1.11zm5.83-.3V7.81h3.12V22h-3.12zm1.56-16.8c-.56 0-1.025-.185-1.395-.555a1.855 1.855 0 0 1-.555-1.365c0-.54.185-.995.555-1.365.37-.37.835-.555 1.395-.555s1.025.18 1.395.54c.37.36.555.82.555 1.38 0 .54-.185.995-.555 1.365-.37.37-.835.555-1.395.555z"/></svg>