<?xml version="1.0" encoding="UTF-8"?>
<svg width="202px" height="38px" viewBox="0 0 202 38" version="1.1" xmlns="http://www.w3.org/2000/svg" xmlns:xlink="http://www.w3.org/1999/xlink">
    <!-- Generator: Sketch 46.2 (44496) - http://www.bohemiancoding.com/sketch -->
    <title>logo CAMBRIDGE PARA TI</title>
    <desc>Created with Sketch.</desc>
    <defs></defs>
    <g id="Symbols" stroke="none" stroke-width="1" fill="none" fill-rule="evenodd">
        <g id="MENU-PRINCIPAL" transform="translate(-149.000000, -45.000000)">
            <g id="logo-CAMBRIDGE-PARA-TI" transform="translate(148.000000, 43.000000)">
                <g id="Group" stroke-width="1" transform="translate(0.900000, 1.800000)" fill="#FFFFFF">
                    <path d="M17.4535359,7.65857123 L20.6559404,3.84857133 C18.541145,1.62857139 15.2481064,0.248571422 12.1061247,0.248571422 C5.64089303,0.248571422 0.776863616,4.8085713 0.776863616,10.8685711 C0.776863616,17.048571 5.52004758,21.6685709 11.8946451,21.6685709 C15.0366269,21.6685709 18.4202995,20.1385709 20.6861517,17.768571 L17.4535359,14.318571 C15.9731791,15.818571 13.9490178,16.778571 12.1967588,16.778571 C8.93393158,16.778571 6.45659983,14.1985711 6.45659983,10.8085711 C6.45659983,7.44857123 8.93393158,4.8985713 12.1967588,4.8985713 C14.0396519,4.8985713 16.0638132,5.97857127 17.4535359,7.65857123 Z M38.6014899,21.4285709 L37.1513445,17.708571 L27.9973015,17.708571 L26.5169448,21.4285709 L20.8372085,21.4285709 L29.9308288,0.398571418 L35.610565,0.398571418 L44.4927056,21.4285709 L38.6014899,21.4285709 Z M29.6589265,13.5085711 L35.5199309,13.5085711 L32.61964,6.00857127 L29.6589265,13.5085711 Z M46.3960215,0.398571418 L46.3960215,21.4285709 L51.3204736,21.4285709 L51.3204736,8.10857121 L56.2449258,19.3285709 L59.8702893,19.3285709 L64.7947415,8.10857121 L64.8249528,21.4285709 L69.7191936,21.4285709 L69.7191936,0.398571418 L63.676921,0.398571418 L58.0576076,12.6685711 L52.4382941,0.398571418 L46.3960215,0.398571418 Z M83.8883228,0.398571418 C88.6919295,0.398571418 91.7432771,2.46857136 91.7432771,5.70857128 C91.7432771,7.89857122 90.3233431,9.66857117 88.0877022,10.2685712 C90.7765135,10.8085711 92.4381385,12.8785711 92.4381385,15.578571 C92.4381385,19.1785709 89.2659454,21.4285709 84.2810705,21.4285709 L73.827939,21.4285709 L73.827939,0.398571418 L83.8883228,0.398571418 Z M83.5862091,8.7685712 C85.0967773,8.7685712 86.0635409,7.98857122 86.0635409,6.66857125 C86.0635409,5.40857129 85.0967773,4.6885713 83.5862091,4.6885713 L79.326407,4.6885713 L79.326407,8.7685712 L83.5862091,8.7685712 Z M83.5862091,17.168571 C85.5197364,17.168571 86.7281909,16.328571 86.7281909,14.888571 C86.7281909,13.5685711 85.5197364,12.7285711 83.5862091,12.7285711 L79.326407,12.7285711 L79.326407,17.168571 L83.5862091,17.168571 Z M114.432011,21.4285709 L108.178258,21.4285709 L105.096699,15.608571 L100.987954,15.608571 L100.987954,21.4285709 L95.4592747,21.4285709 L95.4592747,0.398571418 L104.975854,0.398571418 C110.595168,0.398571418 113.797572,3.09857135 113.797572,7.77857122 C113.797572,10.9585711 112.468272,13.2985711 110.021152,14.558571 L114.432011,21.4285709 Z M100.987954,4.7785713 L100.987954,11.2285711 L105.006065,11.2285711 C107.241706,11.2285711 108.540795,10.0885712 108.540795,7.95857122 C108.540795,5.88857127 107.241706,4.7785713 105.006065,4.7785713 L100.987954,4.7785713 Z M117.332301,0.398571418 L117.332301,21.4285709 L122.860981,21.4285709 L122.860981,0.398571418 L117.332301,0.398571418 Z M180.43972,17.048571 L187.47453,17.048571 C186.884904,18.9226238 186.613105,19.8191451 186.306012,20.9387261 C186.261276,21.1018689 186.223929,21.2652942 186.193828,21.4285709 L183.963463,21.4285709 C183.622523,20.7330444 182.96897,20.2108401 182.154699,19.9882001 C181.226845,19.7342161 180.343635,19.9456553 179.686579,20.4970568 C179.797333,20.1634594 179.925526,19.7818666 180.085728,19.3074567 C180.20504,18.9541141 180.257895,18.7973072 180.324571,18.5984746 C180.502206,18.0687399 180.538611,17.5412136 180.43972,17.048571 Z M178.087352,14.8031657 L178.087352,13.0885711 L188.177947,13.0885711 L188.177947,8.7085712 L178.087352,8.7085712 L178.087352,4.7785713 L189.265556,4.7785713 L189.265556,0.398571418 L172.558673,0.398571418 L172.558673,15.7159683 C173.563019,15.3524817 174.519566,15.2494456 175.543136,15.4733051 C175.78652,15.5265895 175.822398,15.5206107 175.875473,15.4759806 C176.521791,14.9326803 177.312749,14.6875216 178.087352,14.8031657 Z M168.903098,18.2571853 C168.722638,18.474912 168.553167,18.7025894 168.394949,18.9399145 C168.335725,18.1156673 167.936595,17.370665 167.120212,16.8260937 C166.244288,16.2418549 165.305731,16.2189273 164.4214,16.6164488 C164.183277,16.7234887 164.137861,16.749846 163.691882,17.0203667 C163.184014,17.3286358 162.633891,17.6214547 162.029235,17.9080295 C161.886792,17.7002402 161.719115,17.5122199 161.534402,17.3536483 C161.35108,17.1966096 161.160539,17.0674408 160.965758,16.9647085 C161.927843,16.8748336 163.050622,16.5343365 164.129702,15.998571 L164.129702,10.6885711 L168.903098,10.6885711 L168.903098,18.2571853 Z M151.259908,17.8245377 C149.678438,15.9844127 148.752119,13.599324 148.752119,10.9285711 C148.752119,4.8085713 153.736994,0.248571422 160.443916,0.248571422 C163.616109,0.248571422 166.969571,1.44857139 169.144789,3.36857134 L166.002807,7.20857124 C164.492239,5.79857127 162.347232,4.8985713 160.413705,4.8985713 C156.999821,4.8985713 154.431855,7.50857123 154.431855,10.9285711 C154.431855,13.8268926 156.265536,16.1323786 158.89398,16.7955937 C158.082994,17.0745024 157.387074,17.7521169 157.045492,18.713343 C156.980821,18.8953412 156.917112,19.0750439 156.854319,19.2525928 C156.695202,18.7270112 156.367884,18.2480529 155.852169,17.8483598 C154.711293,16.9627727 153.310949,17.0661921 152.263355,17.9795065 C152.264014,17.9789287 152.269263,17.9781286 152.035008,17.929106 C151.773064,17.8741176 151.515289,17.8395739 151.259908,17.8245377 Z M142.04185,20.0219759 C141.038761,19.3231506 139.698547,19.0202742 138.194021,19.29053 C137.871111,19.3483603 137.653654,19.417438 137.223803,19.5749856 C137.032529,19.645094 136.938489,19.6769391 136.877292,19.6925953 C135.015931,18.7582652 133.353284,19.3367864 132.654222,21.384818 C132.64924,21.3994378 132.644277,21.4140209 132.639332,21.4285715 L126.969726,21.4285709 L126.969726,0.398571418 L136.093558,0.398571418 C142.80048,0.398571418 147.362396,4.65857131 147.362396,10.8985711 C147.362396,15.0228131 145.362465,18.2773955 142.04185,20.0219759 Z M136.244615,16.988571 C139.447019,16.988571 141.712871,14.558571 141.712871,10.9585711 C141.712871,7.32857123 139.326174,4.8685713 135.972712,4.8685713 L132.498406,4.8685713 L132.498406,16.988571 L136.244615,16.988571 Z" id="CAMBRIDGE"></path>
                </g>
                <path d="M204.029441,9.21540255 C203.577833,8.73750109 202.793117,9.07400798 201.982776,10.0354015 C201.549735,10.5494702 201.101516,11.0433888 200.66251,11.5491806 C200.123377,12.1698444 199.923797,12.8400485 200.092073,13.5138837 C200.269432,14.2250248 200.745611,14.3244281 201.382859,14.0320673 C202.389746,13.5690946 203.158351,12.700732 203.730225,11.5002501 C204.116454,10.6869254 204.619067,9.83911894 204.029441,9.21540255 L204.029441,9.21540255 Z M197.878992,10.6844276 C198.115998,10.0786974 197.847118,9.62095354 197.318348,9.32700818 C196.834527,9.05738934 196.254269,9.24713613 195.938805,9.81110578 C195.609856,10.3994019 195.348331,11.0262151 195.078633,11.6457302 C193.827401,14.5263947 192.579437,17.408681 191.33842,20.2942108 C190.618001,21.9694966 189.875108,23.6374845 189.213532,25.335475 C188.593636,26.9268344 189.02883,28.5773883 190.202014,29.4807127 C191.382553,30.389308 193.104121,30.3698468 194.496741,29.4348978 C194.71822,29.2861006 194.945011,29.1462232 195.036136,29.0878396 C195.921642,29.4665223 196.66045,29.977379 197.454014,30.0844157 C199.607507,30.3739012 202.229701,28.1861368 202.480193,26.0425657 C202.547618,25.464811 202.303664,25.0593691 201.793282,24.8075897 C201.264103,24.547296 200.850976,24.7820469 200.555943,25.196003 C200.303817,25.5495484 200.130965,25.9594501 199.927466,26.3466471 C199.53477,27.0942819 199.020711,27.7012284 198.124988,27.8488092 C197.31467,27.982605 196.77691,27.550404 196.830032,26.7378985 C196.85741,26.3142117 197.002475,25.883227 197.168788,25.485894 C197.767435,24.052657 198.403267,22.6348267 199.012947,21.2060496 C199.365188,20.3817863 199.203369,19.7326738 198.602271,19.4484591 C197.977063,19.1524865 197.385772,19.4496754 197.009422,20.2759659 C196.631437,21.1055 196.285734,21.9500354 195.907749,22.7799749 C195.320135,24.070091 194.715359,25.3520982 194.123251,26.640187 C193.831896,27.2738926 193.306803,27.6298706 192.664841,27.8159684 C191.818155,28.0620716 191.197442,27.6250053 191.278351,26.7597923 C191.336786,26.1366282 191.541919,25.506977 191.787916,24.924357 C192.66811,22.8403858 193.607556,20.7807411 194.497558,18.7004188 C195.018564,17.4824714 195.37857,17.2128526 196.719701,17.2047438 C197.809115,17.1978512 198.89853,17.2075818 199.987535,17.1869043 C200.595989,17.1747411 200.923303,16.8244393 200.960489,16.229656 C200.996857,15.6454143 200.717761,15.2424051 200.145267,15.110231 C199.819587,15.0348189 199.469798,15.0526583 199.130224,15.0498202 C198.253708,15.0429277 197.377191,15.0473876 196.204007,15.0473876 C196.455725,14.2936711 196.598337,13.7884905 196.791212,13.3027712 C197.139775,12.4245841 197.533697,11.5634255 197.878992,10.6844276 Z M136.878746,27.9923356 C137.716851,27.9051656 138.670191,27.6943359 139.176895,26.7711447 C139.806598,25.6241497 140.339454,24.4248526 140.89969,23.2409623 C140.967931,23.0974359 140.946274,22.9105272 140.961393,22.7430797 C141.005934,22.2419536 140.781595,21.918411 140.26917,22.0015265 C139.647231,22.1020761 138.96931,22.186408 138.445443,22.4949493 C136.987851,23.3528643 136.120733,24.7390701 135.504924,26.2570444 C135.040309,27.4028231 135.506967,27.9980118 136.878746,27.9923356 L136.878746,27.9923356 Z M175.812021,21.8142124 C175.168834,22.078155 174.456996,22.2431699 173.895126,22.6255016 C172.444481,23.6111308 171.768603,25.1282942 171.344443,26.7577651 C171.189162,27.3574137 171.690554,27.9278704 172.367658,28.0117968 C173.295663,28.1265369 174.038556,27.7170406 174.642924,27.089822 C175.71967,25.9712079 176.393505,24.6081123 176.837689,23.1391964 C177.095945,22.2857413 176.812762,21.9731456 175.812021,21.8142124 L175.812021,21.8142124 Z M149.135677,28.0332853 C149.29014,27.9793615 149.706536,27.9116527 150.038346,27.70731 C151.870654,26.5777489 152.54122,24.6892007 153.175009,22.8014633 C153.327837,22.3461521 153.034848,22.0327456 152.535908,21.9715238 C151.732128,21.8734069 150.973297,22.0104463 150.308043,22.4734609 C148.881507,23.4655771 148.059339,24.8797584 147.629866,26.5128782 C147.38959,27.4267442 147.925308,28.0089587 149.135677,28.0332853 L149.135677,28.0332853 Z M169.805124,29.2735319 C168.994397,29.5690991 168.232706,29.9940022 167.42484,30.1144184 C164.673926,30.5247256 163.021008,28.0636934 163.852166,25.6038776 C164.096937,24.8785421 164.383797,24.1665861 164.692315,23.3386738 C163.661744,23.3386738 162.745181,23.2356916 161.872342,23.3844888 C161.462075,23.4546302 161.019526,23.9472421 160.793961,24.3579547 C160.178152,25.4798124 159.666544,26.6580264 159.119385,27.8159684 C158.188929,29.785605 155.277423,31.22614 152.994802,29.5322039 C152.427211,29.1109498 151.853083,29.3136707 151.278954,29.6335643 C150.140913,30.26727 148.917059,30.5445922 147.649481,30.1123912 C147.051651,29.9088594 146.516751,29.5249059 146.042738,29.2702884 C145.092259,29.5715317 144.18959,30.0045436 143.250552,30.1063095 C142.562415,30.1805054 141.786013,29.9116975 141.122803,29.6270773 C140.513123,29.3659727 139.992117,29.2244735 139.391019,29.5642338 C138.076448,30.3078142 136.681785,30.3629543 135.239721,30.0244103 C134.136414,29.7649275 133.900224,29.9019668 133.472795,30.9678735 C132.994695,32.1590617 132.514143,33.3494391 132.031548,34.5390055 C131.955951,34.7267251 131.873816,34.9132284 131.780239,35.0928391 C131.356078,35.9057501 130.890646,36.1550968 130.270342,35.9098045 C129.630832,35.6572142 129.417526,35.0612147 129.767315,34.2037051 C131.133374,30.8571879 132.525176,27.5216176 133.912074,24.1832092 C134.456373,22.873632 134.980648,21.5535133 135.574391,20.2658299 C136.054126,19.2266824 136.624985,19.1516756 137.580777,19.8251146 C137.814923,19.9905349 138.188413,20.0395933 138.487941,20.0160777 C138.956234,19.9795879 139.411859,19.7809214 139.879743,19.7464588 C142.399371,19.5595501 143.865544,21.4395841 143.048279,23.8057429 C142.762236,24.6352769 142.438599,25.4542695 142.083906,26.2578553 C141.848943,26.789795 141.884085,27.2374029 142.295578,27.6456828 C142.722599,28.0701805 143.208054,28.0004445 143.717619,27.811914 C144.525894,27.5131033 144.893663,26.8465569 145.242635,26.1317629 C145.834744,24.9194917 146.410916,23.6934355 147.097827,22.5342772 C147.845624,21.272542 148.9853,20.4312502 150.383232,19.9309349 C151.303472,19.6017161 152.216766,19.4407557 153.177461,19.7509187 C153.776516,19.943909 154.367807,19.9917512 154.933354,19.59158 C155.397561,19.263983 155.885059,19.2441164 156.325565,19.668614 C156.785277,20.1109511 156.76934,20.5978868 156.517622,21.1496932 C155.788622,22.747945 155.079236,24.3551166 154.377614,25.9655317 C154.259111,26.2375832 154.165942,26.5404483 154.152049,26.8339882 C154.113229,27.6318978 154.657119,28.1123464 155.446188,27.9684146 C156.348857,27.8042106 156.930341,27.2734872 157.306692,26.4180048 C158.231836,24.3157887 159.203972,22.2330338 160.192863,20.1591987 C160.606807,19.2911476 161.420803,19.1030226 161.988394,19.7055092 C162.158385,19.8863363 162.294051,20.177849 162.29732,20.4198978 C162.305901,21.1253666 162.767656,21.2469992 163.255563,21.0949585 C164.252626,20.78439 165.242743,20.4227359 166.184641,19.9759389 C166.744058,19.71078 167.225019,19.4488645 167.772178,19.9049866 C168.304217,20.34854 168.272752,20.9007519 168.02553,21.4724249 C167.503706,22.681858 166.957773,23.8815605 166.456381,25.0991024 C166.239806,25.6237442 166.02037,26.1735234 165.959075,26.7289788 C165.860186,27.6168965 166.397947,28.0328798 167.28754,27.8544854 C168.400654,27.6310869 168.862409,26.7930386 169.246932,25.8467372 C169.638811,24.8817856 170.037636,23.9115632 170.541888,23.0021571 C171.355884,21.5328357 172.581373,20.4843631 174.18689,19.9139063 C175.065041,19.6017161 175.957903,19.4354849 176.885499,19.7436208 C177.522148,19.9552614 178.141226,19.9767498 178.739873,19.5700916 C179.169754,19.2781735 179.648263,19.2453327 180.0524,19.6333406 C180.46185,20.0266192 180.538264,20.49531 180.297989,21.0231953 C179.72386,22.284525 179.135021,23.5401784 178.610745,24.8213748 C178.333284,25.4988681 178.073393,26.2140676 177.994119,26.9333215 C177.905445,27.7405562 178.521663,28.1703246 179.325852,27.9554404 C179.958415,27.7867766 180.523962,27.4936421 180.837383,26.8518276 C181.089101,26.336511 181.366154,25.8284924 181.680801,25.3488546 C181.968478,24.9109774 182.40408,24.7281231 182.923452,24.9312495 C183.427705,25.1282942 183.714973,25.5487375 183.604234,26.0527017 C183.074646,28.4768387 180.933821,30.8596205 178.037434,30.1350959 C177.682741,30.0463042 177.320692,29.8873709 177.029337,29.6724867 C176.361223,29.179064 175.733973,29.2167701 175.042158,29.6189684 C173.943345,30.2571339 172.752181,30.5267528 171.514434,30.1322578 C170.916196,29.9417002 170.376392,29.5674773 169.805124,29.2735319 L169.805124,29.2735319 Z" id="vectorizado-copy-2" fill="#FF5427" transform="translate(166.949884, 22.500018) rotate(-6.000000) translate(-166.949884, -22.500018) "></path>
            </g>
        </g>
    </g>
</svg>