<?xml version="1.0" encoding="UTF-8"?>
<svg width="50px" height="41px" viewBox="0 0 50 41" version="1.1" xmlns="http://www.w3.org/2000/svg" xmlns:xlink="http://www.w3.org/1999/xlink">
    <!-- Generator: Sketch 46.2 (44496) - http://www.bohemiancoding.com/sketch -->
    <title>logo_oficialpreparationmaterial</title>
    <desc>Created with Sketch.</desc>
    <defs></defs>
    <g id="Symbols" stroke="none" stroke-width="1" fill="none" fill-rule="evenodd">
        <g id="FOOTER" transform="translate(-876.000000, -183.000000)" fill="#979797">
            <g id="OTROS-ENLACES">
                <g transform="translate(875.000000, 63.000000)">
                    <g id="logo_oficialpreparationmaterial_b" transform="translate(1.000000, 120.000000)">
                        <path d="M12.312618,18.2831972 L12.312618,20.1604993 L12.4959001,20.1604993 L14.5318324,20.1604993 L14.7483411,21.4874191 L12.5034029,21.4874191 L12.312618,21.4874191 L12.312618,23.2184171 L12.312618,24.7361218 L11.7531251,24.7361218 L10.9095986,24.7361218 L10.8034878,24.7361218 L10.8034878,24.3416901 L10.8034878,17.1599242 L10.8034878,16.8442716 L10.8870902,16.8442716 L11.729545,16.8442716 L12.6845414,16.8442716 L13.1143433,16.8442716 L15.2172647,16.8442716 L15.2172647,18.1594013 L12.7547459,18.1594013 L12.33727,18.1594013 L12.312618,18.1594013 L12.312618,18.2831972 Z M20.6900051,16.8442716 L20.6900051,18.1594013 L17.7853583,18.1594013 L17.7853583,20.1604993 L20.0040368,20.1604993 L20.2210815,21.4874191 L17.7853583,21.4874191 L17.7853583,24.7361218 L16.2756923,24.7361218 L16.2756923,16.8442716 L20.6900051,16.8442716 Z M32.0229506,24.7361218 L33.5444067,24.7361218 L33.5444067,16.8442716 L32.0229506,16.8442716 L32.0229506,24.7361218 Z M21.7993443,24.7361218 L23.3208004,24.7361218 L23.3208004,16.8442716 L21.7993443,16.8442716 L21.7993443,24.7361218 Z M47.3811364,24.7361218 L46.2696535,24.7361218 L45.032767,24.7361218 L44.4057491,24.7361218 L43.6297476,24.7361218 L43.0230944,24.7361218 L43.0230944,23.4895889 L43.0230944,18.0120254 L43.0230944,16.8442716 L43.645289,16.8442716 L44.523114,16.8442716 L44.5445505,16.8442716 L44.5445505,16.9637801 L44.5445505,23.3974119 L44.6485176,23.3974119 L45.2669608,23.3974119 L46.2696535,23.3974119 L47.17481,23.3974119 L47.3811364,24.7361218 Z M39.2009651,21.4992092 L38.3912011,21.4992092 L37.4774699,21.4992092 L37.1821821,21.4992092 L37.4983705,20.6036991 L38.2314991,18.5302529 L38.2572229,18.4568329 L39.214363,21.1653356 L39.3322637,21.4992092 L39.2009651,21.4992092 Z M39.1264733,16.8099732 L38.6757707,16.8099732 L37.8327801,16.8099732 L37.513912,16.8099732 L37.1510991,17.781047 L36.8842146,18.4943468 L34.5519226,24.7361218 L36.0497985,24.7361218 L36.771137,22.7344879 L36.9319108,22.7344879 L37.3456354,22.7344879 L38.2679412,22.7344879 L39.085208,22.7344879 L39.7556348,22.7344879 L40.5101998,24.8159728 L42.0204018,24.5410496 L39.1264733,16.8099732 Z M24.6680849,20.800915 C24.6680849,18.3539377 26.1659609,16.7065421 28.3958936,16.7065421 C29.3112324,16.7065421 30.0202449,16.9241226 30.6033179,17.2788968 L30.3862733,18.7081759 C29.8712612,18.3196392 29.2313815,18.0104176 28.4655622,18.0104176 C27.0695097,18.0104176 26.2120494,19.0742043 26.2120494,20.7901967 C26.2120494,22.5281616 27.1273882,23.5576498 28.522369,23.5576498 C29.2538898,23.5576498 29.9184215,23.2945167 30.5234669,22.8941899 L30.7292574,24.1980655 C30.1006318,24.5983923 29.2999783,24.8727796 28.4076837,24.8727796 C26.1086182,24.8727796 24.6680849,23.2489641 24.6680849,20.800915 L24.6680849,20.800915 Z M6.54780521,23.4777988 C6.30825224,23.574799 6.04136773,23.6262467 5.7487594,23.6262467 L5.74393619,23.6262467 C5.59602428,23.6262467 5.45454334,23.6123129 5.32002925,23.5860532 C5.07833263,23.5388929 4.85860843,23.4504673 4.66353621,23.3250637 C4.43577332,23.1792955 4.24123702,22.9836873 4.08367869,22.7441344 C3.76159516,22.2575257 3.58742354,21.5903144 3.58742354,20.7901967 C3.58742354,19.9900791 3.76159516,19.321796 4.08367869,18.8357232 C4.22301598,18.6235017 4.39129257,18.4461146 4.58582887,18.3073132 C4.77822153,18.1695837 4.99633799,18.0699039 5.23642687,18.0120254 C5.39237746,17.9739756 5.55797448,17.9546827 5.73321793,17.9536109 L5.7487594,17.9536109 C6.03654451,17.9536109 6.29967764,18.0034508 6.53708696,18.0993791 C7.41169646,18.4541533 7.92188534,19.4311221 7.92188534,20.7901967 C7.92188534,22.1460558 7.42134289,23.120881 6.54780521,23.4777988 L6.54780521,23.4777988 Z M6.76860124,16.8153323 C6.51297089,16.7510228 6.24233498,16.7119012 5.95830126,16.6995752 C5.89291991,16.6963597 5.82646674,16.6952879 5.76001357,16.6952879 C5.65229512,16.6952879 5.54725623,16.6990393 5.44436099,16.7065421 C5.22142132,16.7226194 5.00652033,16.7553101 4.8023376,16.8040782 C4.54777907,16.8651722 4.30715428,16.9509182 4.08367869,17.0591726 C2.80767058,17.6754722 2.04345909,19.0324031 2.04345909,20.800915 C2.04345909,22.568355 2.80767058,23.9204627 4.08367869,24.5292595 C4.3419886,24.6535913 4.62334276,24.7463042 4.92291795,24.8063264 C5.12870842,24.8470557 5.34360941,24.8722436 5.56601317,24.8808182 C5.62335583,24.8829619 5.67962666,24.8845696 5.73696932,24.8845696 C5.81682031,24.8845696 5.89613539,24.8818901 5.97437864,24.8781387 C6.25787645,24.8631331 6.52851236,24.820796 6.78307088,24.7538069 C8.43957699,24.3159663 9.45405971,22.8154108 9.45405971,20.7784066 C9.45405971,18.7269329 8.44064882,17.2354879 6.76860124,16.8153323 L6.76860124,16.8153323 Z M11.1105658,29.0941638 C11.4540858,28.9055225 11.5151799,28.564682 11.2992071,28.172394 L11.0301789,27.680962 L9.17645694,28.6981243 L9.31579423,28.9505392 L10.0676797,28.5378864 L10.1753982,28.7340305 C10.3967301,29.1365009 10.7322115,29.3020979 11.1105658,29.0941638 L11.1105658,29.0941638 Z M10.962118,28.8433566 C10.7316755,28.9703679 10.5441061,28.8776551 10.4053047,28.6252402 L10.2906194,28.4156983 L10.9460406,28.055565 L11.0698365,28.2811842 C11.207566,28.5335991 11.1748753,28.7270636 10.962118,28.8433566 L10.962118,28.8433566 Z M11.9262249,30.2812104 C11.7322245,30.4205477 11.5264341,30.3498072 11.3635166,30.1231161 L11.2209638,29.9242925 L11.8104678,29.5009215 L11.9717775,29.7243971 C12.1357668,29.9537677 12.1127225,30.1472322 11.9262249,30.2812104 L11.9262249,30.2812104 Z M11.361373,30.4719953 C11.5848485,30.6509901 11.8479817,30.6922554 12.1068275,30.5062937 C12.4203364,30.2812104 12.4369497,29.9371544 12.1850708,29.5861316 L11.8490535,29.1182799 L10.1325252,30.3514149 L10.3002658,30.5856088 L11.0242839,30.0652376 L11.1512952,30.2420888 L10.7868746,31.2994445 L11.0082065,31.4982681 L11.361373,30.4719953 Z M12.1009325,32.8257238 L12.2997561,32.6515522 L11.717219,31.9886282 L12.2515239,31.5197046 L12.7161602,32.0491863 L12.8860445,31.8433959 L12.4498116,31.3460689 L12.9101606,30.9419907 L13.4717971,31.5818705 L13.6700848,31.4082348 L12.9181993,30.5518463 L11.3297541,31.9462911 L12.1009325,32.8257238 Z M14.4900312,33.0138292 C14.7579876,32.7276518 14.7097554,32.3846677 14.3833846,32.0791974 L13.9739473,31.6960199 L12.5301985,33.2405202 L12.7408122,33.4372002 L13.3265648,32.8107183 L13.4894822,32.9634534 C13.8254995,33.2769623 14.1958151,33.3294817 14.4900312,33.0138292 L14.4900312,33.0138292 Z M14.2719147,32.8219724 C14.0918481,33.0143651 13.8849858,32.984354 13.6743721,32.787674 L13.5002005,32.6247566 L14.0103894,32.0786615 L14.1984947,32.2544409 C14.4085725,32.4511208 14.4369759,32.6451212 14.2719147,32.8219724 L14.2719147,32.8219724 Z M15.2939002,35.4163257 L15.8560726,33.2512385 L15.6229506,33.082426 L13.7075987,34.3166329 L13.9434003,34.487589 L14.5087882,34.1140579 L15.2161929,34.6258545 L15.0323748,35.3027122 L15.2939002,35.4163257 Z M15.2858615,34.3627214 L14.736551,33.9656101 L15.5329173,33.4409516 L15.2858615,34.3627214 Z M17.407004,34.9270374 C17.2923186,35.1365793 17.0763458,35.1617672 16.8314337,35.027789 L16.6165327,34.9104242 L16.964876,34.273224 L17.2065726,34.4055944 C17.4541643,34.5406444 17.517402,34.7255343 17.407004,34.9270374 L17.407004,34.9270374 Z M16.9804175,35.3434416 C17.2585561,35.408287 17.5141865,35.3311156 17.6669216,35.0519051 C17.8523474,34.7132083 17.7183692,34.395948 17.339479,34.1885498 L16.8341133,33.9120188 L15.8201665,35.7673485 L16.0725814,35.9045422 L16.4997038,35.1226456 L16.6910246,35.2271486 L16.8201796,36.3380955 L17.1063569,36.421162 L16.9804175,35.3434416 Z M19.3700521,37.3509705 L19.3721958,35.114071 L19.1042394,35.0084962 L17.5586672,36.6826874 L17.8298391,36.789334 L18.2837571,36.286112 L19.0967367,36.6049801 L19.0881621,37.3059539 L19.3700521,37.3509705 Z M19.0983444,36.3327364 L18.4681111,36.0851448 L19.1074549,35.3782759 L19.0983444,36.3327364 Z M21.6433937,36.065316 L21.666438,35.7989674 L20.1042525,35.4034638 L20.0394071,35.6590942 L20.6926846,35.8241553 L20.2382307,37.617855 L20.5174412,37.6885955 L20.9718951,35.8948958 L21.6433937,36.065316 Z M22.0008475,37.9940657 L22.3652681,35.9115091 L22.0817703,35.8622051 L21.7168138,37.9442259 L22.0008475,37.9940657 Z M24.7141734,37.1676884 C24.7463282,36.5160186 24.3953054,36.0567414 23.7988346,36.0267303 C23.2050433,35.9972551 22.8004292,36.4216979 22.7677386,37.0760473 C22.7350479,37.7277171 23.0892862,38.1875302 23.6825415,38.2170054 C24.2795482,38.2470165 24.6814828,37.8193582 24.7141734,37.1676884 L24.7141734,37.1676884 Z M24.4167419,37.1558983 C24.391554,37.6639435 24.1182385,37.9753088 23.6991548,37.9544082 C23.2827506,37.9335076 23.0389104,37.5958826 23.0640983,37.0883733 C23.090358,36.5803281 23.3631375,36.2689628 23.7827572,36.2898634 C24.1986254,36.310764 24.4424657,36.6478531 24.4167419,37.1558983 L24.4167419,37.1558983 Z M27.0657583,38.0653421 L26.8642551,35.960813 L26.5989783,35.9865368 L26.7495698,37.5631919 L25.4826722,36.0931835 L25.226506,36.1178354 L25.4280091,38.2223646 L25.6938218,38.1966407 L25.5367994,36.5588916 L26.8492496,38.0857068 L27.0657583,38.0653421 Z M30.7721304,37.1730475 L30.0148858,35.1928501 L29.6772608,35.2925299 L29.5363158,37.1419646 L28.4135787,35.6655251 L28.0727382,35.7662767 L28.510043,37.8413306 L28.7683529,37.7646951 L28.4157223,36.1151559 L29.5352439,37.5481864 L29.7431781,37.4865564 L29.9050237,35.6757075 L30.5079255,37.2512908 L30.7721304,37.1730475 Z M33.101207,36.0824652 L31.4918612,34.5293902 L31.2303358,34.6494347 L31.363778,36.9238481 L31.6285189,36.8027318 L31.5813586,36.12641 L32.3745094,35.7625253 L32.8734441,36.2544932 L33.101207,36.0824652 Z M32.1794371,35.5722763 L31.5642094,35.8547023 L31.4982921,34.9039932 L32.1794371,35.5722763 Z M33.7469817,33.5459905 L33.5728101,33.3434155 L32.19873,34.1864061 L32.3369955,34.4109535 L32.9114939,34.058323 L33.8793522,35.635514 L34.1248002,35.4849226 L33.1569419,33.9077315 L33.7469817,33.5459905 Z M36.1253622,34.0197373 L35.961373,33.8134109 L35.2705815,34.3621855 L34.8284535,33.8059081 L35.3804436,33.3675315 L35.1826918,33.1880008 L34.6644643,33.5995817 L34.2834303,33.1199399 L34.9501057,32.5899222 L34.7861164,32.3835958 L33.8943577,33.0926083 L35.2094875,34.7475067 L36.1253622,34.0197373 Z M36.2368321,31.8578655 C36.402965,32.0293576 36.3627716,32.2431867 36.1628761,32.4371871 L35.9865609,32.6081433 L35.4811952,32.0867002 L35.6794829,31.8948435 C35.881522,31.6986994 36.0771301,31.6928044 36.2368321,31.8578655 L36.2368321,31.8578655 Z M36.5080039,32.388955 C36.6527003,32.1418992 36.654844,31.8755506 36.4329761,31.6467159 C36.1644839,31.3691131 35.8214997,31.4028756 35.5112063,31.7035226 L35.0980176,32.1043853 L36.568562,33.622626 L36.7748884,33.4227305 L36.1553733,32.781779 L36.3113239,32.6306516 L37.4110168,32.8364421 L37.5750061,32.5872427 L36.5080039,32.388955 Z M38.1500404,31.9602248 L36.5358714,30.5957911 L36.3499097,30.8155153 L37.9640787,32.1804849 L38.1500404,31.9602248 Z M39.6050433,29.9114306 L37.4265582,29.4044572 L37.2636408,29.6418665 L38.5455439,31.5250637 L38.710605,31.2849748 L38.3231402,30.7292334 L38.8172517,30.0095026 L39.4978608,30.1756356 L39.6050433,29.9114306 Z M38.5519749,29.946265 L38.1687973,30.504686 L37.6237741,29.7222534 L38.5519749,29.946265 Z M40.4448185,28.4682178 L40.1945473,28.3765767 L39.8285189,29.0459316 L38.2041675,28.1579243 L38.0669739,28.4108751 L39.9212318,29.4248219 L40.4448185,28.4682178 Z M17.6969327,6.9454284 L17.5227611,6.73159924 C17.4380869,6.92238416 17.3116115,7.09923534 17.1154675,7.21338475 C16.7472954,7.42774982 16.363046,7.27930201 16.1074157,6.8398536 C15.8512494,6.4004052 15.9075203,5.99203974 16.2778359,5.77606692 C16.47398,5.66191752 16.6749472,5.64744788 16.8657321,5.67102804 L16.7547982,5.39556892 C16.5591901,5.38163519 16.3651897,5.4202209 16.1481451,5.54669629 C15.6347407,5.84573557 15.5216631,6.4255931 15.8517853,6.99205281 C16.1802998,7.55583295 16.7333617,7.74447422 17.2467661,7.44489903 C17.4563079,7.32324685 17.6160099,7.13031828 17.6969327,6.9454284 L17.6969327,6.9454284 Z M19.8684509,6.16406771 L18.3410998,4.53006993 L18.0731434,4.63671655 L18.0902926,6.91488138 L18.3609285,6.80716293 L18.3480666,6.1297693 L19.1589025,5.80661395 L19.6321134,6.32376969 L19.8684509,6.16406771 Z M18.9740127,5.60671852 L18.3448512,5.85698974 L18.3282379,4.90413698 L18.9740127,5.60671852 Z M22.5372961,5.53651395 L21.8979523,3.51451539 L21.5549681,3.59436638 L21.3057687,5.43254689 L20.2714573,3.89233383 L19.9252577,3.97272074 L20.2398384,6.06974708 L20.5018997,6.00918894 L20.2468053,4.34142866 L21.279509,5.83769688 L21.4917304,5.78839292 L21.7602227,3.99040586 L22.2688038,5.59867982 L22.5372961,5.53651395 Z M24.3079516,4.79373897 C24.287051,4.51560029 24.115559,4.36876021 23.8754701,4.31677668 C24.0587522,4.22245605 24.1600397,4.07025685 24.1444982,3.85642768 C24.1193103,3.53273642 23.8856524,3.32641004 23.421552,3.36178028 L22.9113632,3.4009019 L23.0726729,5.50864649 L23.5764308,5.47006078 C24.0619677,5.43308281 24.3401064,5.21496634 24.3079516,4.79373897 L24.3079516,4.79373897 Z M23.8642159,3.88751062 C23.8797574,4.09490883 23.7393483,4.228887 23.4617455,4.2497876 L23.2602423,4.26532906 L23.2109383,3.62384158 L23.433878,3.60669237 C23.7211272,3.58471995 23.8492104,3.69511797 23.8642159,3.88751062 L23.8642159,3.88751062 Z M24.0271334,4.82107052 C24.0464262,5.0654467 23.8813651,5.20103261 23.5785744,5.22407686 L23.3341983,5.2428338 L23.2779274,4.50059473 L23.5126572,4.4823737 C23.8272379,4.45825763 24.0089123,4.57669433 24.0271334,4.82107052 L24.0271334,4.82107052 Z M25.8947891,3.95610744 C25.882999,4.1951245 25.6991809,4.31141755 25.4210423,4.29801974 L25.1761302,4.28569375 L25.2120363,3.56060388 L25.4874954,3.5740017 C25.7688496,3.58793543 25.9065792,3.72673681 25.8947891,3.95610744 L25.8947891,3.95610744 Z M25.6922141,4.51667211 C25.9708887,4.45397033 26.1675686,4.27336775 26.1831101,3.95503562 C26.202403,3.5697144 25.944093,3.34195151 25.5126833,3.320515 L24.9371131,3.29211163 L24.8320742,5.40360761 L25.1193234,5.41754134 L25.1638042,4.52739037 L25.3813847,4.53810862 L25.9816069,5.48185086 L26.275823,5.43201098 L25.6922141,4.51667211 Z M26.9483934,5.56974054 L27.2109906,3.4727142 L26.9253492,3.43680805 L26.6627519,5.5343703 L26.9483934,5.56974054 Z M29.4762935,5.02900464 C29.6284928,4.42931835 29.3701828,3.91484217 28.657419,3.73423959 L28.0636277,3.58364813 L27.5443283,5.63297824 L28.1263295,5.78035423 C28.8294469,5.95881315 29.3214148,5.63780145 29.4762935,5.02900464 L29.4762935,5.02900464 Z M29.1874366,4.95933599 C29.0550662,5.48185086 28.6943969,5.65602248 28.2013573,5.53115483 L27.8873124,5.45130384 L28.2785287,3.90680348 L28.60222,3.98879812 C29.0711436,4.10777073 29.3171275,4.44539573 29.1874366,4.95933599 L29.1874366,4.95933599 Z M31.2898221,6.65228416 L31.6478117,5.72997843 L30.891103,5.43629828 L30.8326886,5.69621593 L31.2871425,5.87253121 L31.0840316,6.39504608 C30.9457661,6.41380302 30.8182189,6.40362068 30.6467269,6.33716751 C30.1954884,6.16192406 30.0802671,5.77231553 30.2646211,5.29803281 C30.4484392,4.82428599 30.7908874,4.60884909 31.222833,4.77605385 C31.4543473,4.86608718 31.6049387,5.01989412 31.7062262,5.19031436 L31.85521,4.93307627 C31.7410606,4.77015881 31.5835022,4.63350108 31.320905,4.53167767 C30.7324729,4.30337886 30.2233558,4.58258937 29.9864824,5.19352983 C29.7501449,5.80179073 29.9243166,6.34306254 30.5502626,6.58529508 C30.8101802,6.68658258 31.0792084,6.69569309 31.2898221,6.65228416 L31.2898221,6.65228416 Z M32.7453609,7.64104307 L32.8750518,7.41167244 L32.106553,6.97758316 L32.456504,6.35913993 L33.0690522,6.70587543 L33.1617651,6.4550683 L32.5861949,6.1297693 L32.8873778,5.59600026 L33.628545,6.01508398 L33.7587718,5.78571335 L32.7667974,5.22514868 L31.7265909,7.06547284 L32.7453609,7.64104307 Z M49.3248917,26.300451 L46.2696535,26.300451 L44.6383352,26.300451 L43.9984555,26.300451 L43.2304926,26.300451 L42.3762478,26.300451 L38.1146701,26.300451 L37.2341656,26.300451 L36.2271856,26.300451 L35.7716599,26.300451 L13.8008475,26.300451 L13.3453217,26.300451 L12.3388777,26.300451 L11.4578372,26.300451 L7.19733139,26.300451 L6.34201474,26.300451 L5.94168797,26.300451 L5.30180822,26.300451 L4.08367869,26.300451 L0.61203631,26.300451 L0.61203631,15.1025554 L4.08367869,15.1025554 L5.18765882,15.1025554 L5.82325126,15.1025554 L6.37256177,15.1025554 L7.22895024,15.1025554 L11.4991025,15.1025554 L12.3833584,15.1025554 L13.3940898,15.1025554 L13.8517592,15.1025554 L35.7212841,15.1025554 L36.1784176,15.1025554 L37.1891489,15.1025554 L38.0734048,15.1025554 L42.3435571,15.1025554 L43.2004815,15.1025554 L44.1168922,15.1025554 L44.7519487,15.1025554 L46.2696535,15.1025554 L49.3248917,15.1025554 L49.3248917,26.300451 Z M24.7859857,35.1842755 C29.9639741,35.1842755 34.5036904,32.4591595 37.0508834,28.3653225 C37.3408122,27.8985426 37.606089,27.4135416 37.8429624,26.9129992 L42.1699214,26.9129992 C41.9952139,27.4071106 41.7996057,27.8910398 41.5847048,28.3653225 C40.6618631,30.3964316 39.3821036,32.2308607 37.8242054,33.7887589 C34.4860053,37.1264231 29.8798358,39.189151 24.7859857,39.1896869 C19.6932075,39.189151 15.086502,37.1264231 11.7483019,33.7887589 C10.1909396,32.2308607 8.91064424,30.3964316 7.9878026,28.3653225 C7.77290161,27.8910398 7.57729348,27.4071106 7.40258595,26.9129992 L11.7300809,26.9129992 C11.9664184,27.4135416 12.2311592,27.8985426 12.5221598,28.3653225 C15.0698887,32.4591595 19.6096051,35.1842755 24.7859857,35.1842755 L24.7859857,35.1842755 Z M14.1331134,26.9129992 L35.439394,26.9129992 C35.144642,27.4210444 34.8145198,27.9060454 34.4527787,28.3653225 C34.1521317,28.7463564 33.8295123,29.1086334 33.4870641,29.4516175 C31.2592751,31.6788707 28.184744,33.0556304 24.7859857,33.0556304 C21.3877634,33.0556304 18.3132323,31.6788707 16.0854433,29.4516175 C15.7424592,29.1086334 15.4203756,28.7463564 15.1202645,28.3653225 C14.7579876,27.9060454 14.4278653,27.4210444 14.1331134,26.9129992 L14.1331134,26.9129992 Z M14.6047165,28.3653225 C16.9236107,31.4607542 20.6208723,33.4639958 24.7859857,33.4639958 C28.951635,33.4639958 32.6488966,31.4607542 34.9683267,28.3653225 C35.3129186,27.9044376 35.6280353,27.4189007 35.9088535,26.9129992 L36.9415573,26.9129992 C36.6859269,27.4156852 36.4002854,27.9006862 36.0867765,28.3653225 C35.5964164,29.0914842 35.0379954,29.7672701 34.420624,30.3851774 C31.9538179,32.8514476 28.5497005,34.3755833 24.7859857,34.3761192 C21.0228068,34.3755833 17.6186895,32.8514476 15.1518834,30.3851774 C14.534512,29.7672701 13.9760909,29.0914842 13.4857308,28.3653225 C13.1722219,27.9006862 12.8865805,27.4156852 12.6309501,26.9129992 L13.6636539,26.9129992 C13.9444721,27.4189007 14.2595888,27.9044376 14.6047165,28.3653225 L14.6047165,28.3653225 Z M43.2417468,28.3653225 C42.2374464,30.694935 40.8012004,32.794105 39.0326886,34.5631527 C35.433499,38.1623423 30.4629088,40.3874518 24.9698038,40.3879877 C19.4772347,40.3874518 14.5077163,38.1623423 10.9074549,34.5631527 C9.13894305,32.794105 7.70216114,30.694935 6.69786077,28.3653225 C6.49314212,27.8910398 6.30664451,27.4060388 6.13890383,26.9129992 L6.53815879,26.9129992 C6.70429172,27.4065747 6.89025342,27.8905039 7.09497207,28.3653225 C10.0462432,35.2126789 16.8566216,40.0064179 24.7859857,40.0064179 C32.7158857,40.0064179 39.5262641,35.2126789 42.4775353,28.3653225 C42.6822539,27.8905039 42.8682156,27.4065747 43.0348845,26.9129992 L43.8012396,26.9129992 C43.633499,27.4060388 43.4470013,27.8910398 43.2417468,28.3653225 L43.2417468,28.3653225 Z M24.7859857,6.31680282 C19.4268589,6.31680282 14.7499489,9.23752696 12.2600985,13.5741324 C12.0886065,13.8731717 11.9272968,14.1786419 11.7772412,14.4900072 L7.43742027,14.4900072 C7.54889011,14.1807856 7.66839864,13.8753153 7.79594586,13.5741324 C8.72950576,11.3683158 10.0794698,9.38168747 11.7483019,7.71285537 C15.086502,4.37519116 19.6932075,2.31246324 24.7859857,2.31246324 C29.8798358,2.31246324 34.4860053,4.37519116 37.8242054,7.71285537 C39.4930376,9.38168747 40.8430016,11.3683158 41.7765615,13.5741324 C41.9035728,13.8753153 42.0236173,14.1807856 42.1350871,14.4900072 L37.7952662,14.4900072 C37.6457465,14.1786419 37.4839009,13.8731717 37.3118729,13.5741324 C34.8225585,9.23752696 30.1456485,6.31680282 24.7859857,6.31680282 L24.7859857,6.31680282 Z M35.3815154,14.4900072 L14.1909919,14.4900072 C14.3780255,14.1754264 14.5779209,13.8699562 14.7901423,13.5741324 C15.1808227,13.0312529 15.6138401,12.5215999 16.0854433,12.0505326 C18.3132323,9.82327952 21.3877634,8.44651984 24.7859857,8.44651984 C28.184744,8.44651984 31.2592751,9.82327952 33.4870641,12.0505326 C33.9586672,12.5215999 34.3922206,13.0312529 34.782365,13.5741324 C34.9951224,13.8699562 35.1950178,14.1754264 35.3815154,14.4900072 L35.3815154,14.4900072 Z M35.2812998,13.5741324 C32.9908089,10.231645 29.1445636,8.03815437 24.7859857,8.03815437 C20.4284797,8.03815437 16.5816984,10.231645 14.2912076,13.5741324 C14.0880967,13.871028 13.8973118,14.1759624 13.7193888,14.4900072 L12.6813259,14.4900072 C12.8437074,14.1775701 13.0173432,13.8720999 13.202233,13.5741324 C13.7569027,12.6813019 14.411788,11.8565323 15.1518834,11.1164368 C17.6186895,8.65016666 21.0228068,7.12656689 24.7859857,7.12603098 C28.5497005,7.12656689 31.9538179,8.65016666 34.420624,11.1164368 C35.1607194,11.8565323 35.8161406,12.6813019 36.3702743,13.5741324 C36.5551642,13.8720999 36.7293358,14.1775701 36.8911815,14.4900072 L35.8536545,14.4900072 C35.6751956,14.1759624 35.4844107,13.871028 35.2812998,13.5741324 L35.2812998,13.5741324 Z M6.32165006,13.5741324 C7.32648635,10.8688452 8.9047492,8.4406248 10.9074549,6.43738318 C14.5077163,2.83819358 19.4772347,0.613084112 24.9698038,0.612548199 C30.4629088,0.613084112 35.433499,2.83819358 39.0326886,6.43738318 C41.0353943,8.4406248 42.6131212,10.8688452 43.6184934,13.5741324 C43.7310351,13.8763872 43.835538,14.1813215 43.9336101,14.4900072 L43.001122,14.4900072 C42.8950113,14.1813215 42.7813978,13.8753153 42.6602815,13.5741324 C39.8145852,6.49418992 32.8841623,1.49519639 24.7859857,1.49519639 C16.6878091,1.49519639 9.7579222,6.49418992 6.91276175,13.5741324 C6.79110957,13.8753153 6.67749608,14.1813215 6.57138537,14.4900072 L6.0065334,14.4900072 C6.10406951,14.1813215 6.2091084,13.8763872 6.32165006,13.5741324 L6.32165006,13.5741324 Z M49.8688431,14.8045879 C49.8329369,14.7322397 49.7723788,14.6491733 49.67913,14.5870074 C49.586953,14.5248415 49.4679804,14.4900072 49.3468641,14.4900072 L49.341505,14.4900072 L46.2696535,14.4900072 L44.5750975,14.4900072 C44.4807769,14.1818574 44.3789535,13.8763872 44.2706991,13.5741324 C41.4308978,5.66030978 33.8616671,0.000535912685 24.9698038,0 C16.0784764,0.000535912685 8.50924564,5.66030978 5.66944432,13.5741324 C5.56065405,13.8763872 5.45936655,14.1818574 5.36504592,14.4900072 L4.08367869,14.4900072 L0.595423016,14.4900072 C0.569699208,14.4916149 0.459837107,14.4878635 0.313532944,14.558604 C0.242256557,14.5939743 0.15919009,14.6550683 0.0964883063,14.7483171 C0.0337865221,14.8415659 -0.00104780249,14.9632181 2.40228853e-05,15.0859421 L2.40228853e-05,26.3176002 C0.00109584826,26.3427881 -0.00211962786,26.4531861 0.0680849339,26.5989543 C0.103991084,26.6707666 0.164013305,26.7538331 0.258333937,26.815999 C0.349975006,26.8781648 0.468947623,26.9129992 0.59006389,26.9129992 L0.595423016,26.9129992 L4.08367869,26.9129992 L5.49259314,26.9129992 C5.65443877,27.404967 5.83557725,27.8905039 6.03279312,28.3653225 C9.11697063,35.7844977 16.4343224,41 24.9698038,41 C33.505821,41 40.8231728,35.7844977 43.9073503,28.3653225 C44.1045662,27.8905039 44.2851688,27.404967 44.4470144,26.9129992 L46.2696535,26.9129992 L49.341505,26.9129992 C49.3677647,26.9113914 49.4770909,26.9151428 49.623395,26.8444023 C49.6952073,26.8090321 49.7782738,26.748474 49.8404397,26.6541533 C49.9042133,26.5614404 49.9385117,26.4397882 49.9374399,26.3176002 L49.9374399,15.0859421 C49.9358321,15.0602183 49.9390476,14.9503562 49.8688431,14.8045879 L49.8688431,14.8045879 Z" id="logo_oficialpreparationmaterial"></path>
                    </g>
                </g>
            </g>
        </g>
    </g>
</svg>