<svg id="1c03d2ef-02e6-4aee-903a-5fd4996f4d2a" data-name="Layer 2" xmlns="http://www.w3.org/2000/svg" viewBox="0 0 287 331"><defs><style>.\35 acaf399-1c2d-4894-b73e-cbcbb464d961{fill:#88d143;}.\30 f95d1e9-92f3-4127-a9cd-7e0ecdb2ae26,.\33 037dded-2cfc-43ab-956b-ec89e6851426,.\34 514e0f7-45e9-48ce-ac76-7fff26130260,.\37 5218f74-356a-46ba-ae56-72d55d1e261b,.\39 ab7a3ea-87ea-4e06-b765-2af0be489be7,.a8a656b3-773c-4af1-86d2-fa5c4433115a,.c32e5b60-1004-4ff1-b5af-b7a1ff7d43e4,.ec555ce6-1e13-4e04-abd8-c3ccbe262ec8{fill:none;}.\33 037dded-2cfc-43ab-956b-ec89e6851426,.\34 514e0f7-45e9-48ce-ac76-7fff26130260,.\35 366e2e8-0223-4604-ab02-ec80870aede3,.\37 5218f74-356a-46ba-ae56-72d55d1e261b,.\38 ede9797-1f77-4dec-b28e-750eca17ec6d,.a8a656b3-773c-4af1-86d2-fa5c4433115a,.a98a545e-7c61-4b0a-b4d9-29f4d7f5496f,.af8f0950-a4e0-4af3-b251-5576b9b8d904,.b610f6b4-f802-4067-90ca-9576ecff6629{stroke:#2e2e2e;}.\30 f95d1e9-92f3-4127-a9cd-7e0ecdb2ae26,.\33 037dded-2cfc-43ab-956b-ec89e6851426,.\34 514e0f7-45e9-48ce-ac76-7fff26130260,.\35 366e2e8-0223-4604-ab02-ec80870aede3,.\37 5218f74-356a-46ba-ae56-72d55d1e261b,.\38 ede9797-1f77-4dec-b28e-750eca17ec6d,.\39 ab7a3ea-87ea-4e06-b765-2af0be489be7,.a8a656b3-773c-4af1-86d2-fa5c4433115a,.a98a545e-7c61-4b0a-b4d9-29f4d7f5496f,.af8f0950-a4e0-4af3-b251-5576b9b8d904,.b610f6b4-f802-4067-90ca-9576ecff6629,.c32e5b60-1004-4ff1-b5af-b7a1ff7d43e4,.ec555ce6-1e13-4e04-abd8-c3ccbe262ec8{stroke-width:3.13px;}.\34 316699c-2895-4dee-b7d9-c969abbcd0e5{fill:#fff;}.\35 5b51e51-75b3-4e28-99fc-aecec66f0d54,.a98a545e-7c61-4b0a-b4d9-29f4d7f5496f{fill:#b7bec0;}.\33 037dded-2cfc-43ab-956b-ec89e6851426,.\35 a1230ac-9007-49d2-b70d-9a217109820b,.\39 ab7a3ea-87ea-4e06-b765-2af0be489be7,.a98a545e-7c61-4b0a-b4d9-29f4d7f5496f{stroke-miterlimit:10;}.\34 d369ffa-3cd7-46a2-82f6-d30292c1d5fe{fill:#484f59;}.\35 a1230ac-9007-49d2-b70d-9a217109820b,.af8f0950-a4e0-4af3-b251-5576b9b8d904{fill:#30c0d8;}.\35 a1230ac-9007-49d2-b70d-9a217109820b{stroke:#30c0d8;stroke-width:1.56px;}.e7c75b61-58c3-40da-8e28-2c4bc3cc2b03{fill:#2e2e2e;}.\37 5218f74-356a-46ba-ae56-72d55d1e261b,.\38 ede9797-1f77-4dec-b28e-750eca17ec6d{stroke-linecap:round;}.\35 366e2e8-0223-4604-ab02-ec80870aede3,.\37 5218f74-356a-46ba-ae56-72d55d1e261b,.a8a656b3-773c-4af1-86d2-fa5c4433115a,.af8f0950-a4e0-4af3-b251-5576b9b8d904,.b610f6b4-f802-4067-90ca-9576ecff6629,.ec555ce6-1e13-4e04-abd8-c3ccbe262ec8{stroke-linejoin:round;}.c32e5b60-1004-4ff1-b5af-b7a1ff7d43e4,.ec555ce6-1e13-4e04-abd8-c3ccbe262ec8{stroke:#fff;}.d162b8ed-1be6-4251-9708-2fde2ad0fe5f{fill:#ffd23d;}.\38 ede9797-1f77-4dec-b28e-750eca17ec6d{fill:#f7f8fc;stroke-linejoin:bevel;}.\39 ab7a3ea-87ea-4e06-b765-2af0be489be7{stroke:#fb6120;}.\35 366e2e8-0223-4604-ab02-ec80870aede3{fill:#fb6120;}.b610f6b4-f802-4067-90ca-9576ecff6629{fill:#ffdc69;}.\30 f95d1e9-92f3-4127-a9cd-7e0ecdb2ae26{stroke:#ffd23d;}</style></defs><title>news</title><path class="5acaf399-1c2d-4894-b73e-cbcbb464d961" d="M290.42,333L3.42,167.5,290.42,2V333Z" transform="translate(-3.42 -2)"/><path class="4514e0f7-45e9-48ce-ac76-7fff26130260" d="M136.93,198.66V132a5,5,0,0,1,5-5h97.92a5,5,0,0,1,5,5v66.65" transform="translate(-3.42 -2)"/><rect class="4316699c-2895-4dee-b7d9-c969abbcd0e5" x="139.17" y="130.74" width="96.59" height="60.9"/><path class="4514e0f7-45e9-48ce-ac76-7fff26130260" d="M259.1,202.23v-3.9H201.66c-0.54,1.87-2.24,1.83-4.28,1.83h-13c-2,0-3.74,0-4.28-1.83H122.68v3.9s4.71,3.52,8.18,3.52H250.92C254.39,205.75,259.1,202.23,259.1,202.23Z" transform="translate(-3.42 -2)"/><circle class="5acaf399-1c2d-4894-b73e-cbcbb464d961" cx="239.08" cy="187.9" r="27.09"/><rect class="a98a545e-7c61-4b0a-b4d9-29f4d7f5496f" x="237.25" y="214.37" width="3.67" height="5.66"/><path class="3037dded-2cfc-43ab-956b-ec89e6851426" d="M251.45,165.62a26.1,26.1,0,1,1-21.13,47.65A25.76,25.76,0,0,1,228,212" transform="translate(-3.42 -2)"/><path class="a98a545e-7c61-4b0a-b4d9-29f4d7f5496f" d="M224.11,224.8a3.74,3.74,0,0,1,3.73-3.59h29.33a3.74,3.74,0,0,1,3.73,3.59H224.11Z" transform="translate(-3.42 -2)"/><path class="55b51e51-75b3-4e28-99fc-aecec66f0d54" d="M257,221.92H228.66a3.54,3.54,0,0,0-3.52,2.34h34.61a2.81,2.81,0,0,0-1-2A4.12,4.12,0,0,0,257,221.92Z" transform="translate(-3.42 -2)"/><line class="3037dded-2cfc-43ab-956b-ec89e6851426" x1="250.41" y1="160.69" x2="223.46" y2="213.63"/><path class="4316699c-2895-4dee-b7d9-c969abbcd0e5" d="M234,208.57a20.34,20.34,0,0,1-9.41-8.42l8.55-7.27a0.31,0.31,0,0,0,.08-0.37l-3.33-7.44a0.32,0.32,0,0,0-.22-0.18,0.31,0.31,0,0,0-.28.08l-3.87,3.52a0.32,0.32,0,0,0-.1.25l0.25,4-1.86,4.13a0.35,0.35,0,0,0,0,.13v1.59a20.37,20.37,0,0,1-.59-16.16l0.15,0.53a0.3,0.3,0,0,0,.07.12l3,3.37a0.35,0.35,0,0,0,.11.08,0.31,0.31,0,0,0,.27,0,0.31,0.31,0,0,0,.16-0.35l-1-3.86,0.91-1,2.43,0.8a0.3,0.3,0,0,0,.2,0l6.33-2.06a0.31,0.31,0,0,0,.2-0.39l-1.23-4.37a0.31,0.31,0,0,0-.48-0.17l-1.82,1.28-0.28-2,3.18-2.45,3.06-2.23a20.37,20.37,0,0,1,22,10.88l-4.7.34-5.06-.57-2.51-2.34-4.56,1.52,0.34,2.06-3,.34-0.43,1.73,2.75,1.79,1.44,1.88-1.4-.25-0.88-1.36-2.8-.52-3.41,3.58,0.3,2.88,2.2,1.08-1.18,4.77V202l2.71-.43,7.19-7-1.71-1.73,0.29-1.24,1.2,1.2,1,0.78,1.82-1,0.34,3.6,3.3-.6,0.26,4.74,6.08-5.12,2.31-1.8A20.42,20.42,0,0,1,234,208.57Z" transform="translate(-3.42 -2)"/><path class="4d369ffa-3cd7-46a2-82f6-d30292c1d5fe" d="M236.29,177.88h0s0.1,0,.09-0.05h0S236.27,177.84,236.29,177.88Z" transform="translate(-3.42 -2)"/><path class="5a1230ac-9007-49d2-b70d-9a217109820b" d="M262.51,192.5l-2.84,2.21L254.54,199l-0.23-4.19-3.33.6-0.37-3.86-2.29,1.22-0.66-.51-2-2L245.07,193l1.51,1.52L240,200.94l-1.79.28v-3.46l1.29-5.23-2.35-1.15-0.24-2.25,3-3.12,2.2,0.41,0.88,1.36,3.26,0.57-2.45-3.2-2.5-1.65,0.22-.87,3.26-.36-0.36-2.19,3.7-1.24,2.38,2.23,5.33,0.6,5-.36A20.48,20.48,0,0,1,262.51,192.5Z" transform="translate(-3.42 -2)"/><path class="5a1230ac-9007-49d2-b70d-9a217109820b" d="M236.93,170.18l-1.88,1.37-3.33,2.57a0.32,0.32,0,0,0-.12.29l0.39,2.64a0.35,0.35,0,0,0,.19.24,0.31,0.31,0,0,0,.3,0l1.88-1.32,1,3.65-6,1.94-2.52-.84a0.32,0.32,0,0,0-.33.08L225.41,182a0.31,0.31,0,0,0-.07.29l0.71,2.77L224,182.75l-0.35-1.23A20.39,20.39,0,0,1,236.93,170.18Z" transform="translate(-3.42 -2)"/><path class="5a1230ac-9007-49d2-b70d-9a217109820b" d="M226.34,192.82l-0.24-4,3.44-3.13,3.06,6.83-8.14,6.92V197.1l1.86-4.13A0.31,0.31,0,0,0,226.34,192.82Z" transform="translate(-3.42 -2)"/><path class="5a1230ac-9007-49d2-b70d-9a217109820b" d="M238.39,177.06l-0.17-5.34a18.86,18.86,0,0,1,6.76.61L242.29,176Z" transform="translate(-3.42 -2)"/><path class="e7c75b61-58c3-40da-8e28-2c4bc3cc2b03" d="M242.53,170a19.89,19.89,0,1,1-18.23,11.87A19.78,19.78,0,0,1,242.53,170m0-2.35a22.24,22.24,0,0,0-9,42.58,22,22,0,0,0,8.94,1.89,22.24,22.24,0,0,0,9-42.59,22,22,0,0,0-8.94-1.89h0Z" transform="translate(-3.42 -2)"/><path class="4d369ffa-3cd7-46a2-82f6-d30292c1d5fe" d="M237.38,171.27s-0.08,0-.06.06h0a0.05,0.05,0,0,0,.06-0.06h0Z" transform="translate(-3.42 -2)"/><path class="4d369ffa-3cd7-46a2-82f6-d30292c1d5fe" d="M236.75,178.16s-0.08,0-.07.06h0s0.08,0,.07-0.06h0Z" transform="translate(-3.42 -2)"/><polygon class="75218f74-356a-46ba-ae56-72d55d1e261b" points="226.79 183.35 223.02 186.79 223.27 190.78 221.43 194.87 221.43 197.91 230.03 190.6 226.79 183.35"/><polyline class="a8a656b3-773c-4af1-86d2-fa5c4433115a" points="235.4 167.99 232.24 170.29 229 172.79 229.37 175.37 231.56 173.84 232.76 178.09 226.59 180.1 224.04 179.26 222.9 180.48 223.9 184.4 220.99 181.11 220.53 179.49"/><path class="3037dded-2cfc-43ab-956b-ec89e6851426" d="M238.25,171.93l0.19,5.88,4.27-1.16,2.93-4S243.27,171.6,238.25,171.93Z" transform="translate(-3.42 -2)"/><path class="3037dded-2cfc-43ab-956b-ec89e6851426" d="M261.2,181.21l-5.55.4-5-.57-2.38-2.23-4,1.34,0.34,2.07-3.07.34-0.32,1.27,2.54,1.66,1.91,2.49-2.27-.4-0.86-1.32-2.44-.45L237,189.07l0.26,2.5,2.22,1.09-1.21,4.89v3.76l2.19-.35,6.71-6.53-1.56-1.58,0.45-1.91,1.53,1.53,0.83,0.64,2-1.06,0.35,3.63,3.22-.58,0.24,4.34,5.46-4.6,3.28-2.55" transform="translate(-3.42 -2)"/><line class="c32e5b60-1004-4ff1-b5af-b7a1ff7d43e4" x1="119.8" y1="184.52" x2="105.68" y2="184.52"/><line class="c32e5b60-1004-4ff1-b5af-b7a1ff7d43e4" x1="127.19" y1="184.52" x2="122.49" y2="184.52"/><line class="3037dded-2cfc-43ab-956b-ec89e6851426" x1="162.45" y1="104.95" x2="162.45" y2="105.93"/><line class="3037dded-2cfc-43ab-956b-ec89e6851426" x1="161.27" y1="105.01" x2="161.35" y2="105.98"/><line class="3037dded-2cfc-43ab-956b-ec89e6851426" x1="160.09" y1="105.16" x2="160.26" y2="106.13"/><line class="3037dded-2cfc-43ab-956b-ec89e6851426" x1="158.93" y1="105.42" x2="159.18" y2="106.36"/><line class="3037dded-2cfc-43ab-956b-ec89e6851426" x1="157.8" y1="105.77" x2="158.13" y2="106.7"/><line class="3037dded-2cfc-43ab-956b-ec89e6851426" x1="156.7" y1="106.23" x2="157.11" y2="107.12"/><line class="3037dded-2cfc-43ab-956b-ec89e6851426" x1="155.64" y1="106.78" x2="156.13" y2="107.63"/><line class="3037dded-2cfc-43ab-956b-ec89e6851426" x1="154.64" y1="107.42" x2="155.2" y2="108.22"/><line class="3037dded-2cfc-43ab-956b-ec89e6851426" x1="153.7" y1="108.14" x2="154.33" y2="108.89"/><line class="3037dded-2cfc-43ab-956b-ec89e6851426" x1="152.82" y1="108.94" x2="153.52" y2="109.63"/><line class="3037dded-2cfc-43ab-956b-ec89e6851426" x1="152.02" y1="109.82" x2="152.77" y2="110.45"/><line class="3037dded-2cfc-43ab-956b-ec89e6851426" x1="151.3" y1="110.76" x2="152.1" y2="111.32"/><line class="3037dded-2cfc-43ab-956b-ec89e6851426" x1="150.66" y1="111.76" x2="151.51" y2="112.25"/><line class="3037dded-2cfc-43ab-956b-ec89e6851426" x1="150.11" y1="112.82" x2="151" y2="113.23"/><line class="3037dded-2cfc-43ab-956b-ec89e6851426" x1="149.65" y1="113.91" x2="150.58" y2="114.25"/><line class="3037dded-2cfc-43ab-956b-ec89e6851426" x1="149.3" y1="115.05" x2="150.25" y2="115.3"/><line class="3037dded-2cfc-43ab-956b-ec89e6851426" x1="149.04" y1="116.21" x2="150.01" y2="116.38"/><line class="3037dded-2cfc-43ab-956b-ec89e6851426" x1="148.89" y1="117.38" x2="149.86" y2="117.47"/><line class="3037dded-2cfc-43ab-956b-ec89e6851426" x1="148.83" y1="118.57" x2="149.82" y2="118.57"/><line class="3037dded-2cfc-43ab-956b-ec89e6851426" x1="148.89" y1="119.76" x2="149.86" y2="119.67"/><line class="3037dded-2cfc-43ab-956b-ec89e6851426" x1="149.04" y1="120.93" x2="150.01" y2="120.76"/><line class="3037dded-2cfc-43ab-956b-ec89e6851426" x1="149.3" y1="122.09" x2="150.24" y2="121.84"/><line class="3037dded-2cfc-43ab-956b-ec89e6851426" x1="149.65" y1="123.23" x2="150.58" y2="122.89"/><line class="3037dded-2cfc-43ab-956b-ec89e6851426" x1="150.11" y1="124.33" x2="151" y2="123.91"/><line class="3037dded-2cfc-43ab-956b-ec89e6851426" x1="150.66" y1="125.38" x2="151.51" y2="124.89"/><line class="3037dded-2cfc-43ab-956b-ec89e6851426" x1="151.3" y1="126.38" x2="152.1" y2="125.82"/><line class="3037dded-2cfc-43ab-956b-ec89e6851426" x1="152.02" y1="127.32" x2="152.77" y2="126.69"/><line class="3037dded-2cfc-43ab-956b-ec89e6851426" x1="152.82" y1="128.2" x2="153.52" y2="127.51"/><line class="3037dded-2cfc-43ab-956b-ec89e6851426" x1="153.7" y1="129" x2="154.33" y2="128.25"/><line class="3037dded-2cfc-43ab-956b-ec89e6851426" x1="154.64" y1="129.73" x2="155.2" y2="128.92"/><line class="3037dded-2cfc-43ab-956b-ec89e6851426" x1="155.64" y1="130.36" x2="156.13" y2="129.51"/><line class="3037dded-2cfc-43ab-956b-ec89e6851426" x1="156.7" y1="130.91" x2="157.11" y2="130.02"/><line class="3037dded-2cfc-43ab-956b-ec89e6851426" x1="157.79" y1="131.37" x2="158.13" y2="130.45"/><line class="3037dded-2cfc-43ab-956b-ec89e6851426" x1="158.93" y1="131.72" x2="159.18" y2="130.78"/><line class="3037dded-2cfc-43ab-956b-ec89e6851426" x1="160.09" y1="131.98" x2="160.26" y2="131.02"/><line class="3037dded-2cfc-43ab-956b-ec89e6851426" x1="161.26" y1="132.14" x2="161.35" y2="131.16"/><line class="3037dded-2cfc-43ab-956b-ec89e6851426" x1="162.45" y1="132.19" x2="162.45" y2="131.21"/><line class="3037dded-2cfc-43ab-956b-ec89e6851426" x1="163.64" y1="132.14" x2="163.55" y2="131.16"/><line class="3037dded-2cfc-43ab-956b-ec89e6851426" x1="164.82" y1="131.98" x2="164.65" y2="131.02"/><line class="3037dded-2cfc-43ab-956b-ec89e6851426" x1="165.98" y1="131.72" x2="165.72" y2="130.78"/><line class="3037dded-2cfc-43ab-956b-ec89e6851426" x1="167.11" y1="131.37" x2="166.77" y2="130.45"/><line class="3037dded-2cfc-43ab-956b-ec89e6851426" x1="168.2" y1="130.91" x2="167.79" y2="130.02"/><line class="3037dded-2cfc-43ab-956b-ec89e6851426" x1="169.26" y1="130.36" x2="168.77" y2="129.52"/><line class="3037dded-2cfc-43ab-956b-ec89e6851426" x1="170.26" y1="129.73" x2="169.7" y2="128.92"/><line class="3037dded-2cfc-43ab-956b-ec89e6851426" x1="171.2" y1="129" x2="170.57" y2="128.25"/><line class="3037dded-2cfc-43ab-956b-ec89e6851426" x1="172.08" y1="128.2" x2="171.39" y2="127.51"/><line class="3037dded-2cfc-43ab-956b-ec89e6851426" x1="172.88" y1="127.32" x2="172.13" y2="126.69"/><line class="3037dded-2cfc-43ab-956b-ec89e6851426" x1="173.6" y1="126.38" x2="172.8" y2="125.82"/><line class="3037dded-2cfc-43ab-956b-ec89e6851426" x1="174.24" y1="125.38" x2="173.39" y2="124.89"/><line class="3037dded-2cfc-43ab-956b-ec89e6851426" x1="174.79" y1="124.33" x2="173.9" y2="123.91"/><line class="3037dded-2cfc-43ab-956b-ec89e6851426" x1="175.25" y1="123.23" x2="174.33" y2="122.89"/><line class="3037dded-2cfc-43ab-956b-ec89e6851426" x1="175.6" y1="122.1" x2="174.66" y2="121.84"/><line class="3037dded-2cfc-43ab-956b-ec89e6851426" x1="175.86" y1="120.94" x2="174.9" y2="120.77"/><line class="3037dded-2cfc-43ab-956b-ec89e6851426" x1="176.02" y1="119.76" x2="175.04" y2="119.67"/><line class="3037dded-2cfc-43ab-956b-ec89e6851426" x1="176.07" y1="118.57" x2="175.09" y2="118.57"/><line class="3037dded-2cfc-43ab-956b-ec89e6851426" x1="176.02" y1="117.38" x2="175.04" y2="117.47"/><line class="3037dded-2cfc-43ab-956b-ec89e6851426" x1="175.86" y1="116.21" x2="174.9" y2="116.38"/><line class="3037dded-2cfc-43ab-956b-ec89e6851426" x1="175.6" y1="115.05" x2="174.66" y2="115.3"/><line class="3037dded-2cfc-43ab-956b-ec89e6851426" x1="175.25" y1="113.91" x2="174.33" y2="114.25"/><line class="3037dded-2cfc-43ab-956b-ec89e6851426" x1="174.79" y1="112.82" x2="173.9" y2="113.23"/><line class="3037dded-2cfc-43ab-956b-ec89e6851426" x1="174.24" y1="111.76" x2="173.4" y2="112.25"/><line class="3037dded-2cfc-43ab-956b-ec89e6851426" x1="173.61" y1="110.76" x2="172.8" y2="111.32"/><line class="3037dded-2cfc-43ab-956b-ec89e6851426" x1="172.88" y1="109.82" x2="172.13" y2="110.45"/><line class="3037dded-2cfc-43ab-956b-ec89e6851426" x1="172.08" y1="108.94" x2="171.39" y2="109.64"/><line class="3037dded-2cfc-43ab-956b-ec89e6851426" x1="171.21" y1="108.14" x2="170.57" y2="108.89"/><line class="3037dded-2cfc-43ab-956b-ec89e6851426" x1="170.26" y1="107.42" x2="169.7" y2="108.22"/><line class="3037dded-2cfc-43ab-956b-ec89e6851426" x1="169.26" y1="106.78" x2="168.77" y2="107.63"/><line class="3037dded-2cfc-43ab-956b-ec89e6851426" x1="168.21" y1="106.23" x2="167.79" y2="107.12"/><line class="3037dded-2cfc-43ab-956b-ec89e6851426" x1="167.11" y1="105.78" x2="166.77" y2="106.7"/><line class="3037dded-2cfc-43ab-956b-ec89e6851426" x1="165.98" y1="105.42" x2="165.72" y2="106.36"/><line class="3037dded-2cfc-43ab-956b-ec89e6851426" x1="164.82" y1="105.16" x2="164.65" y2="106.13"/><line class="3037dded-2cfc-43ab-956b-ec89e6851426" x1="163.64" y1="105.01" x2="163.55" y2="105.98"/><circle class="d162b8ed-1be6-4251-9708-2fde2ad0fe5f" cx="162.45" cy="118.57" r="18.65"/><line class="3037dded-2cfc-43ab-956b-ec89e6851426" x1="162.45" y1="103.23" x2="162.45" y2="106.42"/><line class="3037dded-2cfc-43ab-956b-ec89e6851426" x1="170.12" y1="105.29" x2="168.53" y2="108.04"/><line class="3037dded-2cfc-43ab-956b-ec89e6851426" x1="175.74" y1="110.9" x2="172.98" y2="112.49"/><line class="3037dded-2cfc-43ab-956b-ec89e6851426" x1="177.79" y1="118.57" x2="174.61" y2="118.57"/><line class="3037dded-2cfc-43ab-956b-ec89e6851426" x1="175.74" y1="126.24" x2="172.98" y2="124.65"/><line class="3037dded-2cfc-43ab-956b-ec89e6851426" x1="170.12" y1="131.86" x2="168.53" y2="129.1"/><line class="3037dded-2cfc-43ab-956b-ec89e6851426" x1="162.45" y1="133.91" x2="162.45" y2="130.73"/><line class="3037dded-2cfc-43ab-956b-ec89e6851426" x1="154.78" y1="131.86" x2="156.38" y2="129.1"/><line class="3037dded-2cfc-43ab-956b-ec89e6851426" x1="149.17" y1="126.24" x2="151.93" y2="124.65"/><line class="3037dded-2cfc-43ab-956b-ec89e6851426" x1="147.11" y1="118.57" x2="150.3" y2="118.57"/><line class="3037dded-2cfc-43ab-956b-ec89e6851426" x1="149.17" y1="110.9" x2="151.93" y2="112.49"/><line class="3037dded-2cfc-43ab-956b-ec89e6851426" x1="154.78" y1="105.29" x2="156.37" y2="108.04"/><circle class="8ede9797-1f77-4dec-b28e-750eca17ec6d" cx="165.87" cy="120.57" r="0.96" transform="matrix(0.67, -0.75, 0.75, 0.67, -38.02, 161.73)"/><line class="3037dded-2cfc-43ab-956b-ec89e6851426" x1="169.77" y1="110.39" x2="163.09" y2="117.86"/><line class="3037dded-2cfc-43ab-956b-ec89e6851426" x1="155.46" y1="112.31" x2="162.04" y2="118.19"/><circle class="9ab7a3ea-87ea-4e06-b765-2af0be489be7" cx="111.85" cy="151.13" r="3.1"/><path class="af8f0950-a4e0-4af3-b251-5576b9b8d904" d="M140.35,172.06l7.6-7.6a10.75,10.75,0,1,1-15.2,0,10.42,10.42,0,0,1,9.28-3Z" transform="translate(-3.42 -2)"/><path class="5366e2e8-0223-4604-ab02-ec80870aede3" d="M140.35,161.31a10.75,10.75,0,0,1,10.75,10.75,10.42,10.42,0,0,1-4.43,8.69l-6.32-8.69" transform="translate(-3.42 -2)"/><path class="b610f6b4-f802-4067-90ca-9576ecff6629" d="M140.35,172.05l10.22,3.32a10.74,10.74,0,0,0-6.9-13.54,10.22,10.22,0,0,0-3.32-.53v10.74Z" transform="translate(-3.42 -2)"/><rect class="ec555ce6-1e13-4e04-abd8-c3ccbe262ec8" x="217.46" y="83.13" width="14.41" height="14.41"/><line class="ec555ce6-1e13-4e04-abd8-c3ccbe262ec8" x1="217.46" y1="97.54" x2="231.87" y2="83.13"/><line class="ec555ce6-1e13-4e04-abd8-c3ccbe262ec8" x1="217.46" y1="83.13" x2="231.87" y2="97.54"/><line class="0f95d1e9-92f3-4127-a9cd-7e0ecdb2ae26" x1="158.91" y1="148.91" x2="177.04" y2="148.91"/><line class="0f95d1e9-92f3-4127-a9cd-7e0ecdb2ae26" x1="179.21" y1="148.91" x2="197.34" y2="148.91"/><line class="0f95d1e9-92f3-4127-a9cd-7e0ecdb2ae26" x1="190.63" y1="148.91" x2="205.86" y2="148.91"/><line class="0f95d1e9-92f3-4127-a9cd-7e0ecdb2ae26" x1="158.91" y1="154.97" x2="166.71" y2="154.97"/><line class="0f95d1e9-92f3-4127-a9cd-7e0ecdb2ae26" x1="170.69" y1="154.97" x2="197.34" y2="154.97"/><line class="0f95d1e9-92f3-4127-a9cd-7e0ecdb2ae26" x1="199.52" y1="154.97" x2="208.58" y2="154.97"/><line class="0f95d1e9-92f3-4127-a9cd-7e0ecdb2ae26" x1="158.91" y1="160.64" x2="177.04" y2="160.64"/><line class="0f95d1e9-92f3-4127-a9cd-7e0ecdb2ae26" x1="179.21" y1="160.64" x2="197.34" y2="160.64"/><line class="0f95d1e9-92f3-4127-a9cd-7e0ecdb2ae26" x1="194.49" y1="160.64" x2="210.92" y2="160.64"/><line class="0f95d1e9-92f3-4127-a9cd-7e0ecdb2ae26" x1="158.91" y1="166.71" x2="166.71" y2="166.71"/><line class="0f95d1e9-92f3-4127-a9cd-7e0ecdb2ae26" x1="170.69" y1="166.71" x2="197.34" y2="166.71"/><line class="0f95d1e9-92f3-4127-a9cd-7e0ecdb2ae26" x1="199.52" y1="166.71" x2="208.58" y2="166.71"/><line class="0f95d1e9-92f3-4127-a9cd-7e0ecdb2ae26" x1="158.91" y1="172.77" x2="177.04" y2="172.77"/><line class="0f95d1e9-92f3-4127-a9cd-7e0ecdb2ae26" x1="179.21" y1="172.77" x2="192.08" y2="172.77"/></svg>