<svg id="bd17562f-fae8-4d5a-bed1-5ffd7d4d4a6b" data-name="Layer 2" xmlns="http://www.w3.org/2000/svg" viewBox="0 0 280 346"><defs><style>.\30 71dce3c-b408-4d1b-91f7-c0a2f4aa6327,.c2fc4809-ec1d-4ddf-a883-82b2128574a2{fill:#30c0d8;}.\34 5732da2-45c3-462f-8bcd-1d0a27afe597{fill:#88d143;}.\33 0b3e3b8-e29a-4ff8-82c5-1fc2bc1f193d,.\34 5732da2-45c3-462f-8bcd-1d0a27afe597,.\35 8d588c4-0c6d-4169-915a-8ae7c913fa79,.c2fc4809-ec1d-4ddf-a883-82b2128574a2{stroke:#2e2e2e;}.\33 0b3e3b8-e29a-4ff8-82c5-1fc2bc1f193d,.\33 2cc6157-2082-49df-af7c-4a404d1f3c70,.\34 5732da2-45c3-462f-8bcd-1d0a27afe597,.\35 8d588c4-0c6d-4169-915a-8ae7c913fa79,.c2fc4809-ec1d-4ddf-a883-82b2128574a2{stroke-width:3px;}.\33 2cc6157-2082-49df-af7c-4a404d1f3c70,.\34 2da1f2c-6863-4288-b8e4-b5735b732927,.\35 8d588c4-0c6d-4169-915a-8ae7c913fa79,.\36 860a57a-b72a-4d4b-a017-fb47c42d8463,.\37 3b987bf-7e64-412d-8163-339618daaa77{fill:none;}.\33 2cc6157-2082-49df-af7c-4a404d1f3c70,.\34 2da1f2c-6863-4288-b8e4-b5735b732927,.\37 3b987bf-7e64-412d-8163-339618daaa77{stroke:#282d33;}.\37 fc1b9fe-b18a-4c27-ae82-ac21fd3bd50b{fill:#fff;}.\37 8d655f3-0259-4a0e-a673-b0346e51070f{fill:#fde052;}.\33 0b3e3b8-e29a-4ff8-82c5-1fc2bc1f193d,.\35 30099b0-b8f3-4a4c-b1cb-d925d04cfec0{fill:#2e2e2e;}.\34 7300025-e62c-4f68-b54c-46af713a3e99{fill:#fb6120;}.\34 2da1f2c-6863-4288-b8e4-b5735b732927,.\37 3b987bf-7e64-412d-8163-339618daaa77{stroke-width:3.2px;}.\37 3b987bf-7e64-412d-8163-339618daaa77{stroke-dasharray:3.2;}.\39 606255f-ac32-4cbd-a833-751ba070c87d{fill:#282d33;}</style></defs><title>pizarra</title><rect class="071dce3c-b408-4d1b-91f7-c0a2f4aa6327" width="280" height="346"/><rect class="45732da2-45c3-462f-8bcd-1d0a27afe597" x="119.75" y="145.7" width="20" height="8"/><rect class="c2fc4809-ec1d-4ddf-a883-82b2128574a2" x="145.75" y="145.7" width="20" height="8"/><line class="58d588c4-0c6d-4169-915a-8ae7c913fa79" x1="119.25" y1="132.7" x2="158.25" y2="132.7"/><line class="58d588c4-0c6d-4169-915a-8ae7c913fa79" x1="119.25" y1="125.7" x2="158.25" y2="125.7"/><line class="58d588c4-0c6d-4169-915a-8ae7c913fa79" x1="119.25" y1="138.7" x2="169.25" y2="138.7"/><path class="32cc6157-2082-49df-af7c-4a404d1f3c70" d="M222.25,136.7h9.85a1.58,1.58,0,0,0,1.65-1.75V78.89c0-1-.6-2.18-1.65-2.18H197.5a2,2,0,0,0-1.74,2.18V89.2" transform="translate(-2 -2)"/><polygon class="7fc1b9fe-b18a-4c27-ae82-ac21fd3bd50b" points="202.79 126.2 228.25 126.2 228.25 83.2 197.25 83.2 197.25 93.7 201.31 94.5 201.44 98.45 202.79 126.2"/><line class="32cc6157-2082-49df-af7c-4a404d1f3c70" x1="221.25" y1="79.7" x2="204.25" y2="79.7"/><line class="32cc6157-2082-49df-af7c-4a404d1f3c70" x1="213.25" y1="129.7" x2="210.25" y2="129.7"/><path class="7fc1b9fe-b18a-4c27-ae82-ac21fd3bd50b" d="M199.25,173.2V103.73c0-.67-0.48-0.53-1.15-0.53h-109c-1.27,0-2.88.35-2.88,1.61V173.2h113Z" transform="translate(-2 -2)"/><polygon class="78d655f3-0259-4a0e-a673-b0346e51070f" points="84.25 146.1 140.25 88.38 197.25 146.1 197.25 171.2 84.25 171.2 84.25 146.1"/><path class="58d588c4-0c6d-4169-915a-8ae7c913fa79" d="M204.75,178.7V100.45c0-3.2-1.25-4.75-4.45-4.75H86.48c-3.2,0-5.73,1.55-5.73,4.75V178.7h124Z" transform="translate(-2 -2)"/><polyline class="30b3e3b8-e29a-4ff8-82c5-1fc2bc1f193d" points="169.75 176.2 169.75 180.7 194.75 180.7 194.75 176.2"/><rect class="071dce3c-b408-4d1b-91f7-c0a2f4aa6327" x="71.25" y="150.2" width="24" height="31"/><polyline class="30b3e3b8-e29a-4ff8-82c5-1fc2bc1f193d" points="153.75 93.2 153.75 90.7 127.75 90.7 127.75 93.2"/><polyline class="30b3e3b8-e29a-4ff8-82c5-1fc2bc1f193d" points="143.75 89.2 143.75 88.7 136.75 88.7 136.75 89.2"/><rect class="47300025-e62c-4f68-b54c-46af713a3e99" x="172.25" y="174.2" width="20" height="5"/><polyline class="42da1f2c-6863-4288-b8e4-b5735b732927" points="158.37 68.88 166.07 76.96 174.15 69.25"/><path class="73b987bf-7e64-412d-8163-339618daaa77" d="M219.19,61.45c-7.66-15.52-20-25-31.55-22.48C174.69,41.76,167,58.66,168.19,79" transform="translate(-2 -2)"/><path class="42da1f2c-6863-4288-b8e4-b5735b732927" d="M187.64,39C174.69,41.76,167,58.66,168.19,79" transform="translate(-2 -2)"/><polyline class="42da1f2c-6863-4288-b8e4-b5735b732927" points="122.88 195.53 115.17 187.46 107.1 195.16"/><path class="73b987bf-7e64-412d-8163-339618daaa77" d="M77.26,222.39c6.3,5.76,13.47,8.52,20.35,7,12.95-2.78,20.69-19.68,19.45-40" transform="translate(-2 -2)"/><path class="42da1f2c-6863-4288-b8e4-b5735b732927" d="M97.61,229.44c12.95-2.78,20.69-19.68,19.45-40" transform="translate(-2 -2)"/><rect class="6860a57a-b72a-4d4b-a017-fb47c42d8463" x="35.25" y="159.2" width="65" height="51"/><rect class="78d655f3-0259-4a0e-a673-b0346e51070f" x="70.25" y="185.2" width="20" height="9"/><line class="32cc6157-2082-49df-af7c-4a404d1f3c70" x1="70.25" y1="197.7" x2="90.25" y2="197.7"/><rect class="78d655f3-0259-4a0e-a673-b0346e51070f" x="46.25" y="185.2" width="20" height="9"/><line class="32cc6157-2082-49df-af7c-4a404d1f3c70" x1="46.25" y1="197.7" x2="66.25" y2="197.7"/><rect class="47300025-e62c-4f68-b54c-46af713a3e99" x="39.25" y="149.2" width="57" height="8"/><line class="32cc6157-2082-49df-af7c-4a404d1f3c70" x1="46.25" y1="165.7" x2="56.25" y2="165.7"/><rect class="9606255f-ac32-4cbd-a833-751ba070c87d" x="46.25" y="168.2" width="44" height="14"/><path class="530099b0-b8f3-4a4c-b1cb-d925d04cfec0" d="M95.25,162.2V206l-51-.26V162.2h51m3-3h-57v49.55l57,0.29V159.2h0Z" transform="translate(-2 -2)"/><circle class="530099b0-b8f3-4a4c-b1cb-d925d04cfec0" cx="43.3" cy="153.3" r="1.05"/><circle class="530099b0-b8f3-4a4c-b1cb-d925d04cfec0" cx="47.3" cy="153.3" r="1.05"/><circle class="530099b0-b8f3-4a4c-b1cb-d925d04cfec0" cx="51.3" cy="153.3" r="1.05"/><path class="32cc6157-2082-49df-af7c-4a404d1f3c70" d="M121.75,173.2v-4.73c0-3.29,3.08-5.77,6.8-5.77h29.54c3.72,0,6.66,2.48,6.66,5.77v3.73" transform="translate(-2 -2)"/><line class="32cc6157-2082-49df-af7c-4a404d1f3c70" x1="135.75" y1="161.2" x2="135.75" y2="155.2"/><line class="32cc6157-2082-49df-af7c-4a404d1f3c70" x1="146.75" y1="155.2" x2="146.75" y2="161.2"/><path class="32cc6157-2082-49df-af7c-4a404d1f3c70" d="M156.75,132.2v12.33c0,7.41-6.09,12.14-13.5,12.14h0c-7.41,0-13.5-4.73-13.5-12.14V141.2" transform="translate(-2 -2)"/><path class="32cc6157-2082-49df-af7c-4a404d1f3c70" d="M137,120.7c-2.44,0-4.58,0-5.82,2h-2.39a6.54,6.54,0,0,0-6.08,6v10.48l7,7.66V136.59a3.91,3.91,0,0,1,3.83-3.89h21.81c3.85,0,7.36-3,7.36-6.87V120.7H137Z" transform="translate(-2 -2)"/></svg>