<?xml version="1.0" encoding="UTF-8"?>
<svg width="165px" height="97px" viewBox="0 0 165 97" version="1.1" xmlns="http://www.w3.org/2000/svg" xmlns:xlink="http://www.w3.org/1999/xlink">
    <!-- Generator: Sketch 46.2 (44496) - http://www.bohemiancoding.com/sketch -->
    <title>profes</title>
    <desc>Created with Sketch.</desc>
    <defs></defs>
    <g id="DESIGN" stroke="none" stroke-width="1" fill="none" fill-rule="evenodd">
        <g id="CONTACTO_SELEC_PERFIL" transform="translate(-863.000000, -706.000000)">
            <g id="FILTER" transform="translate(394.000000, 643.000000)">
                <g id="profes" transform="translate(443.000000, 0.000000)">
                    <path d="M148.708738,106.925758 C150.951456,106.925758 153.354369,106.20303 155.837379,103.954545 C156.07767,103.713636 156.07767,103.312121 155.917476,103.071212 C155.677184,102.830303 155.276699,102.830303 155.036408,102.990909 C148.548544,108.85303 141.980583,103.231818 141.740291,102.990909 C141.5,102.75 141.099515,102.830303 140.859223,103.071212 C140.618932,103.312121 140.699029,103.713636 140.93932,103.954545 C140.93932,104.034848 144.303398,106.925758 148.708738,106.925758 Z" id="Shape" fill="#FAB200" fill-rule="nonzero"></path>
                    <path d="M58.9199029,112.145455 C58.9199029,111.824242 58.6796117,111.50303 58.2791262,111.50303 C57.9587379,111.50303 57.6383495,111.743939 57.6383495,112.145455 L57.6383495,122.183333 C57.6383495,122.504545 57.8786408,122.825758 58.2791262,122.825758 C58.5995146,122.825758 58.9199029,122.584848 58.9199029,122.183333 L58.9199029,112.145455 Z" id="Shape" fill="#FAB200" fill-rule="nonzero"></path>
                    <path d="M58.3592233,124.913636 C58.038835,124.913636 57.7184466,125.154545 57.7184466,125.556061 L57.7184466,128.768182 C57.7184466,129.089394 57.9587379,129.410606 58.3592233,129.410606 C58.6796117,129.410606 59,129.169697 59,128.768182 L59,125.556061 C58.9199029,125.154545 58.6796117,124.913636 58.3592233,124.913636 Z" id="Shape" fill="#FAB200" fill-rule="nonzero"></path>
                    <path d="M188.276699,111.101515 C188.276699,110.780303 188.51699,110.459091 188.917476,110.459091 C189.317961,110.459091 189.558252,110.780303 189.558252,111.101515 L189.558252,121.139394 C189.558252,121.540909 189.237864,121.781818 188.917476,121.781818 C188.51699,121.781818 188.276699,121.460606 188.276699,121.139394 L188.276699,111.101515 Z M188.276699,127.643939 L188.276699,124.431818 C188.276699,124.030303 188.597087,123.789394 188.917476,123.789394 C189.317961,123.789394 189.558252,124.110606 189.558252,124.431818 L189.558252,127.643939 C189.558252,128.045455 189.237864,128.286364 188.917476,128.286364 C188.51699,128.286364 188.276699,127.965152 188.276699,127.643939 Z" id="Combined-Shape" fill="#FAB200" fill-rule="nonzero"></path>
                    <path d="M45.223301,127.081818 L43.8616505,125.79697 C43.6213592,125.556061 43.6213592,125.154545 43.8616505,124.913636 C44.1019417,124.672727 44.5024272,124.672727 44.7427184,124.913636 L46.0242718,126.198485 C46.2645631,126.439394 46.2645631,126.840909 46.0242718,127.081818 C45.9441748,127.162121 45.7839806,127.242424 45.6237864,127.242424 C45.4635922,127.242424 45.3033981,127.162121 45.223301,127.081818 Z M48.1868932,129.972727 C47.9466019,129.731818 47.9466019,129.330303 48.1067961,129.089394 C48.3470874,128.848485 48.7475728,128.848485 48.9878641,129.089394 L50.2694175,130.374242 C50.5097087,130.615152 50.5097087,131.016667 50.2694175,131.257576 C50.1893204,131.337879 50.0291262,131.418182 49.868932,131.418182 C49.7087379,131.418182 49.5485437,131.337879 49.4684466,131.257576 L48.1868932,129.972727 Z M43.9417476,131.257576 C43.7014563,131.016667 43.7014563,130.695455 43.8616505,130.374242 L45.1432039,129.089394 C45.3834951,128.848485 45.7839806,128.848485 46.0242718,129.089394 C46.2645631,129.330303 46.2645631,129.731818 46.0242718,129.972727 L44.7427184,131.257576 C44.6626214,131.337879 44.5024272,131.418182 44.342233,131.418182 C44.1820388,131.418182 44.0218447,131.337879 43.9417476,131.257576 Z M48.5873786,127.242424 C48.4271845,127.242424 48.2669903,127.162121 48.1067961,127.081818 C47.8665049,126.840909 47.8665049,126.439394 48.1067961,126.198485 L49.3883495,124.913636 C49.6286408,124.672727 50.0291262,124.672727 50.2694175,124.913636 C50.5097087,125.154545 50.5097087,125.556061 50.2694175,125.79697 L48.9878641,127.081818 C48.907767,127.162121 48.7475728,127.242424 48.5873786,127.242424 Z" id="Combined-Shape" fill="#FAB200" fill-rule="nonzero"></path>
                    <path d="M185.23301,81.0681818 L183.871359,79.7833333 C183.631068,79.5424242 183.631068,79.1409091 183.871359,78.9 C184.11165,78.6590909 184.512136,78.6590909 184.752427,78.9 L186.033981,80.1848485 C186.274272,80.4257576 186.274272,80.8272727 186.033981,81.0681818 C185.953883,81.1484848 185.793689,81.2287879 185.633495,81.2287879 C185.473301,81.2287879 185.313107,81.1484848 185.23301,81.0681818 Z M189.478155,85.2439394 L188.116505,83.9590909 C187.876214,83.7181818 187.876214,83.3166667 188.116505,83.0757576 C188.356796,82.8348485 188.757282,82.8348485 188.997573,83.0757576 L190.279126,84.3606061 C190.519417,84.6015152 190.519417,85.0030303 190.279126,85.2439394 C190.199029,85.3242424 190.038835,85.4045455 189.878641,85.4045455 C189.718447,85.4045455 189.558252,85.3242424 189.478155,85.2439394 Z M184.351942,85.4848485 C184.191748,85.4848485 184.031553,85.4045455 183.871359,85.3242424 C183.631068,85.0833333 183.631068,84.6818182 183.871359,84.4409091 L185.152913,83.1560606 C185.393204,82.9151515 185.793689,82.9151515 186.033981,83.1560606 C186.274272,83.3969697 186.274272,83.7984848 186.033981,84.0393939 L184.752427,85.3242424 C184.67233,85.4045455 184.512136,85.4848485 184.351942,85.4848485 Z M188.597087,81.2287879 C188.436893,81.2287879 188.276699,81.1484848 188.116505,81.0681818 C187.876214,80.8272727 187.876214,80.4257576 188.116505,80.1848485 L189.398058,78.9 C189.63835,78.6590909 190.038835,78.6590909 190.279126,78.9 C190.519417,79.1409091 190.519417,79.5424242 190.279126,79.7833333 L188.997573,81.0681818 C188.917476,81.1484848 188.757282,81.2287879 188.597087,81.2287879 Z" id="Combined-Shape" fill="#FAB200" fill-rule="nonzero"></path>
                    <path d="M70.5339806,67.8984848 L69.1723301,66.6136364 C68.9320388,66.3727273 68.9320388,65.9712121 69.1723301,65.730303 C69.4126214,65.4893939 69.8131068,65.4893939 70.0533981,65.730303 L71.3349515,67.0151515 C71.5752427,67.2560606 71.5752427,67.6575758 71.3349515,67.8984848 C71.2548544,67.9787879 71.0946602,68.0590909 70.934466,68.0590909 C70.7742718,68.0590909 70.6140777,67.9787879 70.5339806,67.8984848 Z M74.6990291,72.1545455 L73.3373786,70.869697 C73.0970874,70.6287879 73.0970874,70.2272727 73.3373786,69.9863636 C73.5776699,69.7454545 73.9781553,69.7454545 74.2184466,69.9863636 L75.5,71.2712121 C75.7402913,71.5121212 75.7402913,71.9136364 75.5,72.1545455 C75.4199029,72.2348485 75.2597087,72.3151515 75.0995146,72.3151515 C74.9393204,72.3151515 74.7791262,72.2348485 74.6990291,72.1545455 Z M69.6529126,72.3151515 C69.4927184,72.3151515 69.3325243,72.2348485 69.1723301,72.1545455 C68.9320388,71.9136364 68.9320388,71.5121212 69.1723301,71.2712121 L70.4538835,69.9863636 C70.6941748,69.7454545 71.0946602,69.7454545 71.3349515,69.9863636 C71.5752427,70.2272727 71.5752427,70.6287879 71.3349515,70.869697 L70.0533981,72.1545455 C69.973301,72.2348485 69.8131068,72.3151515 69.6529126,72.3151515 Z M73.8179612,68.0590909 C73.657767,68.0590909 73.5776699,67.9787879 73.4174757,67.8984848 C73.1771845,67.6575758 73.1771845,67.2560606 73.4174757,67.0151515 L74.618932,65.730303 C74.8592233,65.4893939 75.2597087,65.4893939 75.5,65.730303 C75.7402913,65.9712121 75.7402913,66.3727273 75.5,66.6136364 L74.2184466,67.8984848 C74.1383495,67.9787879 73.9781553,68.0590909 73.8179612,68.0590909 Z" id="Combined-Shape" fill="#FAB200" fill-rule="nonzero"></path>
                    <path d="M113.065534,69.0227273 C114.667476,69.0227273 115.949029,67.7378788 115.949029,66.1318182 C115.949029,64.5257576 114.667476,63.2409091 113.065534,63.2409091 C111.463592,63.2409091 110.182039,64.5257576 110.182039,66.1318182 C110.182039,67.7378788 111.463592,69.0227273 113.065534,69.0227273 Z M113.065534,64.5257576 C113.946602,64.5257576 114.747573,65.2484848 114.747573,66.2121212 C114.747573,67.1757576 114.026699,67.8984848 113.065534,67.8984848 C112.184466,67.8984848 111.383495,67.1757576 111.383495,66.2121212 C111.383495,65.2484848 112.104369,64.5257576 113.065534,64.5257576 Z" id="Shape" fill="#FAB200" fill-rule="nonzero"></path>
                    <path d="M46.6650485,138.966667 C46.6650485,140.572727 47.9466019,141.857576 49.5485437,141.857576 C51.1504854,141.857576 52.4320388,140.572727 52.4320388,138.966667 C52.4320388,137.360606 51.1504854,136.075758 49.5485437,136.075758 C47.9466019,136.075758 46.6650485,137.360606 46.6650485,138.966667 Z M49.5485437,137.280303 C50.4296117,137.280303 51.2305825,138.00303 51.2305825,138.966667 C51.2305825,139.85 50.5097087,140.65303 49.5485437,140.65303 C48.6674757,140.65303 47.8665049,139.930303 47.8665049,138.966667 C47.8665049,138.00303 48.6674757,137.280303 49.5485437,137.280303 Z" id="Shape" fill="#FAB200" fill-rule="nonzero"></path>
                    <path d="M33.2087379,114.15303 C33.2087379,113.831818 33.4490291,113.590909 33.7694175,113.510606 L44.4223301,113.510606 C44.8228155,113.510606 45.0631068,113.831818 45.0631068,114.15303 C45.0631068,114.554545 44.7427184,114.795455 44.4223301,114.795455 L33.8495146,114.795455 C33.4490291,114.795455 33.2087379,114.474242 33.2087379,114.15303 Z M26.881068,114.795455 C26.5606796,114.795455 26.2402913,114.554545 26.2402913,114.15303 C26.2402913,113.751515 26.5606796,113.510606 26.881068,113.510606 L30.3252427,113.510606 C30.7257282,113.510606 30.9660194,113.831818 30.9660194,114.15303 C30.9660194,114.554545 30.6456311,114.795455 30.3252427,114.795455 L26.881068,114.795455 Z M26.881068,111.101515 C26.5606796,111.101515 26.2402913,110.860606 26.2402913,110.459091 C26.2402913,110.057576 26.5606796,109.816667 26.881068,109.816667 L34.3300971,109.816667 C34.7305825,109.816667 34.9708738,110.057576 34.9708738,110.459091 C34.9708738,110.860606 34.6504854,111.101515 34.3300971,111.101515 L26.881068,111.101515 Z M37.4538835,111.101515 C37.1334951,111.101515 36.8131068,110.860606 36.8131068,110.459091 C36.8131068,110.057576 37.1334951,109.816667 37.4538835,109.816667 L39.8567961,109.816667 C40.2572816,109.816667 40.4975728,110.057576 40.4975728,110.459091 C40.4975728,110.860606 40.1771845,111.101515 39.8567961,111.101515 L37.4538835,111.101515 Z" id="Combined-Shape" fill="#FAB200" fill-rule="nonzero"></path>
                    <path d="M147.82767,141.777273 C147.82767,141.456061 148.067961,141.215152 148.38835,141.134848 L159.121359,141.134848 C159.521845,141.134848 159.762136,141.456061 159.762136,141.777273 C159.762136,142.178788 159.441748,142.419697 159.121359,142.419697 L148.468447,142.419697 C148.067961,142.419697 147.82767,142.098485 147.82767,141.777273 Z M141.419903,142.419697 C141.099515,142.419697 140.859223,142.178788 140.779126,141.777273 C140.779126,141.375758 141.099515,141.134848 141.419903,141.134848 L144.864078,141.134848 C145.264563,141.134848 145.504854,141.456061 145.504854,141.777273 C145.504854,142.178788 145.184466,142.419697 144.864078,142.419697 L141.419903,142.419697 Z M141.419903,138.725758 C141.099515,138.725758 140.859223,138.484848 140.779126,138.083333 C140.779126,137.681818 141.099515,137.440909 141.419903,137.440909 L148.868932,137.440909 C149.269417,137.440909 149.509709,137.762121 149.509709,138.083333 C149.509709,138.484848 149.18932,138.725758 148.868932,138.725758 L141.419903,138.725758 Z M154.475728,138.725758 L152.072816,138.725758 C151.67233,138.725758 151.432039,138.404545 151.432039,138.083333 C151.432039,137.681818 151.752427,137.440909 152.072816,137.440909 L154.475728,137.440909 C154.876214,137.440909 155.116505,137.762121 155.116505,138.083333 C155.116505,138.484848 154.796117,138.725758 154.475728,138.725758 Z" id="Combined-Shape" fill="#FAB200" fill-rule="nonzero"></path>
                    <path d="M66.6893204,90.8651515 C63.9660194,98.4939394 55.8762136,103.071212 47.9466019,101.384848 C47.3859223,101.304545 46.5849515,101.706061 44.6626214,102.830303 C44.1820388,103.151515 43.461165,103.55303 42.9004854,103.874242 C44.2621359,100.260606 43.461165,99.7787879 43.1407767,99.6181818 C36.1723301,95.6833333 33.1286408,87.3318182 35.7718447,79.7833333 C37.2936893,75.6878788 40.2572816,72.3151515 44.1820388,70.4681818 C46.4247573,69.4242424 48.7475728,68.8621212 51.1504854,68.8621212 C52.9927184,68.8621212 54.9150485,69.1833333 56.6771845,69.8257576 C60.7621359,71.3515152 64.1262136,74.3227273 65.9684466,78.2575758 C67.9708738,82.2727273 68.131068,86.769697 66.6893204,90.8651515 Z M40.9781553,90.2227273 L61.5631068,90.2227273 M40.9781553,85.4045455 L61.5631068,85.4045455 M40.9781553,80.5863636 L61.5631068,80.5863636" id="Combined-Shape" stroke="#FAB200" stroke-width="1.5999999" stroke-linecap="round" fill-rule="nonzero" transform="translate(51.234342, 86.368182) scale(-1, 1) translate(-51.234342, -86.368182) "></path>
                    <g id="profe" transform="translate(56.436893, 67.818182)" stroke="#FAB200" stroke-width="1.5999999" stroke-linecap="round">
                        <polyline id="Stroke-1" stroke-linejoin="round" points="44.826335 60.6633985 39.0657524 66.3183379 33.3051699 60.6633985"></polyline>
                        <polyline id="Stroke-2" stroke-linejoin="round" points="36.2096505 63.514397 30.5091408 91.9119576 39.0659126 100.563806"></polyline>
                        <polyline id="Stroke-4" stroke-linejoin="round" points="41.9220146 63.514397 47.6217233 91.9119576 39.0657524 100.563806"></polyline>
                        <path d="M54.8345461,87.4970576 L77.5204442,82.7856788 L74.5216092,67.7320727 C73.8584053,64.4123455 72.0594248,61.3921485 69.4490607,59.2287848 C67.7822403,57.853997 66.0945947,56.9690576 64.4782354,56.6133152 L51.6562937,52.8808303 C51.3775558,52.7997242 51.1132354,52.6760576 50.8737451,52.5138455 C50.1977257,52.0569212 49.7547888,51.3269667 49.6602743,50.5159061 L49.0683568,45.4287091 C52.6599102,42.6333606 55.3143277,38.4568 56.5886723,33.5783909 C58.8778471,33.3752242 60.6367791,30.8223909 60.6367791,27.6014364 C60.6367791,24.624603 59.1453714,22.2179212 57.1028956,21.7039818" id="Stroke-6"></path>
                        <path d="M20.9203981,21.7360227 C18.9355922,22.3045682 17.4986505,24.6775227 17.4986505,27.6013561 C17.4986505,30.8190985 19.2463689,33.3679167 21.5323398,33.5783106 C22.8138932,38.4519015 25.4683107,42.6300682 29.0566602,45.4286288 L28.4703495,50.5150227 C28.3766359,51.3268864 27.933699,52.0568409 27.2576796,52.5137652 C27.0181893,52.6759773 26.7538689,52.7996439 26.475932,52.88075 L13.6972427,56.6003864 C12.040835,56.9657652 10.3499854,57.8523106 8.68556796,59.2287045 C6.06559223,61.3992955 4.26661165,64.4178864 3.6106165,67.7319924 L0.610980583,82.7855985 L20.9131893,87.0023106" id="Stroke-8"></path>
                        <path d="M57.1028956,21.7039015 C57.1028956,21.7039015 58.1625801,0.401113636 39.0634296,0.401113636 C19.9650801,0.401113636 20.9206383,21.7360227 20.9206383,21.7360227" id="Stroke-10"></path>
                        <path d="M22.2802063,12.5838864 C23.0243083,11.0557197 24.4780704,9.88088636 26.0720024,9.29949242 C28.6599393,8.35593182 31.5594539,9.1107803 34.0648908,10.2567045 C37.6820752,11.912553 40.8427063,13.8599015 44.8988228,14.3079924 C48.7627063,14.7352045 52.3037985,14.3055833 55.7760073,12.5300833" id="Stroke-12"></path>
                        <path d="M34.6358228,27.4795364 L26.5964782,27.4795364 C26.0301917,27.4795364 25.5704345,27.018597 25.5704345,26.4508545 L25.5704345,22.0269606 C25.5704345,21.4584152 26.0301917,20.9982788 26.5964782,20.9982788 L34.6358228,20.9982788 C35.2029102,20.9982788 35.6618665,21.4584152 35.6618665,22.0269606 L35.6618665,26.4508545 C35.6618665,27.018597 35.2029102,27.4795364 34.6358228,27.4795364 Z" id="Stroke-14"></path>
                        <path d="M51.5301408,27.4795364 L43.4907961,27.4795364 C42.9245097,27.4795364 42.4647524,27.018597 42.4647524,26.4508545 L42.4647524,22.0269606 C42.4647524,21.4584152 42.9245097,20.9982788 43.4907961,20.9982788 L51.5301408,20.9982788 C52.0972282,20.9982788 52.5561845,21.4584152 52.5561845,22.0269606 L52.5561845,26.4508545 C52.5561845,27.018597 52.0972282,27.4795364 51.5301408,27.4795364 Z" id="Stroke-16"></path>
                        <path d="M35.6621068,23.2878788 L42.4647524,23.2878788" id="Stroke-18"></path>
                        <path d="M20.9125485,20.9980379 L25.5701942,23.0843106" id="Stroke-20"></path>
                        <path d="M52.5564248,23.0840697 L57.1123471,20.997797" id="Stroke-22"></path>
                        <polyline id="Stroke-24" stroke-linejoin="round" points="49.5241893 49.3245303 39.0659126 58.7135606 28.6076359 49.3245303"></polyline>
                        <path d="M55.7724029,74.5623273 L67.6075485,72.3291" id="Stroke-26" stroke-linejoin="round"></path>
                    </g>
                    <polyline id="Stroke-1" stroke="#FAB200" stroke-width="1.5999999" stroke-linecap="round" points="118.006583 75.9521904 179.323469 75.9521904 179.323469 130.94147 137.96362 130.94147"></polyline>
                    <path d="M142.452849,98.7228057 C142.100646,98.7228057 141.854458,98.6334561 141.714449,98.4546791 C141.574359,98.27598 141.504516,98.0470706 141.504516,97.7677948 C141.504516,97.7387913 141.505889,97.709164 141.507504,97.6794588 C141.541254,97.6399298 141.572421,97.5996992 141.599551,97.5584549 C141.662612,97.4626342 141.694344,97.3667354 141.694344,97.2706808 C141.694344,97.1707278 141.677792,97.0880834 141.64832,97.0190831 C141.672543,96.949615 141.698785,96.8806927 141.728014,96.8128619 C141.795758,96.6558375 141.870284,96.5098843 141.951593,96.3746125 C142.032902,96.2394967 142.118571,96.1325268 142.209003,96.0540925 C142.317361,96.3942601 142.495643,96.7235123 142.744091,97.0417713 C142.992458,97.3601863 143.288221,97.6458553 143.631543,97.8987004 C143.315351,98.4481299 142.922372,98.7228057 142.452849,98.7228057 M142.776873,94.5921904 C142.785183,94.5792415 142.796596,94.5650881 142.811915,94.5497301 C142.798899,94.5637832 142.787786,94.578037 142.776873,94.5921904 M143.787297,95.6550603 C143.927306,95.8689222 144.015398,96.1195064 144.051571,96.4073584 C143.861823,96.2067508 143.701386,95.9974889 143.570581,95.7793388 C143.439535,95.5615006 143.365008,95.3652591 143.347003,95.1906922 C143.500577,95.2868248 143.647207,95.4415102 143.787297,95.6550603 M168.437328,96.8455298 C168.346976,96.7716176 168.225053,96.7343497 168.07156,96.7343497 C167.872769,96.7343497 167.678662,96.8435027 167.488995,97.0613409 C167.001304,97.602272 166.53388,98.0143247 166.086803,98.2976547 C165.639726,98.5811407 165.226561,98.7228057 164.847228,98.7228057 C164.549123,98.7228057 164.327724,98.6007882 164.183355,98.3565194 C164.038824,98.1124844 163.966559,97.7897034 163.966559,97.3884881 C163.966559,97.2925894 163.977782,97.1705719 164.000471,97.0222018 C164.022918,96.8739876 164.047867,96.7169632 164.074997,96.5512065 C164.102046,96.3768736 164.129176,96.2044898 164.156306,96.0345229 C164.183355,95.8644002 164.19692,95.6878062 164.19692,95.504663 C164.19692,95.0686747 164.083798,94.722036 163.858282,94.4646688 C163.632361,94.2075355 163.284518,94.0787349 162.815075,94.0787349 C162.462791,94.0787349 162.06521,94.1833659 161.622816,94.3927057 C161.180261,94.6019677 160.751109,94.8812434 160.335845,95.2299093 C160.317597,94.9596777 160.234189,94.7327953 160.085136,94.5497301 C159.936084,94.366509 159.716946,94.2749764 159.428046,94.2749764 C159.1842,94.2749764 158.897399,94.3403903 158.567804,94.4712179 C158.237967,94.6019677 157.885763,94.7897108 157.511033,95.0337458 C157.136221,95.2779367 156.745665,95.5723379 156.339121,95.9167157 C155.932739,96.2614053 155.526276,96.6427391 155.119894,97.0613409 C154.989009,97.2130636 154.921911,97.360732 154.91747,97.5041903 C154.599017,97.7920424 154.275882,98.0221993 153.948144,98.1929458 C153.437764,98.4591232 152.983985,98.591978 152.586646,98.591978 C152.351683,98.591978 152.157494,98.5310862 152.004082,98.4088348 C151.850427,98.2868174 151.77372,98.0862877 151.77372,97.8070899 C151.77372,97.5715533 151.83234,97.3099759 151.949822,97.0222018 C152.094191,96.6296408 152.241145,96.2417577 152.390117,95.857851 C152.539169,95.4741782 152.68588,95.0859833 152.830411,94.6935782 L152.803362,94.7327953 C152.830411,94.6804799 152.846156,94.6369746 152.850758,94.6019677 C152.855199,94.5672726 152.857541,94.5279775 152.857541,94.4843163 C152.857541,94.1964642 152.708569,94.0526161 152.410464,94.0526161 C152.211673,94.0526161 152.044696,94.1159249 151.909208,94.2422305 C151.77372,94.36877 151.678928,94.5018587 151.624749,94.6412627 C151.489261,95.0250915 151.346991,95.4131305 151.198019,95.8055355 C151.048966,96.1980186 150.902013,96.5862135 150.757644,96.9698863 C150.685217,97.1705719 150.63338,97.3622914 150.60189,97.5453565 C150.570077,97.7285777 150.545369,97.8943343 150.527363,98.0424705 C150.247264,98.2171154 149.967165,98.3522312 149.687388,98.4481299 C149.407289,98.5441846 149.136314,98.591978 148.874462,98.591978 C148.648623,98.591978 148.463397,98.5310862 148.319028,98.4088348 C148.174416,98.2868174 148.102312,98.1036742 148.102312,97.8594054 C148.102312,97.8492697 148.10312,97.8381985 148.103362,97.8278289 C148.139373,97.7913407 148.175143,97.7543066 148.210751,97.7154793 C148.282855,97.6196586 148.339375,97.5368582 148.38007,97.4670003 C148.420684,97.3972203 148.441031,97.3230742 148.441031,97.244562 C148.441031,97.100558 148.401063,96.9931982 148.325164,96.9188962 L149.145519,94.6935782 L149.118389,94.7327953 C149.145519,94.6804799 149.161102,94.6369746 149.165785,94.6019677 C149.170226,94.5672726 149.172568,94.5279775 149.172568,94.4843163 C149.172568,94.1964642 149.023515,94.0526161 148.725491,94.0526161 C148.5267,94.0526161 148.359642,94.1159249 148.224235,94.2422305 C148.088747,94.36877 147.993874,94.5018587 147.939695,94.6412627 C147.795083,95.0337458 147.652813,95.4218627 147.512965,95.8055355 C147.373037,96.1894423 147.230766,96.5773253 147.086236,96.9698863 L147.09972,96.9567879 C147.03674,97.1170869 146.989101,97.2656909 146.953251,97.404861 C146.770851,97.4889868 146.567135,97.5323362 146.341053,97.5323362 C145.916423,97.5323362 145.514724,97.4277052 145.135391,97.2183653 C145.207495,97.0091034 145.254972,96.8389806 145.27758,96.708153 C145.300027,96.5773253 145.311412,96.429189 145.311412,96.2634324 C145.311412,95.9232648 145.250451,95.6072669 145.128609,95.3149707 C145.006686,95.0229084 144.853031,94.7700633 144.667967,94.5562793 C144.482741,94.3425733 144.277168,94.1747895 144.051571,94.0526161 C143.82565,93.9305207 143.613295,93.869395 143.414746,93.869395 C143.143852,93.869395 142.895243,93.9589005 142.669645,94.1375996 C142.443806,94.3164546 142.281188,94.5497301 142.181954,94.8375043 C142.028219,94.9073622 141.888371,94.9967117 141.761926,95.1056308 C141.635321,95.2148618 141.495473,95.3522387 141.341979,95.5177614 C141.052756,95.8493527 140.797929,96.2417577 140.576531,96.6951326 C140.476166,96.900964 140.399702,97.1105377 140.344877,97.323542 C139.775474,97.7657677 139.300621,98.0983725 138.923872,98.3173022 C138.458547,98.5876898 138.099561,98.7228057 137.846753,98.7228057 C137.738396,98.7228057 137.661528,98.6661241 137.616554,98.5526829 C137.571176,98.4394756 137.548729,98.2825292 137.548729,98.0817656 C137.548729,97.9248192 137.569076,97.7285777 137.609771,97.493119 C137.650304,97.2576604 137.706663,97.0004491 137.77901,96.7212513 C137.851275,96.4422874 137.934845,96.1479641 138.029718,95.8382814 C138.124592,95.5287547 138.221484,95.2126008 138.32096,94.8898197 C138.429318,94.5410759 138.535334,94.1921761 138.639413,93.8432763 C138.743087,93.4945324 138.835781,93.156392 138.91709,92.8294007 C138.998398,92.5024095 139.066142,92.1972489 139.120321,91.9136849 C139.174419,91.6303549 139.201549,91.3795369 139.201549,91.1615427 C139.201549,90.5423333 139.079707,90.1106331 138.835781,89.8663643 C138.591935,89.6223293 138.221484,89.500078 137.724831,89.500078 C137.453936,89.500078 137.171495,89.5523934 136.878154,89.6571024 C136.58449,89.7616554 136.288807,89.892561 135.990783,90.0495074 C135.692677,90.2065318 135.401436,90.3810987 135.116976,90.5728182 C134.832436,90.7647715 134.56356,90.9478367 134.310833,91.1222476 C134.301709,90.5990149 134.195612,90.1999827 133.992461,89.9252289 C133.78923,89.6505532 133.457293,89.5131763 132.996732,89.5131763 C132.644367,89.5131763 132.206253,89.6288006 131.682469,89.8598151 C131.158605,90.0909856 130.508297,90.4681092 129.731625,90.99142 L129.731625,90.9783216 C129.46073,91.1528884 129.325243,91.3664385 129.325243,91.6193616 C129.325243,91.9247562 129.469774,92.0772585 129.758755,92.0772585 C129.894242,92.0772585 130.043295,92.0205769 130.205832,91.9071358 L130.192267,91.9202341 C130.815445,91.5103646 131.321223,91.2137802 131.709599,91.0306371 C132.097895,90.8474939 132.409403,90.7558834 132.644367,90.7558834 C132.915423,90.7558834 133.050911,91.0045183 133.050911,91.5016323 C133.050911,91.5888768 133.037346,91.7023179 133.010216,91.8417219 C132.991968,91.9202341 132.978484,92.0009294 132.969602,92.0838077 C132.960397,92.166764 132.956037,92.2603237 132.956037,92.3650326 C132.865685,92.7836344 132.739241,93.2480025 132.576704,93.7582149 C132.414086,94.2684272 132.235643,94.8004702 132.041617,95.3541878 C131.847186,95.9081394 131.641855,96.4662231 131.42514,97.028673 C131.208343,97.5912008 130.995988,98.1298709 130.788396,98.6442935 L130.503937,99.2984319 C130.485689,99.3333608 130.474385,99.3658728 130.470024,99.3965136 C130.465341,99.4269206 130.463242,99.4683987 130.463242,99.5207921 C130.463242,99.7997561 130.612214,99.9393939 130.910319,99.9393939 C131.054688,99.9393939 131.174431,99.9198244 131.269305,99.8806072 C131.364178,99.8413122 131.445487,99.7824475 131.513231,99.7039353 C131.580975,99.6254231 131.639514,99.5273413 131.689252,99.409612 C131.738909,99.2918827 131.790908,99.1590279 131.845087,99.0105798 C131.845087,99.0282002 131.858652,99.0020035 131.885782,98.9321456 C131.912831,98.8623656 131.935277,98.7969517 131.953525,98.735904 C132.161117,98.2302137 132.373472,97.6980928 132.590269,97.1398531 C132.806984,96.5818473 133.014657,96.0279738 133.213447,95.4785443 C133.411996,94.9290369 133.590439,94.401438 133.748535,93.8955917 C133.906469,93.3899014 134.035174,92.9275605 134.13465,92.5089587 C134.197792,92.4565652 134.265536,92.4087718 134.337882,92.3650326 C134.53643,92.2168184 134.771394,92.0489567 135.04245,91.8613695 C135.313344,91.6739381 135.588761,91.4950831 135.868779,91.3249604 C136.148636,91.1549935 136.424295,91.0132506 136.695189,90.8998094 C136.966164,90.7866021 137.205408,90.7297646 137.413241,90.7297646 C137.593784,90.7297646 137.727011,90.7866021 137.812922,90.8998094 C137.898671,91.0132506 137.941627,91.20957 137.941627,91.488534 C137.941627,91.880939 137.86484,92.3650326 137.711266,92.9406588 C137.557611,93.5162071 137.367944,94.1310504 137.142266,94.7851108 C136.880173,95.5177614 136.672581,96.2002796 136.519168,96.8325094 C136.365352,97.4648952 136.288807,97.9990432 136.288807,98.4350316 C136.288807,98.9059488 136.372134,99.2722351 136.539435,99.5338125 C136.706413,99.7955459 137.015741,99.9263735 137.467501,99.9263735 C137.86484,99.9263735 138.381922,99.7562508 139.018665,99.4161612 C139.392992,99.2161773 139.818026,98.9495321 140.29086,98.61989 C140.355213,98.9623186 140.487632,99.2440893 140.691671,99.4618495 C140.989695,99.7801865 141.463902,99.9393939 142.11421,99.9393939 C142.547722,99.9393939 142.983334,99.8171426 143.421529,99.5731076 C143.859563,99.3289947 144.236554,98.9539762 144.552827,98.4481299 C144.796591,98.5703033 145.031474,98.6508426 145.257233,98.6900598 C145.482911,98.7293548 145.722316,98.7489244 145.975285,98.7489244 C146.286794,98.7489244 146.591358,98.6999615 146.88906,98.603517 C146.912718,98.7357481 146.948972,98.8542571 146.998144,98.9583423 C147.093018,99.1590279 147.219543,99.3225235 147.377477,99.4489071 C147.535573,99.5752127 147.720557,99.6647182 147.932912,99.7170337 C148.145025,99.7693491 148.373207,99.7955459 148.617133,99.7955459 C148.960293,99.7955459 149.312496,99.7344202 149.673823,99.6123247 C150.034908,99.4901513 150.400757,99.3245506 150.771128,99.1152107 C150.915578,99.3333608 151.109928,99.5011446 151.353693,99.6188739 C151.597619,99.7366812 151.891041,99.7955459 152.234362,99.7955459 C152.830411,99.7955459 153.489601,99.6123247 154.212336,99.2460384 C154.93483,98.8798301 155.630193,98.3217463 156.298669,97.5715533 C156.4411,97.3824847 156.513204,97.2314637 156.515061,97.1184903 C156.624065,97.0160424 156.732665,96.9156216 156.840377,96.8194111 C157.138482,96.5534675 157.422941,96.3222971 157.693998,96.1260555 C157.964892,95.929814 158.213178,95.7773896 158.439018,95.6681587 C158.664696,95.5592396 158.854444,95.504663 159.008098,95.504663 C159.053234,95.504663 159.075842,95.5570565 159.075842,95.6616095 C159.075842,95.7401217 159.066718,95.8273661 159.048712,95.9232648 C159.030464,96.0193195 159.008098,96.1283166 158.980969,96.250334 L158.980969,96.2241373 C158.908622,96.4422874 158.831997,96.6581765 158.750688,96.8717265 C158.669379,97.0855105 158.592592,97.3013996 158.520327,97.5192378 L158.547457,97.4800207 C158.213178,98.1255048 157.982898,98.7535244 157.856453,99.3638457 C157.838367,99.3985408 157.831584,99.4269206 157.836187,99.4489071 C157.840628,99.4705038 157.842969,99.4945954 157.842969,99.5207921 C157.842969,99.7997561 157.992022,99.9393939 158.290046,99.9393939 C158.488675,99.9393939 158.660336,99.8782683 158.804867,99.7562508 C158.949236,99.6340774 159.048712,99.4945954 159.102891,99.337649 C159.202125,99.0586851 159.30152,98.773094 159.400916,98.4807979 C159.50023,98.1886576 159.599545,97.9031445 159.699021,97.6238688 L159.671972,97.6631638 C159.87052,97.2883012 160.094018,96.9546828 160.342547,96.6623867 C160.590914,96.3703244 160.8392,96.1217674 161.087648,95.9167157 C161.335934,95.7119758 161.579861,95.5570565 161.819265,95.4523476 C162.058428,95.3477166 162.273125,95.2953232 162.462791,95.2953232 C162.778821,95.2953232 162.936917,95.4785443 162.936917,95.8448306 C162.936917,96.001777 162.923352,96.1456251 162.896303,96.2764528 C162.760896,96.852079 162.693072,97.3360946 162.693072,97.7285777 C162.693072,98.4088348 162.839783,98.947427 163.133366,99.3441982 C163.426788,99.7409694 163.88525,99.9393939 164.508509,99.9393939 C165.131688,99.9393939 165.763748,99.7386304 166.405175,99.337649 C167.04644,98.9365896 167.692227,98.3740618 168.342535,97.6500655 C168.496028,97.458346 168.572816,97.3056098 168.572816,97.1921686 C168.572816,97.0352222 168.527599,96.9197539 168.437328,96.8455298" id="noun" fill="#FAB200"></path>
                    <path d="M179.655417,75.9192888 L118.475783,75.9192888 C116.578867,75.9192888 115.841918,75.08663 115.841918,74.0596041 C115.841918,73.0325783 116.578867,72.1999195 118.475783,72.1999195 L182.05833,72.1999195" id="Stroke-3" stroke="#FAB200" stroke-width="1.5999999" stroke-linecap="round" transform="translate(148.950124, 74.059604) scale(-1, 1) translate(-148.950124, -74.059604) "></path>
                </g>
            </g>
        </g>
    </g>
</svg>