<?xml version="1.0" encoding="UTF-8"?>
<svg width="206px" height="133px" viewBox="0 0 206 133" version="1.1" xmlns="http://www.w3.org/2000/svg" xmlns:xlink="http://www.w3.org/1999/xlink">
    <!-- Generator: Sketch 46.2 (44496) - http://www.bohemiancoding.com/sketch -->
    <title>profes</title>
    <desc>Created with Sketch.</desc>
    <defs></defs>
    <g id="DESIGN" stroke="none" stroke-width="1" fill="none" fill-rule="evenodd">
        <g id="HOMEPAGE" transform="translate(-1040.000000, -631.000000)">
            <g id="FILTER" transform="translate(150.000000, 608.000000)">
                <g id="profes" transform="translate(890.000000, 23.000000)">
                    <path d="M153.2,54.7 C156,54.7 159,53.8 162.1,51 C162.4,50.7 162.4,50.2 162.2,49.9 C161.9,49.6 161.4,49.6 161.1,49.8 C153,57.1 144.8,50.1 144.5,49.8 C144.2,49.5 143.7,49.6 143.4,49.9 C143.1,50.2 143.2,50.7 143.5,51 C143.5,51.1 147.7,54.7 153.2,54.7 Z" id="Shape" fill="#E33C10" fill-rule="nonzero"></path>
                    <path d="M41.1,61.2 C41.1,60.8 40.8,60.4 40.3,60.4 C39.9,60.4 39.5,60.7 39.5,61.2 L39.5,73.7 C39.5,74.1 39.8,74.5 40.3,74.5 C40.7,74.5 41.1,74.2 41.1,73.7 L41.1,61.2 Z" id="Shape" fill="#E33C10" fill-rule="nonzero"></path>
                    <path d="M40.4,77.1 C40,77.1 39.6,77.4 39.6,77.9 L39.6,81.9 C39.6,82.3 39.9,82.7 40.4,82.7 C40.8,82.7 41.2,82.4 41.2,81.9 L41.2,77.9 C41.1,77.4 40.8,77.1 40.4,77.1 Z" id="Shape" fill="#E33C10" fill-rule="nonzero"></path>
                    <path d="M202.6,59.9 C202.6,59.5 202.9,59.1 203.4,59.1 C203.9,59.1 204.2,59.5 204.2,59.9 L204.2,72.4 C204.2,72.9 203.8,73.2 203.4,73.2 C202.9,73.2 202.6,72.8 202.6,72.4 L202.6,59.9 Z M202.6,80.5 L202.6,76.5 C202.6,76 203,75.7 203.4,75.7 C203.9,75.7 204.2,76.1 204.2,76.5 L204.2,80.5 C204.2,81 203.8,81.3 203.4,81.3 C202.9,81.3 202.6,80.9 202.6,80.5 Z" id="Combined-Shape" fill="#E33C10" fill-rule="nonzero"></path>
                    <path d="M24,79.8 L22.3,78.2 C22,77.9 22,77.4 22.3,77.1 C22.6,76.8 23.1,76.8 23.4,77.1 L25,78.7 C25.3,79 25.3,79.5 25,79.8 C24.9,79.9 24.7,80 24.5,80 C24.3,80 24.1,79.9 24,79.8 Z M27.7,83.4 C27.4,83.1 27.4,82.6 27.6,82.3 C27.9,82 28.4,82 28.7,82.3 L30.3,83.9 C30.6,84.2 30.6,84.7 30.3,85 C30.2,85.1 30,85.2 29.8,85.2 C29.6,85.2 29.4,85.1 29.3,85 L27.7,83.4 Z M22.4,85 C22.1,84.7 22.1,84.3 22.3,83.9 L23.9,82.3 C24.2,82 24.7,82 25,82.3 C25.3,82.6 25.3,83.1 25,83.4 L23.4,85 C23.3,85.1 23.1,85.2 22.9,85.2 C22.7,85.2 22.5,85.1 22.4,85 Z M28.2,80 C28,80 27.8,79.9 27.6,79.8 C27.3,79.5 27.3,79 27.6,78.7 L29.2,77.1 C29.5,76.8 30,76.8 30.3,77.1 C30.6,77.4 30.6,77.9 30.3,78.2 L28.7,79.8 C28.6,79.9 28.4,80 28.2,80 Z" id="Combined-Shape" fill="#E33C10" fill-rule="nonzero"></path>
                    <path d="M198.8,22.5 L197.1,20.9 C196.8,20.6 196.8,20.1 197.1,19.8 C197.4,19.5 197.9,19.5 198.2,19.8 L199.8,21.4 C200.1,21.7 200.1,22.2 199.8,22.5 C199.7,22.6 199.5,22.7 199.3,22.7 C199.1,22.7 198.9,22.6 198.8,22.5 Z M204.1,27.7 L202.4,26.1 C202.1,25.8 202.1,25.3 202.4,25 C202.7,24.7 203.2,24.7 203.5,25 L205.1,26.6 C205.4,26.9 205.4,27.4 205.1,27.7 C205,27.8 204.8,27.9 204.6,27.9 C204.4,27.9 204.2,27.8 204.1,27.7 Z M197.7,28 C197.5,28 197.3,27.9 197.1,27.8 C196.8,27.5 196.8,27 197.1,26.7 L198.7,25.1 C199,24.8 199.5,24.8 199.8,25.1 C200.1,25.4 200.1,25.9 199.8,26.2 L198.2,27.8 C198.1,27.9 197.9,28 197.7,28 Z M203,22.7 C202.8,22.7 202.6,22.6 202.4,22.5 C202.1,22.2 202.1,21.7 202.4,21.4 L204,19.8 C204.3,19.5 204.8,19.5 205.1,19.8 C205.4,20.1 205.4,20.6 205.1,20.9 L203.5,22.5 C203.4,22.6 203.2,22.7 203,22.7 Z" id="Combined-Shape" fill="#E33C10" fill-rule="nonzero"></path>
                    <path d="M55.6,6.1 L53.9,4.5 C53.6,4.2 53.6,3.7 53.9,3.4 C54.2,3.1 54.7,3.1 55,3.4 L56.6,5 C56.9,5.3 56.9,5.8 56.6,6.1 C56.5,6.2 56.3,6.3 56.1,6.3 C55.9,6.3 55.7,6.2 55.6,6.1 Z M60.8,11.4 L59.1,9.8 C58.8,9.5 58.8,9 59.1,8.7 C59.4,8.4 59.9,8.4 60.2,8.7 L61.8,10.3 C62.1,10.6 62.1,11.1 61.8,11.4 C61.7,11.5 61.5,11.6 61.3,11.6 C61.1,11.6 60.9,11.5 60.8,11.4 Z M54.5,11.6 C54.3,11.6 54.1,11.5 53.9,11.4 C53.6,11.1 53.6,10.6 53.9,10.3 L55.5,8.7 C55.8,8.4 56.3,8.4 56.6,8.7 C56.9,9 56.9,9.5 56.6,9.8 L55,11.4 C54.9,11.5 54.7,11.6 54.5,11.6 Z M59.7,6.3 C59.5,6.3 59.4,6.2 59.2,6.1 C58.9,5.8 58.9,5.3 59.2,5 L60.7,3.4 C61,3.1 61.5,3.1 61.8,3.4 C62.1,3.7 62.1,4.2 61.8,4.5 L60.2,6.1 C60.1,6.2 59.9,6.3 59.7,6.3 Z" id="Combined-Shape" fill="#E33C10" fill-rule="nonzero"></path>
                    <path d="M108.7,7.5 C110.7,7.5 112.3,5.9 112.3,3.9 C112.3,1.9 110.7,0.3 108.7,0.3 C106.7,0.3 105.1,1.9 105.1,3.9 C105.1,5.9 106.7,7.5 108.7,7.5 Z M108.7,1.9 C109.8,1.9 110.8,2.8 110.8,4 C110.8,5.2 109.9,6.1 108.7,6.1 C107.6,6.1 106.6,5.2 106.6,4 C106.6,2.8 107.5,1.9 108.7,1.9 Z" id="Shape" fill="#E33C10" fill-rule="nonzero"></path>
                    <path d="M25.8,94.6 C25.8,96.6 27.4,98.2 29.4,98.2 C31.4,98.2 33,96.6 33,94.6 C33,92.6 31.4,91 29.4,91 C27.4,91 25.8,92.6 25.8,94.6 Z M29.4,92.5 C30.5,92.5 31.5,93.4 31.5,94.6 C31.5,95.7 30.6,96.7 29.4,96.7 C28.3,96.7 27.3,95.8 27.3,94.6 C27.3,93.4 28.3,92.5 29.4,92.5 Z" id="Shape" fill="#E33C10" fill-rule="nonzero"></path>
                    <path d="M9,63.7 C9,63.3 9.3,63 9.7,62.9 L23,62.9 C23.5,62.9 23.8,63.3 23.8,63.7 C23.8,64.2 23.4,64.5 23,64.5 L9.8,64.5 C9.3,64.5 9,64.1 9,63.7 Z M1.1,64.5 C0.7,64.5 0.3,64.2 0.3,63.7 C0.3,63.2 0.7,62.9 1.1,62.9 L5.4,62.9 C5.9,62.9 6.2,63.3 6.2,63.7 C6.2,64.2 5.8,64.5 5.4,64.5 L1.1,64.5 Z M1.1,59.9 C0.7,59.9 0.3,59.6 0.3,59.1 C0.3,58.6 0.7,58.3 1.1,58.3 L10.4,58.3 C10.9,58.3 11.2,58.6 11.2,59.1 C11.2,59.6 10.8,59.9 10.4,59.9 L1.1,59.9 Z M14.3,59.9 C13.9,59.9 13.5,59.6 13.5,59.1 C13.5,58.6 13.9,58.3 14.3,58.3 L17.3,58.3 C17.8,58.3 18.1,58.6 18.1,59.1 C18.1,59.6 17.7,59.9 17.3,59.9 L14.3,59.9 Z" id="Combined-Shape" fill="#E33C10" fill-rule="nonzero"></path>
                    <path d="M152.1,98.1 C152.1,97.7 152.4,97.4 152.8,97.3 L166.2,97.3 C166.7,97.3 167,97.7 167,98.1 C167,98.6 166.6,98.9 166.2,98.9 L152.9,98.9 C152.4,98.9 152.1,98.5 152.1,98.1 Z M144.1,98.9 C143.7,98.9 143.4,98.6 143.3,98.1 C143.3,97.6 143.7,97.3 144.1,97.3 L148.4,97.3 C148.9,97.3 149.2,97.7 149.2,98.1 C149.2,98.6 148.8,98.9 148.4,98.9 L144.1,98.9 Z M144.1,94.3 C143.7,94.3 143.4,94 143.3,93.5 C143.3,93 143.7,92.7 144.1,92.7 L153.4,92.7 C153.9,92.7 154.2,93.1 154.2,93.5 C154.2,94 153.8,94.3 153.4,94.3 L144.1,94.3 Z M160.4,94.3 L157.4,94.3 C156.9,94.3 156.6,93.9 156.6,93.5 C156.6,93 157,92.7 157.4,92.7 L160.4,92.7 C160.9,92.7 161.2,93.1 161.2,93.5 C161.2,94 160.8,94.3 160.4,94.3 Z" id="Combined-Shape" fill="#E33C10" fill-rule="nonzero"></path>
                    <path d="M50.8,34.7 C47.4,44.2 37.3,49.9 27.4,47.8 C26.7,47.7 25.7,48.2 23.3,49.6 C22.7,50 21.8,50.5 21.1,50.9 C22.8,46.4 21.8,45.8 21.4,45.6 C12.7,40.7 8.9,30.3 12.2,20.9 C14.1,15.8 17.8,11.6 22.7,9.3 C25.5,8 28.4,7.3 31.4,7.3 C33.7,7.3 36.1,7.7 38.3,8.5 C43.4,10.4 47.6,14.1 49.9,19 C52.4,24 52.6,29.6 50.8,34.7 Z M18.7,33.9 L44.4,33.9 M18.7,27.9 L44.4,27.9 M18.7,21.9 L44.4,21.9" id="Combined-Shape" stroke="#E33C10" stroke-width="2" stroke-linecap="round" fill-rule="nonzero" transform="translate(31.504694, 29.100000) scale(-1, 1) translate(-31.504694, -29.100000) "></path>
                    <g id="profe" transform="translate(38.000000, 6.000000)" stroke="#E33C10" stroke-width="2" stroke-linecap="round">
                        <polyline id="Stroke-1" stroke-linejoin="round" points="55.965 75.5431 48.773 82.5851 41.581 75.5431"></polyline>
                        <polyline id="Stroke-2" stroke-linejoin="round" points="45.2072 79.0934 38.0902 114.4564 48.7732 125.2304"></polyline>
                        <polyline id="Stroke-4" stroke-linejoin="round" points="52.339 79.0934 59.455 114.4564 48.773 125.2304"></polyline>
                        <path d="M68.4601,108.9586 L96.7831,103.0916 L93.0391,84.3456 C92.2111,80.2116 89.9651,76.4506 86.7061,73.7566 C84.6251,72.0446 82.5181,70.9426 80.5001,70.4996 L64.4921,65.8516 C64.1441,65.7506 63.8141,65.5966 63.5151,65.3946 C62.6711,64.8256 62.1181,63.9166 62.0001,62.9066 L61.2611,56.5716 C65.7451,53.0906 69.0591,47.8896 70.6501,41.8146 C73.5081,41.5616 75.7041,38.3826 75.7041,34.3716 C75.7041,30.6646 73.8421,27.6676 71.2921,27.0276" id="Stroke-6"></path>
                        <path d="M26.1188,27.0675 C23.6408,27.7755 21.8468,30.7305 21.8468,34.3715 C21.8468,38.3785 24.0288,41.5525 26.8828,41.8145 C28.4828,47.8835 31.7968,53.0865 36.2768,56.5715 L35.5448,62.9055 C35.4278,63.9165 34.8748,64.8255 34.0308,65.3945 C33.7318,65.5965 33.4018,65.7505 33.0548,65.8515 L17.1008,70.4835 C15.0328,70.9385 12.9218,72.0425 10.8438,73.7565 C7.5728,76.4595 5.3268,80.2185 4.5078,84.3455 L0.7628,103.0915 L26.1098,108.3425" id="Stroke-8"></path>
                        <path d="M71.2921,27.0275 C71.2921,27.0275 72.6151,0.4995 48.7701,0.4995 C24.9261,0.4995 26.1191,27.0675 26.1191,27.0675" id="Stroke-10"></path>
                        <path d="M27.8165,15.6705 C28.7455,13.7675 30.5605,12.3045 32.5505,11.5805 C35.7815,10.4055 39.4015,11.3455 42.5295,12.7725 C47.0455,14.8345 50.9915,17.2595 56.0555,17.8175 C60.8795,18.3495 65.3005,17.8145 69.6355,15.6035" id="Stroke-12"></path>
                        <path d="M43.2423,34.2198 L33.2053,34.2198 C32.4983,34.2198 31.9243,33.6458 31.9243,32.9388 L31.9243,27.4298 C31.9243,26.7218 32.4983,26.1488 33.2053,26.1488 L43.2423,26.1488 C43.9503,26.1488 44.5233,26.7218 44.5233,27.4298 L44.5233,32.9388 C44.5233,33.6458 43.9503,34.2198 43.2423,34.2198 Z" id="Stroke-14"></path>
                        <path d="M64.3346,34.2198 L54.2976,34.2198 C53.5906,34.2198 53.0166,33.6458 53.0166,32.9388 L53.0166,27.4298 C53.0166,26.7218 53.5906,26.1488 54.2976,26.1488 L64.3346,26.1488 C65.0426,26.1488 65.6156,26.7218 65.6156,27.4298 L65.6156,32.9388 C65.6156,33.6458 65.0426,34.2198 64.3346,34.2198 Z" id="Stroke-16"></path>
                        <path d="M44.5236,29 L53.0166,29" id="Stroke-18"></path>
                        <path d="M26.109,26.1485 L31.924,28.7465" id="Stroke-20"></path>
                        <path d="M65.6159,28.7462 L71.3039,26.1482" id="Stroke-22"></path>
                        <polyline id="Stroke-24" stroke-linejoin="round" points="61.8302 61.423 48.7732 73.115 35.7162 61.423"></polyline>
                        <path d="M69.631,92.8512 L84.407,90.0702" id="Stroke-26" stroke-linejoin="round"></path>
                    </g>
                    <polyline id="Stroke-1" stroke="#E33C10" stroke-width="2" stroke-linecap="round" points="114.868825 16.1291428 191.422027 16.1291428 191.422027 84.6063594 139.784883 84.6063594"></polyline>
                    <path d="M145.389617,44.4850033 C144.949897,44.4850033 144.642536,44.3737378 144.467737,44.1511098 C144.292836,43.9285789 144.205638,43.6435218 144.205638,43.2957445 C144.205638,43.2596269 144.207352,43.2227326 144.209368,43.1857412 C144.251505,43.1365164 144.290417,43.0864178 144.324288,43.0350571 C144.403018,42.9157331 144.442636,42.7963121 144.442636,42.6766968 C144.442636,42.5522271 144.42197,42.4493114 144.385176,42.3633865 C144.415418,42.2768791 144.44818,42.1910513 144.484672,42.1065827 C144.569249,41.9110429 144.662294,41.7292899 144.763807,41.5608383 C144.86532,41.3925808 144.972276,41.2593729 145.08518,41.1617001 C145.220463,41.585305 145.443045,41.9953173 145.753228,42.3916398 C146.063311,42.7881565 146.432567,43.1438953 146.861199,43.458759 C146.466438,44.1429542 145.97581,44.4850033 145.389617,44.4850033 M145.794156,39.3306432 C145.802523,39.3177432 145.814015,39.3036432 145.829439,39.2883432 C145.816334,39.3023432 145.805144,39.3165432 145.794156,39.3306432 M147.055656,40.6647921 C147.230455,40.9311107 147.340436,41.2431589 147.385597,41.6016162 C147.148701,41.3518029 146.948397,41.0912126 146.78509,40.819554 C146.62148,40.5482837 146.528435,40.3039075 146.505955,40.0865224 C146.69769,40.2062347 146.880756,40.3988618 147.055656,40.6647921 M177.830846,42.1472635 C177.718043,42.055222 177.565824,42.0088128 177.37419,42.0088128 C177.126003,42.0088128 176.883662,42.1447392 176.646867,42.4160094 C176.037992,43.0896218 175.45442,43.6027439 174.896251,43.95557 C174.338082,44.3085902 173.822252,44.4850033 173.348661,44.4850033 C172.976481,44.4850033 172.700068,44.333057 172.519825,44.0288732 C172.33938,43.7249806 172.249158,43.3230268 172.249158,42.8234003 C172.249158,42.7039792 172.26317,42.5520329 172.291497,42.3672701 C172.319521,42.1827015 172.350671,41.9871617 172.384542,41.7807477 C172.418312,41.5636539 172.452184,41.3489873 172.486055,41.1373305 C172.519825,40.9254795 172.536761,40.70557 172.536761,40.4775049 C172.536761,39.9345761 172.39553,39.5029127 172.113976,39.1824177 C171.831918,38.862214 171.397641,38.7018208 170.811548,38.7018208 C170.371727,38.7018208 169.875353,38.832116 169.323031,39.0928034 C168.770508,39.3533937 168.234718,39.7011711 167.716267,40.1353588 C167.693485,39.7988439 167.589351,39.5163112 167.403261,39.2883432 C167.217171,39.060181 166.943581,38.946197 166.582893,38.946197 C166.278456,38.946197 165.920389,39.0276558 165.508895,39.1905733 C165.097098,39.3533937 164.657377,39.5871871 164.189532,39.8910796 C163.721585,40.1951664 163.233981,40.5617793 162.726418,40.9906271 C162.219056,41.4198632 161.711593,41.8947317 161.204231,42.4160094 C161.040823,42.6049471 160.957052,42.7888361 160.951508,42.9674822 C160.553925,43.3259395 160.150495,43.61255 159.741319,43.8251777 C159.104117,44.156644 158.537581,44.3220858 158.04151,44.3220858 C157.748161,44.3220858 157.50572,44.2462583 157.314187,44.0940207 C157.122351,43.9420744 157.026584,43.6923582 157.026584,43.344678 C157.026584,43.0513682 157.09977,42.7256303 157.246444,42.3672701 C157.426688,41.8784206 157.610156,41.3953964 157.796145,40.9173239 C157.982235,40.4395426 158.165402,39.9561301 158.345846,39.4674748 L158.312076,39.5163112 C158.345846,39.4511636 158.365504,39.3969872 158.37125,39.3533937 C158.376794,39.3101885 158.379718,39.261255 158.379718,39.2068844 C158.379718,38.8484271 158.193729,38.6692956 157.821549,38.6692956 C157.573362,38.6692956 157.364893,38.7481329 157.195739,38.9054191 C157.026584,39.0629967 156.908237,39.2287298 156.840595,39.4023272 C156.671441,39.8803026 156.493819,40.3635209 156.30783,40.8521763 C156.12174,41.3409288 155.938271,41.8243413 155.758028,42.3021225 C155.667604,42.5520329 155.602886,42.7907779 155.563571,43.0187459 C155.523853,43.246908 155.493006,43.453322 155.470526,43.6377935 C155.120827,43.8552757 154.771127,44.0235332 154.42183,44.1429542 C154.072131,44.2625695 153.733822,44.3220858 153.406905,44.3220858 C153.124947,44.3220858 152.893696,44.2462583 152.713453,44.0940207 C152.532907,43.9420744 152.442887,43.7140094 152.442887,43.4098255 C152.442887,43.3972038 152.443895,43.383417 152.444197,43.370504 C152.489157,43.3250657 152.533815,43.2789478 152.578271,43.2305969 C152.668291,43.1112729 152.738856,43.0081631 152.789663,42.9211702 C152.840369,42.8342744 152.865772,42.7419415 152.865772,42.6441716 C152.865772,42.4648459 152.815873,42.3311525 152.721114,42.2386255 L153.745314,39.4674748 L153.711443,39.5163112 C153.745314,39.4511636 153.76477,39.3969872 153.770617,39.3533937 C153.776161,39.3101885 153.779084,39.261255 153.779084,39.2068844 C153.779084,38.8484271 153.592995,38.6692956 153.220916,38.6692956 C152.972729,38.6692956 152.764159,38.7481329 152.595105,38.9054191 C152.425951,39.0629967 152.307503,39.2287298 152.239861,39.4023272 C152.059316,39.8910796 151.881694,40.3743951 151.707096,40.8521763 C151.532397,41.3302488 151.354775,41.813273 151.17433,42.3021225 L151.191165,42.2858114 C151.112536,42.485429 151.053059,42.6704831 151.008301,42.8437892 C150.780578,42.9485496 150.526242,43.0025318 150.243982,43.0025318 C149.713838,43.0025318 149.212322,42.8722367 148.738731,42.6115493 C148.828751,42.350959 148.888026,42.139108 148.916252,41.9761905 C148.944276,41.813273 148.95849,41.6288015 148.95849,41.4223875 C148.95849,40.9987826 148.882381,40.6052757 148.730263,40.2412843 C148.578044,39.8775841 148.386208,39.5627203 148.155159,39.2964988 C147.923907,39.0303743 147.667252,38.821436 147.385597,38.6692956 C147.103539,38.5172522 146.838417,38.4411334 146.590532,38.4411334 C146.252324,38.4411334 145.941939,38.5525931 145.660284,38.775124 C145.378327,38.9978491 145.175301,39.2883432 145.05141,39.6467034 C144.859473,39.7336963 144.684875,39.8449618 144.527011,39.9805969 C144.368946,40.1166204 144.194348,40.2876934 144.002714,40.4938161 C143.641623,40.9067411 143.323475,41.3953964 143.047063,41.9599764 C142.921759,42.2162947 142.826295,42.4772734 142.757847,42.742524 C142.046956,43.2932201 141.454109,43.7074072 140.983743,43.9800367 C140.402792,44.3167458 139.954604,44.4850033 139.638977,44.4850033 C139.503694,44.4850033 139.407726,44.4144187 139.351576,44.2731523 C139.294922,44.1321772 139.266898,43.9367345 139.266898,43.686727 C139.266898,43.4912843 139.292301,43.246908 139.343108,42.9536954 C139.393713,42.6604828 139.464077,42.3401819 139.5544,41.9925016 C139.644622,41.6451126 139.748957,41.2785968 139.867406,40.8929542 C139.985854,40.5075058 140.106823,40.1138047 140.231017,39.711851 C140.3663,39.2775662 140.49866,38.8430872 140.6286,38.4086082 C140.758036,37.9743234 140.873763,37.5532428 140.975276,37.1460462 C141.076788,36.7388496 141.161365,36.3588382 141.229007,36.0057209 C141.296548,35.6528948 141.330419,35.3405554 141.330419,35.0690909 C141.330419,34.2979999 141.178301,33.7604111 140.873763,33.4562272 C140.569325,33.1523346 140.106823,33.0000971 139.486758,33.0000971 C139.148551,33.0000971 138.795927,33.0652447 138.429695,33.1956369 C138.06306,33.325835 137.693904,33.4888496 137.321826,33.6842923 C136.949646,33.8798321 136.586035,34.0972172 136.230891,34.3359622 C135.875647,34.5749985 135.53996,34.8029665 135.224434,35.0201574 C135.213042,34.3685846 135.080582,33.8716765 134.826951,33.5295304 C134.57322,33.1874813 134.158802,33.0164083 133.583798,33.0164083 C133.143876,33.0164083 132.596897,33.1603931 131.942962,33.4480716 C131.288925,33.7359443 130.477025,34.20557 129.507362,34.8572399 L129.507362,34.8409288 C129.169154,35.0583139 129,35.3242442 129,35.6392051 C129,36.0195077 129.180445,36.2094163 129.541233,36.2094163 C129.710387,36.2094163 129.896477,36.1388316 130.099402,35.9975653 L130.082466,36.0138764 C130.860495,35.5034728 131.491951,35.1341414 131.976833,34.9060764 C132.461614,34.6780113 132.850528,34.5639302 133.143876,34.5639302 C133.482286,34.5639302 133.65144,34.8735511 133.65144,35.4925987 C133.65144,35.6012428 133.634504,35.7425091 133.600633,35.9161065 C133.577851,36.0138764 133.561016,36.1143649 133.549927,36.2175718 C133.538435,36.3208759 133.532992,36.4373842 133.532992,36.5677765 C133.420189,37.0890542 133.262325,37.6673239 133.0594,38.3026827 C132.856375,38.9380415 132.633591,39.6005855 132.391352,40.2901207 C132.148608,40.9799471 131.892256,41.6749193 131.62169,42.3753286 C131.351023,43.075835 131.0859,43.7466317 130.826725,44.3872334 L130.471582,45.2018208 C130.448799,45.2453173 130.434686,45.2858039 130.429243,45.3239604 C130.423396,45.3618256 130.420775,45.4134776 130.420775,45.4787223 C130.420775,45.8261113 130.606764,46 130.978944,46 C131.159187,46 131.308684,45.9756303 131.427132,45.9267939 C131.54558,45.8778604 131.647093,45.8045573 131.73167,45.7067874 C131.816247,45.6090174 131.889332,45.4868779 131.95143,45.3402716 C132.013426,45.1936652 132.078346,45.0282234 132.145987,44.8433635 C132.145987,44.8653059 132.162923,44.8326836 132.196794,44.7456907 C132.230564,44.6587949 132.258589,44.5773361 132.281371,44.5013145 C132.540546,43.8715869 132.805669,43.2089457 133.076336,42.5137794 C133.346902,41.8189042 133.606178,41.1291749 133.854365,40.4449797 C134.102249,39.7606874 134.325033,39.1036775 134.522413,38.4737558 C134.719592,37.8440282 134.880278,37.2682828 135.004473,36.7470051 C135.083304,36.6817605 135.167881,36.6222441 135.258204,36.5677765 C135.506089,36.3832079 135.799437,36.1741725 136.137846,35.9405733 C136.476054,35.7071682 136.819907,35.4844431 137.169506,35.2725922 C137.518903,35.0609354 137.863059,34.8844252 138.201266,34.7431589 C138.539575,34.6021838 138.838266,34.531405 139.097744,34.531405 C139.323148,34.531405 139.48948,34.6021838 139.596739,34.7431589 C139.703796,34.8844252 139.757425,35.1288985 139.757425,35.4762876 C139.757425,35.9649429 139.661558,36.5677765 139.469823,37.284594 C139.277987,38.0013145 139.041191,38.7669684 138.759435,39.5814587 C138.432215,40.4938161 138.17304,41.3437444 137.981507,42.1310495 C137.78947,42.9185487 137.693904,43.5837142 137.693904,44.1266431 C137.693904,44.7130684 137.797937,45.1691985 138.00681,45.4949364 C138.215279,45.8208684 138.601471,45.9837859 139.165486,45.9837859 C139.661558,45.9837859 140.307126,45.7719349 141.102091,45.3484271 C141.569432,45.0993906 142.100081,44.7673418 142.690407,44.3568441 C142.77075,44.7832646 142.936074,45.1341489 143.190813,45.405322 C143.562892,45.8017417 144.154932,46 144.966832,46 C145.508066,46 146.05192,45.8477624 146.599,45.5438699 C147.145878,45.2398802 147.616546,44.772876 148.011408,44.1429542 C148.315744,44.2950947 148.608992,44.395389 148.890849,44.4442254 C149.172604,44.4931589 149.471497,44.5175285 149.787326,44.5175285 C150.17624,44.5175285 150.556484,44.4565558 150.92816,44.3364552 C150.957696,44.5011203 151.002958,44.6486975 151.06435,44.778313 C151.182798,45.0282234 151.340763,45.2318217 151.537942,45.3892051 C151.735322,45.5464913 151.966271,45.6579509 152.231393,45.7230985 C152.496214,45.7882461 152.781094,45.8208684 153.085633,45.8208684 C153.514063,45.8208684 153.953783,45.7447497 154.404895,45.5927063 C154.855704,45.4405658 155.312461,45.2343461 155.774863,44.9736587 C155.955207,45.2453173 156.197849,45.4542555 156.502186,45.6008619 C156.806724,45.7475653 157.173057,45.8208684 157.601689,45.8208684 C158.345846,45.8208684 159.168835,45.5927063 160.07116,45.1365761 C160.973181,44.6805431 161.841332,43.9855709 162.675913,43.0513682 C162.853737,42.8159243 162.943758,42.6278604 162.946076,42.4871766 C163.082166,42.3596 163.217752,42.2345477 163.352228,42.1147383 C163.724408,41.7835634 164.079551,41.4956907 164.417961,41.2513145 C164.756168,41.0069382 165.06615,40.8171267 165.348107,40.6811032 C165.629863,40.5454681 165.86676,40.4775049 166.058596,40.4775049 C166.114947,40.4775049 166.143173,40.5427496 166.143173,40.6729477 C166.143173,40.7707176 166.131782,40.8793616 166.109302,40.9987826 C166.086519,41.1183979 166.058596,41.2541301 166.024724,41.4060764 L166.024724,41.373454 C165.934401,41.6451126 165.838735,41.9139556 165.737223,42.1798859 C165.63571,42.4461074 165.539842,42.7149504 165.44962,42.9862206 L165.483491,42.9373842 C165.06615,43.7411947 164.778648,44.5232569 164.620784,45.2832796 C164.598204,45.3264847 164.589736,45.3618256 164.595482,45.3892051 C164.601026,45.4160991 164.60395,45.4461 164.60395,45.4787223 C164.60395,45.8261113 164.790039,46 165.162118,46 C165.410104,46 165.62442,45.9238812 165.804864,45.7719349 C165.985107,45.6197945 166.109302,45.4461 166.176943,45.2506572 C166.300835,44.9032682 166.424929,44.5476265 166.549022,44.1836351 C166.673015,43.8198378 166.797007,43.4642932 166.921202,43.1165158 L166.887431,43.1654493 C167.135316,42.6986392 167.41435,42.2831899 167.724634,41.9191985 C168.034717,41.5554983 168.344698,41.2459745 168.654882,40.9906271 C168.964864,40.735668 169.269402,40.5427496 169.568295,40.4123574 C169.866885,40.2820622 170.134931,40.2168175 170.371727,40.2168175 C170.766286,40.2168175 170.963666,40.4449797 170.963666,40.9011098 C170.963666,41.0965525 170.946731,41.2756841 170.91296,41.4386016 C170.743907,42.1554191 170.659229,42.7581556 170.659229,43.246908 C170.659229,44.0940207 170.842395,44.7647204 171.20893,45.2588128 C171.575263,45.7529052 172.147645,46 172.925775,46 C173.703804,46 174.492922,45.7499925 175.293733,45.2506572 C176.094343,44.7512248 176.900598,44.0507185 177.712498,43.1491381 C177.904132,42.9103931 178,42.7201933 178,42.5789269 C178,42.3834842 177.943548,42.2396935 177.830846,42.1472635" id="noun" fill="#E33C10"></path>
                    <path d="M191.83646,16.1299001 L115.454614,16.1299001 C113.086344,16.1299001 112.166274,15.0933775 112.166274,13.8149001 C112.166274,12.5364226 113.086344,11.4999 115.454614,11.4999 L194.83646,11.4999" id="Stroke-3" stroke="#E33C10" stroke-width="2" stroke-linecap="round" transform="translate(153.501367, 13.814900) scale(-1, 1) translate(-153.501367, -13.814900) "></path>
                </g>
            </g>
        </g>
    </g>
</svg>