<svg id="869c71cb-26dd-45a9-a7d4-5f09abf3ab83" data-name="Layer 2" xmlns="http://www.w3.org/2000/svg" viewBox="0 0 346 346"><defs><style>.\30 302f013-a223-4228-b88e-e0d6270f1fb3,.defb5177-37ce-4fba-9293-b43f766ff905{fill:#fb6120;}.\35 fd09962-e41b-4b20-b996-0df5bfeddad9{fill:#fde052;}.\33 152b56e-5391-41e1-b083-2e862288a91b,.\35 4b2e1a6-0d15-4d53-a87a-e17a6cebc87a,.\36 30aa55c-c31a-4d82-95d8-2d8dde1928ba,.\37 c6a4621-90b0-48c7-b76c-4009bc88e2c1,.a26a4fe3-2a42-401b-8f67-249c0b5f0b18,.c3f9fcc4-427d-4371-bec4-fc4bfbf168cd,.d2491346-e07d-4b69-9d8f-84cfced3895f,.ea9be486-3131-42ae-8578-c7890882ee6b{fill:none;}.\33 152b56e-5391-41e1-b083-2e862288a91b,.\37 c6a4621-90b0-48c7-b76c-4009bc88e2c1{stroke:#fde052;}.\34 5cfb13f-eb54-4f39-aeca-30cf699e5119,.\35 4b2e1a6-0d15-4d53-a87a-e17a6cebc87a,.\37 c6a4621-90b0-48c7-b76c-4009bc88e2c1,.d2491346-e07d-4b69-9d8f-84cfced3895f,.ea9be486-3131-42ae-8578-c7890882ee6b{stroke-width:3.43px;}.\33 152b56e-5391-41e1-b083-2e862288a91b,.\36 30aa55c-c31a-4d82-95d8-2d8dde1928ba,.a26a4fe3-2a42-401b-8f67-249c0b5f0b18,.b742a0ea-d4fc-4fbf-8421-e62c331e1232,.c3f9fcc4-427d-4371-bec4-fc4bfbf168cd,.defb5177-37ce-4fba-9293-b43f766ff905,.f63b7e0c-0157-4e18-9d92-4006c6c645dc{stroke-width:3px;}.\30 77eb206-2a03-42c0-98fc-094a2835d882,.\31 4e56f62-841a-4cdb-a36e-9f4afd02da57,.\32 87d5ae1-c72b-4a3b-ab7c-22d7a0b23eb6,.\34 5cfb13f-eb54-4f39-aeca-30cf699e5119,.\35 4b2e1a6-0d15-4d53-a87a-e17a6cebc87a,.\36 30aa55c-c31a-4d82-95d8-2d8dde1928ba,.\37 b304b98-ae71-4633-8bb2-ea3269aa4ab4,.b742a0ea-d4fc-4fbf-8421-e62c331e1232,.c3f9fcc4-427d-4371-bec4-fc4bfbf168cd,.d2491346-e07d-4b69-9d8f-84cfced3895f,.defb5177-37ce-4fba-9293-b43f766ff905,.e2c04d62-2d06-4c4d-b13d-a5d176a06c70,.e7c318a6-81a6-4fe8-92e9-3fa33ac759ea,.f63b7e0c-0157-4e18-9d92-4006c6c645dc{stroke:#2e2e2e;}.c3f9fcc4-427d-4371-bec4-fc4bfbf168cd{stroke-dasharray:3;}.\36 30aa55c-c31a-4d82-95d8-2d8dde1928ba,.d2491346-e07d-4b69-9d8f-84cfced3895f{stroke-dasharray:3.43;}.\30 77eb206-2a03-42c0-98fc-094a2835d882,.\32 87d5ae1-c72b-4a3b-ab7c-22d7a0b23eb6,.\37 b304b98-ae71-4633-8bb2-ea3269aa4ab4,.a26a4fe3-2a42-401b-8f67-249c0b5f0b18,.b742a0ea-d4fc-4fbf-8421-e62c331e1232,.defb5177-37ce-4fba-9293-b43f766ff905,.e7c318a6-81a6-4fe8-92e9-3fa33ac759ea,.f63b7e0c-0157-4e18-9d92-4006c6c645dc{stroke-miterlimit:10;}.\34 5cfb13f-eb54-4f39-aeca-30cf699e5119,.f63b7e0c-0157-4e18-9d92-4006c6c645dc{fill:#fff;}.b742a0ea-d4fc-4fbf-8421-e62c331e1232{fill:#2e2e2e;}.a26a4fe3-2a42-401b-8f67-249c0b5f0b18{stroke:#88d143;}.dcb2db83-7e3b-4099-858a-d5731accc4bd{fill:#30c0d8;}.e2c04d62-2d06-4c4d-b13d-a5d176a06c70{fill:#f5f6f8;}.\30 77eb206-2a03-42c0-98fc-094a2835d882,.\31 4e56f62-841a-4cdb-a36e-9f4afd02da57,.\32 87d5ae1-c72b-4a3b-ab7c-22d7a0b23eb6,.\37 b304b98-ae71-4633-8bb2-ea3269aa4ab4,.e2c04d62-2d06-4c4d-b13d-a5d176a06c70,.e7c318a6-81a6-4fe8-92e9-3fa33ac759ea{stroke-width:0.86px;}.e7c318a6-81a6-4fe8-92e9-3fa33ac759ea{fill:#ffc400;}.\35 4b2e1a6-0d15-4d53-a87a-e17a6cebc87a{stroke-linejoin:round;}.\30 77eb206-2a03-42c0-98fc-094a2835d882{fill:#b7bec0;}.\37 b304b98-ae71-4633-8bb2-ea3269aa4ab4{fill:#ffdc69;}.\31 4e56f62-841a-4cdb-a36e-9f4afd02da57{fill:#c6c6c6;}.\32 87d5ae1-c72b-4a3b-ab7c-22d7a0b23eb6{fill:#88d8fb;}.ea9be486-3131-42ae-8578-c7890882ee6b{stroke:#282d33;}</style></defs><title>recursos</title><circle class="0302f013-a223-4228-b88e-e0d6270f1fb3" cx="173" cy="173" r="173"/><path class="5fd09962-e41b-4b20-b996-0df5bfeddad9" d="M120.94,109.16a12.83,12.83,0,0,0-12.06-2.77,18.76,18.76,0,0,1-.27,6.7,14.91,14.91,0,0,1,7,12.36A12.92,12.92,0,0,0,120.94,109.16Z" transform="translate(-2 -2)"/><path class="5fd09962-e41b-4b20-b996-0df5bfeddad9" d="M84.7,121.34a19,19,0,0,0,17-27.31,18.67,18.67,0,0,0-11.59-4,18.91,18.91,0,0,0-18.9,19v0.13A11.61,11.61,0,0,0,62,125.64a8.76,8.76,0,0,0,3.57.76,8.88,8.88,0,0,0,8.84-8.07A18.86,18.86,0,0,0,84.7,121.34Z" transform="translate(-2 -2)"/><circle class="7c6a4621-90b0-48c7-b76c-4009bc88e2c1" cx="243.96" cy="144.31" r="22.48"/><ellipse class="7c6a4621-90b0-48c7-b76c-4009bc88e2c1" cx="243.95" cy="144.31" rx="13" ry="22.48"/><path class="3152b56e-5391-41e1-b083-2e862288a91b" d="M245.75,168.8a22.48,22.48,0,0,0,0-45v45Z" transform="translate(-2 -2)"/><path class="3152b56e-5391-41e1-b083-2e862288a91b" d="M223.47,146.2a25.26,25.26,0,0,0,1.46,8h42a22.57,22.57,0,0,0,0-16h-42A25.25,25.25,0,0,0,223.47,146.2Z" transform="translate(-2 -2)"/><line class="c3f9fcc4-427d-4371-bec4-fc4bfbf168cd" x1="173.25" y1="112.2" x2="128.25" y2="112.2"/><path class="630aa55c-c31a-4d82-95d8-2d8dde1928ba" d="M210.25,178.2h36.29a32,32,0,0,0,31.85-32h0a32,32,0,0,0-31.85-32H212.25" transform="translate(-2 -2)"/><path class="d2491346-e07d-4b69-9d8f-84cfced3895f" d="M179.08,178.25H134.26c-6.7,0-11.44,4.74-11.44,10.59h0a10.59,10.59,0,0,0,10.59,10.59h23.36" transform="translate(-2 -2)"/><polygon class="defb5177-37ce-4fba-9293-b43f766ff905" points="178.85 211.2 172.75 211.2 172.75 193.2 167.03 193.2 159.75 193.2 159.75 211.2 154.63 211.2 166.74 227.21 178.85 211.2"/><path class="45cfb13f-eb54-4f39-aeca-30cf699e5119" d="M220.15,87.08c0.21,1.13-1.1,2.74-2.93,3.61s-3.48.64-3.69-.48,1.1-2.75,2.93-3.61S219.94,86,220.15,87.08Z" transform="translate(-2 -2)"/><line class="45cfb13f-eb54-4f39-aeca-30cf699e5119" x1="218.17" y1="85.08" x2="218.17" y2="72.71"/><path class="45cfb13f-eb54-4f39-aeca-30cf699e5119" d="M233.52,83.62c0.21,1.13-1.1,2.75-2.93,3.61s-3.48.65-3.69-.49,1.1-2.75,2.93-3.61S233.3,82.49,233.52,83.62Z" transform="translate(-2 -2)"/><line class="45cfb13f-eb54-4f39-aeca-30cf699e5119" x1="231.54" y1="81.7" x2="231.54" y2="69.69"/><polygon class="45cfb13f-eb54-4f39-aeca-30cf699e5119" points="231.54 74.16 218.17 77.36 218.17 72.9 231.54 69.7 231.54 74.16"/><rect class="f63b7e0c-0157-4e18-9d92-4006c6c645dc" x="146.75" y="142.2" width="56" height="31"/><rect class="b742a0ea-d4fc-4fbf-8421-e62c331e1232" x="146.75" y="173.2" width="56" height="7"/><polygon class="a26a4fe3-2a42-401b-8f67-249c0b5f0b18" points="179.15 157.88 174.95 159.97 170.75 162.07 170.75 157.88 170.75 153.68 174.95 155.78 179.15 157.88"/><line class="a26a4fe3-2a42-401b-8f67-249c0b5f0b18" x1="155.25" y1="175.2" x2="193.25" y2="175.2"/><line class="a26a4fe3-2a42-401b-8f67-249c0b5f0b18" x1="194.25" y1="175.2" x2="196.25" y2="175.2"/><line class="a26a4fe3-2a42-401b-8f67-249c0b5f0b18" x1="198.25" y1="175.2" x2="200.25" y2="175.2"/><line class="a26a4fe3-2a42-401b-8f67-249c0b5f0b18" x1="151.25" y1="175.2" x2="153.25" y2="175.2"/><path class="dcb2db83-7e3b-4099-858a-d5731accc4bd" d="M72.43,134.7a13.85,13.85,0,0,1-3.35-27.24A21.07,21.07,0,0,1,110.54,104a14.56,14.56,0,0,1,1.84-.13,15,15,0,0,1,15,14.81,8,8,0,0,1,5.64,7.65,8.23,8.23,0,0,1-7.21,8.18l0,0.24H72.43Z" transform="translate(-2 -2)"/><polygon class="e2c04d62-2d06-4c4d-b13d-a5d176a06c70" points="192.68 93.98 206.52 101.89 192.59 109.93 178.75 102.02 192.68 93.98"/><polygon class="e7c318a6-81a6-4fe8-92e9-3fa33ac759ea" points="192.68 93.98 206.52 101.89 192.59 109.93 178.75 102.02 192.68 93.98"/><polygon class="54b2e1a6-0d15-4d53-a87a-e17a6cebc87a" points="192.68 93.98 206.52 101.89 192.59 109.93 178.75 102.02 192.68 93.98"/><polygon class="077eb206-2a03-42c0-98fc-094a2835d882" points="206.52 101.89 206.68 117.96 192.75 126 192.59 109.93 206.52 101.89"/><polygon class="7b304b98-ae71-4633-8bb2-ea3269aa4ab4" points="206.26 101.63 206.42 117.7 192.49 125.75 192.33 109.67 206.26 101.63"/><polygon class="54b2e1a6-0d15-4d53-a87a-e17a6cebc87a" points="206.52 101.89 206.68 117.96 192.75 126 192.59 109.93 206.52 101.89"/><polygon class="14e56f62-841a-4cdb-a36e-9f4afd02da57" points="192.59 109.93 192.75 126 178.91 118.09 178.75 102.02 192.59 109.93"/><polygon class="287d5ae1-c72b-4a3b-ab7c-22d7a0b23eb6" points="192.59 109.93 192.75 126 178.91 118.09 178.75 102.02 192.59 109.93"/><polygon class="54b2e1a6-0d15-4d53-a87a-e17a6cebc87a" points="192.59 109.93 192.75 126 178.91 118.09 178.75 102.02 192.59 109.93"/><line class="ea9be486-3131-42ae-8578-c7890882ee6b" x1="199.85" y1="33.08" x2="199.85" y2="38.05"/><line class="ea9be486-3131-42ae-8578-c7890882ee6b" x1="187.72" y1="39.83" x2="192.03" y2="42.32"/><line class="ea9be486-3131-42ae-8578-c7890882ee6b" x1="187.5" y1="53.72" x2="191.81" y2="51.23"/><line class="ea9be486-3131-42ae-8578-c7890882ee6b" x1="199.42" y1="60.84" x2="199.42" y2="55.88"/><line class="ea9be486-3131-42ae-8578-c7890882ee6b" x1="211.55" y1="54.09" x2="207.24" y2="51.61"/><line class="ea9be486-3131-42ae-8578-c7890882ee6b" x1="211.76" y1="40.21" x2="207.46" y2="42.7"/><line class="ea9be486-3131-42ae-8578-c7890882ee6b" x1="165.2" y1="62.97" x2="165.2" y2="67.18"/><line class="ea9be486-3131-42ae-8578-c7890882ee6b" x1="165.2" y1="81.21" x2="165.2" y2="77"/><line class="ea9be486-3131-42ae-8578-c7890882ee6b" x1="157.3" y1="67.53" x2="160.94" y2="69.64"/><line class="ea9be486-3131-42ae-8578-c7890882ee6b" x1="173.1" y1="76.65" x2="169.45" y2="74.55"/><line class="ea9be486-3131-42ae-8578-c7890882ee6b" x1="157.3" y1="76.65" x2="160.94" y2="74.55"/><line class="ea9be486-3131-42ae-8578-c7890882ee6b" x1="173.1" y1="67.53" x2="169.45" y2="69.64"/><line class="ea9be486-3131-42ae-8578-c7890882ee6b" x1="186.77" y1="74.7" x2="186.77" y2="87.05"/><line class="ea9be486-3131-42ae-8578-c7890882ee6b" x1="192.94" y1="80.88" x2="180.6" y2="80.88"/></svg>