<svg xmlns="http://www.w3.org/2000/svg" xmlns:xlink="http://www.w3.org/1999/xlink" width="64" height="224" viewBox="0 0 64 224"><defs><path id="a" d="M0 0.025L15.975 0.025 15.975 15.998 0 15.998z"/></defs><g fill="none" fill-rule="evenodd"><path fill="#CD1F20" d="M16 29c7.18 0 13-5.82 13-13S23.18 3 16 3 3 8.82 3 16s5.82 13 13 13zm7.723-17.07c-.196-.916-.892-1.59-1.73-1.691-1.983-.239-3.991-.24-5.99-.239-2 0-4.009 0-5.993.239-.837.1-1.533.775-1.728 1.692C8.003 13.234 8 14.657 8 16c0 1.342 0 2.766.28 4.07.194.915.89 1.591 1.728 1.692C11.992 22 14 22.002 16 22c2 .001 4.008 0 5.991-.238.838-.1 1.534-.777 1.73-1.692.28-1.304.28-2.728.28-4.07 0-1.343.002-2.766-.277-4.07zM14 19v-6l5 3.009L14 19z"/><g transform="translate(32)"><circle cx="16" cy="16" r="13" fill="#4A4A4A"/><path fill="#FFF" d="M23.723 11.93c-.196-.916-.892-1.59-1.73-1.691-1.983-.239-3.991-.24-5.99-.239-2 0-4.009 0-5.993.239-.837.1-1.533.775-1.728 1.692C8.003 13.234 8 14.657 8 16c0 1.342 0 2.766.28 4.07.194.915.89 1.591 1.728 1.692C11.992 22 14 22.002 16 22c2 .001 4.008 0 5.991-.238.838-.1 1.534-.777 1.73-1.692.28-1.304.28-2.728.28-4.07 0-1.343.002-2.766-.277-4.07zM14 19v-6l5 3.009L14 19z"/></g><path fill="#3995FF" d="M16 61C8.82 61 3 55.18 3 48s5.82-13 13-13 13 5.82 13 13-5.82 13-13 13zm8-17.737c-.552.399-1.145.561-1.25 0 .118.26.606-.334.625-1.263-.384.569-1.042.821-1.875.632-.43-.264-1.23-.632-1.875-.632-1.94 0-3.317 1.357-3.125 3.158-.192.109-.165.34 0 .631-2.67-.196-4.938-1.401-6.875-3.157.154.37.003.89 0 1.894.003.603.546 1.53 1.875 1.895-1.008.162-1.482.026-1.875 0-.022-.189-.022-.176 0 0-.022 1.305 1.038 2.53 2.5 2.526-.312.35-.584.388-.625 0-.438.388-.63.37-1.25 0 .823 1.537 1.96 2.413 3.125 1.895-.872 1.355-2.2 1.84-3.75 2.526-.14-.687-.384-.701-.625 0 1.362.13 2.98.632 4.375.632 6.003 0 9.098-4.616 9.375-8.842-.277.092-.28-.04 0 0 .316-.596.838-1.13 1.25-1.895z"/><g transform="translate(32 32)"><circle cx="16" cy="16" r="13" fill="#4A4A4A"/><path fill="#FFF" d="M24 11.263c-.552.399-1.145.561-1.25 0 .118.26.606-.334.625-1.263-.384.569-1.042.821-1.875.632-.43-.264-1.23-.632-1.875-.632-1.94 0-3.317 1.357-3.125 3.158-.192.109-.165.34 0 .631-2.67-.196-4.938-1.401-6.875-3.157.154.37.003.89 0 1.894.003.603.546 1.53 1.875 1.895-1.008.162-1.482.026-1.875 0-.022-.189-.022-.176 0 0-.022 1.305 1.038 2.53 2.5 2.526-.312.35-.584.388-.625 0-.438.388-.63.37-1.25 0 .823 1.537 1.96 2.413 3.125 1.895-.872 1.355-2.2 1.84-3.75 2.526-.14-.687-.384-.701-.625 0 1.362.13 2.98.632 4.375.632 6.003 0 9.098-4.616 9.375-8.842-.277.092-.28-.04 0 0 .316-.596.838-1.13 1.25-1.895"/></g><path fill="#4267B2" d="M16 93C8.82 93 3 87.18 3 80s5.82-13 13-13 13 5.82 13 13-5.82 13-13 13zm3-16.077h-2.333v-1.23c-.051-.796.338-.942.583-1.231H19V72h-2.333c-2.595 0-3.18 2.045-2.917 3.077v1.846H12V80h1.75v8h2.917v-8H19v-3.077z"/><g transform="translate(32 64)"><circle cx="16" cy="16" r="13" fill="#4A4A4A"/><path fill="#FFF" d="M19 12.923h-2.333v-1.23c-.051-.796.338-.942.583-1.231H19V8h-2.333c-2.595 0-3.18 2.045-2.917 3.077v1.846H12V16h1.75v8h2.917v-8H19v-3.077z"/></g><path fill="#026597" d="M16 125c7.18 0 13-5.82 13-13s-5.82-13-13-13-13 5.82-13 13 5.82 13 13 13zm-.013-20.975c-2.169 0-2.44.01-3.293.048-.85.04-1.43.174-1.939.372-.525.204-.97.477-1.414.92-.444.445-.718.89-.922 1.416-.197.508-.332 1.088-.37 1.938-.04.852-.049 1.124-.049 3.294 0 2.169.01 2.44.048 3.293.039.85.174 1.43.371 1.939.204.525.478.97.922 1.414.444.444.89.718 1.414.922.508.197 1.089.332 1.94.37.851.04 1.123.049 3.292.049 2.17 0 2.442-.01 3.294-.048.85-.039 1.43-.174 1.938-.371.526-.204.971-.478 1.415-.922.444-.444.717-.89.921-1.414.198-.508.333-1.09.372-1.94.039-.851.048-1.123.048-3.292 0-2.17-.01-2.442-.048-3.294-.04-.85-.174-1.43-.372-1.938a3.915 3.915 0 0 0-.92-1.415 3.915 3.915 0 0 0-1.416-.921c-.508-.198-1.088-.333-1.938-.372-.852-.039-1.124-.048-3.294-.048m0 1.44c2.133 0 2.386.007 3.228.046.779.035 1.202.166 1.483.275.373.145.64.318.919.597.28.28.452.546.597.919.11.281.24.704.275 1.483.038.842.047 1.095.047 3.228 0 2.132-.009 2.385-.047 3.227-.035.779-.166 1.202-.275 1.483a2.474 2.474 0 0 1-.597.919c-.28.28-.546.452-.919.597-.281.11-.704.24-1.483.275-.842.039-1.095.047-3.228.047s-2.385-.008-3.227-.047c-.779-.035-1.202-.165-1.483-.275a2.474 2.474 0 0 1-.919-.597 2.476 2.476 0 0 1-.597-.919c-.11-.281-.24-.704-.275-1.483-.039-.842-.047-1.095-.047-3.227 0-2.133.008-2.386.047-3.228.035-.779.165-1.202.275-1.483.145-.373.318-.639.597-.919.28-.28.546-.452.919-.597.281-.11.704-.24 1.483-.275.842-.039 1.095-.047 3.227-.047m.013 9.132a2.597 2.597 0 1 1 0-5.193 2.597 2.597 0 0 1 0 5.193M16 108a4 4 0 1 1 0 8 4 4 0 0 1 0-8zm4-.5a.5.5 0 1 1-1 0 .5.5 0 0 1 1 0z"/><g transform="translate(32 96)"><circle cx="16" cy="16" r="13" fill="#4A4A4A"/><g transform="translate(8 8)"><mask id="b" fill="#fff"><use xlink:href="#a"/></mask><path fill="#FFF" d="M7.987.025c-2.169 0-2.44.01-3.293.048-.85.04-1.43.174-1.939.372-.525.204-.97.477-1.414.92-.444.445-.718.89-.922 1.416-.197.508-.332 1.088-.37 1.938C.008 5.571 0 5.843 0 8.013c0 2.169.01 2.44.048 3.293.039.85.174 1.43.371 1.939.204.525.478.97.922 1.414.444.444.89.718 1.414.922.508.197 1.089.332 1.94.37.851.04 1.123.049 3.292.049 2.17 0 2.442-.01 3.294-.048.85-.039 1.43-.174 1.938-.371.526-.204.971-.478 1.415-.922.444-.444.717-.89.921-1.414.198-.508.333-1.09.372-1.94.039-.851.048-1.123.048-3.292 0-2.17-.01-2.442-.048-3.294-.04-.85-.174-1.43-.372-1.938a3.915 3.915 0 0 0-.92-1.415 3.915 3.915 0 0 0-1.416-.921c-.508-.198-1.088-.333-1.938-.372-.852-.039-1.124-.048-3.294-.048m0 1.44c2.133 0 2.386.007 3.228.046.779.035 1.202.166 1.483.275.373.145.64.318.919.597.28.28.452.546.597.919.11.281.24.704.275 1.483.038.842.047 1.095.047 3.228 0 2.132-.009 2.385-.047 3.227-.035.779-.166 1.202-.275 1.483a2.474 2.474 0 0 1-.597.919c-.28.28-.546.452-.919.597-.281.11-.704.24-1.483.275-.842.039-1.095.047-3.228.047s-2.385-.008-3.227-.047c-.779-.035-1.202-.165-1.483-.275a2.474 2.474 0 0 1-.919-.597 2.476 2.476 0 0 1-.597-.919c-.11-.281-.24-.704-.275-1.483-.039-.842-.047-1.095-.047-3.227 0-2.133.008-2.386.047-3.228.035-.779.165-1.202.275-1.483.145-.373.318-.639.597-.919.28-.28.546-.452.919-.597.281-.11.704-.24 1.483-.275.842-.039 1.095-.047 3.227-.047" mask="url(#b)"/><path fill="#FFF" d="M8 10.596a2.597 2.597 0 1 1 0-5.193 2.597 2.597 0 0 1 0 5.193M8 4a4 4 0 1 0 0 8 4 4 0 0 0 0-8m4-.5a.5.5 0 1 1-1 0 .5.5 0 0 1 1 0"/></g></g><path fill="#F5A623" d="M16 157c-7.18 0-13-5.82-13-13s5.82-13 13-13 13 5.82 13 13-5.82 13-13 13zm-2-9.5a1.5 1.5 0 1 0-3 0 1.5 1.5 0 0 0 3 0zm-3-8c5.343-.2 9.69 4.151 9.5 9.5H23c0-6.617-5.383-12-12-12v2.5zm0 4c1.514-.177 2.937.412 4 1.5 1.077 1.055 1.668 2.481 1.5 4H19c0-4.411-3.589-8-8-8v2.5z"/><g transform="translate(32 128)"><circle cx="16" cy="16" r="13" fill="#4A4A4A"/><path fill="#FFF" d="M14 19.5a1.5 1.5 0 1 1-3 0 1.5 1.5 0 0 1 3 0zm-3-8c5.343-.2 9.69 4.151 9.5 9.5H23c0-6.617-5.383-12-12-12v2.5zm0 4c1.514-.177 2.937.412 4 1.5 1.077 1.055 1.668 2.481 1.5 4H19c0-4.411-3.589-8-8-8v2.5z"/></g><path fill="#E1523D" d="M16 189c-7.18 0-13-5.82-13-13s5.82-13 13-13 13 5.82 13 13-5.82 13-13 13zm-5-6.583h1v-12.834h-1v12.834zM13.53 170c-.293 0-.53.224-.53.5v6c0 .276.237.5.53.5 1.764.667 3.088 1 3.97 1 .882 0 2.206-.333 3.97-1 .293 0 .53-.224.53-.5v-6c0-.276-.237-.5-.53-.5-1.764.667-3.088 1-3.97 1-.882 0-2.206-.333-3.97-1z"/><path fill="#0071A1" d="M16 221c7.18 0 13-5.82 13-13s-5.82-13-13-13-13 5.82-13 13 5.82 13 13 13zm6.02-8h-2.282v-3.574c0-.852-.016-1.947-1.188-1.947-1.187 0-1.368.929-1.368 1.887V213H14.9v-7.348h2.188v1.005h.032c.306-.578 1.05-1.187 2.16-1.187 2.314 0 2.74 1.521 2.74 3.5V213zm-9.694-8.35a1.325 1.325 0 1 1-.003-2.65 1.325 1.325 0 0 1 .003 2.65zM11.18 213h2.287v-7.348H11.18V213z"/><g transform="translate(32 160)"><circle cx="16" cy="16" r="13" fill="#4A4A4A"/><path fill="#FFF" d="M11 22.417V9.583h1v12.834h-1zM13.53 10c1.764.667 3.088 1 3.97 1 .882 0 2.206-.333 3.97-1 .293 0 .53.224.53.5v6c0 .276-.237.5-.53.5-1.764.667-3.088 1-3.97 1-.882 0-2.206-.333-3.97-1-.293 0-.53-.224-.53-.5v-6c0-.276.237-.5.53-.5z"/></g><g transform="translate(32 192)"><circle cx="16" cy="16" r="13" fill="#4A4A4A"/><path fill="#FFF" d="M22.02 21h-2.282v-3.574c0-.852-.016-1.947-1.188-1.947-1.187 0-1.368.929-1.368 1.887V21H14.9v-7.348h2.188v1.005h.032c.306-.578 1.05-1.187 2.16-1.187 2.314 0 2.74 1.521 2.74 3.5V21zm-9.694-8.35a1.325 1.325 0 1 1-.003-2.65 1.325 1.325 0 0 1 .003 2.65zM11.18 21h2.287v-7.348H11.18V21z"/></g></g></svg>