<?xml version="1.0" encoding="UTF-8"?>
<svg width="64px" height="224px" viewBox="0 0 64 224" version="1.1" xmlns="http://www.w3.org/2000/svg" xmlns:xlink="http://www.w3.org/1999/xlink">
    <!-- Generator: Sketch 46.2 (44496) - http://www.bohemiancoding.com/sketch -->
    <title>sprite_topbar_rrss_and_flag</title>
    <desc>Created with Sketch.</desc>
    <defs>
        <polygon id="path-1" points="3.50109409e-05 0.0252778993 15.9747221 0.0252778993 15.9747221 15.9978993 3.50109409e-05 15.9978993"></polygon>
    </defs>
    <g id="Symbols" stroke="none" stroke-width="1" fill="none" fill-rule="evenodd">
        <g id="sprite_topbar_rrss_and_flag">
            <g id="btn_topbar_yt" fill="#CD1F20">
                <path d="M16,29 C23.1797017,29 29,23.1797017 29,16 C29,8.82029825 23.1797017,3 16,3 C8.82029825,3 3,8.82029825 3,16 C3,23.1797017 8.82029825,29 16,29 Z M23.7233541,11.9308055 C23.5274315,11.0144327 22.8314832,10.3393158 21.9934961,10.2386814 C20.0097027,10.0000913 18.0015479,9.99920266 16.002477,10.0000913 C14.0031997,9.99920266 11.9944256,10.0000913 10.0104257,10.2386814 C9.17347091,10.3393158 8.47731611,11.0144327 8.28221934,11.9308055 C8.00330323,13.2341654 8,14.6574868 8,15.9999452 C8,17.3424036 8,18.7663915 8.27912257,20.0697513 C8.47421933,20.9852356 9.17016769,21.661241 10.0081547,21.7618754 C11.9919482,21.9997991 13.9998965,22.0013542 15.9991738,21.9997991 C17.9992769,22.0013542 20.0072252,21.9997991 21.9903993,21.7618754 C22.8281799,21.661241 23.5241283,20.9852356 23.7202573,20.0697513 C23.9991734,18.7663915 23.9999992,17.3424036 23.9999992,15.9999452 C23.9999992,14.6574868 24.0024767,13.2341654 23.7233541,11.9308055 Z M14,19 L14,13 C15.6663961,14.0031605 17.3224419,14.9990636 19,16.0087791 C17.3273126,17.0091303 15.6710638,18.0003512 14,19 Z" id="Oval-3"></path>
            </g>
            <g id="btn_topbar_yt_on" transform="translate(32.000000, 0.000000)">
                <circle id="Oval-3" fill="#FFFFFF" cx="16" cy="16" r="13"></circle>
                <path d="M23.7233541,11.9308055 C23.5274315,11.0144327 22.8314832,10.3393158 21.9934961,10.2386814 C20.0097027,10.0000913 18.0015479,9.99920266 16.002477,10.0000913 C14.0031997,9.99920266 11.9944256,10.0000913 10.0104257,10.2386814 C9.17347091,10.3393158 8.47731611,11.0144327 8.28221934,11.9308055 C8.00330323,13.2341654 8,14.6574868 8,15.9999452 C8,17.3424036 8,18.7663915 8.27912257,20.0697513 C8.47421933,20.9852356 9.17016769,21.661241 10.0081547,21.7618754 C11.9919482,21.9997991 13.9998965,22.0013542 15.9991738,21.9997991 C17.9992769,22.0013542 20.0072252,21.9997991 21.9903993,21.7618754 C22.8281799,21.661241 23.5241283,20.9852356 23.7202573,20.0697513 C23.9991734,18.7663915 23.9999992,17.3424036 23.9999992,15.9999452 C23.9999992,14.6574868 24.0024767,13.2341654 23.7233541,11.9308055 Z M14,19 L14,13 C15.6663961,14.0031605 17.3224419,14.9990636 19,16.0087791 C17.3273126,17.0091303 15.6710638,18.0003512 14,19 Z" id="Fill-1" fill="#CD1F20"></path>
            </g>
            <g id="btn_topbar_tw" transform="translate(0.000000, 32.000000)" fill="#3995FF">
                <path d="M16,29 C8.82029825,29 3,23.1797017 3,16 C3,8.82029825 8.82029825,3 16,3 C23.1797017,3 29,8.82029825 29,16 C29,23.1797017 23.1797017,29 16,29 Z M24,11.2631579 C23.4482675,11.6617045 22.8551245,11.824458 22.75,11.2631579 C22.867913,11.5226296 23.3557031,10.9291638 23.375,10 C22.9909263,10.5685883 22.3326229,10.8209611 21.5,10.6315789 C21.070215,10.3680687 20.2703246,10 19.625,10 C17.6858291,10 16.3077157,11.3565791 16.5,13.1578947 C16.3077157,13.2667599 16.3351197,13.4978519 16.5,13.7894737 C13.8297911,13.5934659 11.5619633,12.3876511 9.625,10.6315789 C9.77948968,11.0019982 9.62755009,11.5220302 9.625,12.5263158 C9.62755009,13.1285843 10.1710614,14.0556499 11.5,14.4210526 C10.4922964,14.5831751 10.0175994,14.4470976 9.625,14.4210526 C9.60258206,14.2324908 9.60258206,14.2453792 9.625,14.4210526 C9.60258206,15.7257468 10.6634188,16.9501449 12.125,16.9473684 C11.8131661,17.297832 11.5412581,17.3349985 11.5,16.9473684 C11.0619938,17.3349985 10.8692528,17.3161155 10.25,16.9473684 C11.0729554,18.4838645 12.2096096,19.359976 13.375,18.8421053 C12.5028317,20.1968229 11.1758724,20.6811869 9.625,21.3684211 C9.48565861,20.6811869 9.24085013,20.6667999 9,21.3684211 C10.3619755,21.4985513 11.9794166,22 13.375,22 C19.3781743,22 22.4732964,17.3838545 22.75,13.1578947 C22.4732964,13.2496753 22.470556,13.1186932 22.75,13.1578947 C23.0658303,12.5617944 23.587723,12.0279748 24,11.2631579 Z" id="Oval-3-Copy"></path>
            </g>
            <g id="btn_topbar_tw_on" transform="translate(32.000000, 32.000000)">
                <circle id="Oval-3-Copy" fill="#FFFFFF" cx="16" cy="16" r="13"></circle>
                <path d="M24,11.2631579 C23.4482675,11.6617045 22.8551245,11.824458 22.75,11.2631579 C22.867913,11.5226296 23.3557031,10.9291638 23.375,10 C22.9909263,10.5685883 22.3326229,10.8209611 21.5,10.6315789 C21.070215,10.3680687 20.2703246,10 19.625,10 C17.6858291,10 16.3077157,11.3565791 16.5,13.1578947 C16.3077157,13.2667599 16.3351197,13.4978519 16.5,13.7894737 C13.8297911,13.5934659 11.5619633,12.3876511 9.625,10.6315789 C9.77948968,11.0019982 9.62755009,11.5220302 9.625,12.5263158 C9.62755009,13.1285843 10.1710614,14.0556499 11.5,14.4210526 C10.4922964,14.5831751 10.0175994,14.4470976 9.625,14.4210526 C9.60258206,14.2324908 9.60258206,14.2453792 9.625,14.4210526 C9.60258206,15.7257468 10.6634188,16.9501449 12.125,16.9473684 C11.8131661,17.297832 11.5412581,17.3349985 11.5,16.9473684 C11.0619938,17.3349985 10.8692528,17.3161155 10.25,16.9473684 C11.0729554,18.4838645 12.2096096,19.359976 13.375,18.8421053 C12.5028317,20.1968229 11.1758724,20.6811869 9.625,21.3684211 C9.48565861,20.6811869 9.24085013,20.6667999 9,21.3684211 C10.3619755,21.4985513 11.9794166,22 13.375,22 C19.3781743,22 22.4732964,17.3838545 22.75,13.1578947 C22.4732964,13.2496753 22.470556,13.1186932 22.75,13.1578947 C23.0658303,12.5617944 23.587723,12.0279748 24,11.2631579" id="Fill-182" fill="#3995FF"></path>
            </g>
            <g id="btn_topbar_fb" transform="translate(0.000000, 64.000000)" fill="#4267B2">
                <path d="M16,29 C8.82029825,29 3,23.1797017 3,16 C3,8.82029825 8.82029825,3 16,3 C23.1797017,3 29,8.82029825 29,16 C29,23.1797017 23.1797017,29 16,29 Z M19,12.9230769 L16.6666667,12.9230769 L16.6666667,11.6923077 C16.616046,10.8970171 17.005212,10.7512886 17.25,10.4615385 L19,10.4615385 L19,8 L16.6666667,8 C14.0724341,8 13.4871258,10.0448364 13.75,11.0769231 L13.75,12.9230769 L12,12.9230769 L12,16 L13.75,16 L13.75,24 L16.6666667,24 L16.6666667,16 L19,16 L19,12.9230769 Z" id="Oval-3-Copy-2"></path>
            </g>
            <g id="btn_topbar_fb_on" transform="translate(32.000000, 64.000000)">
                <circle id="Oval-3-Copy-2" fill="#FFFFFF" cx="16" cy="16" r="13"></circle>
                <path d="M19,12.9230769 L16.6666667,12.9230769 L16.6666667,11.6923077 C16.616046,10.8970171 17.005212,10.7512886 17.25,10.4615385 L19,10.4615385 L19,8 L16.6666667,8 C14.0724341,8 13.4871258,10.0448364 13.75,11.0769231 L13.75,12.9230769 L12,12.9230769 L12,16 L13.75,16 L13.75,24 L16.6666667,24 L16.6666667,16 L19,16 L19,12.9230769 Z" id="Fill-39" fill="#4267B2"></path>
            </g>
            <g id="btn_topbar_ig" transform="translate(0.000000, 96.000000)" fill="#026597">
                <path d="M16,29 C23.1797017,29 29,23.1797017 29,16 C29,8.82029825 23.1797017,3 16,3 C8.82029825,3 3,8.82029825 3,16 C3,23.1797017 8.82029825,29 16,29 Z M15.9873961,8.02520788 C13.8181532,8.02520788 13.5461532,8.03434573 12.6942319,8.0732779 C11.8440263,8.11210503 11.2634048,8.24710722 10.7553961,8.44453392 C10.2301269,8.6486477 9.78468271,8.92176805 9.34063895,9.36581182 C8.89659519,9.80985558 8.62347484,10.2553348 8.41939606,10.7805689 C8.22186433,11.2886477 8.08686214,11.8692691 8.04810503,12.7194398 C8.00920788,13.5713611 8.00003501,13.843326 8.00003501,16.0125689 C8.00003501,18.1818818 8.00920788,18.4538468 8.04810503,19.3057681 C8.08686214,20.1559387 8.22186433,20.7365602 8.41939606,21.2446389 C8.62347484,21.7698731 8.89659519,22.2153523 9.34063895,22.6593961 C9.78468271,23.1034398 10.2301269,23.3765602 10.7553961,23.580674 C11.2634048,23.7781007 11.8440263,23.9131028 12.6942319,23.95193 C13.5461532,23.9907921 13.8181532,24 15.9873961,24 C18.1566389,24 18.428674,23.9907921 19.2805952,23.95193 C20.1307659,23.9131028 20.7113873,23.7781007 21.2194311,23.580674 C21.7447002,23.3765602 22.1901094,23.1034398 22.6341532,22.6593961 C23.0781969,22.2153523 23.3513173,21.7698731 23.5554311,21.2446389 C23.7529278,20.7365602 23.88793,20.1559387 23.9267221,19.3057681 C23.9656193,18.4538468 23.9747571,18.1818818 23.9747571,16.0125689 C23.9747571,13.843326 23.9656193,13.5713611 23.9267221,12.7194398 C23.88793,11.8692691 23.7529278,11.2886477 23.5554311,10.7805689 C23.3513173,10.2553348 23.0781969,9.80985558 22.6341532,9.36581182 C22.1901094,8.92176805 21.7447002,8.6486477 21.2194311,8.44453392 C20.7113873,8.24710722 20.1307659,8.11210503 19.2805952,8.0732779 C18.428674,8.03434573 18.1566389,8.02520788 15.9873961,8.02520788 M15.9873961,9.46436761 C18.1201225,9.46436761 18.3726915,9.47249015 19.2149847,9.51089716 C19.993733,9.54643326 20.4166652,9.67660394 20.6981182,9.78594311 C21.0709847,9.93085339 21.3370678,10.1039475 21.6165252,10.3834398 C21.8960875,10.6629672 22.0691816,10.9290153 22.2140219,11.3018468 C22.3233611,11.5832998 22.4535317,12.006267 22.4890678,12.7849803 C22.5274748,13.6272735 22.5356324,13.8798425 22.5356324,16.0125689 C22.5356324,18.1453654 22.5274748,18.3979344 22.4890678,19.2401575 C22.4535317,20.0189409 22.3233611,20.4419081 22.2140219,20.7233611 C22.0691816,21.0961575 21.8960875,21.3622407 21.6165252,21.6417681 C21.3370678,21.9212604 21.0709847,22.0943545 20.6981182,22.2392298 C20.4166652,22.3486039 19.993733,22.4787746 19.2149847,22.5142407 C18.3728315,22.5527177 18.1202976,22.5608053 15.9873961,22.5608053 C13.8544945,22.5608053 13.6019606,22.5527177 12.7598074,22.5142407 C11.9810941,22.4787746 11.5581269,22.3486039 11.276674,22.2392298 C10.9038425,22.0943545 10.6377593,21.9212604 10.358267,21.6417681 C10.0788096,21.3622407 9.90571554,21.0961575 9.76080525,20.7233611 C9.65143107,20.4419081 9.5212954,20.0189409 9.48572429,19.2401575 C9.4473523,18.3979344 9.43919475,18.1453654 9.43919475,16.0125689 C9.43919475,13.8798425 9.4473523,13.6272735 9.48572429,12.7849803 C9.5212954,12.006267 9.65143107,11.5832998 9.76080525,11.3018468 C9.90571554,10.9290153 10.0788096,10.6629672 10.358267,10.3834398 C10.6377593,10.1039475 10.9038425,9.93085339 11.276674,9.78594311 C11.5581269,9.67660394 11.9810941,9.54643326 12.7598074,9.51089716 C13.6021007,9.47249015 13.8546696,9.46436761 15.9873961,9.46436761 M16,18.596496 C14.5659997,18.596496 13.4034758,17.4340112 13.4034758,15.9999829 C13.4034758,14.5659888 14.5659997,13.403504 16,13.403504 C17.4340344,13.403504 18.5965242,14.5659888 18.5965242,15.9999829 C18.5965242,17.4340112 17.4340344,18.596496 16,18.596496 M16,12 C18.20913,12 20,13.7908965 20,15.9999829 C20,18.2091718 18.20913,20 16,20 C13.79087,20 12,18.2091718 12,15.9999829 C12,13.7908965 13.79087,12 16,12 Z M20,11.5 C20,11.7761259 19.7761442,12 19.5,12 C19.2238741,12 19,11.7761259 19,11.5 C19,11.2238558 19.2238741,11 19.5,11 C19.7761442,11 20,11.2238558 20,11.5 Z" id="Oval-3-Copy-3"></path>
            </g>
            <g id="btn_topbar_ig_on" transform="translate(32.000000, 96.000000)">
                <circle id="Oval-3-Copy-3" fill="#FFFFFF" cx="16" cy="16" r="13"></circle>
                <g id="Instagram-icon-black" stroke-width="1" transform="translate(8.000000, 8.000000)">
                    <g id="Group-3">
                        <mask id="mask-2" fill="white">
                            <use xlink:href="#path-1"></use>
                        </mask>
                        <g id="Clip-2"></g>
                        <path d="M7.98739606,0.0252078775 C5.81815317,0.0252078775 5.54615317,0.034345733 4.69423195,0.0732778993 C3.84402626,0.112105033 3.26340481,0.247107221 2.75539606,0.444533917 C2.23012691,0.648647702 1.78468271,0.921768053 1.34063895,1.36581182 C0.896595186,1.80985558 0.623474836,2.25533479 0.419396061,2.78056893 C0.221864333,3.2886477 0.0868621444,3.86926915 0.0481050328,4.71943982 C0.00920787746,5.57136105 3.50109409e-05,5.84332604 3.50109409e-05,8.01256893 C3.50109409e-05,10.1818818 0.00920787746,10.4538468 0.0481050328,11.3057681 C0.0868621444,12.1559387 0.221864333,12.7365602 0.419396061,13.2446389 C0.623474836,13.7698731 0.896595186,14.2153523 1.34063895,14.6593961 C1.78468271,15.1034398 2.23012691,15.3765602 2.75539606,15.580674 C3.26340481,15.7781007 3.84402626,15.9131028 4.69423195,15.95193 C5.54615317,15.9907921 5.81815317,16 7.98739606,16 C10.1566389,16 10.428674,15.9907921 11.2805952,15.95193 C12.1307659,15.9131028 12.7113873,15.7781007 13.2194311,15.580674 C13.7447002,15.3765602 14.1901094,15.1034398 14.6341532,14.6593961 C15.0781969,14.2153523 15.3513173,13.7698731 15.5554311,13.2446389 C15.7529278,12.7365602 15.88793,12.1559387 15.9267221,11.3057681 C15.9656193,10.4538468 15.9747571,10.1818818 15.9747571,8.01256893 C15.9747571,5.84332604 15.9656193,5.57136105 15.9267221,4.71943982 C15.88793,3.86926915 15.7529278,3.2886477 15.5554311,2.78056893 C15.3513173,2.25533479 15.0781969,1.80985558 14.6341532,1.36581182 C14.1901094,0.921768053 13.7447002,0.648647702 13.2194311,0.444533917 C12.7113873,0.247107221 12.1307659,0.112105033 11.2805952,0.0732778993 C10.428674,0.034345733 10.1566389,0.0252078775 7.98739606,0.0252078775 M7.98739606,1.46436761 C10.1201225,1.46436761 10.3726915,1.47249015 11.2149847,1.51089716 C11.993733,1.54643326 12.4166652,1.67660394 12.6981182,1.78594311 C13.0709847,1.93085339 13.3370678,2.10394748 13.6165252,2.38343982 C13.8960875,2.66296718 14.0691816,2.92901532 14.2140219,3.30184683 C14.3233611,3.58329978 14.4535317,4.00626696 14.4890678,4.78498031 C14.5274748,5.62727352 14.5356324,5.87984245 14.5356324,8.01256893 C14.5356324,10.1453654 14.5274748,10.3979344 14.4890678,11.2401575 C14.4535317,12.0189409 14.3233611,12.4419081 14.2140219,12.7233611 C14.0691816,13.0961575 13.8960875,13.3622407 13.6165252,13.6417681 C13.3370678,13.9212604 13.0709847,14.0943545 12.6981182,14.2392298 C12.4166652,14.3486039 11.993733,14.4787746 11.2149847,14.5142407 C10.3728315,14.5527177 10.1202976,14.5608053 7.98739606,14.5608053 C5.85449453,14.5608053 5.60196061,14.5527177 4.75980744,14.5142407 C3.98109409,14.4787746 3.55812691,14.3486039 3.27667396,14.2392298 C2.90384245,14.0943545 2.6377593,13.9212604 2.35826696,13.6417681 C2.07880963,13.3622407 1.90571554,13.0961575 1.76080525,12.7233611 C1.65143107,12.4419081 1.5212954,12.0189409 1.48572429,11.2401575 C1.4473523,10.3979344 1.43919475,10.1453654 1.43919475,8.01256893 C1.43919475,5.87984245 1.4473523,5.62727352 1.48572429,4.78498031 C1.5212954,4.00626696 1.65143107,3.58329978 1.76080525,3.30184683 C1.90571554,2.92901532 2.07880963,2.66296718 2.35826696,2.38343982 C2.6377593,2.10394748 2.90384245,1.93085339 3.27667396,1.78594311 C3.55812691,1.67660394 3.98109409,1.54643326 4.75980744,1.51089716 C5.60210066,1.47249015 5.85466958,1.46436761 7.98739606,1.46436761" id="Fill-1" fill="#026597" mask="url(#mask-2)"></path>
                    </g>
                    <path d="M8,10.596496 C6.56599973,10.596496 5.40347583,9.43401122 5.40347583,7.99998293 C5.40347583,6.56598878 6.56599973,5.40350398 8,5.40350398 C9.43403442,5.40350398 10.5965242,6.56598878 10.5965242,7.99998293 C10.5965242,9.43401122 9.43403442,10.596496 8,10.596496 M8,4 C5.79086998,4 4,5.79089648 4,7.99998293 C4,10.2091718 5.79086998,12 8,12 C10.20913,12 12,10.2091718 12,7.99998293 C12,5.79089648 10.20913,4 8,4" id="Fill-4" fill="#026597"></path>
                    <path d="M12,3.5 C12,3.77612595 11.7761442,4 11.5,4 C11.2238741,4 11,3.77612595 11,3.5 C11,3.22385579 11.2238741,3 11.5,3 C11.7761442,3 12,3.22385579 12,3.5" id="Fill-5" fill="#026597"></path>
                </g>
            </g>
            <g id="btn_topbar_rss" transform="translate(0.000000, 128.000000)" fill="#F5A623">
                <path d="M16,29 C8.82029825,29 3,23.1797017 3,16 C3,8.82029825 8.82029825,3 16,3 C23.1797017,3 29,8.82029825 29,16 C29,23.1797017 23.1797017,29 16,29 Z M14,19.5 C14,18.6713334 13.3282125,18 12.5,18 C11.6715605,18 11,18.6713334 11,19.5 C11,20.3282125 11.6715605,21 12.5,21 C13.3282125,21 14,20.3282125 14,19.5 Z M11,11.5 C16.3428323,11.2999859 20.689802,15.6511282 20.5,21 L23,21 C23,14.3826277 17.6167228,9 11,9 L11,11.5 Z M11,15.5 C12.513725,15.3232563 13.9367243,15.9121685 15,17 C16.0774592,18.0547082 16.6675429,19.4812007 16.5,21 L19,21 C19,16.5885165 15.4110778,13 11,13 L11,15.5 Z" id="Fill-100"></path>
            </g>
            <g id="btn_topbar_rss_on" transform="translate(32.000000, 128.000000)">
                <circle id="Oval-3-Copy-4" fill="#FFFFFF" cx="16" cy="16" r="13"></circle>
                <path d="M14,19.5 C14,20.3282125 13.3282125,21 12.5,21 C11.6715605,21 11,20.3282125 11,19.5 C11,18.6713334 11.6715605,18 12.5,18 C13.3282125,18 14,18.6713334 14,19.5 L14,19.5 Z M11,11.5 C16.3428323,11.2999859 20.689802,15.6511282 20.5,21 L23,21 C23,14.3826277 17.6167228,9 11,9 L11,11.5 Z M11,15.5 C12.513725,15.3232563 13.9367243,15.9121685 15,17 C16.0774592,18.0547082 16.6675429,19.4812007 16.5,21 L19,21 C19,16.5885165 15.4110778,13 11,13 L11,15.5 Z" id="Fill-100" fill="#F8BB56"></path>
            </g>
            <g id="icon_topbar_flag" transform="translate(0.000000, 160.000000)" fill="#E1523D">
                <g id="MENU/ICON/IDIOMA" transform="translate(3.000000, 3.000000)">
                    <path d="M13,26 C5.82029825,26 0,20.1797017 0,13 C0,5.82029825 5.82029825,0 13,0 C20.1797017,0 26,5.82029825 26,13 C26,20.1797017 20.1797017,26 13,26 Z M8,19.4166667 L9,19.4166667 L9,6.58333333 L8,6.58333333 L8,19.4166667 Z M10.5294118,7 C10.2366471,7 10,7.224 10,7.5 L10,13.5 C10,13.776 10.2366471,14 10.5294118,14 C12.2941176,14.6666667 13.6176471,15 14.5,15 C15.3823529,15 16.7058824,14.6666667 18.4705882,14 C18.7633529,14 19,13.776 19,13.5 L19,7.5 C19,7.224 18.7633529,7 18.4705882,7 C16.7058824,7.66666667 15.3823529,8 14.5,8 C13.6176471,8 12.2941176,7.66666667 10.5294118,7 Z" id="Oval-3"></path>
                </g>
            </g>
            <g id="btn_topbar_in" transform="translate(0.000000, 192.000000)" fill="#0071A1">
                <path d="M16,29 C23.1797017,29 29,23.1797017 29,16 C29,8.82029825 23.1797017,3 16,3 C8.82029825,3 3,8.82029825 3,16 C3,23.1797017 8.82029825,29 16,29 Z M22.0205288,21 L19.7375583,21 L19.7375583,17.426283 C19.7375583,16.574339 19.7221617,15.4786159 18.550311,15.4786159 C17.3630638,15.4786159 17.1817263,16.4075428 17.1817263,17.3655521 L17.1817263,21 L14.9004666,21 L14.9004666,13.6524106 L17.0884914,13.6524106 L17.0884914,14.6566096 L17.12014,14.6566096 C17.4255054,14.0792379 18.1696734,13.4702177 19.2807932,13.4702177 C21.5937014,13.4702177 22.0205288,14.9910575 22.0205288,16.9703733 L22.0205288,21 Z M12.3258165,12.6490669 C11.5919129,12.6490669 11,12.0554432 11,11.3241058 C11,10.5936236 11.5919129,10 12.3258165,10 C13.0554432,10 13.6490669,10.5936236 13.6490669,11.3241058 C13.6490669,12.0554432 13.0554432,12.6490669 12.3258165,12.6490669 Z M11.1813375,21 L13.4677294,21 L13.4677294,13.6524106 L11.1813375,13.6524106 L11.1813375,21 Z" id="Fill-1"></path>
            </g>
            <g id="icon_topbar_flag_on" transform="translate(32.000000, 160.000000)">
                <circle id="Oval-3" fill="#FFFFFF" cx="16" cy="16" r="13"></circle>
                <path d="M11,22.4166667 L11,9.58333333 L12,9.58333333 L12,22.4166667 L11,22.4166667 Z M13.5294118,10 C15.2941176,10.6666667 16.6176471,11 17.5,11 C18.3823529,11 19.7058824,10.6666667 21.4705882,10 C21.7633529,10 22,10.224 22,10.5 L22,16.5 C22,16.776 21.7633529,17 21.4705882,17 C19.7058824,17.6666667 18.3823529,18 17.5,18 C16.6176471,18 15.2941176,17.6666667 13.5294118,17 C13.2366471,17 13,16.776 13,16.5 L13,10.5 C13,10.224 13.2366471,10 13.5294118,10 Z" id="Combined-Shape" fill="#E1523D"></path>
            </g>
            <g id="btn_topbar_in_on" transform="translate(32.000000, 192.000000)">
                <circle id="Oval-3-Copy-4" fill="#FFFFFF" cx="16" cy="16" r="13"></circle>
                <path d="M22.0205288,21 L19.7375583,21 L19.7375583,17.426283 C19.7375583,16.574339 19.7221617,15.4786159 18.550311,15.4786159 C17.3630638,15.4786159 17.1817263,16.4075428 17.1817263,17.3655521 L17.1817263,21 L14.9004666,21 L14.9004666,13.6524106 L17.0884914,13.6524106 L17.0884914,14.6566096 L17.12014,14.6566096 C17.4255054,14.0792379 18.1696734,13.4702177 19.2807932,13.4702177 C21.5937014,13.4702177 22.0205288,14.9910575 22.0205288,16.9703733 L22.0205288,21 Z M12.3258165,12.6490669 C11.5919129,12.6490669 11,12.0554432 11,11.3241058 C11,10.5936236 11.5919129,10 12.3258165,10 C13.0554432,10 13.6490669,10.5936236 13.6490669,11.3241058 C13.6490669,12.0554432 13.0554432,12.6490669 12.3258165,12.6490669 Z M11.1813375,21 L13.4677294,21 L13.4677294,13.6524106 L11.1813375,13.6524106 L11.1813375,21 Z" id="Fill-1" fill="#0071A1"></path>
            </g>
        </g>
    </g>
</svg>