<?xml version="1.0" encoding="UTF-8"?>
<svg width="64px" height="64px" viewBox="0 0 64 64" version="1.1" xmlns="http://www.w3.org/2000/svg" xmlns:xlink="http://www.w3.org/1999/xlink">
    <!-- Generator: Sketch 46.2 (44496) - http://www.bohemiancoding.com/sketch -->
    <title>sprite_icon_main_menu</title>
    <desc>Created with Sketch.</desc>
    <defs></defs>
    <g id="Symbols" stroke="none" stroke-width="1" fill="none" fill-rule="evenodd">
        <g id="sprite_icon_main_menu">
            <g id="icon_menu_recursosdigitales_reposo" fill-rule="nonzero">
                <circle id="Oval" fill="#4A4A4A" cx="13.0007291" cy="26.0075194" r="1.54689575"></circle>
                <path d="M28.2954196,11.0325997 L17.6841226,11.0325997 C17.2970956,11.0325997 16.9833482,11.3463471 16.9833482,11.7333741 L16.9833482,29.3057752 C16.9833482,29.6928022 17.2970956,30.0065496 17.6841226,30.0065496 L28.2954196,30.0065496 C28.6824466,30.0065496 28.996194,29.6928022 28.996194,29.3057752 L28.996194,11.7333741 C28.996194,11.3463471 28.6824466,11.0325997 28.2954196,11.0325997 Z" id="Shape" stroke="#4A4A4A" stroke-width="2"></path>
                <circle id="Oval" fill="#4A4A4A" transform="translate(22.989771, 27.007712) rotate(-45.000000) translate(-22.989771, -27.007712) " cx="22.9897711" cy="27.007712" r="1.11898481"></circle>
                <path d="M23.0091513,9.00764356 L23.0091513,2.9980696 C23.0091513,2.44885678 22.5639263,2.00363183 22.0147135,2.00363183 L3.99358251,2.00363183 C3.4443697,2.00363183 2.99914474,2.44885678 2.99914474,2.9980696 L2.99914474,29.0035724 C2.99914474,29.5527852 3.4443697,29.9980102 3.99358251,29.9980102 L15.0130471,29.9980102" id="Shape" stroke="#4A4A4A" stroke-width="2"></path>
            </g>
            <g id="icon_menu_conocenos_reposo" transform="translate(32.000000, 0.000000)" fill-rule="nonzero" fill="#4A4A4A">
                <path d="M28.8571429,16 L22.0015914,16 L22.0015914,10.5737691 C22.0015914,10.1680548 21.7723057,9.79698341 21.4094486,9.61555484 L17,7.37746177 L17,4.00413905 C17.8980246,4.64864355 18.5687074,4.9708958 19.0120484,4.9708958 C19.6770598,4.9708958 22.0015914,3.48582122 22.0015914,2.98840805 L22,0 C20.5115272,0.68393184 19.5155433,1.02589776 19.0120484,1.02589776 C18.2538501,1.02589776 16.9804827,-1.77635684e-15 16,-1.77635684e-15 L16,6.9651977 L10.5543824,9.61555484 C10.1915253,9.79698341 9.96223958,10.1680548 9.96223958,10.5737691 L9.96223958,16 L3.14285714,16 C1.95928571,16 1,16.9592857 1,18.1428571 L1,32 C10.6985714,32 19.3525,32 31,32 L31,18.1428571 C31,16.9592857 30.0407143,16 28.8571429,16 Z M10,30 L3,30 L3,19.0833333 C3,18.4860556 3.5127619,18 4.14285714,18 L10,18 L10,30 Z M20,30 L17.0095688,30 L17.0095688,25.775227 C17.0095688,25.3364493 16.6514355,24.9808196 16.2095688,24.9808196 L15.7898942,24.9808196 C15.3480275,24.9808196 14.9898942,25.3364493 14.9898942,25.775227 L14.9898942,30 L12,30 L12,16.6727042 L12,10.9860184 L16,9 L20,10.9860184 L20,16.6727042 L20,30 Z M29,30 L22,30 L22,18 L27.8571429,18 C28.4872381,18 29,18.4860556 29,19.0833333 L29,30 Z M16,17.1428571 C14.8185714,17.1428571 13.8571429,16.1814286 13.8571429,15 C13.8571429,13.8182143 14.8185714,12.8571429 16,12.8571429 C17.1814286,12.8571429 18.1428571,13.8182143 18.1428571,15 C18.1428571,16.1814286 17.1814286,17.1428571 16,17.1428571 Z M25,26 L26,26 L26,26 C26.5522847,26 27,26.4477153 27,27 L27,27 L27,27 C27,27.5522847 26.5522847,28 26,28 L25,28 L25,28 C24.4477153,28 24,27.5522847 24,27 L24,27 L24,27 C24,26.4477153 24.4477153,26 25,26 Z M25,23 L26,23 L26,23 C26.5522847,23 27,23.4477153 27,24 L27,24 L27,24 C27,24.5522847 26.5522847,25 26,25 L25,25 L25,25 C24.4477153,25 24,24.5522847 24,24 L24,24 L24,24 C24,23.4477153 24.4477153,23 25,23 Z M6,23 L7,23 L7,23 C7.55228475,23 8,23.4477153 8,24 L8,24 L8,24 C8,24.5522847 7.55228475,25 7,25 L6,25 L6,25 C5.44771525,25 5,24.5522847 5,24 L5,24 L5,24 C5,23.4477153 5.44771525,23 6,23 Z M6,26 L7,26 L7,26 C7.55228475,26 8,26.4477153 8,27 L8,27 L8,27 C8,27.5522847 7.55228475,28 7,28 L6,28 L6,28 C5.44771525,28 5,27.5522847 5,27 L5,27 L5,27 C5,26.4477153 5.44771525,26 6,26 Z" id="university"></path>
            </g>
            <g id="icon_menu_recursosdigitales_activo" transform="translate(0.000000, 32.000000)">
                <circle id="Oval" fill="#4A4A4A" fill-rule="nonzero" cx="13.0007291" cy="26.0075194" r="1.54689575"></circle>
                <path d="M28.2954196,11.0325997 L17.6841226,11.0325997 C17.2970956,11.0325997 16.9833482,11.3463471 16.9833482,11.7333741 L16.9833482,29.3057752 C16.9833482,29.6928022 17.2970956,30.0065496 17.6841226,30.0065496 L28.2954196,30.0065496 C28.6824466,30.0065496 28.996194,29.6928022 28.996194,29.3057752 L28.996194,11.7333741 C28.996194,11.3463471 28.6824466,11.0325997 28.2954196,11.0325997 Z" id="Shape" stroke="#4A4A4A" stroke-width="2" fill-rule="nonzero"></path>
                <rect id="Rectangle" fill="#FAB200" fill-rule="evenodd" x="19" y="13" width="8" height="12"></rect>
                <circle id="Oval" fill="#4A4A4A" fill-rule="nonzero" transform="translate(22.989771, 27.007712) rotate(-45.000000) translate(-22.989771, -27.007712) " cx="22.9897711" cy="27.007712" r="1.11898481"></circle>
                <polygon id="Path" fill="#FF5427" fill-rule="evenodd" points="5 23.0310806 15 23.0310806 15 9.03815116 21 9.03815116 21 4.0310806 5 4.0310806"></polygon>
                <path d="M23.0091513,9.00764356 L23.0091513,2.9980696 C23.0091513,2.44885678 22.5639263,2.00363183 22.0147135,2.00363183 L3.99358251,2.00363183 C3.4443697,2.00363183 2.99914474,2.44885678 2.99914474,2.9980696 L2.99914474,29.0035724 C2.99914474,29.5527852 3.4443697,29.9980102 3.99358251,29.9980102 L15.0130471,29.9980102" id="Shape" stroke="#4A4A4A" stroke-width="2" fill-rule="nonzero"></path>
            </g>
            <g id="icon_menu_conocenos_activo" transform="translate(32.000000, 32.000000)">
                <g id="Group" transform="translate(1.000000, 0.000000)">
                    <polygon id="Path" fill="#FF5427" points="10.0203603 32 20 32 20 11.3268982 15.0101801 7.70247033 10.0203603 11.3268982"></polygon>
                    <path d="M15,17.1428571 C13.8185714,17.1428571 12.8571429,16.1814286 12.8571429,15 C12.8571429,13.8182143 13.8185714,12.8571429 15,12.8571429 C16.1814286,12.8571429 17.1428571,13.8182143 17.1428571,15 C17.1428571,16.1814286 16.1814286,17.1428571 15,17.1428571 Z" id="Path" fill="#4A4A4A"></path>
                    <rect id="Rectangle" fill="#FAB200" x="2" y="18" width="7" height="12"></rect>
                    <rect id="Path" fill="#4A4A4A" x="4" y="23" width="3" height="2" rx="1"></rect>
                    <rect id="Path" fill="#4A4A4A" x="4" y="26" width="3" height="2" rx="1"></rect>
                    <rect id="Path" fill="#FAB200" x="21" y="18" width="7" height="12"></rect>
                    <path d="M27.8571429,16 C29.0407143,16 30,16.9592857 30,18.1428571 L30,32 C18.3525,32 9.69857143,32 0,32 L0,18.1428571 C0,16.9592857 0.959285714,16 2.14285714,16 L8.96223958,16 L8.96223958,10.5737691 C8.96223958,10.1680548 9.1915253,9.79698341 9.55438244,9.61555484 L15,6.9651977 L15,0 C15.9804827,0 17.2538501,1.02589776 18.0120484,1.02589776 C18.5155433,1.02589776 19.5115272,0.68393184 21,1.77635684e-15 L21.0015914,2.98840805 C21.0015914,3.48582122 18.6770598,4.9708958 18.0120484,4.9708958 C17.5687074,4.9708958 16.8980246,4.64864355 16,4.00413905 L16,7.37746177 L20.4094486,9.61555484 C20.7723057,9.79698341 21.0015914,10.1680548 21.0015914,10.5737691 L21.0015914,16 L27.8571429,16 Z M28,30 L28,19.0833333 C28,18.4860556 27.4872381,18 26.8571429,18 L21,18 L21,30 L28,30 Z M9,30 L9,18 L3.14285714,18 C2.5127619,18 2,18.4860556 2,19.0833333 L2,30 L9,30 Z M19,30 L19,16.6727042 L19,10.9860184 L15,9 L11,10.9860184 L11,16.6727042 L11,30 L13.9898942,30 L13.9898942,25.775227 C13.9898942,25.3364493 14.3480275,24.9808196 14.7898942,24.9808196 L15.2095688,24.9808196 C15.6514355,24.9808196 16.0095688,25.3364493 16.0095688,25.775227 L16.0095688,30 L19,30 Z" id="Path" fill="#4A4A4A"></path>
                    <rect id="Path" fill="#4A4A4A" x="23" y="26" width="3" height="2" rx="1"></rect>
                    <rect id="Path" fill="#4A4A4A" x="23" y="23" width="3" height="2" rx="1"></rect>
                </g>
            </g>
        </g>
    </g>
</svg>