<svg id="PROGRAMACIONES" xmlns="http://www.w3.org/2000/svg" viewBox="0 0 200 480"><defs><style>.cls-1{fill:#7d7974;}.cls-2{fill:#b2aca6;}.cls-3{fill:#ccc6be;}.cls-11,.cls-12,.cls-13,.cls-14,.cls-16,.cls-19,.cls-20,.cls-24,.cls-4,.cls-5,.cls-6,.cls-9{fill:none;}.cls-12,.cls-14,.cls-17,.cls-18,.cls-19,.cls-21,.cls-4,.cls-5{stroke:#7d7974;}.cls-12,.cls-13,.cls-14,.cls-16,.cls-17,.cls-20,.cls-22,.cls-4,.cls-6,.cls-9{stroke-width:2px;}.cls-11,.cls-18,.cls-19,.cls-23,.cls-24,.cls-5{stroke-width:1.6px;}.cls-6{stroke:#fff;}.cls-7{fill:#2e2e2e;}.cls-8{fill:#fde052;}.cls-11,.cls-13,.cls-16,.cls-22,.cls-23,.cls-24,.cls-25,.cls-9{stroke:#2e2e2e;}.cls-10{fill:#30c0d8;}.cls-12,.cls-13{stroke-dasharray:1.54 1.54;}.cls-14,.cls-16{stroke-dasharray:2 2;}.cls-15,.cls-17,.cls-18,.cls-21,.cls-22,.cls-23,.cls-25{fill:#fff;}.cls-19,.cls-24{stroke-dasharray:1.6;}.cls-20{stroke:#ccc6be;}.cls-21,.cls-25{stroke-width:1.6px;}</style></defs><title>sprite_tabs</title><polygon class="cls-1" points="68 430 68 422.06 62 422 62 459 45 459 45 467 75 467 75 430 68 430"/><polygon class="cls-2" points="68 430 75 430 68 422.06 68 430"/><polygon class="cls-3" points="53 419 53 411 30 411 30 457 60 457 60 419 53 419"/><polygon class="cls-2" points="53 419 60 419 53 411 53 419"/><line class="cls-4" x1="27" y1="425" x2="35" y2="425"/><line class="cls-4" x1="27" y1="429" x2="47" y2="429"/><line class="cls-4" x1="27" y1="433" x2="47" y2="433"/><line class="cls-4" x1="27" y1="436" x2="47" y2="436"/><line class="cls-4" x1="27" y1="440" x2="39" y2="440"/><circle class="cls-2" cx="30" cy="418" r="3"/><circle class="cls-2" cx="66" cy="466" r="3"/><circle class="cls-3" cx="74" cy="444" r="3"/><line class="cls-4" x1="30" y1="446" x2="30" y2="449"/><line class="cls-5" x1="35.5" y1="447.89" x2="34.43" y2="449.73"/><line class="cls-5" x1="39.26" y1="451.65" x2="37.41" y2="452.71"/><line class="cls-4" x1="42" y1="457" x2="39" y2="457"/><line class="cls-5" x1="39.26" y1="461.92" x2="37.41" y2="460.85"/><line class="cls-5" x1="35.5" y1="465.68" x2="34.43" y2="463.83"/><line class="cls-4" x1="30" y1="468" x2="30" y2="465"/><line class="cls-5" x1="25.23" y1="465.68" x2="26.29" y2="463.83"/><line class="cls-5" x1="21.47" y1="461.92" x2="23.31" y2="460.85"/><line class="cls-4" x1="19" y1="457" x2="22" y2="457"/><line class="cls-5" x1="21.47" y1="451.65" x2="23.31" y2="452.71"/><line class="cls-5" x1="25.23" y1="447.89" x2="26.29" y2="449.73"/><circle class="cls-1" cx="30" cy="457" r="2" transform="translate(-330.55 174.59) rotate(-48.17)"/><line class="cls-5" x1="35" y1="452" x2="30" y2="457"/><line class="cls-5" x1="26" y1="453" x2="30" y2="457"/><line class="cls-6" x1="65" y1="452" x2="65" y2="459"/><line class="cls-6" x1="65" y1="448" x2="65" y2="450"/><line class="cls-6" x1="69" y1="458" x2="69" y2="465"/><line class="cls-6" x1="69" y1="454" x2="69" y2="456"/><polygon class="cls-7" points="168 430 168 422.06 162 422 162 459 145 459 145 467 175 467 175 430 168 430"/><polygon class="cls-8" points="168 430 175 430 168 422.06 168 430"/><polygon class="cls-8" points="153 419 153 411 130 411 130 457 160 457 160 419 153 419"/><polygon class="cls-7" points="153 419 160 419 153 411 153 419"/><line class="cls-9" x1="127" y1="425" x2="135" y2="425"/><line class="cls-9" x1="127" y1="429" x2="147" y2="429"/><line class="cls-9" x1="127" y1="433" x2="147" y2="433"/><line class="cls-9" x1="127" y1="436" x2="147" y2="436"/><line class="cls-9" x1="127" y1="440" x2="139" y2="440"/><circle class="cls-10" cx="130" cy="418" r="3"/><circle class="cls-8" cx="166" cy="466" r="3"/><circle class="cls-10" cx="174" cy="444" r="3"/><line class="cls-9" x1="130" y1="446" x2="130" y2="449"/><line class="cls-11" x1="135.5" y1="447.89" x2="134.43" y2="449.73"/><line class="cls-11" x1="139.26" y1="451.65" x2="137.41" y2="452.71"/><line class="cls-9" x1="142" y1="457" x2="139" y2="457"/><line class="cls-11" x1="139.26" y1="461.92" x2="137.41" y2="460.85"/><line class="cls-11" x1="135.5" y1="465.68" x2="134.43" y2="463.83"/><line class="cls-9" x1="130" y1="468" x2="130" y2="465"/><line class="cls-11" x1="125.23" y1="465.68" x2="126.29" y2="463.83"/><line class="cls-11" x1="121.47" y1="461.92" x2="123.31" y2="460.85"/><line class="cls-9" x1="119" y1="457" x2="122" y2="457"/><line class="cls-11" x1="121.47" y1="451.65" x2="123.31" y2="452.71"/><line class="cls-11" x1="125.23" y1="447.89" x2="126.29" y2="449.73"/><circle class="cls-7" cx="130" cy="457" r="2" transform="translate(-297.23 249.11) rotate(-48.17)"/><line class="cls-11" x1="135" y1="452" x2="130" y2="457"/><line class="cls-11" x1="126" y1="453" x2="130" y2="457"/><line class="cls-6" x1="165" y1="452" x2="165" y2="459"/><line class="cls-6" x1="165" y1="448" x2="165" y2="450"/><line class="cls-6" x1="169" y1="458" x2="169" y2="465"/><line class="cls-6" x1="169" y1="454" x2="169" y2="456"/><path class="cls-4" d="M26,358v14H75V342a0.83,0.83,0,0,0-1-1H41"/><rect class="cls-3" x="29" y="344" width="43" height="24"/><path class="cls-4" d="M26,372v4c0,0.8.2,1,1,1H74c0.8,0,1-.2,1-1v-4"/><path class="cls-4" d="M45,377v4a2.69,2.69,0,0,1-3,3h1"/><path class="cls-4" d="M59,384a2.65,2.65,0,0,1-3-3v-4"/><line class="cls-4" x1="41" y1="384" x2="60" y2="384"/><path class="cls-4" d="M41,368v-0.91c0-1.31,1.22-2.09,2.7-2.09H55.45c1.48,0,2.55.78,2.55,2.09V368"/><line class="cls-4" x1="47" y1="365" x2="47" y2="362"/><line class="cls-4" x1="52" y1="362" x2="52" y2="365"/><path class="cls-4" d="M55,352v5a4.82,4.82,0,0,1-5.05,5H49.05A4.82,4.82,0,0,1,44,357v-1"/><path class="cls-4" d="M47.08,348c-1,0-1.82,0-2.32,1h-1c-1.19,0-1.81,1.07-1.81,2.25v4.17L44,358v-3.6a1.6,1.6,0,0,1,1.7-1.4h8.68A2.74,2.74,0,0,0,57,350.12V348H47.08Z"/><polygon class="cls-2" points="81 347 61 347 61 360 64 360 64 363.32 68.26 360 81 360 81 347"/><line class="cls-4" x1="65" y1="352" x2="77" y2="352"/><line class="cls-4" x1="65" y1="355" x2="77" y2="355"/><circle class="cls-2" cx="25.5" cy="342.5" r="8.5"/><path class="cls-4" d="M32.46,352.89A12.5,12.5,0,0,1,13,342.5"/><path class="cls-4" d="M25.5,330a12.5,12.5,0,0,1,10.38,19.46"/><polygon class="cls-4" points="29.72 342.55 24 346 24 339 29.72 342.55"/><path class="cls-12" d="M13,342.5A12.5,12.5,0,0,1,25.5,330"/><path class="cls-4" d="M36,349l1,5-5-1"/><rect class="cls-4" x="56" y="327" width="14" height="9"/><polyline class="cls-5" points="56 327 63 333 70 327"/><line class="cls-5" x1="61" y1="332" x2="56" y2="336"/><line class="cls-5" x1="70" y1="336" x2="65" y2="332"/><circle class="cls-4" cx="27" cy="391" r="2"/><circle class="cls-4" cx="33" cy="389" r="2"/><polyline class="cls-4" points="29 391 29 383 35 381 35 389"/><path class="cls-9" d="M126,358v14h49V342a0.83,0.83,0,0,0-1-1H141"/><rect class="cls-8" x="129" y="344" width="43" height="24"/><path class="cls-9" d="M126,372v4c0,0.8.2,1,1,1h47c0.8,0,1-.2,1-1v-4"/><path class="cls-9" d="M145,377v4a2.69,2.69,0,0,1-3,3h1"/><path class="cls-9" d="M159,384a2.65,2.65,0,0,1-3-3v-4"/><line class="cls-9" x1="141" y1="384" x2="160" y2="384"/><path class="cls-9" d="M141,368v-0.91c0-1.31,1.22-2.09,2.7-2.09h11.76c1.48,0,2.55.78,2.55,2.09V368"/><line class="cls-9" x1="147" y1="365" x2="147" y2="362"/><line class="cls-9" x1="152" y1="362" x2="152" y2="365"/><path class="cls-9" d="M155,352v5a4.82,4.82,0,0,1-5.05,5h-0.89a4.82,4.82,0,0,1-5.05-5v-1"/><path class="cls-9" d="M147.08,348c-1,0-1.82,0-2.32,1h-1c-1.19,0-1.81,1.07-1.81,2.25v4.17l2,2.58v-3.6a1.6,1.6,0,0,1,1.7-1.4h8.68a2.74,2.74,0,0,0,2.62-2.88V348h-9.92Z"/><polygon class="cls-10" points="181 347 161 347 161 360 164 360 164 363.32 168.26 360 181 360 181 347"/><line class="cls-9" x1="165" y1="352" x2="177" y2="352"/><line class="cls-9" x1="165" y1="355" x2="177" y2="355"/><circle class="cls-10" cx="125.5" cy="342.5" r="8.5"/><path class="cls-9" d="M132.46,352.89A12.5,12.5,0,0,1,113,342.5"/><path class="cls-9" d="M125.5,330a12.5,12.5,0,0,1,10.38,19.46"/><polygon class="cls-9" points="129.72 342.55 124 346 124 339 129.72 342.55"/><path class="cls-13" d="M113,342.5A12.5,12.5,0,0,1,125.5,330"/><path class="cls-9" d="M136,349l1,5-5-1"/><rect class="cls-9" x="156" y="327" width="14" height="9"/><polyline class="cls-11" points="156 327 163 333 170 327"/><line class="cls-11" x1="161" y1="332" x2="156" y2="336"/><line class="cls-11" x1="170" y1="336" x2="165" y2="332"/><circle class="cls-9" cx="127" cy="391" r="2"/><circle class="cls-9" cx="133" cy="389" r="2"/><polyline class="cls-9" points="129 391 129 383 135 381 135 389"/><polyline class="cls-4" points="84 275 84 278 81 278"/><polyline class="cls-5" points="33.31 277.56 32.51 277.56 32.51 276.76"/><polyline class="cls-4" points="32 253 32 250 35 250"/><line class="cls-14" x1="37" y1="250" x2="79" y2="250"/><polyline class="cls-4" points="81 250 84 250 84 253"/><line class="cls-14" x1="84" y1="255" x2="84" y2="273"/><rect class="cls-3" x="28" y="254" width="52" height="27"/><rect class="cls-2" x="23" y="258" width="52" height="26"/><path class="cls-4" d="M70,286V265a1,1,0,0,0-1-1H21a0.83,0.83,0,0,0-1,1v29H70v-2"/><path class="cls-4" d="M20,294v5a0.9,0.9,0,0,0,1,1H69.07c0.8,0,.93-0.43.93-1.24V294"/><path class="cls-4" d="M37,307c2,0,3-1,3-3v-4"/><path class="cls-4" d="M54,307a2.66,2.66,0,0,1-3-3v-4"/><line class="cls-4" x1="36" y1="307" x2="55" y2="307"/><polygon class="cls-15" points="52.57 271.21 48.78 273.1 45 274.98 45 271.21 45 267.45 48.78 269.33 52.57 271.21"/><line class="cls-4" x1="31" y1="289" x2="36" y2="289"/><line class="cls-4" x1="71" y1="289" x2="40" y2="289"/><line class="cls-4" x1="73" y1="289" x2="75" y2="289"/><line class="cls-4" x1="24" y1="287" x2="24" y2="291"/><line class="cls-4" x1="27" y1="287" x2="27" y2="291"/><circle class="cls-4" cx="38" cy="289" r="2"/><polyline class="cls-9" points="184 275 184 278 181 278"/><polyline class="cls-5" points="133.31 277.56 132.51 277.56 132.51 276.76"/><polyline class="cls-9" points="132 253 132 250 135 250"/><line class="cls-16" x1="137" y1="250" x2="179" y2="250"/><polyline class="cls-9" points="181 250 184 250 184 253"/><line class="cls-16" x1="184" y1="255" x2="184" y2="273"/><rect class="cls-8" x="128" y="254" width="52" height="27"/><rect class="cls-10" x="123" y="258" width="52" height="26"/><path class="cls-9" d="M170,286V265a1,1,0,0,0-1-1H121a0.83,0.83,0,0,0-1,1v29h50v-2"/><path class="cls-9" d="M120,294v5a0.9,0.9,0,0,0,1,1h48.07c0.8,0,.93-0.43.93-1.24V294"/><path class="cls-9" d="M137,307c2,0,3-1,3-3v-4"/><path class="cls-9" d="M154,307a2.66,2.66,0,0,1-3-3v-4"/><line class="cls-9" x1="136" y1="307" x2="155" y2="307"/><polygon class="cls-15" points="152.57 271.21 148.78 273.1 145 274.98 145 271.21 145 267.45 148.78 269.33 152.57 271.21"/><line class="cls-9" x1="131" y1="289" x2="136" y2="289"/><line class="cls-9" x1="171" y1="289" x2="140" y2="289"/><line class="cls-9" x1="173" y1="289" x2="175" y2="289"/><line class="cls-9" x1="124" y1="287" x2="124" y2="291"/><line class="cls-9" x1="127" y1="287" x2="127" y2="291"/><circle class="cls-9" cx="138" cy="289" r="2"/><path class="cls-3" d="M14.52,208.49c0,1.24,1.45-.47,2,0.59,0.81,1.52.66,5.7-.77,6.55a8.32,8.32,0,1,1,1.57-13.07C18.86,204.07,14.52,206.17,14.52,208.49Z"/><line class="cls-17" x1="11" y1="205" x2="11" y2="222"/><line class="cls-18" x1="10.91" y1="213.78" x2="14.52" y2="210.17"/><line class="cls-18" x1="10.91" y1="211.98" x2="7.3" y2="208.37"/><polygon class="cls-3" points="45 222 35 222 35 209 37.89 209 33 202.02 33 187 54 187 54 196.03 44 196 45 200 45 222"/><rect class="cls-3" x="32" y="186" width="23" height="5"/><line class="cls-4" x1="93" y1="222" x2="6" y2="222"/><line class="cls-4" x1="47" y1="227" x2="41" y2="227"/><line class="cls-4" x1="67" y1="227" x2="48" y2="227"/><line class="cls-4" x1="37" y1="227" x2="39" y2="227"/><polyline class="cls-5" points="78.64 183.97 76.58 188.95 71.6 186.89"/><path class="cls-19" d="M42.22,172.42A25.17,25.17,0,0,1,76.28,188.3"/><path class="cls-19" d="M23.16,198.08a29.1,29.1,0,0,1,7.65-18.14"/><circle class="cls-3" cx="37.45" cy="175.5" r="6.5" transform="translate(-0.27 0.06) rotate(-0.09)"/><polyline class="cls-5" points="35 175.84 36.62 177.47 40.95 173.13"/><line class="cls-4" x1="45" y1="222" x2="45" y2="199"/><line class="cls-4" x1="59" y1="199" x2="59" y2="207"/><rect class="cls-4" x="44" y="196" width="16" height="4"/><line class="cls-20" x1="47" y1="203" x2="49" y2="203"/><line class="cls-20" x1="51" y1="203" x2="53" y2="203"/><line class="cls-20" x1="55" y1="203" x2="57" y2="203"/><line class="cls-20" x1="47" y1="207" x2="49" y2="207"/><line class="cls-20" x1="47" y1="211" x2="49" y2="211"/><line class="cls-20" x1="47" y1="215" x2="49" y2="215"/><line class="cls-20" x1="47" y1="219" x2="49" y2="219"/><line class="cls-4" x1="74" y1="207" x2="74" y2="199"/><line class="cls-4" x1="88" y1="199" x2="88" y2="222"/><rect class="cls-4" x="73" y="196" width="16" height="4"/><line class="cls-20" x1="76" y1="203" x2="78" y2="203"/><line class="cls-20" x1="80" y1="203" x2="82" y2="203"/><line class="cls-20" x1="84" y1="203" x2="86" y2="203"/><line class="cls-20" x1="84" y1="207" x2="86" y2="207"/><line class="cls-20" x1="84" y1="211" x2="86" y2="211"/><line class="cls-20" x1="84" y1="215" x2="86" y2="215"/><line class="cls-20" x1="84" y1="219" x2="86" y2="219"/><rect class="cls-4" x="51" y="207" width="29" height="15"/><polyline class="cls-4" points="54 222 54 215 77 215 77 222"/><line class="cls-4" x1="66" y1="215" x2="66" y2="222"/><line class="cls-4" x1="80" y1="211" x2="51" y2="211"/><polygon class="cls-4" points="33.73 203 30.82 203 25.74 203 20.66 203 17.74 203 13.59 209 17.74 209 22.87 209 28.61 209 33.73 209 37.89 209 33.73 203"/><polygon class="cls-4" points="35 209 17 209 17 222 35 222 35 216.51 35 209"/><path class="cls-4" d="M24,222H20v-6a1.93,1.93,0,0,1,2-2h0a2,2,0,0,1,2,2v6Z"/><rect class="cls-4" x="27" y="212" width="5" height="4"/><path class="cls-17" d="M29,204v-3.21a1.34,1.34,0,0,1,1.5-1,1.34,1.34,0,0,1,1.5,1V205"/><path class="cls-21" d="M28.76,200.93a1.46,1.46,0,0,0,1.6,1,1.46,1.46,0,0,0,1.6-1"/><path class="cls-8" d="M114.52,208.49c0,1.24,1.45-.47,2,0.59,0.81,1.52.66,5.7-.77,6.55a8.32,8.32,0,1,1,1.57-13.07C118.86,204.07,114.52,206.17,114.52,208.49Z"/><line class="cls-22" x1="111" y1="205" x2="111" y2="222"/><line class="cls-23" x1="110.91" y1="213.78" x2="114.52" y2="210.17"/><line class="cls-23" x1="110.91" y1="211.98" x2="107.3" y2="208.37"/><polygon class="cls-10" points="145 222 135 222 135 209 137.89 209 133 202.02 133 187 154 187 154 196.03 144 196 145 200 145 222"/><rect class="cls-10" x="132" y="186" width="23" height="5"/><line class="cls-9" x1="193" y1="222" x2="106" y2="222"/><line class="cls-9" x1="147" y1="227" x2="141" y2="227"/><line class="cls-9" x1="167" y1="227" x2="148" y2="227"/><line class="cls-9" x1="137" y1="227" x2="139" y2="227"/><polyline class="cls-11" points="178.64 183.97 176.58 188.95 171.6 186.89"/><path class="cls-24" d="M142.22,172.42a25.17,25.17,0,0,1,34.06,15.88"/><path class="cls-24" d="M123.16,198.08a29.1,29.1,0,0,1,7.65-18.14"/><circle class="cls-8" cx="137.45" cy="175.5" r="6.5" transform="translate(-0.27 0.21) rotate(-0.09)"/><polyline class="cls-11" points="135 175.84 136.62 177.47 140.95 173.13"/><line class="cls-9" x1="145" y1="222" x2="145" y2="199"/><line class="cls-9" x1="159" y1="199" x2="159" y2="207"/><rect class="cls-9" x="144" y="196" width="16" height="4"/><line class="cls-9" x1="147" y1="203" x2="149" y2="203"/><line class="cls-9" x1="151" y1="203" x2="153" y2="203"/><line class="cls-9" x1="155" y1="203" x2="157" y2="203"/><line class="cls-9" x1="147" y1="207" x2="149" y2="207"/><line class="cls-9" x1="147" y1="211" x2="149" y2="211"/><line class="cls-9" x1="147" y1="215" x2="149" y2="215"/><line class="cls-9" x1="147" y1="219" x2="149" y2="219"/><line class="cls-9" x1="174" y1="207" x2="174" y2="199"/><line class="cls-9" x1="188" y1="199" x2="188" y2="222"/><rect class="cls-9" x="173" y="196" width="16" height="4"/><line class="cls-9" x1="176" y1="203" x2="178" y2="203"/><line class="cls-9" x1="180" y1="203" x2="182" y2="203"/><line class="cls-9" x1="184" y1="203" x2="186" y2="203"/><line class="cls-9" x1="184" y1="207" x2="186" y2="207"/><line class="cls-9" x1="184" y1="211" x2="186" y2="211"/><line class="cls-9" x1="184" y1="215" x2="186" y2="215"/><line class="cls-9" x1="184" y1="219" x2="186" y2="219"/><rect class="cls-9" x="151" y="207" width="29" height="15"/><polyline class="cls-9" points="154 222 154 215 177 215 177 222"/><line class="cls-9" x1="166" y1="215" x2="166" y2="222"/><line class="cls-9" x1="180" y1="211" x2="151" y2="211"/><polygon class="cls-9" points="133.73 203 130.82 203 125.74 203 120.66 203 117.74 203 113.59 209 117.74 209 122.87 209 128.61 209 133.73 209 137.89 209 133.73 203"/><polygon class="cls-9" points="135 209 117 209 117 222 135 222 135 216.51 135 209"/><path class="cls-9" d="M124,222h-4v-6a1.93,1.93,0,0,1,2-2h0a2,2,0,0,1,2,2v6Z"/><rect class="cls-9" x="127" y="212" width="5" height="4"/><path class="cls-22" d="M129,204v-3.21a1.62,1.62,0,0,1,3,0V205"/><path class="cls-25" d="M128.76,200.93a1.77,1.77,0,0,0,3.2,0"/><polyline class="cls-4" points="24 130 22.57 130 16 126 22.57 122 24 122"/><polyline class="cls-4" points="80 122 23 122 23 130 80 130"/><line class="cls-4" x1="80" y1="126" x2="23" y2="126"/><path class="cls-4" d="M81,122h3.71c0.31,0,.29.37,0.29,0.72v6.46c0,0.35,0,.82-0.29.82H81v-8Z"/><line class="cls-4" x1="19" y1="125" x2="19" y2="128"/><path class="cls-3" d="M35,109v-7a4.46,4.46,0,0,1,4-4H72c-1.79.21-3,2.14-3,4v45c0,1.84-1.15,4-3,4H32c2,0,3-2,3-3.82v-0.43h0V105"/><path class="cls-2" d="M69,106v-4c0-2,1.1-4,3.5-4s3.5,2,3.5,4v4H69Z"/><path class="cls-2" d="M62,146v1.18A4.4,4.4,0,0,0,66,151H32a3.71,3.71,0,0,1-3-3.82V146H62Z"/><path class="cls-5" d="M56,98.33c0,1.72,0,1.84,0,3.56s-0.86,2.93-4.37,4.55a27.85,27.85,0,0,1-6,2.07l0.14-6.12"/><path class="cls-5" d="M35.4,98.53c0,1.72,0,1.44,0,3.16s0.8,2.95,4.28,4.63a27.87,27.87,0,0,0,6,2.19l0.14-6.12"/><path class="cls-5" d="M45.64,102.66l19.42-7.28L45.79,87.72,26.36,95Z"/><path class="cls-5" d="M43.67,94.08l-10.94,3.5,0,6.51"/><ellipse class="cls-5" cx="45.72" cy="93.21" rx="1.07" ry="2.12" transform="translate(-47.93 138.04) rotate(-89.45)"/><path class="cls-4" d="M31,110v-3.63a1.72,1.72,0,0,1,1.5-2,1.72,1.72,0,0,1,1.5,2V110H31Z"/><polyline class="cls-4" points="60 136 60 141 58 139 56 141 56 136"/><circle class="cls-4" cx="58" cy="133" r="3"/><line class="cls-4" x1="58" y1="132" x2="58" y2="134"/><line class="cls-4" x1="44" y1="114" x2="58" y2="114"/><line class="cls-4" x1="40" y1="118" x2="62" y2="118"/><line class="cls-4" x1="40" y1="122" x2="62" y2="122"/><line class="cls-4" x1="40" y1="126" x2="62" y2="126"/><line class="cls-4" x1="40" y1="130" x2="53" y2="130"/><line class="cls-4" x1="40" y1="134" x2="49" y2="134"/><polyline class="cls-9" points="124 130 122.57 130 116 126 122.57 122 124 122"/><polyline class="cls-9" points="180 122 123 122 123 130 180 130"/><line class="cls-9" x1="180" y1="126" x2="123" y2="126"/><path class="cls-9" d="M181,122h3.71c0.31,0,.29.37,0.29,0.72v6.46c0,0.35,0,.82-0.29.82H181v-8Z"/><line class="cls-9" x1="119" y1="125" x2="119" y2="128"/><path class="cls-8" d="M135,109v-7a4.46,4.46,0,0,1,4-4h33c-1.79.21-3,2.14-3,4v45c0,1.84-1.15,4-3,4H132c2,0,3-2,3-3.82v-0.43h0V105"/><path class="cls-10" d="M169,106v-4c0-2,1.1-4,3.5-4s3.5,2,3.5,4v4h-7Z"/><path class="cls-10" d="M162,146v1.18a4.4,4.4,0,0,0,4,3.82H132a3.71,3.71,0,0,1-3-3.82V146h33Z"/><path class="cls-11" d="M156,98.33c0,1.72,0,1.84,0,3.56s-0.86,2.93-4.37,4.55a27.85,27.85,0,0,1-6,2.07l0.14-6.12"/><path class="cls-11" d="M135.4,98.53c0,1.72,0,1.44,0,3.16s0.8,2.95,4.28,4.63a27.87,27.87,0,0,0,6,2.19l0.14-6.12"/><path class="cls-11" d="M145.64,102.66l19.42-7.28-19.28-7.66L126.36,95Z"/><path class="cls-11" d="M143.67,94.08l-10.94,3.5,0,6.51"/><ellipse class="cls-11" cx="145.72" cy="93.21" rx="1.07" ry="2.12" transform="translate(51.11 238.03) rotate(-89.45)"/><path class="cls-9" d="M131,110v-3.63a1.56,1.56,0,1,1,3,0V110h-3Z"/><polyline class="cls-9" points="160 136 160 141 158 139 156 141 156 136"/><circle class="cls-9" cx="158" cy="133" r="3"/><line class="cls-9" x1="158" y1="132" x2="158" y2="134"/><line class="cls-9" x1="144" y1="114" x2="158" y2="114"/><line class="cls-9" x1="140" y1="118" x2="162" y2="118"/><line class="cls-9" x1="140" y1="122" x2="162" y2="122"/><line class="cls-9" x1="140" y1="126" x2="162" y2="126"/><line class="cls-9" x1="140" y1="130" x2="153" y2="130"/><line class="cls-9" x1="140" y1="134" x2="149" y2="134"/><path class="cls-4" d="M32,53v3H81V26c0-.75-0.07-1-0.82-1H43"/><rect class="cls-3" x="35" y="28" width="43" height="24"/><path class="cls-4" d="M32,56v3.18A1.92,1.92,0,0,0,33.58,61H79.27A2,2,0,0,0,81,59.25V56"/><path class="cls-4" d="M51,61v4a3.13,3.13,0,0,1-3,3"/><path class="cls-4" d="M65,68a2.67,2.67,0,0,1-3-3V61"/><line class="cls-4" x1="47" y1="68" x2="66" y2="68"/><line class="cls-4" x1="22" y1="57" x2="22" y2="63"/><line class="cls-4" x1="25" y1="60" x2="19" y2="60"/><line class="cls-5" x1="50.18" y1="10.6" x2="48.01" y2="11.93"/><line class="cls-5" x1="46.48" y1="6.46" x2="44.9" y2="8.46"/><line class="cls-5" x1="52.24" y1="15.75" x2="49.75" y2="16.27"/><line class="cls-5" x1="50.18" y1="10.6" x2="48.01" y2="11.93"/><path class="cls-4" d="M37,49H16.14C15.46,49,15,47.91,15,47.23V15a1.05,1.05,0,0,1,1-1H39a1.07,1.07,0,0,1,1,1V41"/><rect class="cls-2" x="17" y="16" width="21" height="28"/><line class="cls-4" x1="26" y1="46" x2="28" y2="46"/><line class="cls-17" x1="57.21" y1="42.52" x2="55.31" y2="40.62"/><line class="cls-17" x1="56.58" y1="45.46" x2="54" y2="46.15"/><line class="cls-17" x1="58.82" y1="47.47" x2="58.12" y2="50.05"/><line class="cls-17" x1="62.3" y1="43.6" x2="64.89" y2="42.91"/><line class="cls-17" x1="60.07" y1="41.59" x2="60.76" y2="39"/><polygon class="cls-18" points="61.4 46.43 64.07 47.17 66.73 47.91 64.76 49.84 62.78 51.78 62.09 49.1 61.4 46.43"/><line class="cls-5" x1="64.72" y1="49.81" x2="67" y2="52.13"/><circle class="cls-6" cx="27.25" cy="26.91" r="2.27"/><line class="cls-6" x1="27.25" y1="29.67" x2="27.25" y2="31.81"/><line class="cls-6" x1="27.25" y1="22" x2="27.25" y2="24.15"/><line class="cls-6" x1="29.64" y1="28.29" x2="31.5" y2="29.36"/><line class="cls-6" x1="23" y1="24.45" x2="24.86" y2="25.53"/><line class="cls-6" x1="29.64" y1="25.53" x2="31.5" y2="24.45"/><line class="cls-6" x1="23" y1="29.36" x2="24.86" y2="28.29"/><path class="cls-9" d="M132,53v3h49V26c0-.75-0.07-1-0.82-1H143"/><rect class="cls-8" x="135" y="28" width="43" height="24"/><path class="cls-9" d="M132,56v3.18A1.92,1.92,0,0,0,133.58,61h45.69A2,2,0,0,0,181,59.25V56"/><path class="cls-9" d="M151,61v4a3.13,3.13,0,0,1-3,3"/><path class="cls-9" d="M165,68a2.67,2.67,0,0,1-3-3V61"/><line class="cls-9" x1="147" y1="68" x2="166" y2="68"/><line class="cls-9" x1="122" y1="57" x2="122" y2="63"/><line class="cls-9" x1="125" y1="60" x2="119" y2="60"/><line class="cls-11" x1="150.18" y1="10.6" x2="148.01" y2="11.93"/><line class="cls-11" x1="146.48" y1="6.46" x2="144.9" y2="8.46"/><line class="cls-11" x1="152.24" y1="15.75" x2="149.75" y2="16.27"/><line class="cls-11" x1="150.18" y1="10.6" x2="148.01" y2="11.93"/><path class="cls-9" d="M137,49H116.14c-0.68,0-1.14-1.09-1.14-1.77V15a1.05,1.05,0,0,1,1-1h23a1.07,1.07,0,0,1,1,1V41"/><rect class="cls-10" x="117" y="16" width="21" height="28"/><line class="cls-9" x1="126" y1="46" x2="128" y2="46"/><line class="cls-22" x1="157.21" y1="42.52" x2="155.31" y2="40.62"/><line class="cls-22" x1="156.58" y1="45.46" x2="154" y2="46.15"/><line class="cls-22" x1="158.82" y1="47.47" x2="158.12" y2="50.05"/><line class="cls-22" x1="162.3" y1="43.6" x2="164.89" y2="42.91"/><line class="cls-22" x1="160.07" y1="41.59" x2="160.76" y2="39"/><polygon class="cls-23" points="161.4 46.43 164.07 47.17 166.73 47.91 164.76 49.84 162.78 51.78 162.09 49.1 161.4 46.43"/><line class="cls-11" x1="164.72" y1="49.81" x2="167" y2="52.13"/><circle class="cls-6" cx="127.25" cy="26.91" r="2.27"/><line class="cls-6" x1="127.25" y1="29.67" x2="127.25" y2="31.81"/><line class="cls-6" x1="127.25" y1="22" x2="127.25" y2="24.15"/><line class="cls-6" x1="129.64" y1="28.29" x2="131.5" y2="29.36"/><line class="cls-6" x1="123" y1="24.45" x2="124.86" y2="25.53"/><line class="cls-6" x1="129.64" y1="25.53" x2="131.5" y2="24.45"/><line class="cls-6" x1="123" y1="29.36" x2="124.86" y2="28.29"/></svg>