<?xml version="1.0" encoding="UTF-8"?>
<svg width="288px" height="96px" viewBox="0 0 288 96" version="1.1" xmlns="http://www.w3.org/2000/svg" xmlns:xlink="http://www.w3.org/1999/xlink">
    <!-- Generator: Sketch 46.2 (44496) - http://www.bohemiancoding.com/sketch -->
    <title>sprite_rrss_icons</title>
    <desc>Created with Sketch.</desc>
    <defs>
        <circle id="path-1" cx="24" cy="24" r="24"></circle>
        <circle id="path-2" cx="24" cy="24" r="24"></circle>
        <circle id="path-3" cx="24" cy="24" r="24"></circle>
        <polygon id="path-4" points="3.08822534e-16 0 23.9620306 0 23.9620306 23.9589322 0 23.9589322"></polygon>
        <circle id="path-6" cx="24" cy="24" r="24"></circle>
        <circle id="path-7" cx="24" cy="24" r="24"></circle>
        <circle id="path-8" cx="24" cy="24" r="24"></circle>
        <circle id="path-9" cx="24" cy="24" r="24"></circle>
        <circle id="path-10" cx="24" cy="24" r="24"></circle>
        <circle id="path-11" cx="24" cy="24" r="24"></circle>
        <polygon id="path-12" points="3.08822534e-16 0 23.9620306 0 23.9620306 23.9589322 0 23.9589322"></polygon>
        <circle id="path-14" cx="24" cy="24" r="24"></circle>
        <circle id="path-15" cx="24" cy="24" r="24"></circle>
        <circle id="path-16" cx="24" cy="24" r="24"></circle>
    </defs>
    <g id="Symbols" stroke="none" stroke-width="1" fill="none" fill-rule="evenodd">
        <g id="sprite_rrss_icons">
            <g id="off">
                <g id="btn_rrss_rss_off" transform="translate(192.000000, 0.000000)">
                    <g id="rss">
                        <g id="Oval-3-Copy-4">
                            <use fill="#FFFFFF" fill-rule="evenodd" xlink:href="#path-1"></use>
                            <circle stroke="#D8D8D8" stroke-width="1" cx="24" cy="24" r="23.5"></circle>
                        </g>
                        <path d="M21.5,29.75 C21.5,30.9923188 20.4923188,32 19.25,32 C18.0073407,32 17,30.9923188 17,29.75 C17,28.5070002 18.0073407,27.5 19.25,27.5 C20.4923188,27.5 21.5,28.5070002 21.5,29.75 L21.5,29.75 Z M17,17.75 C25.0142485,17.4499789 31.534703,23.9766923 31.25,32 L35,32 C35,22.0739416 26.9250843,14 17,14 L17,17.75 Z M17,23.75 C19.2705875,23.4848845 21.4050865,24.3682528 23,26 C24.6161888,27.5820623 25.5013144,29.7218011 25.25,32 L29,32 C29,25.3827747 23.6166167,20 17,20 L17,23.75 Z" id="Fill-100" fill="#F5A623"></path>
                    </g>
                </g>
                <g id="btn_rrss_rss_off" transform="translate(240.000000, 0.000000)">
                    <g id="rss">
                        <g id="Oval-3-Copy-4">
                            <use fill="#FFFFFF" fill-rule="evenodd" xlink:href="#path-2"></use>
                            <circle stroke="#D8D8D8" stroke-width="1" cx="24" cy="24" r="23.5"></circle>
                        </g>
                        <path d="M21.5,29.75 C21.5,30.9923188 20.4923188,32 19.25,32 C18.0073407,32 17,30.9923188 17,29.75 C17,28.5070002 18.0073407,27.5 19.25,27.5 C20.4923188,27.5 21.5,28.5070002 21.5,29.75 L21.5,29.75 Z M17,17.75 C25.0142485,17.4499789 31.534703,23.9766923 31.25,32 L35,32 C35,22.0739416 26.9250843,14 17,14 L17,17.75 Z M17,23.75 C19.2705875,23.4848845 21.4050865,24.3682528 23,26 C24.6161888,27.5820623 25.5013144,29.7218011 25.25,32 L29,32 C29,25.3827747 23.6166167,20 17,20 L17,23.75 Z" id="Fill-100" fill="#F5A623"></path>
                    </g>
                </g>
                <g id="btn_rrss_ig_off" transform="translate(144.000000, 0.000000)">
                    <g id="ig">
                        <g id="Oval-3-Copy-3">
                            <use fill="#FFFFFF" fill-rule="evenodd" xlink:href="#path-3"></use>
                            <circle stroke="#D8D8D8" stroke-width="1" cx="24" cy="24" r="23.5"></circle>
                        </g>
                        <g id="Instagram-icon-black" transform="translate(12.000000, 12.000000)">
                            <g id="Group-3">
                                <mask id="mask-5" fill="white">
                                    <use xlink:href="#path-4"></use>
                                </mask>
                                <g id="Clip-2"></g>
                                <path d="M11.9810416,0 C8.72717724,0 8.31917724,0.0137067834 7.0412954,0.0721050328 C5.76598687,0.130345733 4.8950547,0.332849015 4.13304158,0.628989059 C3.34513786,0.935159737 2.67697155,1.34484026 2.01090591,2.01090591 C1.34484026,2.67697155 0.935159737,3.34519037 0.629041575,4.13304158 C0.332743982,4.89515974 0.1302407,5.7660919 0.0721050328,7.04134792 C0.0137592998,8.31922976 0,8.72717724 0,11.9810416 C0,15.2350109 0.0137592998,15.6429584 0.0721050328,16.9208403 C0.1302407,18.1960963 0.332743982,19.0670284 0.629041575,19.8291466 C0.935159737,20.6169978 1.34484026,21.2852166 2.01090591,21.9512823 C2.67697155,22.6173479 3.34513786,23.0270284 4.13304158,23.3331991 C4.8950547,23.6293392 5.76598687,23.8318425 7.0412954,23.8900832 C8.31917724,23.9483764 8.72717724,23.9621882 11.9810416,23.9621882 C15.2349059,23.9621882 15.6429584,23.9483764 16.9208403,23.8900832 C18.1960963,23.8318425 19.0670284,23.6293392 19.8290941,23.3331991 C20.6169978,23.0270284 21.2851116,22.6173479 21.9511772,21.9512823 C22.6172429,21.2852166 23.0269234,20.6169978 23.3330941,19.8291466 C23.6293392,19.0670284 23.8318425,18.1960963 23.8900306,16.9208403 C23.9483764,15.6429584 23.9620832,15.2350109 23.9620832,11.9810416 C23.9620832,8.72717724 23.9483764,8.31922976 23.8900306,7.04134792 C23.8318425,5.7660919 23.6293392,4.89515974 23.3330941,4.13304158 C23.0269234,3.34519037 22.6172429,2.67697155 21.9511772,2.01090591 C21.2851116,1.34484026 20.6169978,0.935159737 19.8290941,0.628989059 C19.0670284,0.332849015 18.1960963,0.130345733 16.9208403,0.0721050328 C15.6429584,0.0137067834 15.2349059,0 11.9810416,0 M11.9810416,2.15873961 C15.1801313,2.15873961 15.5589847,2.17092341 16.8224245,2.22853392 C17.990547,2.28183807 18.6249453,2.47709409 19.0471247,2.64110284 C19.6064245,2.85846827 20.0055492,3.11810941 20.4247352,3.53734792 C20.8440788,3.95663895 21.1037199,4.35571116 21.3209803,4.91495842 C21.4849891,5.33713786 21.6802451,5.97158862 21.7335492,7.13965864 C21.7911597,8.40309847 21.8033961,8.78195186 21.8033961,11.9810416 C21.8033961,15.1802363 21.7911597,15.5590897 21.7335492,16.8224245 C21.6802451,17.9905996 21.4849891,18.6250503 21.3209803,19.0472298 C21.1037199,19.6064245 20.8440788,20.0055492 20.4247352,20.4248403 C20.0055492,20.8440788 19.6064245,21.1037199 19.0471247,21.3210328 C18.6249453,21.4850941 17.990547,21.6803501 16.8224245,21.7335492 C15.5591947,21.7912648 15.1803939,21.8033961 11.9810416,21.8033961 C8.78168928,21.8033961 8.4028884,21.7912648 7.13965864,21.7335492 C5.97158862,21.6803501 5.33713786,21.4850941 4.91495842,21.3210328 C4.35571116,21.1037199 3.95658643,20.8440788 3.53734792,20.4248403 C3.11816193,20.0055492 2.85852079,19.6064245 2.64115536,19.0472298 C2.47709409,18.6250503 2.28189059,17.9905996 2.22853392,16.8224245 C2.17097593,15.5590897 2.15873961,15.1802363 2.15873961,11.9810416 C2.15873961,8.78195186 2.17097593,8.40309847 2.22853392,7.13965864 C2.28189059,5.97158862 2.47709409,5.33713786 2.64115536,4.91495842 C2.85852079,4.35571116 3.11816193,3.95663895 3.53734792,3.53734792 C3.95658643,3.11810941 4.35571116,2.85846827 4.91495842,2.64110284 C5.33713786,2.47709409 5.97158862,2.28183807 7.13965864,2.22853392 C8.40309847,2.17092341 8.78195186,2.15873961 11.9810416,2.15873961" id="Fill-1" fill="#026597" mask="url(#mask-5)"></path>
                            </g>
                            <path d="M12,15.894744 C9.84899959,15.894744 8.10521374,14.1510168 8.10521374,11.9999744 C8.10521374,9.84898316 9.84899959,8.10525597 12,8.10525597 C14.1510516,8.10525597 15.8947863,9.84898316 15.8947863,11.9999744 C15.8947863,14.1510168 14.1510516,15.894744 12,15.894744 M12,6 C8.68630497,6 6,8.68634472 6,11.9999744 C6,15.3137577 8.68630497,18 12,18 C15.313695,18 18,15.3137577 18,11.9999744 C18,8.68634472 15.313695,6 12,6" id="Fill-4" fill="#016798"></path>
                            <path d="M18.5,5.75 C18.5,6.16418892 18.1642163,6.5 17.75,6.5 C17.3358111,6.5 17,6.16418892 17,5.75 C17,5.33578369 17.3358111,5 17.75,5 C18.1642163,5 18.5,5.33578369 18.5,5.75" id="Fill-5" fill="#03649B"></path>
                        </g>
                    </g>
                </g>
                <g id="btn_rrss_fb_off" transform="translate(96.000000, 0.000000)">
                    <g id="fb">
                        <g id="Oval-3-Copy-2">
                            <use fill="#FFFFFF" fill-rule="evenodd" xlink:href="#path-6"></use>
                            <circle stroke="#D8D8D8" stroke-width="1" cx="24" cy="24" r="23.5"></circle>
                        </g>
                        <path d="M28.5,19.3846154 L25,19.3846154 L25,17.5384615 C24.924069,16.3455257 25.5078181,16.1269329 25.875,15.6923077 L28.5,15.6923077 L28.5,12 L25,12 C21.1086511,12 20.2306887,15.0672545 20.625,16.6153846 L20.625,19.3846154 L18,19.3846154 L18,24 L20.625,24 L20.625,36 L25,36 L25,24 L28.5,24 L28.5,19.3846154 Z" id="Fill-39" fill="#4267B2"></path>
                    </g>
                </g>
                <g id="btn_rrss_tw_off" transform="translate(48.000000, 0.000000)">
                    <g id="tw">
                        <g id="Oval-3-Copy">
                            <use fill="#FFFFFF" fill-rule="evenodd" xlink:href="#path-7"></use>
                            <circle stroke="#D8D8D8" stroke-width="1" cx="24" cy="24" r="23.5"></circle>
                        </g>
                        <path d="M32.4228571,17.7443994 C33.4092888,17.1766921 34.1440374,16.2578404 34.4796825,15.1722034 C33.5775763,15.6916699 32.5870707,16.0404778 31.5579894,16.2010818 C30.6316177,15.4542804 29.4846627,15.032333 28.2940741,15.0003366 C25.7860424,14.9702883 23.7190383,16.9558275 23.6542857,19.4572613 C23.6271575,19.8090866 23.6862847,20.1622118 23.8265608,20.4861397 C20.2082697,20.3532981 16.8244845,18.6654155 14.5469841,15.8573482 C14.1398844,16.5335063 13.9037834,17.2983186 13.8590476,18.0858105 C13.8984577,19.600866 14.6660513,21.0044975 15.9216931,21.8575904 C15.2031938,21.8500554 14.4965719,21.6738186 13.8590476,21.3431512 C13.8705119,23.4873479 15.3687273,25.3378388 17.4675132,25.8000759 C17.1183069,25.8000759 16.7795767,25.9719427 16.2650794,25.9719427 L15.4060317,25.9719427 C16.0137063,27.822733 17.7502985,29.0698719 19.7024339,29.0574167 C18.0440873,30.2385584 16.0683687,30.8955704 14.0313228,30.9433066 L13,30.9433066 C15.0620412,32.2375651 17.4378879,32.9484291 19.873545,32.9999022 C23.2955446,33.0132372 26.5812639,31.6630544 29.0011107,29.2491608 C31.4209576,26.8352673 32.774645,23.5574576 32.7615873,20.1435673 L32.7615873,19.6291281 C33.5972491,18.8539679 34.3476328,17.9920793 35,17.0580934 C34.1912831,17.4449596 33.3172469,17.6777198 32.4228571,17.7443994 Z" id="icon_twitter_big" fill="#3995FF" fill-rule="nonzero"></path>
                    </g>
                </g>
                <g id="btn_rrss_yt_off">
                    <g id="yt">
                        <g id="Oval-3">
                            <use fill="#FFFFFF" fill-rule="evenodd" xlink:href="#path-8"></use>
                            <circle stroke="#D8D8D8" stroke-width="1" cx="24" cy="24" r="23.5"></circle>
                        </g>
                        <path d="M35.5850311,17.8962083 C35.2911473,16.521649 34.2472248,15.5089737 32.9902442,15.3580221 C30.014554,15.0001369 27.0023219,14.998804 24.0037156,15.0001369 C21.0047996,14.998804 17.9916384,15.0001369 15.0156386,15.3580221 C13.7602064,15.5089737 12.7159742,16.521649 12.423329,17.8962083 C12.0049548,19.8512481 12,21.9862302 12,23.9999178 C12,26.0136055 12,28.1495872 12.4186839,30.104627 C12.711329,31.4778534 13.7552515,32.4918616 15.0122321,32.6428131 C17.9879223,32.9996987 20.9998447,33.0020313 23.9987607,32.9996987 C26.9989154,33.0020313 30.0108379,32.9996987 32.985599,32.6428131 C34.2422699,32.4918616 35.2861925,31.4778534 35.580386,30.104627 C35.9987602,28.1495872 35.9999989,26.0136055 35.9999989,23.9999178 C35.9999989,21.9862302 36.003715,19.8512481 35.5850311,17.8962083 Z M21,28.5 L21,19.5 C23.4995941,21.0047407 25.9836628,22.4985953 28.5,24.0131687 C25.9909689,25.5136954 23.5065958,27.0005267 21,28.5 Z" id="Fill-1" fill="#CD1F20"></path>
                    </g>
                </g>
            </g>
            <g id="on" transform="translate(0.000000, 48.000000)">
                <g id="btn_rrss_rss_on" transform="translate(192.000000, 0.000000)">
                    <g id="rss">
                        <g id="Oval-3-Copy-4">
                            <use fill="#F5A623" fill-rule="evenodd" xlink:href="#path-9"></use>
                            <circle stroke="#F5A623" stroke-width="1" cx="24" cy="24" r="23.5"></circle>
                        </g>
                        <path d="M21.5,29.75 C21.5,30.9923188 20.4923188,32 19.25,32 C18.0073407,32 17,30.9923188 17,29.75 C17,28.5070002 18.0073407,27.5 19.25,27.5 C20.4923188,27.5 21.5,28.5070002 21.5,29.75 L21.5,29.75 Z M17,17.75 C25.0142485,17.4499789 31.534703,23.9766923 31.25,32 L35,32 C35,22.0739416 26.9250843,14 17,14 L17,17.75 Z M17,23.75 C19.2705875,23.4848845 21.4050865,24.3682528 23,26 C24.6161888,27.5820623 25.5013144,29.7218011 25.25,32 L29,32 C29,25.3827747 23.6166167,20 17,20 L17,23.75 Z" id="Fill-100" fill="#FFFFFF"></path>
                    </g>
                </g>
                <g id="btn_rrss_rss_on" transform="translate(240.000000, 0.000000)">
                    <g id="rss">
                        <g id="Oval-3-Copy-4">
                            <use fill="#F5A623" fill-rule="evenodd" xlink:href="#path-10"></use>
                            <circle stroke="#F5A623" stroke-width="1" cx="24" cy="24" r="23.5"></circle>
                        </g>
                        <path d="M21.5,29.75 C21.5,30.9923188 20.4923188,32 19.25,32 C18.0073407,32 17,30.9923188 17,29.75 C17,28.5070002 18.0073407,27.5 19.25,27.5 C20.4923188,27.5 21.5,28.5070002 21.5,29.75 L21.5,29.75 Z M17,17.75 C25.0142485,17.4499789 31.534703,23.9766923 31.25,32 L35,32 C35,22.0739416 26.9250843,14 17,14 L17,17.75 Z M17,23.75 C19.2705875,23.4848845 21.4050865,24.3682528 23,26 C24.6161888,27.5820623 25.5013144,29.7218011 25.25,32 L29,32 C29,25.3827747 23.6166167,20 17,20 L17,23.75 Z" id="Fill-100" fill="#FFFFFF"></path>
                    </g>
                </g>
                <g id="btn_rrss_ig_on" transform="translate(144.000000, 0.000000)">
                    <g id="ig">
                        <g id="Oval-3-Copy-3">
                            <use fill="#026597" fill-rule="evenodd" xlink:href="#path-11"></use>
                            <circle stroke="#016798" stroke-width="1" cx="24" cy="24" r="23.5"></circle>
                        </g>
                        <g id="Instagram-icon-black" transform="translate(12.000000, 12.000000)">
                            <g id="Group-3">
                                <mask id="mask-13" fill="white">
                                    <use xlink:href="#path-12"></use>
                                </mask>
                                <g id="Clip-2"></g>
                                <path d="M11.9810416,0 C8.72717724,0 8.31917724,0.0137067834 7.0412954,0.0721050328 C5.76598687,0.130345733 4.8950547,0.332849015 4.13304158,0.628989059 C3.34513786,0.935159737 2.67697155,1.34484026 2.01090591,2.01090591 C1.34484026,2.67697155 0.935159737,3.34519037 0.629041575,4.13304158 C0.332743982,4.89515974 0.1302407,5.7660919 0.0721050328,7.04134792 C0.0137592998,8.31922976 0,8.72717724 0,11.9810416 C0,15.2350109 0.0137592998,15.6429584 0.0721050328,16.9208403 C0.1302407,18.1960963 0.332743982,19.0670284 0.629041575,19.8291466 C0.935159737,20.6169978 1.34484026,21.2852166 2.01090591,21.9512823 C2.67697155,22.6173479 3.34513786,23.0270284 4.13304158,23.3331991 C4.8950547,23.6293392 5.76598687,23.8318425 7.0412954,23.8900832 C8.31917724,23.9483764 8.72717724,23.9621882 11.9810416,23.9621882 C15.2349059,23.9621882 15.6429584,23.9483764 16.9208403,23.8900832 C18.1960963,23.8318425 19.0670284,23.6293392 19.8290941,23.3331991 C20.6169978,23.0270284 21.2851116,22.6173479 21.9511772,21.9512823 C22.6172429,21.2852166 23.0269234,20.6169978 23.3330941,19.8291466 C23.6293392,19.0670284 23.8318425,18.1960963 23.8900306,16.9208403 C23.9483764,15.6429584 23.9620832,15.2350109 23.9620832,11.9810416 C23.9620832,8.72717724 23.9483764,8.31922976 23.8900306,7.04134792 C23.8318425,5.7660919 23.6293392,4.89515974 23.3330941,4.13304158 C23.0269234,3.34519037 22.6172429,2.67697155 21.9511772,2.01090591 C21.2851116,1.34484026 20.6169978,0.935159737 19.8290941,0.628989059 C19.0670284,0.332849015 18.1960963,0.130345733 16.9208403,0.0721050328 C15.6429584,0.0137067834 15.2349059,0 11.9810416,0 M11.9810416,2.15873961 C15.1801313,2.15873961 15.5589847,2.17092341 16.8224245,2.22853392 C17.990547,2.28183807 18.6249453,2.47709409 19.0471247,2.64110284 C19.6064245,2.85846827 20.0055492,3.11810941 20.4247352,3.53734792 C20.8440788,3.95663895 21.1037199,4.35571116 21.3209803,4.91495842 C21.4849891,5.33713786 21.6802451,5.97158862 21.7335492,7.13965864 C21.7911597,8.40309847 21.8033961,8.78195186 21.8033961,11.9810416 C21.8033961,15.1802363 21.7911597,15.5590897 21.7335492,16.8224245 C21.6802451,17.9905996 21.4849891,18.6250503 21.3209803,19.0472298 C21.1037199,19.6064245 20.8440788,20.0055492 20.4247352,20.4248403 C20.0055492,20.8440788 19.6064245,21.1037199 19.0471247,21.3210328 C18.6249453,21.4850941 17.990547,21.6803501 16.8224245,21.7335492 C15.5591947,21.7912648 15.1803939,21.8033961 11.9810416,21.8033961 C8.78168928,21.8033961 8.4028884,21.7912648 7.13965864,21.7335492 C5.97158862,21.6803501 5.33713786,21.4850941 4.91495842,21.3210328 C4.35571116,21.1037199 3.95658643,20.8440788 3.53734792,20.4248403 C3.11816193,20.0055492 2.85852079,19.6064245 2.64115536,19.0472298 C2.47709409,18.6250503 2.28189059,17.9905996 2.22853392,16.8224245 C2.17097593,15.5590897 2.15873961,15.1802363 2.15873961,11.9810416 C2.15873961,8.78195186 2.17097593,8.40309847 2.22853392,7.13965864 C2.28189059,5.97158862 2.47709409,5.33713786 2.64115536,4.91495842 C2.85852079,4.35571116 3.11816193,3.95663895 3.53734792,3.53734792 C3.95658643,3.11810941 4.35571116,2.85846827 4.91495842,2.64110284 C5.33713786,2.47709409 5.97158862,2.28183807 7.13965864,2.22853392 C8.40309847,2.17092341 8.78195186,2.15873961 11.9810416,2.15873961" id="Fill-1" fill="#FFFFFF" mask="url(#mask-13)"></path>
                            </g>
                            <path d="M12,15.894744 C9.84899959,15.894744 8.10521374,14.1510168 8.10521374,11.9999744 C8.10521374,9.84898316 9.84899959,8.10525597 12,8.10525597 C14.1510516,8.10525597 15.8947863,9.84898316 15.8947863,11.9999744 C15.8947863,14.1510168 14.1510516,15.894744 12,15.894744 M12,6 C8.68630497,6 6,8.68634472 6,11.9999744 C6,15.3137577 8.68630497,18 12,18 C15.313695,18 18,15.3137577 18,11.9999744 C18,8.68634472 15.313695,6 12,6" id="Fill-4" fill="#FFFFFF"></path>
                            <path d="M18.5,5.75 C18.5,6.16418892 18.1642163,6.5 17.75,6.5 C17.3358111,6.5 17,6.16418892 17,5.75 C17,5.33578369 17.3358111,5 17.75,5 C18.1642163,5 18.5,5.33578369 18.5,5.75" id="Fill-5" fill="#FFFFFF"></path>
                        </g>
                    </g>
                </g>
                <g id="btn_rrss_fb_on" transform="translate(96.000000, 0.000000)">
                    <g id="fb">
                        <g id="Oval-3-Copy-2">
                            <use fill="#4267B2" fill-rule="evenodd" xlink:href="#path-14"></use>
                            <circle stroke="#4267B2" stroke-width="1" cx="24" cy="24" r="23.5"></circle>
                        </g>
                        <path d="M28.5,19.3846154 L25,19.3846154 L25,17.5384615 C24.924069,16.3455257 25.5078181,16.1269329 25.875,15.6923077 L28.5,15.6923077 L28.5,12 L25,12 C21.1086511,12 20.2306887,15.0672545 20.625,16.6153846 L20.625,19.3846154 L18,19.3846154 L18,24 L20.625,24 L20.625,36 L25,36 L25,24 L28.5,24 L28.5,19.3846154 Z" id="Fill-39" fill="#FFFFFF"></path>
                    </g>
                </g>
                <g id="btn_rrss_tw_on" transform="translate(48.000000, 0.000000)">
                    <g id="tw">
                        <g id="Oval-3-Copy">
                            <use fill="#3995FF" fill-rule="evenodd" xlink:href="#path-15"></use>
                            <circle stroke="#3995FF" stroke-width="1" cx="24" cy="24" r="23.5"></circle>
                        </g>
                        <path d="M32.4228571,17.7443994 C33.4092888,17.1766921 34.1440374,16.2578404 34.4796825,15.1722034 C33.5775763,15.6916699 32.5870707,16.0404778 31.5579894,16.2010818 C30.6316177,15.4542804 29.4846627,15.032333 28.2940741,15.0003366 C25.7860424,14.9702883 23.7190383,16.9558275 23.6542857,19.4572613 C23.6271575,19.8090866 23.6862847,20.1622118 23.8265608,20.4861397 C20.2082697,20.3532981 16.8244845,18.6654155 14.5469841,15.8573482 C14.1398844,16.5335063 13.9037834,17.2983186 13.8590476,18.0858105 C13.8984577,19.600866 14.6660513,21.0044975 15.9216931,21.8575904 C15.2031938,21.8500554 14.4965719,21.6738186 13.8590476,21.3431512 C13.8705119,23.4873479 15.3687273,25.3378388 17.4675132,25.8000759 C17.1183069,25.8000759 16.7795767,25.9719427 16.2650794,25.9719427 L15.4060317,25.9719427 C16.0137063,27.822733 17.7502985,29.0698719 19.7024339,29.0574167 C18.0440873,30.2385584 16.0683687,30.8955704 14.0313228,30.9433066 L13,30.9433066 C15.0620412,32.2375651 17.4378879,32.9484291 19.873545,32.9999022 C23.2955446,33.0132372 26.5812639,31.6630544 29.0011107,29.2491608 C31.4209576,26.8352673 32.774645,23.5574576 32.7615873,20.1435673 L32.7615873,19.6291281 C33.5972491,18.8539679 34.3476328,17.9920793 35,17.0580934 C34.1912831,17.4449596 33.3172469,17.6777198 32.4228571,17.7443994 Z" id="icon_twitter_big" fill="#FFFFFF" fill-rule="nonzero"></path>
                    </g>
                </g>
                <g id="btn_rrss_yt_on">
                    <g id="yt">
                        <g id="Oval-3">
                            <use fill="#CD1F20" fill-rule="evenodd" xlink:href="#path-16"></use>
                            <circle stroke="#CD1F20" stroke-width="1" cx="24" cy="24" r="23.5"></circle>
                        </g>
                        <path d="M35.5850311,17.8962083 C35.2911473,16.521649 34.2472248,15.5089737 32.9902442,15.3580221 C30.014554,15.0001369 27.0023219,14.998804 24.0037156,15.0001369 C21.0047996,14.998804 17.9916384,15.0001369 15.0156386,15.3580221 C13.7602064,15.5089737 12.7159742,16.521649 12.423329,17.8962083 C12.0049548,19.8512481 12,21.9862302 12,23.9999178 C12,26.0136055 12,28.1495872 12.4186839,30.104627 C12.711329,31.4778534 13.7552515,32.4918616 15.0122321,32.6428131 C17.9879223,32.9996987 20.9998447,33.0020313 23.9987607,32.9996987 C26.9989154,33.0020313 30.0108379,32.9996987 32.985599,32.6428131 C34.2422699,32.4918616 35.2861925,31.4778534 35.580386,30.104627 C35.9987602,28.1495872 35.9999989,26.0136055 35.9999989,23.9999178 C35.9999989,21.9862302 36.003715,19.8512481 35.5850311,17.8962083 Z M21,28.5 L21,19.5 C23.4995941,21.0047407 25.9836628,22.4985953 28.5,24.0131687 C25.9909689,25.5136954 23.5065958,27.0005267 21,28.5 Z" id="Fill-1" fill="#FFFFFF"></path>
                    </g>
                </g>
            </g>
        </g>
    </g>
</svg>