<svg xmlns="http://www.w3.org/2000/svg" width="294" height="196" viewBox="0 0 294 196"><g fill="none"><g fill="#FFF" opacity=".7"><path d="M245 98c-27.062 0-49-21.938-49-49s21.938-49 49-49 49 21.938 49 49-21.938 49-49 49zm-39.265-27c7.707 13.726 22.403 23 39.265 23 24.853 0 45-20.147 45-45S269.853 4 245 4a44.8 44.8 0 0 0-27.004 9h44.302A5.702 5.702 0 0 1 268 18.702v10.373a15.06 15.06 0 0 0-4.278-.616c-8.305 0-15.04 6.723-15.04 15.02 0 3.862 1.46 7.383 3.856 10.043-.62.308-1.204.68-1.741 1.111a7.486 7.486 0 0 0-2.419 2.227l-6.795 8.977-8.363-7.648-.198-.14a7.517 7.517 0 0 0-2.675-1.206l-6.206-18.397a5.244 5.244 0 0 0-4.865-3.279c-.077 0-.077 0-.268.006a4.816 4.816 0 0 0-.58.06 4.305 4.305 0 0 0-1.497.525c-2.193 1.11-3.355 3.684-2.598 6.315l6.644 19.721c-1.137 3.008-.303 6.543 2.256 8.743l.423.463h-17.92z"/><path d="M287.369 73.631a49.195 49.195 0 0 1-22.956 20.373l-13.362 3.564V72.901l-3.84 4.984c-1.344 2.012-3.648 3.162-6.048 3.162-.48 0-1.056-.095-1.632-.191-1.056-.192-1.92-.671-2.688-1.342L225.996 67.63c-1.728-1.341-2.016-3.833-.672-5.462l-7.2-21.372c-.192-.67.192-1.341.768-1.533.096-.096.288-.096.384-.096.48 0 .96.288 1.152.767l7.008 20.796c.384-.096.672-.096 1.056-.096.768 0 1.536.192 2.208.671l11.423 10.446 9.504-12.554c.384-.575.864-.958 1.44-1.246a5.665 5.665 0 0 1 3.743-1.437h13.824c1.248 0 2.4.383 3.36 1.054.864.287 1.536.766 2.112 1.533l9.887 12.842 1.248 1.533c.044.051.086.103.128.155zm-10.88 4.733l2.784-2.3-2.783-3.546v5.846zm-12.767-23.863c-6.097 0-11.04-4.934-11.04-11.021 0-6.087 4.943-11.021 11.04-11.021 6.097 0 11.04 4.934 11.04 11.02 0 6.088-4.943 11.022-11.04 11.022z"/></g><path fill="#FFF" d="M21.679 84.76v-2.534C21.679 74.862 27.694 69 34.927 69h28.146c7.376 0 13.248 5.862 13.248 13.226v2.534C87.068 76.536 94 63.578 94 49 94 24.147 73.853 4 49 4S4 24.147 4 49c0 14.578 6.932 27.536 17.679 35.76zM49 98C21.938 98 0 76.062 0 49S21.938 0 49 0s49 21.938 49 49-21.938 49-49 49zm-.036-53.359l12.175-3.503a15.097 15.097 0 0 1 3.151 9.222c0 8.436-6.875 15.228-15.254 15.228-8.45 0-15.254-6.863-15.254-15.228 0-3.431 1.145-6.648 3.15-9.222l12.032 3.503zM36.79 37.85l-7.52 1.787v10.938c.501.214.86.786.86 1.358v3.86c0 .859-.717 1.573-1.576 1.573h-1.218c-.86 0-1.575-.714-1.575-1.572v-3.86c0-.573.358-1.073.86-1.36v-12.01c0-.643.429-1.215 1.073-1.358l3.796-.93-9.811-2.787 27.285-7.793L75.82 33.49 48.75 41.28 36.79 37.85z" opacity=".7"/><path fill="#FF5427" d="M21.679 182.76v-2.534c0-7.364 6.015-13.226 13.248-13.226h28.146c7.376 0 13.248 5.862 13.248 13.226v2.534C87.068 174.536 94 161.578 94 147c0-24.853-20.147-45-45-45S4 122.147 4 147c0 14.578 6.932 27.536 17.679 35.76zM49 196c-27.062 0-49-21.938-49-49s21.938-49 49-49 49 21.938 49 49-21.938 49-49 49zm-.036-53.359l12.175-3.503a15.097 15.097 0 0 1 3.151 9.222c0 8.436-6.875 15.228-15.254 15.228-8.45 0-15.254-6.863-15.254-15.228 0-3.431 1.145-6.648 3.15-9.222l12.032 3.503zM36.79 135.85l-7.52 1.787v10.938c.501.214.86.786.86 1.358v3.86c0 .859-.717 1.573-1.576 1.573h-1.218c-.86 0-1.575-.714-1.575-1.572v-3.86c0-.573.358-1.073.86-1.36v-12.01c0-.643.429-1.215 1.073-1.358l3.796-.93-9.811-2.787 27.285-7.793 26.856 7.793-27.07 7.792-11.96-3.431z"/><path fill="#FF5427" d="M135.987 190.643v-8.422c0-4.519 3.685-8.182 8.233-8.182h8.795c4.548 0 8.232 3.663 8.232 8.182v7.477C179.117 183.738 192 166.874 192 147c0-24.853-20.147-45-45-45s-45 20.147-45 45c0 21.053 14.458 38.73 33.987 43.643zM147 196c-27.062 0-49-21.938-49-49s21.938-49 49-49 49 21.938 49 49-21.938 49-49 49zm1.16-24.977c-4.658 0-8.435-3.754-8.435-8.384 0-4.63 3.777-8.384 8.435-8.384 4.659 0 8.435 3.753 8.435 8.384 0 4.63-3.776 8.384-8.435 8.384zm-21.208-19.946c-6.475 0-11.723-5.217-11.723-11.653 0-6.435 5.248-11.652 11.723-11.652 6.475 0 11.723 5.217 11.723 11.652 0 6.436-5.248 11.653-11.723 11.653zm38.022-8.897c-6.475 0-11.723-5.217-11.723-11.652 0-6.436 5.248-11.653 11.723-11.653 6.475 0 11.723 5.217 11.723 11.653 0 6.435-5.248 11.652-11.723 11.652zm6.746 2.499c6.319 0 11.44 5.093 11.44 11.372v22.306l-18.853 12.156-.014-8.291c0-5.298-3.72-9.739-8.696-10.904 2.47-2.095 4.044-5.206 4.044-8.68 0-5.97-4.636-10.875-10.516-11.364a11.436 11.436 0 0 1 10.372-6.595h12.223zm-30.785 26.819c-4.622 1.401-7.995 5.676-7.995 10.723V192.592l-22.904-16.235v-11.41c0-6.28 5.12-11.372 11.439-11.37H133.7c2.122 0 4.103.584 5.806 1.584a11.317 11.317 0 0 0-2.827 7.478c0 3.573 1.662 6.764 4.256 8.859z"/><g fill="#FF5427"><path d="M245 196c-27.062 0-49-21.938-49-49s21.938-49 49-49 49 21.938 49 49-21.938 49-49 49zm-39.265-27c7.707 13.726 22.403 23 39.265 23 24.853 0 45-20.147 45-45s-20.147-45-45-45a44.8 44.8 0 0 0-27.004 9h44.302a5.702 5.702 0 0 1 5.702 5.702v10.373a15.06 15.06 0 0 0-4.278-.616c-8.305 0-15.04 6.723-15.04 15.02 0 3.862 1.46 7.383 3.856 10.043-.62.308-1.204.68-1.741 1.111a7.486 7.486 0 0 0-2.419 2.227l-6.795 8.977-8.363-7.648-.198-.14a7.517 7.517 0 0 0-2.675-1.206l-6.206-18.397a5.244 5.244 0 0 0-4.865-3.279c-.077 0-.077 0-.268.006a4.816 4.816 0 0 0-.58.06 4.305 4.305 0 0 0-1.497.525c-2.193 1.11-3.355 3.684-2.598 6.315l6.644 19.721c-1.137 3.008-.303 6.543 2.256 8.743l.423.463h-17.92z"/><path d="M287.369 171.631a49.195 49.195 0 0 1-22.956 20.373l-13.362 3.564v-24.667l-3.84 4.984c-1.344 2.012-3.648 3.162-6.048 3.162-.48 0-1.056-.095-1.632-.191-1.056-.192-1.92-.671-2.688-1.342l-10.847-11.884c-1.728-1.341-2.016-3.833-.672-5.462l-7.2-21.372c-.192-.67.192-1.341.768-1.533.096-.096.288-.096.384-.096.48 0 .96.288 1.152.767l7.008 20.796c.384-.096.672-.096 1.056-.096.768 0 1.536.192 2.208.671l11.423 10.446 9.504-12.554c.384-.575.864-.958 1.44-1.246a5.665 5.665 0 0 1 3.743-1.437h13.824c1.248 0 2.4.383 3.36 1.054.864.287 1.536.766 2.112 1.533l9.887 12.842 1.248 1.533c.044.051.086.103.128.155zm-10.88 4.733l2.784-2.3-2.783-3.546v5.846zm-12.767-23.863c-6.097 0-11.04-4.934-11.04-11.021 0-6.087 4.943-11.021 11.04-11.021 6.097 0 11.04 4.934 11.04 11.02 0 6.088-4.943 11.022-11.04 11.022z"/></g><path fill="#FFF" d="M135.987 92.643V84.22c0-4.519 3.685-8.182 8.233-8.182h8.795c4.548 0 8.232 3.663 8.232 8.182v7.477C179.117 85.738 192 68.874 192 49c0-24.853-20.147-45-45-45s-45 20.147-45 45c0 21.053 14.458 38.73 33.987 43.643zM147 98c-27.062 0-49-21.938-49-49s21.938-49 49-49 49 21.938 49 49-21.938 49-49 49zm1.16-24.977c-4.658 0-8.435-3.754-8.435-8.384 0-4.63 3.777-8.384 8.435-8.384 4.659 0 8.435 3.753 8.435 8.384 0 4.63-3.776 8.384-8.435 8.384zm-21.208-19.946c-6.475 0-11.723-5.217-11.723-11.653 0-6.435 5.248-11.652 11.723-11.652 6.475 0 11.723 5.217 11.723 11.652 0 6.436-5.248 11.653-11.723 11.653zm38.022-8.897c-6.475 0-11.723-5.217-11.723-11.652 0-6.436 5.248-11.653 11.723-11.653 6.475 0 11.723 5.217 11.723 11.653 0 6.435-5.248 11.652-11.723 11.652zm6.746 2.499c6.319 0 11.44 5.093 11.44 11.372v22.306l-18.853 12.156-.014-8.291c0-5.298-3.72-9.739-8.696-10.904 2.47-2.095 4.044-5.206 4.044-8.68 0-5.97-4.636-10.875-10.516-11.364a11.436 11.436 0 0 1 10.372-6.595h12.223zm-30.785 26.819c-4.622 1.401-7.995 5.676-7.995 10.723V94.592l-22.904-16.235v-11.41c0-6.28 5.12-11.372 11.439-11.37H133.7c2.122 0 4.103.584 5.806 1.584a11.317 11.317 0 0 0-2.827 7.478c0 3.573 1.662 6.764 4.256 8.859z" opacity=".7"/></g></svg>