<svg xmlns="http://www.w3.org/2000/svg" xmlns:xlink="http://www.w3.org/1999/xlink" width="288" height="96" viewBox="0 0 288 96"><defs><circle id="a" cx="24" cy="24" r="24"/><circle id="b" cx="24" cy="24" r="24"/><circle id="c" cx="24" cy="24" r="24"/><path id="d" d="M0 0L23.962 0 23.962 23.959 0 23.959z"/><circle id="f" cx="24" cy="24" r="24"/><circle id="g" cx="24" cy="24" r="24"/><circle id="h" cx="24" cy="24" r="24"/><path id="i" d="M0 0L23.962 0 23.962 23.959 0 23.959z"/></defs><g fill="none" fill-rule="evenodd"><g transform="translate(192)"><use fill="#FFF" xlink:href="#a"/><circle cx="24" cy="24" r="23.5" stroke="#D8D8D8"/><path fill="#F5A623" d="M21.5 29.75a2.25 2.25 0 1 1-4.5 0 2.25 2.25 0 0 1 4.5 0zm-4.5-12c8.014-.3 14.535 6.227 14.25 14.25H35c0-9.926-8.075-18-18-18v3.75zm0 6c2.27-.265 4.405.618 6 2.25 1.616 1.582 2.501 3.722 2.25 6H29c0-6.617-5.383-12-12-12v3.75z"/></g><g transform="translate(240)"><use fill="#FFF" xlink:href="#b"/><circle cx="24" cy="24" r="23.5" stroke="#D8D8D8"/><path fill="#0071A1" d="M34.034 32h-3.736v-5.848c0-1.394-.025-3.187-1.943-3.187-1.943 0-2.24 1.52-2.24 3.088V32h-3.732V19.977h3.58v1.643h.052c.5-.945 1.717-1.941 3.535-1.941 3.785 0 4.484 2.488 4.484 5.727V32zM18.17 18.335A2.168 2.168 0 1 1 18.165 14a2.168 2.168 0 0 1 .005 4.335zM16.297 32h3.741V19.977h-3.741V32z"/></g><g transform="translate(144)"><use fill="#FFF" xlink:href="#c"/><circle cx="24" cy="24" r="23.5" stroke="#D8D8D8"/><g transform="translate(12 12)"><mask id="e" fill="#fff"><use xlink:href="#d"/></mask><path fill="#026597" d="M11.981 0c-3.254 0-3.662.014-4.94.072C5.766.13 4.895.332 4.133.63a5.872 5.872 0 0 0-2.122 1.382A5.872 5.872 0 0 0 .629 4.133C.333 4.895.13 5.766.072 7.041.014 8.32 0 8.727 0 11.981c0 3.254.014 3.662.072 4.94.058 1.275.26 2.146.557 2.908a5.872 5.872 0 0 0 1.382 2.122 5.872 5.872 0 0 0 2.122 1.382c.762.296 1.633.499 2.908.557 1.278.058 1.686.072 4.94.072 3.254 0 3.662-.014 4.94-.072 1.275-.058 2.146-.26 2.908-.557a5.872 5.872 0 0 0 2.122-1.382 5.873 5.873 0 0 0 1.382-2.122c.296-.762.499-1.633.557-2.908.058-1.278.072-1.686.072-4.94 0-3.254-.014-3.662-.072-4.94-.058-1.275-.26-2.146-.557-2.908a5.873 5.873 0 0 0-1.382-2.122A5.872 5.872 0 0 0 19.83.629C19.067.333 18.196.13 16.921.072 15.643.014 15.235 0 11.98 0m0 2.159c3.2 0 3.578.012 4.841.07 1.169.053 1.803.248 2.225.412.56.217.959.477 1.378.896.42.42.679.819.896 1.378.164.422.36 1.057.413 2.225.057 1.263.07 1.642.07 4.841 0 3.2-.013 3.578-.07 4.841-.054 1.169-.249 1.803-.413 2.225a3.71 3.71 0 0 1-.896 1.378 3.71 3.71 0 0 1-1.378.896c-.422.164-1.056.36-2.225.413-1.263.057-1.642.07-4.841.07-3.2 0-3.578-.013-4.841-.07-1.168-.054-1.803-.249-2.225-.413a3.712 3.712 0 0 1-1.378-.896 3.714 3.714 0 0 1-.896-1.378c-.164-.422-.36-1.056-.412-2.225-.058-1.263-.07-1.642-.07-4.841 0-3.199.012-3.578.07-4.841.053-1.168.248-1.803.412-2.225.218-.56.477-.958.896-1.378.42-.419.819-.679 1.378-.896.422-.164 1.057-.36 2.225-.412 1.263-.058 1.642-.07 4.841-.07" mask="url(#e)"/><path fill="#016798" d="M12 15.895a3.895 3.895 0 1 1 0-7.79 3.895 3.895 0 0 1 0 7.79M12 6a6 6 0 1 0 0 12 6 6 0 0 0 0-12"/><path fill="#03649B" d="M18.5 5.75a.75.75 0 1 1-1.5 0 .75.75 0 0 1 1.5 0"/></g></g><g transform="translate(96)"><use fill="#FFF" xlink:href="#f"/><circle cx="24" cy="24" r="23.5" stroke="#D8D8D8"/><path fill="#4267B2" d="M28.5 19.385H25v-1.847c-.076-1.192.508-1.411.875-1.846H28.5V12H25c-3.891 0-4.77 3.067-4.375 4.615v2.77H18V24h2.625v12H25V24h3.5v-4.615z"/></g><g transform="translate(48)"><use fill="#FFF" xlink:href="#g"/><circle cx="24" cy="24" r="23.5" stroke="#D8D8D8"/><path fill="#3995FF" fill-rule="nonzero" d="M32.423 17.744a4.503 4.503 0 0 0 2.057-2.572 8.473 8.473 0 0 1-2.922 1.03A5.433 5.433 0 0 0 28.294 15a4.581 4.581 0 0 0-4.64 4.457 2.17 2.17 0 0 0 .173 1.03 12.54 12.54 0 0 1-9.28-4.63 4.854 4.854 0 0 0-.688 2.229 4.708 4.708 0 0 0 2.063 3.772 4.584 4.584 0 0 1-2.063-.515 4.592 4.592 0 0 0 3.609 4.457c-.35 0-.688.172-1.203.172h-.859a4.49 4.49 0 0 0 4.296 3.085 10.187 10.187 0 0 1-5.67 1.886H13A13.465 13.465 0 0 0 19.874 33 12.854 12.854 0 0 0 29 29.25a12.792 12.792 0 0 0 3.76-9.106v-.515A16.017 16.017 0 0 0 35 17.06a7.215 7.215 0 0 1-2.577.685z"/></g><use fill="#FFF" xlink:href="#h"/><circle cx="24" cy="24" r="23.5" stroke="#D8D8D8"/><path fill="#CD1F20" d="M35.585 17.896c-.294-1.374-1.338-2.387-2.595-2.538-2.975-.358-5.988-.36-8.986-.358-3-.001-6.012 0-8.988.358-1.256.151-2.3 1.164-2.593 2.538C12.005 19.851 12 21.986 12 24c0 2.014 0 4.15.419 6.105.292 1.373 1.336 2.387 2.593 2.538C17.988 33 21 33.002 24 33c3 .002 6.012 0 8.987-.357 1.256-.151 2.3-1.165 2.594-2.538C36 28.15 36 26.014 36 24c0-2.014.004-4.149-.415-6.104zM21 28.5v-9l7.5 4.513L21 28.5z"/><g transform="translate(0 48)"><g transform="translate(192)"><circle cx="24" cy="24" r="24" fill="#F5A623"/><path fill="#FFF" d="M21.5 29.75a2.25 2.25 0 1 1-4.5 0 2.25 2.25 0 0 1 4.5 0zm-4.5-12c8.014-.3 14.535 6.227 14.25 14.25H35c0-9.926-8.075-18-18-18v3.75zm0 6c2.27-.265 4.405.618 6 2.25 1.616 1.582 2.501 3.722 2.25 6H29c0-6.617-5.383-12-12-12v3.75z"/></g><g transform="translate(240)"><circle cx="24" cy="24" r="24" fill="#0071A1"/><path fill="#FFF" d="M34.034 32h-3.736v-5.848c0-1.394-.025-3.187-1.943-3.187-1.943 0-2.24 1.52-2.24 3.088V32h-3.732V19.977h3.58v1.643h.052c.5-.945 1.717-1.941 3.535-1.941 3.785 0 4.484 2.488 4.484 5.727V32zM18.17 18.335A2.168 2.168 0 1 1 18.165 14a2.168 2.168 0 0 1 .005 4.335zM16.297 32h3.741V19.977h-3.741V32z"/></g><g transform="translate(144)"><circle cx="24" cy="24" r="24" fill="#026597"/><g transform="translate(12 12)"><mask id="j" fill="#fff"><use xlink:href="#i"/></mask><path fill="#FFF" d="M11.981 0c-3.254 0-3.662.014-4.94.072C5.766.13 4.895.332 4.133.63a5.872 5.872 0 0 0-2.122 1.382A5.872 5.872 0 0 0 .629 4.133C.333 4.895.13 5.766.072 7.041.014 8.32 0 8.727 0 11.981c0 3.254.014 3.662.072 4.94.058 1.275.26 2.146.557 2.908a5.872 5.872 0 0 0 1.382 2.122 5.872 5.872 0 0 0 2.122 1.382c.762.296 1.633.499 2.908.557 1.278.058 1.686.072 4.94.072 3.254 0 3.662-.014 4.94-.072 1.275-.058 2.146-.26 2.908-.557a5.872 5.872 0 0 0 2.122-1.382 5.873 5.873 0 0 0 1.382-2.122c.296-.762.499-1.633.557-2.908.058-1.278.072-1.686.072-4.94 0-3.254-.014-3.662-.072-4.94-.058-1.275-.26-2.146-.557-2.908a5.873 5.873 0 0 0-1.382-2.122A5.872 5.872 0 0 0 19.83.629C19.067.333 18.196.13 16.921.072 15.643.014 15.235 0 11.98 0m0 2.159c3.2 0 3.578.012 4.841.07 1.169.053 1.803.248 2.225.412.56.217.959.477 1.378.896.42.42.679.819.896 1.378.164.422.36 1.057.413 2.225.057 1.263.07 1.642.07 4.841 0 3.2-.013 3.578-.07 4.841-.054 1.169-.249 1.803-.413 2.225a3.71 3.71 0 0 1-.896 1.378 3.71 3.71 0 0 1-1.378.896c-.422.164-1.056.36-2.225.413-1.263.057-1.642.07-4.841.07-3.2 0-3.578-.013-4.841-.07-1.168-.054-1.803-.249-2.225-.413a3.712 3.712 0 0 1-1.378-.896 3.714 3.714 0 0 1-.896-1.378c-.164-.422-.36-1.056-.412-2.225-.058-1.263-.07-1.642-.07-4.841 0-3.199.012-3.578.07-4.841.053-1.168.248-1.803.412-2.225.218-.56.477-.958.896-1.378.42-.419.819-.679 1.378-.896.422-.164 1.057-.36 2.225-.412 1.263-.058 1.642-.07 4.841-.07" mask="url(#j)"/><path fill="#FFF" d="M12 15.895a3.895 3.895 0 1 1 0-7.79 3.895 3.895 0 0 1 0 7.79M12 6a6 6 0 1 0 0 12 6 6 0 0 0 0-12m6.5-.25a.75.75 0 1 1-1.5 0 .75.75 0 0 1 1.5 0"/></g></g><g transform="translate(96)"><circle cx="24" cy="24" r="24" fill="#4267B2"/><path fill="#FFF" d="M28.5 19.385H25v-1.847c-.076-1.192.508-1.411.875-1.846H28.5V12H25c-3.891 0-4.77 3.067-4.375 4.615v2.77H18V24h2.625v12H25V24h3.5v-4.615z"/></g><g transform="translate(48)"><circle cx="24" cy="24" r="24" fill="#3995FF"/><path fill="#FFF" fill-rule="nonzero" d="M32.423 17.744a4.503 4.503 0 0 0 2.057-2.572 8.473 8.473 0 0 1-2.922 1.03A5.433 5.433 0 0 0 28.294 15a4.581 4.581 0 0 0-4.64 4.457 2.17 2.17 0 0 0 .173 1.03 12.54 12.54 0 0 1-9.28-4.63 4.854 4.854 0 0 0-.688 2.229 4.708 4.708 0 0 0 2.063 3.772 4.584 4.584 0 0 1-2.063-.515 4.592 4.592 0 0 0 3.609 4.457c-.35 0-.688.172-1.203.172h-.859a4.49 4.49 0 0 0 4.296 3.085 10.187 10.187 0 0 1-5.67 1.886H13A13.465 13.465 0 0 0 19.874 33 12.854 12.854 0 0 0 29 29.25a12.792 12.792 0 0 0 3.76-9.106v-.515A16.017 16.017 0 0 0 35 17.06a7.215 7.215 0 0 1-2.577.685z"/></g><circle cx="24" cy="24" r="24" fill="#CD1F20"/><path fill="#FFF" d="M35.585 17.896c-.294-1.374-1.338-2.387-2.595-2.538-2.975-.358-5.988-.36-8.986-.358-3-.001-6.012 0-8.988.358-1.256.151-2.3 1.164-2.593 2.538C12.005 19.851 12 21.986 12 24c0 2.014 0 4.15.419 6.105.292 1.373 1.336 2.387 2.593 2.538C17.988 33 21 33.002 24 33c3 .002 6.012 0 8.987-.357 1.256-.151 2.3-1.165 2.594-2.538C36 28.15 36 26.014 36 24c0-2.014.004-4.149-.415-6.104zM21 28.5v-9l7.5 4.513L21 28.5z"/></g></g></svg>