<svg xmlns="http://www.w3.org/2000/svg" width="109" height="109" viewBox="0 0 109 109"><path fill="#FAB200" d="M31.258 40.161h19.29c.82 0 1.484-.665 1.484-1.484V22.355c0-.82-.664-1.484-1.484-1.484h-19.29c-.819 0-1.484.665-1.484 1.484v16.322c0 .82.665 1.484 1.484 1.484zm0-17.806h19.29v16.322h-19.29V22.355zm26.71-.742c0-.41.334-.742.742-.742h20.774a.743.743 0 0 1 0 1.484H58.71a.743.743 0 0 1-.742-.742zm0 4.451c0-.41.334-.742.742-.742h20.774a.743.743 0 0 1 0 1.484H58.71a.743.743 0 0 1-.742-.742zm0 4.452c0-.41.334-.742.742-.742h20.774a.743.743 0 0 1 0 1.484H58.71a.743.743 0 0 1-.742-.742zm0 4.452c0-.41.334-.742.742-.742h20.774a.743.743 0 0 1 0 1.483H58.71a.743.743 0 0 1-.742-.741zm0 4.451c0-.41.334-.742.742-.742h20.774a.743.743 0 0 1 0 1.484H58.71a.743.743 0 0 1-.742-.742zm0 7.42c0-.41.334-.743.742-.743h20.774a.743.743 0 0 1 0 1.484H58.71a.743.743 0 0 1-.742-.742zm0 4.45c0-.409.334-.741.742-.741h20.774a.743.743 0 0 1 0 1.484H58.71a.743.743 0 0 1-.742-.742zm0 4.453c0-.41.334-.742.742-.742h20.774a.743.743 0 0 1 0 1.483H58.71a.744.744 0 0 1-.742-.741zm0 4.451c0-.408.334-.742.742-.742h20.774c.408 0 .742.334.742.742a.744.744 0 0 1-.742.742H58.71a.744.744 0 0 1-.742-.742zM29.774 46.838c0-.41.333-.742.742-.742H51.29a.742.742 0 0 1 0 1.484H30.516a.742.742 0 0 1-.742-.742zm0 4.452c0-.41.333-.742.742-.742H51.29a.742.742 0 0 1 0 1.484H30.516a.742.742 0 0 1-.742-.742zm0 4.452c0-.41.333-.742.742-.742H51.29a.742.742 0 0 1 0 1.483H30.516a.743.743 0 0 1-.742-.741zm0 4.451c0-.408.333-.742.742-.742H51.29a.743.743 0 0 1 0 1.484H30.516a.743.743 0 0 1-.742-.742zm70.52-6.456c0-.002-.002-.002-.005-.003l-8.193-5.022V10.484c0-.82-.664-1.484-1.483-1.484H19.387c-.819 0-1.483.665-1.483 1.484v37.881L9.67 53.76l.003.003A1.481 1.481 0 0 0 9 55v44.486a1.488 1.488 0 0 0 1.518 1.513h88.997c.847 0 1.504-.702 1.485-1.513V55c0-.515-.268-.992-.705-1.263zm-3.834 1.13l-4.364 2.183v-4.858l4.364 2.676zm-7.331-42.9v46.567l-10.737 5.369H58.71a.744.744 0 0 0-.742.742c0 .408.334.742.742.742h16.714l-5.936 2.967H58.71a.744.744 0 0 0-.742.742c0 .408.334.742.742.742h7.81L55 75.598l-11.52-5.76h7.81a.743.743 0 0 0 0-1.484H40.512l-5.936-2.967H51.29a.743.743 0 0 0 0-1.484H31.608l-10.737-5.369V11.968H89.13zM17.904 57.05l-4.448-2.224 4.448-2.914v5.138zm-5.936.35l5.936 2.968v.073h.146l33.632 16.816-39.714 19.857V57.4zm4.802 40.631L55 78.916l38.23 19.115H16.77zm81.262-.917L58.318 77.257 98.032 57.4v39.714z"/></svg>