<svg xmlns="http://www.w3.org/2000/svg" width="200" height="200" viewBox="0 0 200 200"><g fill="none" fill-rule="evenodd"><circle cx="100" cy="100" r="100" fill="#009FDA"/><g fill-rule="nonzero" transform="translate(56.5 59.7)"><path fill="#FAB200" d="M56.84 65.3h15.452l.181-.77c.737-3.122 3.183-5.575 6.244-6.254l.783-.174V13.428l-.864-.119c-2.886-.396-5.397-2.989-6.163-6.238l-.181-.771H14.708l-.181.77c-.767 3.251-3.278 5.844-6.163 6.24l-.864.118v44.674l.783.174c3.062.68 5.509 3.132 6.244 6.253l.181.771H32.16c.11-.687.278-1.355.496-2H16.26c-1.027-3.232-3.567-5.78-6.761-6.769V15.122c3.131-.793 5.713-3.476 6.762-6.822h54.476c1.048 3.345 3.63 6.028 6.762 6.822v41.41c-3.193.987-5.732 3.536-6.76 6.768H56.344c.218.645.385 1.313.496 2z"/><path fill="#FAB200" d="M56.346 71.284l1.313-.001c.278-.005.694-.009 1.243-.012a929.04 929.04 0 0 1 4.944-.01c4.378 0 10.91.013 19.597.039 1.572-.06 3.057-1.515 3.057-3.03V3.33C86.5 1.786 84.984.3 83.449.3H3.55C2.016.3.5 1.785.5 3.33v64.94c0 1.515 1.485 2.97 3.051 3.03h25.102c.221.023.4.014.834 0l3.171-.002a5.717 5.717 0 0 1-.149-.488l-.026-.098a13.54 13.54 0 0 1-.382-1.884A11.998 11.998 0 0 1 32 67.3h-1.96a3.061 3.061 0 0 0-.466-.027c-.142.002-.244.008-.636.027H4.5v-63h78v62.999c-18.49-.056-23.723-.066-25.333.001H57c0 .498-.034 1.008-.1 1.511-.01.084-.01.084-.017.124a13.118 13.118 0 0 1-.37 1.788l-.022.08a4.968 4.968 0 0 1-.083.292l-.062.189z"/><path fill="#FFF" d="M35.5 21.3H51.5V23.3H35.5z"/><path fill="#FFF" d="M30.5 33.3H56.5V35.3H30.5z"/><path fill="#FFF" d="M25.5 27.3H61.5V29.3H25.5z"/><path fill="#FAB200" d="M53.5 48.3L63.5 48.3 63.5 50.3 53.5 50.3z"/><path fill="#FAB200" d="M24.5 48.3L34.5 48.3 34.5 50.3 24.5 50.3z"/><path d="M38.209 78.65c-.044-.017-.086-.039-.13-.054a16.748 16.748 0 0 1-2.557-1.215c-.124-.072-.243-.147-.364-.222-.325-.202-.646-.41-.957-.633-.121-.088-.24-.18-.359-.27-.305-.23-.603-.468-.892-.718-.036-.033-.078-.06-.114-.093l-2.35 6.29 2.798-.703a1.302 1.302 0 0 1 1.037.18l2.484 1.66 1.404-4.223zm3.498-1.239c.892.246 1.825.389 2.793.389.968 0 1.902-.143 2.792-.389.956-.263 1.86-.662 2.695-1.176a10.517 10.517 0 0 0 2.323-1.943 10.007 10.007 0 0 0 1.238-1.691c.098-.166.192-.334.281-.504.057-.112.11-.226.164-.34.074-.154.15-.308.214-.466.109-.263.208-.53.295-.803.034-.105.06-.213.09-.32.024-.08.043-.163.064-.245.109-.423.189-.845.246-1.263.004-.03.01-.058.013-.09A9.93 9.93 0 0 0 55 67.3c0-5.79-4.71-10.5-10.5-10.5-5.789 0-10.5 4.71-10.5 10.5 0 .417.03.841.085 1.273l.014.087c.057.418.137.84.246 1.263.02.082.04.164.063.245.03.107.056.215.09.32.087.273.185.54.294.803.066.158.14.312.214.466.054.115.107.23.165.341a10.453 10.453 0 0 0 .435.757c.109.174.221.347.342.515a10.768 10.768 0 0 0 2.962 2.802c.033.022.068.042.103.063.834.514 1.739.913 2.694 1.176zm13.01 3.62l2.798.702-2.35-6.29c-.037.033-.077.06-.115.093-.288.25-.587.488-.891.719-.119.09-.237.182-.36.27-.31.222-.63.43-.956.633-.121.074-.242.15-.364.222a17.415 17.415 0 0 1-2.557 1.214c-.044.017-.086.04-.13.055l1.404 4.223 2.484-1.66a1.306 1.306 0 0 1 1.036-.18z" fill="#FFF"/></g></g></svg>